<svg width="1280" height="1486" viewBox="0 0 1280 1486" fill="none" xmlns="http://www.w3.org/2000/svg">
<path d="M449.217 750V724.8H453.969V745.68H465.489V750H449.217ZM473.337 750.504C472.065 750.504 470.925 750.288 469.917 749.856C468.909 749.4 468.105 748.752 467.505 747.912C466.929 747.048 466.641 746.004 466.641 744.78C466.641 743.556 466.929 742.536 467.505 741.72C468.105 740.88 468.921 740.256 469.953 739.848C471.009 739.416 472.209 739.2 473.553 739.2H478.449V738.192C478.449 737.352 478.185 736.668 477.657 736.14C477.129 735.588 476.289 735.312 475.137 735.312C474.009 735.312 473.169 735.576 472.617 736.104C472.065 736.608 471.705 737.268 471.537 738.084L467.361 736.68C467.649 735.768 468.105 734.94 468.729 734.196C469.377 733.428 470.229 732.816 471.285 732.36C472.365 731.88 473.673 731.64 475.209 731.64C477.561 731.64 479.421 732.228 480.789 733.404C482.157 734.58 482.841 736.284 482.841 738.516V745.176C482.841 745.896 483.177 746.256 483.849 746.256H485.289V750H482.265C481.377 750 480.645 749.784 480.069 749.352C479.493 748.92 479.205 748.344 479.205 747.624V747.588H478.521C478.425 747.876 478.209 748.26 477.873 748.74C477.537 749.196 477.009 749.604 476.289 749.964C475.569 750.324 474.585 750.504 473.337 750.504ZM474.129 746.832C475.401 746.832 476.433 746.484 477.225 745.788C478.041 745.068 478.449 744.12 478.449 742.944V742.584H473.877C473.037 742.584 472.377 742.764 471.897 743.124C471.417 743.484 471.177 743.988 471.177 744.636C471.177 745.284 471.429 745.812 471.933 746.22C472.437 746.628 473.169 746.832 474.129 746.832ZM495.442 750V724.8H500.194V735.204H509.554V724.8H514.306V750H509.554V739.524H500.194V750H495.442ZM517.987 750V724.8H528.355C529.939 724.8 531.331 725.124 532.531 725.772C533.755 726.396 534.703 727.284 535.375 728.436C536.071 729.588 536.419 730.956 536.419 732.54V733.044C536.419 734.604 536.059 735.972 535.339 737.148C534.643 738.3 533.683 739.2 532.459 739.848C531.259 740.472 529.891 740.784 528.355 740.784H522.739V750H517.987ZM522.739 736.464H527.887C529.015 736.464 529.927 736.152 530.623 735.528C531.319 734.904 531.667 734.052 531.667 732.972V732.612C531.667 731.532 531.319 730.68 530.623 730.056C529.927 729.432 529.015 729.12 527.887 729.12H522.739V736.464ZM555.442 750.504C553.498 750.504 551.782 750.156 550.294 749.46C548.806 748.764 547.642 747.768 546.802 746.472C545.962 745.176 545.542 743.616 545.542 741.792V740.784H550.222V741.792C550.222 743.304 550.69 744.444 551.626 745.212C552.562 745.956 553.834 746.328 555.442 746.328C557.074 746.328 558.286 746.004 559.078 745.356C559.894 744.708 560.302 743.88 560.302 742.872C560.302 742.176 560.098 741.612 559.69 741.18C559.306 740.748 558.73 740.4 557.962 740.136C557.218 739.848 556.306 739.584 555.226 739.344L554.398 739.164C552.67 738.78 551.182 738.3 549.934 737.724C548.71 737.124 547.762 736.344 547.09 735.384C546.442 734.424 546.118 733.176 546.118 731.64C546.118 730.104 546.478 728.796 547.198 727.716C547.942 726.612 548.974 725.772 550.294 725.196C551.638 724.596 553.21 724.296 555.01 724.296C556.81 724.296 558.406 724.608 559.798 725.232C561.214 725.832 562.318 726.744 563.11 727.968C563.926 729.168 564.334 730.68 564.334 732.504V733.584H559.654V732.504C559.654 731.544 559.462 730.776 559.078 730.2C558.718 729.6 558.19 729.168 557.494 728.904C556.798 728.616 555.97 728.472 555.01 728.472C553.57 728.472 552.502 728.748 551.806 729.3C551.134 729.828 550.798 730.56 550.798 731.496C550.798 732.12 550.954 732.648 551.266 733.08C551.602 733.512 552.094 733.872 552.742 734.16C553.39 734.448 554.218 734.7 555.226 734.916L556.054 735.096C557.854 735.48 559.414 735.972 560.734 736.572C562.078 737.172 563.122 737.964 563.866 738.948C564.61 739.932 564.982 741.192 564.982 742.728C564.982 744.264 564.586 745.62 563.794 746.796C563.026 747.948 561.922 748.86 560.482 749.532C559.066 750.18 557.386 750.504 555.442 750.504ZM567.59 757.2V732.144H572.054V734.304H572.702C573.11 733.608 573.746 732.996 574.61 732.468C575.474 731.916 576.71 731.64 578.318 731.64C579.758 731.64 581.09 732 582.314 732.72C583.538 733.416 584.522 734.448 585.266 735.816C586.01 737.184 586.382 738.84 586.382 740.784V741.36C586.382 743.304 586.01 744.96 585.266 746.328C584.522 747.696 583.538 748.74 582.314 749.46C581.09 750.156 579.758 750.504 578.318 750.504C577.238 750.504 576.326 750.372 575.582 750.108C574.862 749.868 574.274 749.556 573.818 749.172C573.386 748.764 573.038 748.356 572.774 747.948H572.126V757.2H567.59ZM576.95 746.544C578.366 746.544 579.53 746.1 580.442 745.212C581.378 744.3 581.846 742.98 581.846 741.252V740.892C581.846 739.164 581.378 737.856 580.442 736.968C579.506 736.056 578.342 735.6 576.95 735.6C575.558 735.6 574.394 736.056 573.458 736.968C572.522 737.856 572.054 739.164 572.054 740.892V741.252C572.054 742.98 572.522 744.3 573.458 745.212C574.394 746.1 575.558 746.544 576.95 746.544ZM589.467 750V732.144H593.931V734.16H594.579C594.843 733.44 595.275 732.912 595.875 732.576C596.499 732.24 597.219 732.072 598.035 732.072H600.195V736.104H597.963C596.811 736.104 595.863 736.416 595.119 737.04C594.375 737.64 594.003 738.576 594.003 739.848V750H589.467ZM610.524 750.504C608.748 750.504 607.152 750.144 605.736 749.424C604.32 748.704 603.204 747.66 602.388 746.292C601.572 744.924 601.164 743.28 601.164 741.36V740.784C601.164 738.864 601.572 737.22 602.388 735.852C603.204 734.484 604.32 733.44 605.736 732.72C607.152 732 608.748 731.64 610.524 731.64C612.3 731.64 613.896 732 615.312 732.72C616.728 733.44 617.844 734.484 618.66 735.852C619.476 737.22 619.884 738.864 619.884 740.784V741.36C619.884 743.28 619.476 744.924 618.66 746.292C617.844 747.66 616.728 748.704 615.312 749.424C613.896 750.144 612.3 750.504 610.524 750.504ZM610.524 746.472C611.916 746.472 613.068 746.028 613.98 745.14C614.892 744.228 615.348 742.932 615.348 741.252V740.892C615.348 739.212 614.892 737.928 613.98 737.04C613.092 736.128 611.94 735.672 610.524 735.672C609.132 735.672 607.98 736.128 607.068 737.04C606.156 737.928 605.7 739.212 605.7 740.892V741.252C605.7 742.932 606.156 744.228 607.068 745.14C607.98 746.028 609.132 746.472 610.524 746.472ZM631.379 750.504C629.651 750.504 628.079 750.144 626.663 749.424C625.271 748.704 624.167 747.66 623.351 746.292C622.535 744.924 622.127 743.268 622.127 741.324V740.82C622.127 738.876 622.535 737.22 623.351 735.852C624.167 734.484 625.271 733.44 626.663 732.72C628.079 732 629.651 731.64 631.379 731.64C633.083 731.64 634.547 731.94 635.771 732.54C636.995 733.14 637.979 733.968 638.723 735.024C639.491 736.056 639.995 737.232 640.235 738.552L635.843 739.488C635.747 738.768 635.531 738.12 635.195 737.544C634.859 736.968 634.379 736.512 633.755 736.176C633.155 735.84 632.399 735.672 631.487 735.672C630.575 735.672 629.747 735.876 629.003 736.284C628.283 736.668 627.707 737.256 627.275 738.048C626.867 738.816 626.663 739.764 626.663 740.892V741.252C626.663 742.38 626.867 743.34 627.275 744.132C627.707 744.9 628.283 745.488 629.003 745.896C629.747 746.28 630.575 746.472 631.487 746.472C632.855 746.472 633.887 746.124 634.583 745.428C635.303 744.708 635.759 743.772 635.951 742.62L640.343 743.664C640.031 744.936 639.491 746.1 638.723 747.156C637.979 748.188 636.995 749.004 635.771 749.604C634.547 750.204 633.083 750.504 631.379 750.504ZM643.004 750V724.8H647.54V738.732H648.188L654.092 732.144H659.996L651.752 740.784L660.284 750H654.452L648.188 742.908H647.54V750H643.004ZM669.291 750.504C667.515 750.504 665.943 750.132 664.575 749.388C663.231 748.62 662.175 747.552 661.407 746.184C660.663 744.792 660.291 743.16 660.291 741.288V740.856C660.291 738.984 660.663 737.364 661.407 735.996C662.151 734.604 663.195 733.536 664.539 732.792C665.883 732.024 667.443 731.64 669.219 731.64C670.971 731.64 672.495 732.036 673.791 732.828C675.087 733.596 676.095 734.676 676.815 736.068C677.535 737.436 677.895 739.032 677.895 740.856V742.404H664.899C664.947 743.628 665.403 744.624 666.267 745.392C667.131 746.16 668.187 746.544 669.435 746.544C670.707 746.544 671.643 746.268 672.243 745.716C672.843 745.164 673.299 744.552 673.611 743.88L677.319 745.824C676.983 746.448 676.491 747.132 675.843 747.876C675.219 748.596 674.379 749.22 673.323 749.748C672.267 750.252 670.923 750.504 669.291 750.504ZM664.935 739.02H673.287C673.191 737.988 672.771 737.16 672.027 736.536C671.307 735.912 670.359 735.6 669.183 735.6C667.959 735.6 666.987 735.912 666.267 736.536C665.547 737.16 665.103 737.988 664.935 739.02ZM687.095 750C685.919 750 684.959 749.64 684.215 748.92C683.495 748.176 683.135 747.192 683.135 745.968V735.888H678.671V732.144H683.135V726.6H687.671V732.144H692.567V735.888H687.671V745.176C687.671 745.896 688.007 746.256 688.679 746.256H692.135V750H687.095ZM703.653 750V732.144H708.189V750H703.653ZM705.921 730.056C705.105 730.056 704.409 729.792 703.833 729.264C703.281 728.736 703.005 728.04 703.005 727.176C703.005 726.312 703.281 725.616 703.833 725.088C704.409 724.56 705.105 724.296 705.921 724.296C706.761 724.296 707.457 724.56 708.009 725.088C708.561 725.616 708.837 726.312 708.837 727.176C708.837 728.04 708.561 728.736 708.009 729.264C707.457 729.792 706.761 730.056 705.921 730.056ZM712.136 750V732.144H716.6V734.088H717.248C717.56 733.488 718.076 732.972 718.796 732.54C719.516 732.084 720.464 731.856 721.64 731.856C722.912 731.856 723.932 732.108 724.7 732.612C725.468 733.092 726.056 733.728 726.464 734.52H727.112C727.52 733.752 728.096 733.116 728.84 732.612C729.584 732.108 730.64 731.856 732.008 731.856C733.112 731.856 734.108 732.096 734.996 732.576C735.908 733.032 736.628 733.74 737.156 734.7C737.708 735.636 737.984 736.824 737.984 738.264V750H733.448V738.588C733.448 737.604 733.196 736.872 732.692 736.392C732.188 735.888 731.48 735.636 730.568 735.636C729.536 735.636 728.732 735.972 728.156 736.644C727.604 737.292 727.328 738.228 727.328 739.452V750H722.792V738.588C722.792 737.604 722.54 736.872 722.036 736.392C721.532 735.888 720.824 735.636 719.912 735.636C718.88 735.636 718.076 735.972 717.5 736.644C716.948 737.292 716.672 738.228 716.672 739.452V750H712.136ZM741.782 757.2V732.144H746.246V734.304H746.894C747.302 733.608 747.938 732.996 748.802 732.468C749.666 731.916 750.902 731.64 752.51 731.64C753.95 731.64 755.282 732 756.506 732.72C757.73 733.416 758.714 734.448 759.458 735.816C760.202 737.184 760.574 738.84 760.574 740.784V741.36C760.574 743.304 760.202 744.96 759.458 746.328C758.714 747.696 757.73 748.74 756.506 749.46C755.282 750.156 753.95 750.504 752.51 750.504C751.43 750.504 750.518 750.372 749.774 750.108C749.054 749.868 748.466 749.556 748.01 749.172C747.578 748.764 747.23 748.356 746.966 747.948H746.318V757.2H741.782ZM751.142 746.544C752.558 746.544 753.722 746.1 754.634 745.212C755.57 744.3 756.038 742.98 756.038 741.252V740.892C756.038 739.164 755.57 737.856 754.634 736.968C753.698 736.056 752.534 735.6 751.142 735.6C749.75 735.6 748.586 736.056 747.65 736.968C746.714 737.856 746.246 739.164 746.246 740.892V741.252C746.246 742.98 746.714 744.3 747.65 745.212C748.586 746.1 749.75 746.544 751.142 746.544ZM763.659 750V732.144H768.123V734.16H768.771C769.035 733.44 769.467 732.912 770.067 732.576C770.691 732.24 771.411 732.072 772.227 732.072H774.387V736.104H772.155C771.003 736.104 770.055 736.416 769.311 737.04C768.567 737.64 768.195 738.576 768.195 739.848V750H763.659ZM776.853 750V732.144H781.389V750H776.853ZM779.121 730.056C778.305 730.056 777.609 729.792 777.033 729.264C776.481 728.736 776.205 728.04 776.205 727.176C776.205 726.312 776.481 725.616 777.033 725.088C777.609 724.56 778.305 724.296 779.121 724.296C779.961 724.296 780.657 724.56 781.209 725.088C781.761 725.616 782.037 726.312 782.037 727.176C782.037 728.04 781.761 728.736 781.209 729.264C780.657 729.792 779.961 730.056 779.121 730.056ZM785.335 750V732.144H789.799V734.088H790.447C790.759 733.488 791.275 732.972 791.995 732.54C792.715 732.084 793.663 731.856 794.839 731.856C796.111 731.856 797.131 732.108 797.899 732.612C798.667 733.092 799.255 733.728 799.663 734.52H800.311C800.719 733.752 801.295 733.116 802.039 732.612C802.783 732.108 803.839 731.856 805.207 731.856C806.311 731.856 807.307 732.096 808.195 732.576C809.107 733.032 809.827 733.74 810.355 734.7C810.907 735.636 811.183 736.824 811.183 738.264V750H806.647V738.588C806.647 737.604 806.395 736.872 805.891 736.392C805.387 735.888 804.679 735.636 803.767 735.636C802.735 735.636 801.931 735.972 801.355 736.644C800.803 737.292 800.527 738.228 800.527 739.452V750H795.991V738.588C795.991 737.604 795.739 736.872 795.235 736.392C794.731 735.888 794.023 735.636 793.111 735.636C792.079 735.636 791.275 735.972 790.699 736.644C790.147 737.292 789.871 738.228 789.871 739.452V750H785.335ZM823.118 750.504C821.342 750.504 819.77 750.132 818.402 749.388C817.058 748.62 816.002 747.552 815.234 746.184C814.49 744.792 814.118 743.16 814.118 741.288V740.856C814.118 738.984 814.49 737.364 815.234 735.996C815.978 734.604 817.022 733.536 818.366 732.792C819.71 732.024 821.27 731.64 823.046 731.64C824.798 731.64 826.322 732.036 827.618 732.828C828.914 733.596 829.922 734.676 830.642 736.068C831.362 737.436 831.722 739.032 831.722 740.856V742.404H818.726C818.774 743.628 819.23 744.624 820.094 745.392C820.958 746.16 822.014 746.544 823.262 746.544C824.534 746.544 825.47 746.268 826.07 745.716C826.67 745.164 827.126 744.552 827.438 743.88L831.146 745.824C830.81 746.448 830.318 747.132 829.67 747.876C829.046 748.596 828.206 749.22 827.15 749.748C826.094 750.252 824.75 750.504 823.118 750.504ZM818.762 739.02H827.114C827.018 737.988 826.598 737.16 825.854 736.536C825.134 735.912 824.186 735.6 823.01 735.6C821.786 735.6 820.814 735.912 820.094 736.536C819.374 737.16 818.93 737.988 818.762 739.02ZM452.623 787V769.144H457.087V771.088H457.735C458.047 770.488 458.563 769.972 459.283 769.54C460.003 769.084 460.951 768.856 462.127 768.856C463.399 768.856 464.419 769.108 465.187 769.612C465.955 770.092 466.543 770.728 466.951 771.52H467.599C468.007 770.752 468.583 770.116 469.327 769.612C470.071 769.108 471.127 768.856 472.495 768.856C473.599 768.856 474.595 769.096 475.483 769.576C476.395 770.032 477.115 770.74 477.643 771.7C478.195 772.636 478.471 773.824 478.471 775.264V787H473.935V775.588C473.935 774.604 473.683 773.872 473.179 773.392C472.675 772.888 471.967 772.636 471.055 772.636C470.023 772.636 469.219 772.972 468.643 773.644C468.091 774.292 467.815 775.228 467.815 776.452V787H463.279V775.588C463.279 774.604 463.027 773.872 462.523 773.392C462.019 772.888 461.311 772.636 460.399 772.636C459.367 772.636 458.563 772.972 457.987 773.644C457.435 774.292 457.159 775.228 457.159 776.452V787H452.623ZM490.765 787.504C488.989 787.504 487.393 787.144 485.977 786.424C484.561 785.704 483.445 784.66 482.629 783.292C481.813 781.924 481.405 780.28 481.405 778.36V777.784C481.405 775.864 481.813 774.22 482.629 772.852C483.445 771.484 484.561 770.44 485.977 769.72C487.393 769 488.989 768.64 490.765 768.64C492.541 768.64 494.137 769 495.553 769.72C496.969 770.44 498.085 771.484 498.901 772.852C499.717 774.22 500.125 775.864 500.125 777.784V778.36C500.125 780.28 499.717 781.924 498.901 783.292C498.085 784.66 496.969 785.704 495.553 786.424C494.137 787.144 492.541 787.504 490.765 787.504ZM490.765 783.472C492.157 783.472 493.309 783.028 494.221 782.14C495.133 781.228 495.589 779.932 495.589 778.252V777.892C495.589 776.212 495.133 774.928 494.221 774.04C493.333 773.128 492.181 772.672 490.765 772.672C489.373 772.672 488.221 773.128 487.309 774.04C486.397 774.928 485.941 776.212 485.941 777.892V778.252C485.941 779.932 486.397 781.228 487.309 782.14C488.221 783.028 489.373 783.472 490.765 783.472ZM503.232 787V769.144H507.696V771.088H508.344C508.656 770.488 509.172 769.972 509.892 769.54C510.612 769.084 511.56 768.856 512.736 768.856C514.008 768.856 515.028 769.108 515.796 769.612C516.564 770.092 517.152 770.728 517.56 771.52H518.208C518.616 770.752 519.192 770.116 519.936 769.612C520.68 769.108 521.736 768.856 523.104 768.856C524.208 768.856 525.204 769.096 526.092 769.576C527.004 770.032 527.724 770.74 528.252 771.7C528.804 772.636 529.08 773.824 529.08 775.264V787H524.544V775.588C524.544 774.604 524.292 773.872 523.788 773.392C523.284 772.888 522.576 772.636 521.664 772.636C520.632 772.636 519.828 772.972 519.252 773.644C518.7 774.292 518.424 775.228 518.424 776.452V787H513.888V775.588C513.888 774.604 513.636 773.872 513.132 773.392C512.628 772.888 511.92 772.636 511.008 772.636C509.976 772.636 509.172 772.972 508.596 773.644C508.044 774.292 507.768 775.228 507.768 776.452V787H503.232ZM541.015 787.504C539.239 787.504 537.667 787.132 536.299 786.388C534.955 785.62 533.899 784.552 533.131 783.184C532.387 781.792 532.015 780.16 532.015 778.288V777.856C532.015 775.984 532.387 774.364 533.131 772.996C533.875 771.604 534.919 770.536 536.263 769.792C537.607 769.024 539.167 768.64 540.943 768.64C542.695 768.64 544.219 769.036 545.515 769.828C546.811 770.596 547.819 771.676 548.539 773.068C549.259 774.436 549.619 776.032 549.619 777.856V779.404H536.623C536.671 780.628 537.127 781.624 537.991 782.392C538.855 783.16 539.911 783.544 541.159 783.544C542.431 783.544 543.367 783.268 543.967 782.716C544.567 782.164 545.023 781.552 545.335 780.88L549.043 782.824C548.707 783.448 548.215 784.132 547.567 784.876C546.943 785.596 546.103 786.22 545.047 786.748C543.991 787.252 542.647 787.504 541.015 787.504ZM536.659 776.02H545.011C544.915 774.988 544.495 774.16 543.751 773.536C543.031 772.912 542.083 772.6 540.907 772.6C539.683 772.6 538.711 772.912 537.991 773.536C537.271 774.16 536.827 774.988 536.659 776.02ZM552.576 787V769.144H557.04V771.484H557.688C557.976 770.86 558.516 770.272 559.308 769.72C560.1 769.144 561.3 768.856 562.908 768.856C564.3 768.856 565.512 769.18 566.544 769.828C567.6 770.452 568.416 771.328 568.992 772.456C569.568 773.56 569.856 774.856 569.856 776.344V787H565.32V776.704C565.32 775.36 564.984 774.352 564.312 773.68C563.664 773.008 562.728 772.672 561.504 772.672C560.112 772.672 559.032 773.14 558.264 774.076C557.496 774.988 557.112 776.272 557.112 777.928V787H552.576ZM580.028 787C578.852 787 577.892 786.64 577.148 785.92C576.428 785.176 576.068 784.192 576.068 782.968V772.888H571.604V769.144H576.068V763.6H580.604V769.144H585.5V772.888H580.604V782.176C580.604 782.896 580.94 783.256 581.612 783.256H585.068V787H580.028ZM596.389 787.504C594.613 787.504 593.017 787.144 591.601 786.424C590.185 785.704 589.069 784.66 588.253 783.292C587.437 781.924 587.029 780.28 587.029 778.36V777.784C587.029 775.864 587.437 774.22 588.253 772.852C589.069 771.484 590.185 770.44 591.601 769.72C593.017 769 594.613 768.64 596.389 768.64C598.165 768.64 599.761 769 601.177 769.72C602.593 770.44 603.709 771.484 604.525 772.852C605.341 774.22 605.749 775.864 605.749 777.784V778.36C605.749 780.28 605.341 781.924 604.525 783.292C603.709 784.66 602.593 785.704 601.177 786.424C599.761 787.144 598.165 787.504 596.389 787.504ZM596.389 783.472C597.781 783.472 598.933 783.028 599.845 782.14C600.757 781.228 601.213 779.932 601.213 778.252V777.892C601.213 776.212 600.757 774.928 599.845 774.04C598.957 773.128 597.805 772.672 596.389 772.672C594.997 772.672 593.845 773.128 592.933 774.04C592.021 774.928 591.565 776.212 591.565 777.892V778.252C591.565 779.932 592.021 781.228 592.933 782.14C593.845 783.028 594.997 783.472 596.389 783.472ZM616.272 787.504C613.944 787.504 612.036 787 610.548 785.992C609.06 784.984 608.16 783.544 607.848 781.672L612.024 780.592C612.192 781.432 612.468 782.092 612.852 782.572C613.26 783.052 613.752 783.4 614.328 783.616C614.928 783.808 615.576 783.904 616.272 783.904C617.328 783.904 618.108 783.724 618.612 783.364C619.116 782.98 619.368 782.512 619.368 781.96C619.368 781.408 619.128 780.988 618.648 780.7C618.168 780.388 617.4 780.136 616.344 779.944L615.336 779.764C614.088 779.524 612.948 779.2 611.916 778.792C610.884 778.36 610.056 777.772 609.432 777.028C608.808 776.284 608.496 775.324 608.496 774.148C608.496 772.372 609.144 771.016 610.44 770.08C611.736 769.12 613.44 768.64 615.552 768.64C617.544 768.64 619.2 769.084 620.52 769.972C621.84 770.86 622.704 772.024 623.112 773.464L618.9 774.76C618.708 773.848 618.312 773.2 617.712 772.816C617.136 772.432 616.416 772.24 615.552 772.24C614.688 772.24 614.028 772.396 613.572 772.708C613.116 772.996 612.888 773.404 612.888 773.932C612.888 774.508 613.128 774.94 613.608 775.228C614.088 775.492 614.736 775.696 615.552 775.84L616.56 776.02C617.904 776.26 619.116 776.584 620.196 776.992C621.3 777.376 622.164 777.94 622.788 778.684C623.436 779.404 623.76 780.388 623.76 781.636C623.76 783.508 623.076 784.96 621.708 785.992C620.364 787 618.552 787.504 616.272 787.504ZM634.715 787V769.144H639.251V787H634.715ZM636.983 767.056C636.167 767.056 635.471 766.792 634.895 766.264C634.343 765.736 634.067 765.04 634.067 764.176C634.067 763.312 634.343 762.616 634.895 762.088C635.471 761.56 636.167 761.296 636.983 761.296C637.823 761.296 638.519 761.56 639.071 762.088C639.623 762.616 639.899 763.312 639.899 764.176C639.899 765.04 639.623 765.736 639.071 766.264C638.519 766.792 637.823 767.056 636.983 767.056ZM643.198 787V769.144H647.662V771.484H648.31C648.598 770.86 649.138 770.272 649.93 769.72C650.722 769.144 651.922 768.856 653.53 768.856C654.922 768.856 656.134 769.18 657.166 769.828C658.222 770.452 659.038 771.328 659.614 772.456C660.19 773.56 660.478 774.856 660.478 776.344V787H655.942V776.704C655.942 775.36 655.606 774.352 654.934 773.68C654.286 773.008 653.35 772.672 652.126 772.672C650.734 772.672 649.654 773.14 648.886 774.076C648.118 774.988 647.734 776.272 647.734 777.928V787H643.198ZM672.797 787.504C671.021 787.504 669.425 787.144 668.009 786.424C666.593 785.704 665.477 784.66 664.661 783.292C663.845 781.924 663.437 780.28 663.437 778.36V777.784C663.437 775.864 663.845 774.22 664.661 772.852C665.477 771.484 666.593 770.44 668.009 769.72C669.425 769 671.021 768.64 672.797 768.64C674.573 768.64 676.169 769 677.585 769.72C679.001 770.44 680.117 771.484 680.933 772.852C681.749 774.22 682.157 775.864 682.157 777.784V778.36C682.157 780.28 681.749 781.924 680.933 783.292C680.117 784.66 679.001 785.704 677.585 786.424C676.169 787.144 674.573 787.504 672.797 787.504ZM672.797 783.472C674.189 783.472 675.341 783.028 676.253 782.14C677.165 781.228 677.621 779.932 677.621 778.252V777.892C677.621 776.212 677.165 774.928 676.253 774.04C675.365 773.128 674.213 772.672 672.797 772.672C671.405 772.672 670.253 773.128 669.341 774.04C668.429 774.928 667.973 776.212 667.973 777.892V778.252C667.973 779.932 668.429 781.228 669.341 782.14C670.253 783.028 671.405 783.472 672.797 783.472ZM685.264 787V761.8H689.8V787H685.264ZM697.491 787L691.803 769.144H696.627L700.767 783.688H701.415L705.555 769.144H710.379L704.691 787H697.491ZM712.389 787V769.144H716.925V787H712.389ZM714.657 767.056C713.841 767.056 713.145 766.792 712.569 766.264C712.017 765.736 711.741 765.04 711.741 764.176C711.741 763.312 712.017 762.616 712.569 762.088C713.145 761.56 713.841 761.296 714.657 761.296C715.497 761.296 716.193 761.56 716.745 762.088C717.297 762.616 717.573 763.312 717.573 764.176C717.573 765.04 717.297 765.736 716.745 766.264C716.193 766.792 715.497 767.056 714.657 767.056ZM728.072 787.504C726.656 787.504 725.324 787.156 724.076 786.46C722.852 785.74 721.868 784.696 721.124 783.328C720.38 781.96 720.008 780.304 720.008 778.36V777.784C720.008 775.84 720.38 774.184 721.124 772.816C721.868 771.448 722.852 770.416 724.076 769.72C725.3 769 726.632 768.64 728.072 768.64C729.152 768.64 730.052 768.772 730.772 769.036C731.516 769.276 732.116 769.588 732.572 769.972C733.028 770.356 733.376 770.764 733.616 771.196H734.264V761.8H738.8V787H734.336V784.84H733.688C733.28 785.512 732.644 786.124 731.78 786.676C730.94 787.228 729.704 787.504 728.072 787.504ZM729.44 783.544C730.832 783.544 731.996 783.1 732.932 782.212C733.868 781.3 734.336 779.98 734.336 778.252V777.892C734.336 776.164 733.868 774.856 732.932 773.968C732.02 773.056 730.856 772.6 729.44 772.6C728.048 772.6 726.884 773.056 725.948 773.968C725.012 774.856 724.544 776.164 724.544 777.892V778.252C724.544 779.98 725.012 781.3 725.948 782.212C726.884 783.1 728.048 783.544 729.44 783.544ZM748.293 787.504C747.021 787.504 745.881 787.288 744.873 786.856C743.865 786.4 743.061 785.752 742.461 784.912C741.885 784.048 741.597 783.004 741.597 781.78C741.597 780.556 741.885 779.536 742.461 778.72C743.061 777.88 743.877 777.256 744.909 776.848C745.965 776.416 747.165 776.2 748.509 776.2H753.405V775.192C753.405 774.352 753.141 773.668 752.613 773.14C752.085 772.588 751.245 772.312 750.093 772.312C748.965 772.312 748.125 772.576 747.573 773.104C747.021 773.608 746.661 774.268 746.493 775.084L742.317 773.68C742.605 772.768 743.061 771.94 743.685 771.196C744.333 770.428 745.185 769.816 746.241 769.36C747.321 768.88 748.629 768.64 750.165 768.64C752.517 768.64 754.377 769.228 755.745 770.404C757.113 771.58 757.797 773.284 757.797 775.516V782.176C757.797 782.896 758.133 783.256 758.805 783.256H760.245V787H757.221C756.333 787 755.601 786.784 755.025 786.352C754.449 785.92 754.161 785.344 754.161 784.624V784.588H753.477C753.381 784.876 753.165 785.26 752.829 785.74C752.493 786.196 751.965 786.604 751.245 786.964C750.525 787.324 749.541 787.504 748.293 787.504ZM749.085 783.832C750.357 783.832 751.389 783.484 752.181 782.788C752.997 782.068 753.405 781.12 753.405 779.944V779.584H748.833C747.993 779.584 747.333 779.764 746.853 780.124C746.373 780.484 746.133 780.988 746.133 781.636C746.133 782.284 746.385 782.812 746.889 783.22C747.393 783.628 748.125 783.832 749.085 783.832ZM773.209 787.504C771.601 787.504 770.365 787.228 769.501 786.676C768.637 786.124 768.001 785.512 767.593 784.84H766.945V787H762.481V761.8H767.017V771.196H767.665C767.929 770.764 768.277 770.356 768.709 769.972C769.165 769.588 769.753 769.276 770.473 769.036C771.217 768.772 772.129 768.64 773.209 768.64C774.649 768.64 775.981 769 777.205 769.72C778.429 770.416 779.413 771.448 780.157 772.816C780.901 774.184 781.273 775.84 781.273 777.784V778.36C781.273 780.304 780.901 781.96 780.157 783.328C779.413 784.696 778.429 785.74 777.205 786.46C775.981 787.156 774.649 787.504 773.209 787.504ZM771.841 783.544C773.233 783.544 774.397 783.1 775.333 782.212C776.269 781.3 776.737 779.98 776.737 778.252V777.892C776.737 776.164 776.269 774.856 775.333 773.968C774.421 773.056 773.257 772.6 771.841 772.6C770.449 772.6 769.285 773.056 768.349 773.968C767.413 774.856 766.945 776.164 766.945 777.892V778.252C766.945 779.98 767.413 781.3 768.349 782.212C769.285 783.1 770.449 783.544 771.841 783.544ZM784.359 787V761.8H788.895V787H784.359ZM800.977 787.504C799.201 787.504 797.629 787.132 796.261 786.388C794.917 785.62 793.861 784.552 793.093 783.184C792.349 781.792 791.977 780.16 791.977 778.288V777.856C791.977 775.984 792.349 774.364 793.093 772.996C793.837 771.604 794.881 770.536 796.225 769.792C797.569 769.024 799.129 768.64 800.905 768.64C802.657 768.64 804.181 769.036 805.477 769.828C806.773 770.596 807.781 771.676 808.501 773.068C809.221 774.436 809.581 776.032 809.581 777.856V779.404H796.585C796.633 780.628 797.089 781.624 797.953 782.392C798.817 783.16 799.873 783.544 801.121 783.544C802.393 783.544 803.329 783.268 803.929 782.716C804.529 782.164 804.985 781.552 805.297 780.88L809.005 782.824C808.669 783.448 808.177 784.132 807.529 784.876C806.905 785.596 806.065 786.22 805.009 786.748C803.953 787.252 802.609 787.504 800.977 787.504ZM796.621 776.02H804.973C804.877 774.988 804.457 774.16 803.713 773.536C802.993 772.912 802.045 772.6 800.869 772.6C799.645 772.6 798.673 772.912 797.953 773.536C797.233 774.16 796.789 774.988 796.621 776.02ZM819.954 787.504C817.626 787.504 815.718 787 814.23 785.992C812.742 784.984 811.842 783.544 811.53 781.672L815.706 780.592C815.874 781.432 816.15 782.092 816.534 782.572C816.942 783.052 817.434 783.4 818.01 783.616C818.61 783.808 819.258 783.904 819.954 783.904C821.01 783.904 821.79 783.724 822.294 783.364C822.798 782.98 823.05 782.512 823.05 781.96C823.05 781.408 822.81 780.988 822.33 780.7C821.85 780.388 821.082 780.136 820.026 779.944L819.018 779.764C817.77 779.524 816.63 779.2 815.598 778.792C814.566 778.36 813.738 777.772 813.114 777.028C812.49 776.284 812.178 775.324 812.178 774.148C812.178 772.372 812.826 771.016 814.122 770.08C815.418 769.12 817.122 768.64 819.234 768.64C821.226 768.64 822.882 769.084 824.202 769.972C825.522 770.86 826.386 772.024 826.794 773.464L822.582 774.76C822.39 773.848 821.994 773.2 821.394 772.816C820.818 772.432 820.098 772.24 819.234 772.24C818.37 772.24 817.71 772.396 817.254 772.708C816.798 772.996 816.57 773.404 816.57 773.932C816.57 774.508 816.81 774.94 817.29 775.228C817.77 775.492 818.418 775.696 819.234 775.84L820.242 776.02C821.586 776.26 822.798 776.584 823.878 776.992C824.982 777.376 825.846 777.94 826.47 778.684C827.118 779.404 827.442 780.388 827.442 781.636C827.442 783.508 826.758 784.96 825.39 785.992C824.046 787 822.234 787.504 819.954 787.504Z" fill="url(#paint0_linear_394_653)"/>
<defs>
<linearGradient id="paint0_linear_394_653" x1="417" y1="756" x2="862" y2="756" gradientUnits="userSpaceOnUse">
<stop offset="0.182692" stop-color="#58286A"/>
<stop offset="0.600962" stop-color="#DBA0E7"/>
<stop offset="0.826923" stop-color="#C29CCB"/>
</linearGradient>
</defs>
</svg>
