<svg width="1280" height="639" viewBox="0 0 1280 639" fill="none" xmlns="http://www.w3.org/2000/svg">
<path d="M482.368 52.704C480.664 52.704 479.14 52.392 477.796 51.768C476.476 51.144 475.432 50.28 474.664 49.176C473.896 48.072 473.512 46.8 473.512 45.36C473.512 43.92 473.776 42.744 474.304 41.832C474.832 40.896 475.492 40.14 476.284 39.564C477.1 38.988 477.928 38.508 478.768 38.124L479.38 37.836C479.812 37.644 480.112 37.416 480.28 37.152C480.448 36.864 480.532 36.456 480.532 35.928V35.424H485.284V36.144C485.284 37.368 485.044 38.376 484.564 39.168C484.084 39.96 483.28 40.62 482.152 41.148L481.54 41.436C480.46 41.94 479.632 42.48 479.056 43.056C478.48 43.608 478.192 44.376 478.192 45.36C478.192 46.056 478.36 46.644 478.696 47.124C479.056 47.628 479.548 48.012 480.172 48.276C480.796 48.54 481.528 48.672 482.368 48.672C483.232 48.672 484 48.528 484.672 48.24C485.368 47.952 485.908 47.52 486.292 46.944C486.7 46.368 486.904 45.648 486.904 44.784V43.992H491.584V44.712C491.584 46.368 491.176 47.784 490.36 48.96C489.544 50.16 488.44 51.084 487.048 51.732C485.656 52.38 484.096 52.704 482.368 52.704ZM482.764 26.64C483.748 26.64 484.564 26.964 485.212 27.612C485.86 28.236 486.184 29.052 486.184 30.06C486.184 31.068 485.86 31.896 485.212 32.544C484.564 33.168 483.748 33.48 482.764 33.48C481.804 33.48 480.988 33.168 480.316 32.544C479.668 31.896 479.344 31.068 479.344 30.06C479.344 29.052 479.668 28.236 480.316 27.612C480.988 26.964 481.804 26.64 482.764 26.64ZM503.901 45.504C500.733 45.504 498.213 44.64 496.341 42.912C494.469 41.16 493.533 38.664 493.533 35.424V29.376C493.533 26.136 494.469 23.652 496.341 21.924C498.213 20.172 500.733 19.296 503.901 19.296C507.069 19.296 509.589 20.172 511.461 21.924C513.333 23.652 514.269 26.136 514.269 29.376V35.424C514.269 38.664 513.333 41.16 511.461 42.912C509.589 44.64 507.069 45.504 503.901 45.504ZM503.901 41.256C505.677 41.256 507.057 40.74 508.041 39.708C509.025 38.676 509.517 37.296 509.517 35.568V29.232C509.517 27.504 509.025 26.124 508.041 25.092C507.057 24.06 505.677 23.544 503.901 23.544C502.149 23.544 500.769 24.06 499.761 25.092C498.777 26.124 498.285 27.504 498.285 29.232V35.568C498.285 37.296 498.777 38.676 499.761 39.708C500.769 40.74 502.149 41.256 503.901 41.256ZM505.557 51.48C504.381 51.48 503.421 51.108 502.677 50.364C501.957 49.644 501.597 48.672 501.597 47.448V45H506.205V46.728C506.205 47.448 506.541 47.808 507.213 47.808H509.337V51.48H505.557ZM524.305 45.288C522.913 45.288 521.689 44.976 520.633 44.352C519.601 43.704 518.797 42.816 518.221 41.688C517.645 40.56 517.357 39.264 517.357 37.8V27.144H521.893V37.44C521.893 38.784 522.217 39.792 522.865 40.464C523.537 41.136 524.485 41.472 525.709 41.472C527.101 41.472 528.181 41.016 528.949 40.104C529.717 39.168 530.101 37.872 530.101 36.216V27.144H534.637V45H530.173V42.66H529.525C529.237 43.26 528.697 43.848 527.905 44.424C527.113 45 525.913 45.288 524.305 45.288ZM546.74 45.504C544.964 45.504 543.392 45.132 542.024 44.388C540.68 43.62 539.624 42.552 538.856 41.184C538.112 39.792 537.74 38.16 537.74 36.288V35.856C537.74 33.984 538.112 32.364 538.856 30.996C539.6 29.604 540.644 28.536 541.988 27.792C543.332 27.024 544.892 26.64 546.668 26.64C548.42 26.64 549.944 27.036 551.24 27.828C552.536 28.596 553.544 29.676 554.264 31.068C554.984 32.436 555.344 34.032 555.344 35.856V37.404H542.348C542.396 38.628 542.852 39.624 543.716 40.392C544.58 41.16 545.636 41.544 546.884 41.544C548.156 41.544 549.092 41.268 549.692 40.716C550.292 40.164 550.748 39.552 551.06 38.88L554.768 40.824C554.432 41.448 553.94 42.132 553.292 42.876C552.668 43.596 551.828 44.22 550.772 44.748C549.716 45.252 548.372 45.504 546.74 45.504ZM542.384 34.02H550.736C550.64 32.988 550.22 32.16 549.476 31.536C548.756 30.912 547.808 30.6 546.632 30.6C545.408 30.6 544.436 30.912 543.716 31.536C542.996 32.16 542.552 32.988 542.384 34.02ZM566.362 45V19.8H570.898V29.34H571.546C571.738 28.956 572.038 28.572 572.446 28.188C572.854 27.804 573.394 27.492 574.066 27.252C574.762 26.988 575.638 26.856 576.694 26.856C578.086 26.856 579.298 27.18 580.33 27.828C581.386 28.452 582.202 29.328 582.778 30.456C583.354 31.56 583.642 32.856 583.642 34.344V45H579.106V34.704C579.106 33.36 578.77 32.352 578.098 31.68C577.45 31.008 576.514 30.672 575.29 30.672C573.898 30.672 572.818 31.14 572.05 32.076C571.282 32.988 570.898 34.272 570.898 35.928V45H566.362ZM593.01 45.504C591.738 45.504 590.598 45.288 589.59 44.856C588.582 44.4 587.778 43.752 587.178 42.912C586.602 42.048 586.314 41.004 586.314 39.78C586.314 38.556 586.602 37.536 587.178 36.72C587.778 35.88 588.594 35.256 589.626 34.848C590.682 34.416 591.882 34.2 593.226 34.2H598.122V33.192C598.122 32.352 597.858 31.668 597.33 31.14C596.802 30.588 595.962 30.312 594.81 30.312C593.682 30.312 592.842 30.576 592.29 31.104C591.738 31.608 591.378 32.268 591.21 33.084L587.034 31.68C587.322 30.768 587.778 29.94 588.402 29.196C589.05 28.428 589.902 27.816 590.958 27.36C592.038 26.88 593.346 26.64 594.882 26.64C597.234 26.64 599.094 27.228 600.462 28.404C601.83 29.58 602.514 31.284 602.514 33.516V40.176C602.514 40.896 602.85 41.256 603.522 41.256H604.962V45H601.938C601.05 45 600.318 44.784 599.742 44.352C599.166 43.92 598.878 43.344 598.878 42.624V42.588H598.194C598.098 42.876 597.882 43.26 597.546 43.74C597.21 44.196 596.682 44.604 595.962 44.964C595.242 45.324 594.258 45.504 593.01 45.504ZM593.802 41.832C595.074 41.832 596.106 41.484 596.898 40.788C597.714 40.068 598.122 39.12 598.122 37.944V37.584H593.55C592.71 37.584 592.05 37.764 591.57 38.124C591.09 38.484 590.85 38.988 590.85 39.636C590.85 40.284 591.102 40.812 591.606 41.22C592.11 41.628 592.842 41.832 593.802 41.832ZM608.65 52.2V48.24H618.37C619.042 48.24 619.378 47.88 619.378 47.16V42.66H618.73C618.538 43.068 618.238 43.476 617.83 43.884C617.422 44.292 616.87 44.628 616.174 44.892C615.478 45.156 614.59 45.288 613.51 45.288C612.118 45.288 610.894 44.976 609.838 44.352C608.806 43.704 608.002 42.816 607.426 41.688C606.85 40.56 606.562 39.264 606.562 37.8V27.144H611.098V37.44C611.098 38.784 611.422 39.792 612.07 40.464C612.742 41.136 613.69 41.472 614.914 41.472C616.306 41.472 617.386 41.016 618.154 40.104C618.922 39.168 619.306 37.872 619.306 36.216V27.144H623.842V48.168C623.842 49.392 623.482 50.364 622.762 51.084C622.042 51.828 621.082 52.2 619.882 52.2H608.65ZM644.006 45.504C642.23 45.504 640.658 45.132 639.29 44.388C637.946 43.62 636.89 42.552 636.122 41.184C635.378 39.792 635.006 38.16 635.006 36.288V35.856C635.006 33.984 635.378 32.364 636.122 30.996C636.866 29.604 637.91 28.536 639.254 27.792C640.598 27.024 642.158 26.64 643.934 26.64C645.686 26.64 647.21 27.036 648.506 27.828C649.802 28.596 650.81 29.676 651.53 31.068C652.25 32.436 652.61 34.032 652.61 35.856V37.404H639.614C639.662 38.628 640.118 39.624 640.982 40.392C641.846 41.16 642.902 41.544 644.15 41.544C645.422 41.544 646.358 41.268 646.958 40.716C647.558 40.164 648.014 39.552 648.326 38.88L652.034 40.824C651.698 41.448 651.206 42.132 650.558 42.876C649.934 43.596 649.094 44.22 648.038 44.748C646.982 45.252 645.638 45.504 644.006 45.504ZM639.65 34.02H648.002C647.906 32.988 647.486 32.16 646.742 31.536C646.022 30.912 645.074 30.6 643.898 30.6C642.674 30.6 641.702 30.912 640.982 31.536C640.262 32.16 639.818 32.988 639.65 34.02ZM655.568 45V27.144H660.032V29.484H660.68C660.968 28.86 661.508 28.272 662.3 27.72C663.092 27.144 664.292 26.856 665.9 26.856C667.292 26.856 668.504 27.18 669.536 27.828C670.592 28.452 671.408 29.328 671.984 30.456C672.56 31.56 672.848 32.856 672.848 34.344V45H668.312V34.704C668.312 33.36 667.976 32.352 667.304 31.68C666.656 31.008 665.72 30.672 664.496 30.672C663.104 30.672 662.024 31.14 661.256 32.076C660.488 32.988 660.104 34.272 660.104 35.928V45H655.568ZM684.732 45V19.8H689.268V45H684.732ZM698.758 45.504C697.486 45.504 696.346 45.288 695.338 44.856C694.33 44.4 693.526 43.752 692.926 42.912C692.35 42.048 692.062 41.004 692.062 39.78C692.062 38.556 692.35 37.536 692.926 36.72C693.526 35.88 694.342 35.256 695.374 34.848C696.43 34.416 697.63 34.2 698.974 34.2H703.87V33.192C703.87 32.352 703.606 31.668 703.078 31.14C702.55 30.588 701.71 30.312 700.558 30.312C699.43 30.312 698.59 30.576 698.038 31.104C697.486 31.608 697.126 32.268 696.958 33.084L692.782 31.68C693.07 30.768 693.526 29.94 694.15 29.196C694.798 28.428 695.65 27.816 696.706 27.36C697.786 26.88 699.094 26.64 700.63 26.64C702.982 26.64 704.842 27.228 706.21 28.404C707.578 29.58 708.262 31.284 708.262 33.516V40.176C708.262 40.896 708.598 41.256 709.27 41.256H710.71V45H707.686C706.798 45 706.066 44.784 705.49 44.352C704.914 43.92 704.626 43.344 704.626 42.624V42.588H703.942C703.846 42.876 703.63 43.26 703.294 43.74C702.958 44.196 702.43 44.604 701.71 44.964C700.99 45.324 700.006 45.504 698.758 45.504ZM699.55 41.832C700.822 41.832 701.854 41.484 702.646 40.788C703.462 40.068 703.87 39.12 703.87 37.944V37.584H699.298C698.458 37.584 697.798 37.764 697.318 38.124C696.838 38.484 696.598 38.988 696.598 39.636C696.598 40.284 696.85 40.812 697.354 41.22C697.858 41.628 698.59 41.832 699.55 41.832ZM729.396 45.504C727.668 45.504 726.096 45.144 724.68 44.424C723.288 43.704 722.184 42.66 721.368 41.292C720.552 39.924 720.144 38.268 720.144 36.324V35.82C720.144 33.876 720.552 32.22 721.368 30.852C722.184 29.484 723.288 28.44 724.68 27.72C726.096 27 727.668 26.64 729.396 26.64C731.1 26.64 732.564 26.94 733.788 27.54C735.012 28.14 735.996 28.968 736.74 30.024C737.508 31.056 738.012 32.232 738.252 33.552L733.86 34.488C733.764 33.768 733.548 33.12 733.212 32.544C732.876 31.968 732.396 31.512 731.772 31.176C731.172 30.84 730.416 30.672 729.504 30.672C728.592 30.672 727.764 30.876 727.02 31.284C726.3 31.668 725.724 32.256 725.292 33.048C724.884 33.816 724.68 34.764 724.68 35.892V36.252C724.68 37.38 724.884 38.34 725.292 39.132C725.724 39.9 726.3 40.488 727.02 40.896C727.764 41.28 728.592 41.472 729.504 41.472C730.872 41.472 731.904 41.124 732.6 40.428C733.32 39.708 733.776 38.772 733.968 37.62L738.36 38.664C738.048 39.936 737.508 41.1 736.74 42.156C735.996 43.188 735.012 44.004 733.788 44.604C732.564 45.204 731.1 45.504 729.396 45.504ZM746.565 45.504C745.293 45.504 744.153 45.288 743.145 44.856C742.137 44.4 741.333 43.752 740.733 42.912C740.157 42.048 739.869 41.004 739.869 39.78C739.869 38.556 740.157 37.536 740.733 36.72C741.333 35.88 742.149 35.256 743.181 34.848C744.237 34.416 745.437 34.2 746.781 34.2H751.677V33.192C751.677 32.352 751.413 31.668 750.885 31.14C750.357 30.588 749.517 30.312 748.365 30.312C747.237 30.312 746.397 30.576 745.845 31.104C745.293 31.608 744.933 32.268 744.765 33.084L740.589 31.68C740.877 30.768 741.333 29.94 741.957 29.196C742.605 28.428 743.457 27.816 744.513 27.36C745.593 26.88 746.901 26.64 748.437 26.64C750.789 26.64 752.649 27.228 754.017 28.404C755.385 29.58 756.069 31.284 756.069 33.516V40.176C756.069 40.896 756.405 41.256 757.077 41.256H758.517V45H755.493C754.605 45 753.873 44.784 753.297 44.352C752.721 43.92 752.433 43.344 752.433 42.624V42.588H751.749C751.653 42.876 751.437 43.26 751.101 43.74C750.765 44.196 750.237 44.604 749.517 44.964C748.797 45.324 747.813 45.504 746.565 45.504ZM747.357 41.832C748.629 41.832 749.661 41.484 750.453 40.788C751.269 40.068 751.677 39.12 751.677 37.944V37.584H747.105C746.265 37.584 745.605 37.764 745.125 38.124C744.645 38.484 744.405 38.988 744.405 39.636C744.405 40.284 744.657 40.812 745.161 41.22C745.665 41.628 746.397 41.832 747.357 41.832ZM757.442 52.2V48.312H759.818C760.49 48.312 760.826 47.952 760.826 47.232V27.144H765.362V48.168C765.362 49.392 765.002 50.364 764.282 51.084C763.562 51.828 762.602 52.2 761.402 52.2H757.442ZM763.094 25.056C762.278 25.056 761.582 24.792 761.006 24.264C760.454 23.736 760.178 23.04 760.178 22.176C760.178 21.312 760.454 20.616 761.006 20.088C761.582 19.56 762.278 19.296 763.094 19.296C763.934 19.296 764.63 19.56 765.182 20.088C765.734 20.616 766.01 21.312 766.01 22.176C766.01 23.04 765.734 23.736 765.182 24.264C764.63 24.792 763.934 25.056 763.094 25.056ZM774.851 45.504C773.579 45.504 772.439 45.288 771.431 44.856C770.423 44.4 769.619 43.752 769.019 42.912C768.443 42.048 768.155 41.004 768.155 39.78C768.155 38.556 768.443 37.536 769.019 36.72C769.619 35.88 770.435 35.256 771.467 34.848C772.523 34.416 773.723 34.2 775.067 34.2H779.963V33.192C779.963 32.352 779.699 31.668 779.171 31.14C778.643 30.588 777.803 30.312 776.651 30.312C775.523 30.312 774.683 30.576 774.131 31.104C773.579 31.608 773.219 32.268 773.051 33.084L768.875 31.68C769.163 30.768 769.619 29.94 770.243 29.196C770.891 28.428 771.743 27.816 772.799 27.36C773.879 26.88 775.187 26.64 776.723 26.64C779.075 26.64 780.935 27.228 782.303 28.404C783.671 29.58 784.355 31.284 784.355 33.516V40.176C784.355 40.896 784.691 41.256 785.363 41.256H786.803V45H783.779C782.891 45 782.159 44.784 781.583 44.352C781.007 43.92 780.719 43.344 780.719 42.624V42.588H780.035C779.939 42.876 779.723 43.26 779.387 43.74C779.051 44.196 778.523 44.604 777.803 44.964C777.083 45.324 776.099 45.504 774.851 45.504ZM775.643 41.832C776.915 41.832 777.947 41.484 778.739 40.788C779.555 40.068 779.963 39.12 779.963 37.944V37.584H775.391C774.551 37.584 773.891 37.764 773.411 38.124C772.931 38.484 772.691 38.988 772.691 39.636C772.691 40.284 772.943 40.812 773.447 41.22C773.951 41.628 774.683 41.832 775.643 41.832ZM793.164 36.72V35.856C793.164 34.632 793.404 33.624 793.884 32.832C794.388 32.04 795.192 31.38 796.296 30.852L796.908 30.564C797.988 30.06 798.816 29.52 799.392 28.944C799.968 28.368 800.256 27.6 800.256 26.64C800.256 25.944 800.076 25.356 799.716 24.876C799.38 24.372 798.9 23.988 798.276 23.724C797.652 23.46 796.92 23.328 796.08 23.328C795.216 23.328 794.436 23.472 793.74 23.76C793.068 24.048 792.528 24.48 792.12 25.056C791.736 25.632 791.544 26.352 791.544 27.216V28.008H786.864V27.288C786.864 25.632 787.272 24.204 788.088 23.004C788.904 21.804 790.008 20.892 791.4 20.268C792.792 19.62 794.352 19.296 796.08 19.296C797.784 19.296 799.296 19.608 800.616 20.232C801.96 20.856 803.016 21.72 803.784 22.824C804.552 23.928 804.936 25.2 804.936 26.64C804.936 28.08 804.672 29.268 804.144 30.204C803.616 31.116 802.944 31.86 802.128 32.436C801.336 32.988 800.52 33.468 799.68 33.876L799.068 34.164C798.636 34.356 798.336 34.596 798.168 34.884C798 35.148 797.916 35.544 797.916 36.072V36.72H793.164ZM795.684 45.504C794.724 45.504 793.908 45.192 793.236 44.568C792.588 43.92 792.264 43.092 792.264 42.084C792.264 41.076 792.588 40.26 793.236 39.636C793.908 38.988 794.724 38.664 795.684 38.664C796.668 38.664 797.484 38.988 798.132 39.636C798.78 40.26 799.104 41.076 799.104 42.084C799.104 43.092 798.78 43.92 798.132 44.568C797.484 45.192 796.668 45.504 795.684 45.504Z" fill="url(#paint0_linear_396_985)"/>
<defs>
<linearGradient id="paint0_linear_396_985" x1="472" y1="32.5" x2="808" y2="32.5" gradientUnits="userSpaceOnUse">
<stop offset="0.182692" stop-color="#58286A"/>
<stop offset="0.600962" stop-color="#DBA0E7"/>
<stop offset="0.826923" stop-color="#C29CCB"/>
</linearGradient>
</defs>
</svg>
