<svg width="1280" height="575" viewBox="0 0 1280 575" fill="none" xmlns="http://www.w3.org/2000/svg">
<g clip-path="url(#clip0_404_1515)">
<path d="M798.648 232L805.272 206.8H813.552L820.176 232H815.28L813.912 226.456H804.912L803.544 232H798.648ZM806.028 222.064H812.796L809.736 209.788H809.088L806.028 222.064ZM822.256 232V206.8H826.792V232H822.256ZM844.344 232.504C843.072 232.504 841.932 232.288 840.924 231.856C839.916 231.4 839.112 230.752 838.512 229.912C837.936 229.048 837.648 228.004 837.648 226.78C837.648 225.556 837.936 224.536 838.512 223.72C839.112 222.88 839.928 222.256 840.96 221.848C842.016 221.416 843.216 221.2 844.56 221.2H849.456V220.192C849.456 219.352 849.192 218.668 848.664 218.14C848.136 217.588 847.296 217.312 846.144 217.312C845.016 217.312 844.176 217.576 843.624 218.104C843.072 218.608 842.712 219.268 842.544 220.084L838.368 218.68C838.656 217.768 839.112 216.94 839.736 216.196C840.384 215.428 841.236 214.816 842.292 214.36C843.372 213.88 844.68 213.64 846.216 213.64C848.568 213.64 850.428 214.228 851.796 215.404C853.164 216.58 853.848 218.284 853.848 220.516V227.176C853.848 227.896 854.184 228.256 854.856 228.256H856.296V232H853.272C852.384 232 851.652 231.784 851.076 231.352C850.5 230.92 850.212 230.344 850.212 229.624V229.588H849.528C849.432 229.876 849.216 230.26 848.88 230.74C848.544 231.196 848.016 231.604 847.296 231.964C846.576 232.324 845.592 232.504 844.344 232.504ZM845.136 228.832C846.408 228.832 847.44 228.484 848.232 227.788C849.048 227.068 849.456 226.12 849.456 224.944V224.584H844.884C844.044 224.584 843.384 224.764 842.904 225.124C842.424 225.484 842.184 225.988 842.184 226.636C842.184 227.284 842.436 227.812 842.94 228.22C843.444 228.628 844.176 228.832 845.136 228.832ZM858.532 232V206.8H863.068V232H858.532ZM875.403 232.504C873.675 232.504 872.103 232.144 870.687 231.424C869.295 230.704 868.191 229.66 867.375 228.292C866.559 226.924 866.151 225.268 866.151 223.324V222.82C866.151 220.876 866.559 219.22 867.375 217.852C868.191 216.484 869.295 215.44 870.687 214.72C872.103 214 873.675 213.64 875.403 213.64C877.107 213.64 878.571 213.94 879.795 214.54C881.019 215.14 882.003 215.968 882.747 217.024C883.515 218.056 884.019 219.232 884.259 220.552L879.867 221.488C879.771 220.768 879.555 220.12 879.219 219.544C878.883 218.968 878.403 218.512 877.779 218.176C877.179 217.84 876.423 217.672 875.511 217.672C874.599 217.672 873.771 217.876 873.027 218.284C872.307 218.668 871.731 219.256 871.299 220.048C870.891 220.816 870.687 221.764 870.687 222.892V223.252C870.687 224.38 870.891 225.34 871.299 226.132C871.731 226.9 872.307 227.488 873.027 227.896C873.771 228.28 874.599 228.472 875.511 228.472C876.879 228.472 877.911 228.124 878.607 227.428C879.327 226.708 879.783 225.772 879.975 224.62L884.367 225.664C884.055 226.936 883.515 228.1 882.747 229.156C882.003 230.188 881.019 231.004 879.795 231.604C878.571 232.204 877.107 232.504 875.403 232.504ZM892.572 232.504C891.3 232.504 890.16 232.288 889.152 231.856C888.144 231.4 887.34 230.752 886.74 229.912C886.164 229.048 885.876 228.004 885.876 226.78C885.876 225.556 886.164 224.536 886.74 223.72C887.34 222.88 888.156 222.256 889.188 221.848C890.244 221.416 891.444 221.2 892.788 221.2H897.684V220.192C897.684 219.352 897.42 218.668 896.892 218.14C896.364 217.588 895.524 217.312 894.372 217.312C893.244 217.312 892.404 217.576 891.852 218.104C891.3 218.608 890.94 219.268 890.772 220.084L886.596 218.68C886.884 217.768 887.34 216.94 887.964 216.196C888.612 215.428 889.464 214.816 890.52 214.36C891.6 213.88 892.908 213.64 894.444 213.64C896.796 213.64 898.656 214.228 900.024 215.404C901.392 216.58 902.076 218.284 902.076 220.516V227.176C902.076 227.896 902.412 228.256 903.084 228.256H904.524V232H901.5C900.612 232 899.88 231.784 899.304 231.352C898.728 230.92 898.44 230.344 898.44 229.624V229.588H897.756C897.66 229.876 897.444 230.26 897.108 230.74C896.772 231.196 896.244 231.604 895.524 231.964C894.804 232.324 893.82 232.504 892.572 232.504ZM893.364 228.832C894.636 228.832 895.668 228.484 896.46 227.788C897.276 227.068 897.684 226.12 897.684 224.944V224.584H893.112C892.272 224.584 891.612 224.764 891.132 225.124C890.652 225.484 890.412 225.988 890.412 226.636C890.412 227.284 890.664 227.812 891.168 228.22C891.672 228.628 892.404 228.832 893.364 228.832ZM906.761 232V214.144H911.225V216.484H911.873C912.161 215.86 912.701 215.272 913.493 214.72C914.285 214.144 915.485 213.856 917.093 213.856C918.485 213.856 919.697 214.18 920.729 214.828C921.785 215.452 922.601 216.328 923.177 217.456C923.753 218.56 924.041 219.856 924.041 221.344V232H919.505V221.704C919.505 220.36 919.169 219.352 918.497 218.68C917.849 218.008 916.913 217.672 915.689 217.672C914.297 217.672 913.217 218.14 912.449 219.076C911.681 219.988 911.297 221.272 911.297 222.928V232H906.761ZM936.252 232.504C934.524 232.504 932.952 232.144 931.536 231.424C930.144 230.704 929.04 229.66 928.224 228.292C927.408 226.924 927 225.268 927 223.324V222.82C927 220.876 927.408 219.22 928.224 217.852C929.04 216.484 930.144 215.44 931.536 214.72C932.952 214 934.524 213.64 936.252 213.64C937.956 213.64 939.42 213.94 940.644 214.54C941.868 215.14 942.852 215.968 943.596 217.024C944.364 218.056 944.868 219.232 945.108 220.552L940.716 221.488C940.62 220.768 940.404 220.12 940.068 219.544C939.732 218.968 939.252 218.512 938.628 218.176C938.028 217.84 937.272 217.672 936.36 217.672C935.448 217.672 934.62 217.876 933.876 218.284C933.156 218.668 932.58 219.256 932.148 220.048C931.74 220.816 931.536 221.764 931.536 222.892V223.252C931.536 224.38 931.74 225.34 932.148 226.132C932.58 226.9 933.156 227.488 933.876 227.896C934.62 228.28 935.448 228.472 936.36 228.472C937.728 228.472 938.76 228.124 939.456 227.428C940.176 226.708 940.632 225.772 940.824 224.62L945.216 225.664C944.904 226.936 944.364 228.1 943.596 229.156C942.852 230.188 941.868 231.004 940.644 231.604C939.42 232.204 937.956 232.504 936.252 232.504ZM956.014 232.504C954.238 232.504 952.666 232.132 951.298 231.388C949.954 230.62 948.898 229.552 948.13 228.184C947.386 226.792 947.014 225.16 947.014 223.288V222.856C947.014 220.984 947.386 219.364 948.13 217.996C948.874 216.604 949.918 215.536 951.262 214.792C952.606 214.024 954.166 213.64 955.942 213.64C957.694 213.64 959.218 214.036 960.514 214.828C961.81 215.596 962.818 216.676 963.538 218.068C964.258 219.436 964.618 221.032 964.618 222.856V224.404H951.622C951.67 225.628 952.126 226.624 952.99 227.392C953.854 228.16 954.91 228.544 956.158 228.544C957.43 228.544 958.366 228.268 958.966 227.716C959.566 227.164 960.022 226.552 960.334 225.88L964.042 227.824C963.706 228.448 963.214 229.132 962.566 229.876C961.942 230.596 961.102 231.22 960.046 231.748C958.99 232.252 957.646 232.504 956.014 232.504ZM951.658 221.02H960.01C959.914 219.988 959.494 219.16 958.75 218.536C958.03 217.912 957.082 217.6 955.906 217.6C954.682 217.6 953.71 217.912 952.99 218.536C952.27 219.16 951.826 219.988 951.658 221.02ZM982.836 232.504C981.42 232.504 980.088 232.156 978.84 231.46C977.616 230.74 976.632 229.696 975.888 228.328C975.144 226.96 974.772 225.304 974.772 223.36V222.784C974.772 220.84 975.144 219.184 975.888 217.816C976.632 216.448 977.616 215.416 978.84 214.72C980.064 214 981.396 213.64 982.836 213.64C983.916 213.64 984.816 213.772 985.536 214.036C986.28 214.276 986.88 214.588 987.336 214.972C987.792 215.356 988.14 215.764 988.38 216.196H989.028V206.8H993.564V232H989.1V229.84H988.452C988.044 230.512 987.408 231.124 986.544 231.676C985.704 232.228 984.468 232.504 982.836 232.504ZM984.204 228.544C985.596 228.544 986.76 228.1 987.696 227.212C988.632 226.3 989.1 224.98 989.1 223.252V222.892C989.1 221.164 988.632 219.856 987.696 218.968C986.784 218.056 985.62 217.6 984.204 217.6C982.812 217.6 981.648 218.056 980.712 218.968C979.776 219.856 979.308 221.164 979.308 222.892V223.252C979.308 224.98 979.776 226.3 980.712 227.212C981.648 228.1 982.812 228.544 984.204 228.544ZM1005.65 232.504C1003.87 232.504 1002.3 232.132 1000.93 231.388C999.589 230.62 998.533 229.552 997.765 228.184C997.021 226.792 996.649 225.16 996.649 223.288V222.856C996.649 220.984 997.021 219.364 997.765 217.996C998.509 216.604 999.553 215.536 1000.9 214.792C1002.24 214.024 1003.8 213.64 1005.58 213.64C1007.33 213.64 1008.85 214.036 1010.15 214.828C1011.45 215.596 1012.45 216.676 1013.17 218.068C1013.89 219.436 1014.25 221.032 1014.25 222.856V224.404H1001.26C1001.31 225.628 1001.76 226.624 1002.63 227.392C1003.49 228.16 1004.55 228.544 1005.79 228.544C1007.07 228.544 1008 228.268 1008.6 227.716C1009.2 227.164 1009.66 226.552 1009.97 225.88L1013.68 227.824C1013.34 228.448 1012.85 229.132 1012.2 229.876C1011.58 230.596 1010.74 231.22 1009.68 231.748C1008.63 232.252 1007.28 232.504 1005.65 232.504ZM1001.29 221.02H1009.65C1009.55 219.988 1009.13 219.16 1008.39 218.536C1007.67 217.912 1006.72 217.6 1005.54 217.6C1004.32 217.6 1003.35 217.912 1002.63 218.536C1001.91 219.16 1001.46 219.988 1001.29 221.02ZM1032.11 232C1030.94 232 1029.98 231.64 1029.23 230.92C1028.51 230.176 1028.15 229.192 1028.15 227.968V217.888H1023.69V214.144H1028.15V208.6H1032.69V214.144H1037.58V217.888H1032.69V227.176C1032.69 227.896 1033.02 228.256 1033.7 228.256H1037.15V232H1032.11ZM1047.41 232.288C1046.02 232.288 1044.8 231.976 1043.74 231.352C1042.71 230.704 1041.91 229.816 1041.33 228.688C1040.75 227.56 1040.47 226.264 1040.47 224.8V214.144H1045V224.44C1045 225.784 1045.33 226.792 1045.97 227.464C1046.65 228.136 1047.59 228.472 1048.82 228.472C1050.21 228.472 1051.29 228.016 1052.06 227.104C1052.83 226.168 1053.21 224.872 1053.21 223.216V214.144H1057.75V232H1053.28V229.66H1052.63C1052.35 230.26 1051.81 230.848 1051.01 231.424C1050.22 232 1049.02 232.288 1047.41 232.288ZM1069.77 232V214.144H1074.24V216.088H1074.89C1075.2 215.488 1075.71 214.972 1076.43 214.54C1077.15 214.084 1078.1 213.856 1079.28 213.856C1080.55 213.856 1081.57 214.108 1082.34 214.612C1083.11 215.092 1083.69 215.728 1084.1 216.52H1084.75C1085.16 215.752 1085.73 215.116 1086.48 214.612C1087.22 214.108 1088.28 213.856 1089.65 213.856C1090.75 213.856 1091.75 214.096 1092.63 214.576C1093.55 215.032 1094.27 215.74 1094.79 216.7C1095.35 217.636 1095.62 218.824 1095.62 220.264V232H1091.09V220.588C1091.09 219.604 1090.83 218.872 1090.33 218.392C1089.83 217.888 1089.12 217.636 1088.21 217.636C1087.17 217.636 1086.37 217.972 1085.79 218.644C1085.24 219.292 1084.97 220.228 1084.97 221.452V232H1080.43V220.588C1080.43 219.604 1080.18 218.872 1079.67 218.392C1079.17 217.888 1078.46 217.636 1077.55 217.636C1076.52 217.636 1075.71 217.972 1075.14 218.644C1074.59 219.292 1074.31 220.228 1074.31 221.452V232H1069.77ZM1104.96 232.504C1103.69 232.504 1102.55 232.288 1101.54 231.856C1100.54 231.4 1099.73 230.752 1099.13 229.912C1098.56 229.048 1098.27 228.004 1098.27 226.78C1098.27 225.556 1098.56 224.536 1099.13 223.72C1099.73 222.88 1100.55 222.256 1101.58 221.848C1102.64 221.416 1103.84 221.2 1105.18 221.2H1110.08V220.192C1110.08 219.352 1109.81 218.668 1109.28 218.14C1108.76 217.588 1107.92 217.312 1106.76 217.312C1105.64 217.312 1104.8 217.576 1104.24 218.104C1103.69 218.608 1103.33 219.268 1103.16 220.084L1098.99 218.68C1099.28 217.768 1099.73 216.94 1100.36 216.196C1101 215.428 1101.86 214.816 1102.91 214.36C1103.99 213.88 1105.3 213.64 1106.84 213.64C1109.19 213.64 1111.05 214.228 1112.42 215.404C1113.78 216.58 1114.47 218.284 1114.47 220.516V227.176C1114.47 227.896 1114.8 228.256 1115.48 228.256H1116.92V232H1113.89C1113 232 1112.27 231.784 1111.7 231.352C1111.12 230.92 1110.83 230.344 1110.83 229.624V229.588H1110.15C1110.05 229.876 1109.84 230.26 1109.5 230.74C1109.16 231.196 1108.64 231.604 1107.92 231.964C1107.2 232.324 1106.21 232.504 1104.96 232.504ZM1105.76 228.832C1107.03 228.832 1108.06 228.484 1108.85 227.788C1109.67 227.068 1110.08 226.12 1110.08 224.944V224.584H1105.5C1104.66 224.584 1104 224.764 1103.52 225.124C1103.04 225.484 1102.8 225.988 1102.8 226.636C1102.8 227.284 1103.06 227.812 1103.56 228.22C1104.06 228.628 1104.8 228.832 1105.76 228.832ZM1119.15 232V214.144H1123.62V216.484H1124.26C1124.55 215.86 1125.09 215.272 1125.88 214.72C1126.68 214.144 1127.88 213.856 1129.48 213.856C1130.88 213.856 1132.09 214.18 1133.12 214.828C1134.18 215.452 1134.99 216.328 1135.57 217.456C1136.14 218.56 1136.43 219.856 1136.43 221.344V232H1131.9V221.704C1131.9 220.36 1131.56 219.352 1130.89 218.68C1130.24 218.008 1129.3 217.672 1128.08 217.672C1126.69 217.672 1125.61 218.14 1124.84 219.076C1124.07 219.988 1123.69 221.272 1123.69 222.928V232H1119.15ZM1148.75 232.504C1146.98 232.504 1145.38 232.144 1143.96 231.424C1142.55 230.704 1141.43 229.66 1140.62 228.292C1139.8 226.924 1139.39 225.28 1139.39 223.36V222.784C1139.39 220.864 1139.8 219.22 1140.62 217.852C1141.43 216.484 1142.55 215.44 1143.96 214.72C1145.38 214 1146.98 213.64 1148.75 213.64C1150.53 213.64 1152.12 214 1153.54 214.72C1154.96 215.44 1156.07 216.484 1156.89 217.852C1157.7 219.22 1158.11 220.864 1158.11 222.784V223.36C1158.11 225.28 1157.7 226.924 1156.89 228.292C1156.07 229.66 1154.96 230.704 1153.54 231.424C1152.12 232.144 1150.53 232.504 1148.75 232.504ZM1148.75 228.472C1150.14 228.472 1151.3 228.028 1152.21 227.14C1153.12 226.228 1153.58 224.932 1153.58 223.252V222.892C1153.58 221.212 1153.12 219.928 1152.21 219.04C1151.32 218.128 1150.17 217.672 1148.75 217.672C1147.36 217.672 1146.21 218.128 1145.3 219.04C1144.38 219.928 1143.93 221.212 1143.93 222.892V223.252C1143.93 224.932 1144.38 226.228 1145.3 227.14C1146.21 228.028 1147.36 228.472 1148.75 228.472Z" fill="url(#paint0_linear_404_1515)"/>
<path d="M805.584 259H799.488V247.832H800.832V257.816H805.584V259ZM809.232 259H808.096C807.658 259 807.322 258.877 807.088 258.632C806.853 258.376 806.736 258.056 806.736 257.672V247.16H808.016V257.88H809.232V259ZM813.559 259.192C812.812 259.192 812.162 259.016 811.607 258.664C811.052 258.301 810.62 257.8 810.311 257.16C810.002 256.509 809.847 255.747 809.847 254.872C809.847 253.997 810.002 253.24 810.311 252.6C810.62 251.949 811.052 251.448 811.607 251.096C812.162 250.733 812.812 250.552 813.559 250.552C814.295 250.552 814.93 250.728 815.463 251.08C815.996 251.421 816.407 251.896 816.695 252.504C816.983 253.112 817.127 253.805 817.127 254.584V255.192H811.191V255.576C811.191 256.291 811.404 256.888 811.831 257.368C812.268 257.837 812.871 258.072 813.639 258.072C814.162 258.072 814.615 257.949 814.999 257.704C815.394 257.459 815.698 257.107 815.911 256.648L816.823 257.304C816.556 257.859 816.14 258.312 815.575 258.664C815.01 259.016 814.338 259.192 813.559 259.192ZM813.559 251.624C813.1 251.624 812.69 251.731 812.327 251.944C811.975 252.157 811.698 252.456 811.495 252.84C811.292 253.213 811.191 253.64 811.191 254.12V254.232H815.751V254.056C815.751 253.565 815.66 253.139 815.479 252.776C815.298 252.413 815.042 252.131 814.711 251.928C814.38 251.725 813.996 251.624 813.559 251.624ZM821.783 259H820.295L817.399 250.744H818.679L820.119 254.84L821.015 257.656H821.095L821.991 254.84L823.463 250.744H824.695L821.783 259ZM832.286 259H831.566C831.224 259 830.947 258.931 830.734 258.792C830.52 258.643 830.366 258.44 830.27 258.184C830.174 257.928 830.126 257.635 830.126 257.304V257.192L830.622 257.656H830.062C829.891 258.157 829.592 258.541 829.166 258.808C828.75 259.064 828.254 259.192 827.678 259.192C826.803 259.192 826.12 258.968 825.63 258.52C825.15 258.072 824.91 257.464 824.91 256.696C824.91 256.173 825.038 255.736 825.294 255.384C825.55 255.021 825.934 254.749 826.446 254.568C826.968 254.376 827.63 254.28 828.43 254.28H830.062V253.464C830.062 252.877 829.902 252.429 829.582 252.12C829.262 251.811 828.771 251.656 828.11 251.656C827.619 251.656 827.203 251.768 826.862 251.992C826.52 252.216 826.238 252.515 826.014 252.888L825.246 252.168C825.47 251.731 825.827 251.352 826.318 251.032C826.808 250.712 827.427 250.552 828.174 250.552C829.166 250.552 829.939 250.797 830.494 251.288C831.059 251.779 831.342 252.461 831.342 253.336V257.88H832.286V259ZM830.062 255.24H828.366C827.64 255.24 827.107 255.347 826.766 255.56C826.424 255.773 826.254 256.083 826.254 256.488V256.824C826.254 257.229 826.403 257.544 826.702 257.768C827 257.992 827.395 258.104 827.886 258.104C828.312 258.104 828.686 258.04 829.006 257.912C829.336 257.773 829.592 257.592 829.774 257.368C829.966 257.133 830.062 256.877 830.062 256.6V255.24ZM830.046 247.096L828.35 249.64L827.518 249.256L828.878 246.536L830.046 247.096ZM840.038 259H838.438C838 259 837.664 258.872 837.43 258.616C837.195 258.36 837.078 258.035 837.078 257.64V251.864H835.718V250.744H836.486C836.763 250.744 836.95 250.691 837.046 250.584C837.152 250.467 837.206 250.269 837.206 249.992V248.456H838.358V250.744H840.166V251.864H838.358V257.88H840.038V259ZM846.671 259V257.656H846.607C846.447 258.051 846.191 258.408 845.839 258.728C845.498 259.037 844.98 259.192 844.287 259.192C843.444 259.192 842.767 258.92 842.255 258.376C841.754 257.821 841.503 257.043 841.503 256.04V250.744H842.783V255.816C842.783 256.552 842.943 257.107 843.263 257.48C843.583 257.853 844.052 258.04 844.671 258.04C845.012 258.04 845.332 257.987 845.631 257.88C845.94 257.763 846.191 257.587 846.383 257.352C846.575 257.117 846.671 256.819 846.671 256.456V250.744H847.951V259H846.671ZM853.818 248.808C853.551 248.808 853.354 248.744 853.226 248.616C853.098 248.477 853.034 248.301 853.034 248.088V247.88C853.034 247.667 853.098 247.496 853.226 247.368C853.354 247.229 853.551 247.16 853.818 247.16C854.095 247.16 854.293 247.229 854.41 247.368C854.538 247.496 854.602 247.667 854.602 247.88V248.088C854.602 248.301 854.538 248.477 854.41 248.616C854.293 248.744 854.095 248.808 853.818 248.808ZM853.178 259V250.744H854.458V259H853.178ZM857.818 259H856.538V250.744H857.818V252.088H857.882C858.063 251.661 858.319 251.299 858.65 251C858.981 250.701 859.466 250.552 860.106 250.552C860.65 250.552 861.151 250.685 861.61 250.952C862.069 251.208 862.41 251.635 862.634 252.232H862.666C862.815 251.784 863.093 251.395 863.498 251.064C863.914 250.723 864.474 250.552 865.178 250.552C866.021 250.552 866.677 250.829 867.146 251.384C867.626 251.928 867.866 252.701 867.866 253.704V259H866.586V253.928C866.586 253.203 866.442 252.653 866.154 252.28C865.866 251.896 865.407 251.704 864.778 251.704C864.447 251.704 864.133 251.763 863.834 251.88C863.535 251.987 863.295 252.157 863.114 252.392C862.933 252.627 862.842 252.92 862.842 253.272V259H861.562V253.928C861.562 253.192 861.418 252.637 861.13 252.264C860.842 251.891 860.394 251.704 859.786 251.704C859.455 251.704 859.135 251.763 858.826 251.88C858.527 251.987 858.282 252.157 858.09 252.392C857.909 252.627 857.818 252.92 857.818 253.272V259ZM869.867 262.2V250.744H871.147V252.088H871.211C871.424 251.565 871.739 251.181 872.155 250.936C872.571 250.68 873.062 250.552 873.627 250.552C874.32 250.552 874.918 250.728 875.419 251.08C875.92 251.432 876.304 251.933 876.571 252.584C876.848 253.224 876.987 253.987 876.987 254.872C876.987 255.747 876.848 256.509 876.571 257.16C876.304 257.811 875.92 258.312 875.419 258.664C874.918 259.016 874.32 259.192 873.627 259.192C873.062 259.192 872.576 259.064 872.171 258.808C871.776 258.552 871.456 258.168 871.211 257.656H871.147V262.2H869.867ZM873.275 258.04C874 258.04 874.571 257.816 874.987 257.368C875.403 256.909 875.611 256.312 875.611 255.576V254.168C875.611 253.432 875.403 252.84 874.987 252.392C874.571 251.933 874 251.704 873.275 251.704C872.891 251.704 872.534 251.773 872.203 251.912C871.883 252.051 871.627 252.237 871.435 252.472C871.243 252.707 871.147 252.979 871.147 253.288V256.36C871.147 256.712 871.243 257.016 871.435 257.272C871.627 257.517 871.883 257.709 872.203 257.848C872.534 257.976 872.891 258.04 873.275 258.04ZM879.788 259H878.508V250.744H879.788V252.264H879.868C879.964 251.997 880.113 251.752 880.316 251.528C880.519 251.293 880.78 251.107 881.1 250.968C881.42 250.819 881.804 250.744 882.252 250.744H882.748V252.024H881.996C881.537 252.024 881.143 252.088 880.812 252.216C880.481 252.333 880.225 252.493 880.044 252.696C879.873 252.899 879.788 253.133 879.788 253.4V259ZM886.769 259.192C886.022 259.192 885.372 259.016 884.817 258.664C884.262 258.301 883.83 257.8 883.521 257.16C883.212 256.509 883.057 255.747 883.057 254.872C883.057 253.997 883.212 253.24 883.521 252.6C883.83 251.949 884.262 251.448 884.817 251.096C885.372 250.733 886.022 250.552 886.769 250.552C887.505 250.552 888.14 250.728 888.673 251.08C889.206 251.421 889.617 251.896 889.905 252.504C890.193 253.112 890.337 253.805 890.337 254.584V255.192H884.401V255.576C884.401 256.291 884.614 256.888 885.041 257.368C885.478 257.837 886.081 258.072 886.849 258.072C887.372 258.072 887.825 257.949 888.209 257.704C888.604 257.459 888.908 257.107 889.121 256.648L890.033 257.304C889.766 257.859 889.35 258.312 888.785 258.664C888.22 259.016 887.548 259.192 886.769 259.192ZM886.769 251.624C886.31 251.624 885.9 251.731 885.537 251.944C885.185 252.157 884.908 252.456 884.705 252.84C884.502 253.213 884.401 253.64 884.401 254.12V254.232H888.961V254.056C888.961 253.565 888.87 253.139 888.689 252.776C888.508 252.413 888.252 252.131 887.921 251.928C887.59 251.725 887.206 251.624 886.769 251.624ZM894.286 259.192C893.529 259.192 892.889 259.048 892.366 258.76C891.844 258.461 891.396 258.067 891.022 257.576L891.934 256.84C892.254 257.235 892.612 257.544 893.006 257.768C893.401 257.992 893.86 258.104 894.382 258.104C894.926 258.104 895.348 257.987 895.646 257.752C895.956 257.517 896.11 257.187 896.11 256.76C896.11 256.44 896.004 256.163 895.79 255.928C895.588 255.693 895.214 255.539 894.67 255.464L894.014 255.368C893.513 255.293 893.06 255.171 892.654 255C892.249 254.819 891.929 254.568 891.694 254.248C891.47 253.917 891.358 253.496 891.358 252.984C891.358 252.163 891.636 251.555 892.19 251.16C892.756 250.755 893.46 250.552 894.302 250.552C894.75 250.552 895.145 250.605 895.486 250.712C895.838 250.819 896.153 250.973 896.43 251.176C896.708 251.368 896.958 251.603 897.182 251.88L896.334 252.648C896.153 252.392 895.886 252.163 895.534 251.96C895.182 251.747 894.74 251.64 894.206 251.64C893.684 251.64 893.284 251.757 893.006 251.992C892.729 252.216 892.59 252.525 892.59 252.92C892.59 253.315 892.724 253.608 892.99 253.8C893.268 253.981 893.662 254.115 894.174 254.2L894.814 254.296C895.732 254.435 896.382 254.701 896.766 255.096C897.15 255.48 897.342 255.987 897.342 256.616C897.342 257.149 897.22 257.608 896.974 257.992C896.729 258.376 896.377 258.675 895.918 258.888C895.46 259.091 894.916 259.192 894.286 259.192ZM902.083 259.192C901.347 259.192 900.696 259.016 900.131 258.664C899.576 258.301 899.139 257.8 898.819 257.16C898.51 256.509 898.355 255.747 898.355 254.872C898.355 253.997 898.51 253.24 898.819 252.6C899.139 251.949 899.576 251.448 900.131 251.096C900.696 250.733 901.347 250.552 902.083 250.552C902.819 250.552 903.464 250.733 904.019 251.096C904.584 251.448 905.022 251.949 905.331 252.6C905.651 253.24 905.811 253.997 905.811 254.872C905.811 255.747 905.651 256.509 905.331 257.16C905.022 257.8 904.584 258.301 904.019 258.664C903.464 259.016 902.819 259.192 902.083 259.192ZM902.083 258.056C902.776 258.056 903.342 257.843 903.779 257.416C904.216 256.989 904.435 256.339 904.435 255.464V254.28C904.435 253.405 904.216 252.755 903.779 252.328C903.342 251.901 902.776 251.688 902.083 251.688C901.4 251.688 900.835 251.901 900.387 252.328C899.95 252.755 899.731 253.405 899.731 254.28V255.464C899.731 256.339 899.95 256.989 900.387 257.416C900.835 257.843 901.4 258.056 902.083 258.056ZM908.556 259H907.276V250.744H908.556V252.264H908.636C908.732 251.997 908.882 251.752 909.084 251.528C909.287 251.293 909.548 251.107 909.868 250.968C910.188 250.819 910.572 250.744 911.02 250.744H911.516V252.024H910.764C910.306 252.024 909.911 252.088 909.58 252.216C909.25 252.333 908.994 252.493 908.812 252.696C908.642 252.899 908.556 253.133 908.556 253.4V259ZM919.169 259H918.449C918.107 259 917.83 258.931 917.617 258.792C917.403 258.643 917.249 258.44 917.153 258.184C917.057 257.928 917.009 257.635 917.009 257.304V257.192L917.505 257.656H916.945C916.774 258.157 916.475 258.541 916.049 258.808C915.633 259.064 915.137 259.192 914.561 259.192C913.686 259.192 913.003 258.968 912.513 258.52C912.033 258.072 911.793 257.464 911.793 256.696C911.793 256.173 911.921 255.736 912.177 255.384C912.433 255.021 912.817 254.749 913.329 254.568C913.851 254.376 914.513 254.28 915.313 254.28H916.945V253.464C916.945 252.877 916.785 252.429 916.465 252.12C916.145 251.811 915.654 251.656 914.993 251.656C914.502 251.656 914.086 251.768 913.745 251.992C913.403 252.216 913.121 252.515 912.897 252.888L912.129 252.168C912.353 251.731 912.71 251.352 913.201 251.032C913.691 250.712 914.31 250.552 915.057 250.552C916.049 250.552 916.822 250.797 917.377 251.288C917.942 251.779 918.225 252.461 918.225 253.336V257.88H919.169V259ZM916.945 255.24H915.249C914.523 255.24 913.99 255.347 913.649 255.56C913.307 255.773 913.137 256.083 913.137 256.488V256.824C913.137 257.229 913.286 257.544 913.585 257.768C913.883 257.992 914.278 258.104 914.769 258.104C915.195 258.104 915.569 258.04 915.889 257.912C916.219 257.773 916.475 257.592 916.657 257.368C916.849 257.133 916.945 256.877 916.945 256.6V255.24ZM928.585 259V257.656H928.521C928.361 258.051 928.105 258.408 927.753 258.728C927.412 259.037 926.894 259.192 926.201 259.192C925.358 259.192 924.681 258.92 924.169 258.376C923.668 257.821 923.417 257.043 923.417 256.04V250.744H924.697V255.816C924.697 256.552 924.857 257.107 925.177 257.48C925.497 257.853 925.966 258.04 926.585 258.04C926.926 258.04 927.246 257.987 927.545 257.88C927.854 257.763 928.105 257.587 928.297 257.352C928.489 257.117 928.585 256.819 928.585 256.456V250.744H929.865V259H928.585ZM934.447 259H933.311C932.873 259 932.537 258.877 932.303 258.632C932.068 258.376 931.951 258.056 931.951 257.672V247.16H933.231V257.88H934.447V259ZM939.016 259H937.416C936.979 259 936.643 258.872 936.408 258.616C936.173 258.36 936.056 258.035 936.056 257.64V251.864H934.696V250.744H935.464C935.741 250.744 935.928 250.691 936.024 250.584C936.131 250.467 936.184 250.269 936.184 249.992V248.456H937.336V250.744H939.144V251.864H937.336V257.88H939.016V259ZM941.841 259H940.561V250.744H941.841V252.264H941.921C942.017 251.997 942.167 251.752 942.369 251.528C942.572 251.293 942.833 251.107 943.153 250.968C943.473 250.819 943.857 250.744 944.305 250.744H944.801V252.024H944.049C943.591 252.024 943.196 252.088 942.865 252.216C942.535 252.333 942.279 252.493 942.097 252.696C941.927 252.899 941.841 253.133 941.841 253.4V259ZM952.454 259H951.734C951.392 259 951.115 258.931 950.902 258.792C950.688 258.643 950.534 258.44 950.438 258.184C950.342 257.928 950.294 257.635 950.294 257.304V257.192L950.79 257.656H950.23C950.059 258.157 949.76 258.541 949.334 258.808C948.918 259.064 948.422 259.192 947.846 259.192C946.971 259.192 946.288 258.968 945.798 258.52C945.318 258.072 945.078 257.464 945.078 256.696C945.078 256.173 945.206 255.736 945.462 255.384C945.718 255.021 946.102 254.749 946.614 254.568C947.136 254.376 947.798 254.28 948.598 254.28H950.23V253.464C950.23 252.877 950.07 252.429 949.75 252.12C949.43 251.811 948.939 251.656 948.278 251.656C947.787 251.656 947.371 251.768 947.03 251.992C946.688 252.216 946.406 252.515 946.182 252.888L945.414 252.168C945.638 251.731 945.995 251.352 946.486 251.032C946.976 250.712 947.595 250.552 948.342 250.552C949.334 250.552 950.107 250.797 950.662 251.288C951.227 251.779 951.51 252.461 951.51 253.336V257.88H952.454V259ZM950.23 255.24H948.534C947.808 255.24 947.275 255.347 946.934 255.56C946.592 255.773 946.422 256.083 946.422 256.488V256.824C946.422 257.229 946.571 257.544 946.87 257.768C947.168 257.992 947.563 258.104 948.054 258.104C948.48 258.104 948.854 258.04 949.174 257.912C949.504 257.773 949.76 257.592 949.942 257.368C950.134 257.133 950.23 256.877 950.23 256.6V255.24ZM959.854 259.192C958.691 259.192 957.785 258.803 957.134 258.024C956.494 257.245 956.174 256.195 956.174 254.872C956.174 253.549 956.494 252.499 957.134 251.72C957.785 250.941 958.691 250.552 959.854 250.552C960.675 250.552 961.337 250.733 961.838 251.096C962.339 251.459 962.707 251.923 962.942 252.488L961.87 253.032C961.721 252.605 961.47 252.275 961.118 252.04C960.777 251.805 960.355 251.688 959.854 251.688C959.097 251.688 958.521 251.923 958.126 252.392C957.742 252.851 957.55 253.443 957.55 254.168V255.576C957.55 256.291 957.742 256.883 958.126 257.352C958.521 257.821 959.097 258.056 959.854 258.056C960.377 258.056 960.825 257.933 961.198 257.688C961.571 257.443 961.87 257.085 962.094 256.616L963.022 257.24C962.755 257.827 962.355 258.301 961.822 258.664C961.299 259.016 960.643 259.192 959.854 259.192ZM967.215 259.192C966.479 259.192 965.828 259.016 965.263 258.664C964.708 258.301 964.271 257.8 963.951 257.16C963.642 256.509 963.487 255.747 963.487 254.872C963.487 253.997 963.642 253.24 963.951 252.6C964.271 251.949 964.708 251.448 965.263 251.096C965.828 250.733 966.479 250.552 967.215 250.552C967.951 250.552 968.596 250.733 969.151 251.096C969.716 251.448 970.154 251.949 970.463 252.6C970.783 253.24 970.943 253.997 970.943 254.872C970.943 255.747 970.783 256.509 970.463 257.16C970.154 257.8 969.716 258.301 969.151 258.664C968.596 259.016 967.951 259.192 967.215 259.192ZM967.215 258.056C967.908 258.056 968.474 257.843 968.911 257.416C969.348 256.989 969.567 256.339 969.567 255.464V254.28C969.567 253.405 969.348 252.755 968.911 252.328C968.474 251.901 967.908 251.688 967.215 251.688C966.532 251.688 965.967 251.901 965.519 252.328C965.082 252.755 964.863 253.405 964.863 254.28V255.464C964.863 256.339 965.082 256.989 965.519 257.416C965.967 257.843 966.532 258.056 967.215 258.056ZM973.688 259H972.408V250.744H973.688V252.088H973.752C973.933 251.661 974.189 251.299 974.52 251C974.851 250.701 975.336 250.552 975.976 250.552C976.52 250.552 977.021 250.685 977.48 250.952C977.939 251.208 978.28 251.635 978.504 252.232H978.536C978.685 251.784 978.963 251.395 979.368 251.064C979.784 250.723 980.344 250.552 981.048 250.552C981.891 250.552 982.547 250.829 983.016 251.384C983.496 251.928 983.736 252.701 983.736 253.704V259H982.456V253.928C982.456 253.203 982.312 252.653 982.024 252.28C981.736 251.896 981.277 251.704 980.648 251.704C980.317 251.704 980.003 251.763 979.704 251.88C979.405 251.987 979.165 252.157 978.984 252.392C978.803 252.627 978.712 252.92 978.712 253.272V259H977.432V253.928C977.432 253.192 977.288 252.637 977 252.264C976.712 251.891 976.264 251.704 975.656 251.704C975.325 251.704 975.005 251.763 974.696 251.88C974.397 251.987 974.152 252.157 973.96 252.392C973.779 252.627 973.688 252.92 973.688 253.272V259ZM985.737 262.2V250.744H987.017V252.088H987.081C987.294 251.565 987.609 251.181 988.025 250.936C988.441 250.68 988.932 250.552 989.497 250.552C990.19 250.552 990.788 250.728 991.289 251.08C991.79 251.432 992.174 251.933 992.441 252.584C992.718 253.224 992.857 253.987 992.857 254.872C992.857 255.747 992.718 256.509 992.441 257.16C992.174 257.811 991.79 258.312 991.289 258.664C990.788 259.016 990.19 259.192 989.497 259.192C988.932 259.192 988.446 259.064 988.041 258.808C987.646 258.552 987.326 258.168 987.081 257.656H987.017V262.2H985.737ZM989.145 258.04C989.87 258.04 990.441 257.816 990.857 257.368C991.273 256.909 991.481 256.312 991.481 255.576V254.168C991.481 253.432 991.273 252.84 990.857 252.392C990.441 251.933 989.87 251.704 989.145 251.704C988.761 251.704 988.404 251.773 988.073 251.912C987.753 252.051 987.497 252.237 987.305 252.472C987.113 252.707 987.017 252.979 987.017 253.288V256.36C987.017 256.712 987.113 257.016 987.305 257.272C987.497 257.517 987.753 257.709 988.073 257.848C988.404 257.976 988.761 258.04 989.145 258.04ZM1001.1 259H1000.38C1000.04 259 999.759 258.931 999.546 258.792C999.333 258.643 999.178 258.44 999.082 258.184C998.986 257.928 998.938 257.635 998.938 257.304V257.192L999.434 257.656H998.874C998.703 258.157 998.405 258.541 997.978 258.808C997.562 259.064 997.066 259.192 996.49 259.192C995.615 259.192 994.933 258.968 994.442 258.52C993.962 258.072 993.722 257.464 993.722 256.696C993.722 256.173 993.85 255.736 994.106 255.384C994.362 255.021 994.746 254.749 995.258 254.568C995.781 254.376 996.442 254.28 997.242 254.28H998.874V253.464C998.874 252.877 998.714 252.429 998.394 252.12C998.074 251.811 997.583 251.656 996.922 251.656C996.431 251.656 996.015 251.768 995.674 251.992C995.333 252.216 995.05 252.515 994.826 252.888L994.058 252.168C994.282 251.731 994.639 251.352 995.13 251.032C995.621 250.712 996.239 250.552 996.986 250.552C997.978 250.552 998.751 250.797 999.306 251.288C999.871 251.779 1000.15 252.461 1000.15 253.336V257.88H1001.1V259ZM998.874 255.24H997.178C996.453 255.24 995.919 255.347 995.578 255.56C995.237 255.773 995.066 256.083 995.066 256.488V256.824C995.066 257.229 995.215 257.544 995.514 257.768C995.813 257.992 996.207 258.104 996.698 258.104C997.125 258.104 997.498 258.04 997.818 257.912C998.149 257.773 998.405 257.592 998.586 257.368C998.778 257.133 998.874 256.877 998.874 256.6V255.24ZM1005.36 259.192C1004.19 259.192 1003.29 258.803 1002.64 258.024C1002 257.245 1001.68 256.195 1001.68 254.872C1001.68 253.549 1002 252.499 1002.64 251.72C1003.29 250.941 1004.19 250.552 1005.36 250.552C1006.18 250.552 1006.84 250.733 1007.34 251.096C1007.84 251.459 1008.21 251.923 1008.45 252.488L1007.37 253.032C1007.22 252.605 1006.97 252.275 1006.62 252.04C1006.28 251.805 1005.86 251.688 1005.36 251.688C1004.6 251.688 1004.02 251.923 1003.63 252.392C1003.25 252.851 1003.05 253.443 1003.05 254.168V255.576C1003.05 256.291 1003.25 256.883 1003.63 257.352C1004.02 257.821 1004.6 258.056 1005.36 258.056C1005.88 258.056 1006.33 257.933 1006.7 257.688C1007.07 257.443 1007.37 257.085 1007.6 256.616L1008.53 257.24C1008.26 257.827 1007.86 258.301 1007.33 258.664C1006.8 259.016 1006.15 259.192 1005.36 259.192ZM1013.12 259H1011.52C1011.08 259 1010.74 258.872 1010.51 258.616C1010.27 258.36 1010.16 258.035 1010.16 257.64V251.864H1008.8V250.744H1009.56C1009.84 250.744 1010.03 250.691 1010.12 250.584C1010.23 250.467 1010.28 250.269 1010.28 249.992V248.456H1011.44V250.744H1013.24V251.864H1011.44V257.88H1013.12V259ZM1021.38 259H1020.66C1020.32 259 1020.04 258.931 1019.83 258.792C1019.62 258.643 1019.46 258.44 1019.37 258.184C1019.27 257.928 1019.22 257.635 1019.22 257.304V257.192L1019.72 257.656H1019.16C1018.99 258.157 1018.69 258.541 1018.26 258.808C1017.85 259.064 1017.35 259.192 1016.77 259.192C1015.9 259.192 1015.22 258.968 1014.73 258.52C1014.25 258.072 1014.01 257.464 1014.01 256.696C1014.01 256.173 1014.13 255.736 1014.39 255.384C1014.65 255.021 1015.03 254.749 1015.54 254.568C1016.06 254.376 1016.73 254.28 1017.53 254.28H1019.16V253.464C1019.16 252.877 1019 252.429 1018.68 252.12C1018.36 251.811 1017.87 251.656 1017.21 251.656C1016.71 251.656 1016.3 251.768 1015.96 251.992C1015.62 252.216 1015.33 252.515 1015.11 252.888L1014.34 252.168C1014.57 251.731 1014.92 251.352 1015.41 251.032C1015.9 250.712 1016.52 250.552 1017.27 250.552C1018.26 250.552 1019.03 250.797 1019.59 251.288C1020.15 251.779 1020.44 252.461 1020.44 253.336V257.88H1021.38V259ZM1019.16 255.24H1017.46C1016.74 255.24 1016.2 255.347 1015.86 255.56C1015.52 255.773 1015.35 256.083 1015.35 256.488V256.824C1015.35 257.229 1015.5 257.544 1015.8 257.768C1016.1 257.992 1016.49 258.104 1016.98 258.104C1017.41 258.104 1017.78 258.04 1018.1 257.912C1018.43 257.773 1018.69 257.592 1018.87 257.368C1019.06 257.133 1019.16 256.877 1019.16 256.6V255.24ZM1032.43 259H1031.71C1031.37 259 1031.09 258.931 1030.88 258.792C1030.66 258.643 1030.51 258.44 1030.41 258.184C1030.32 257.928 1030.27 257.635 1030.27 257.304V257.192L1030.77 257.656H1030.21C1030.03 258.157 1029.74 258.541 1029.31 258.808C1028.89 259.064 1028.4 259.192 1027.82 259.192C1026.95 259.192 1026.26 258.968 1025.77 258.52C1025.29 258.072 1025.05 257.464 1025.05 256.696C1025.05 256.173 1025.18 255.736 1025.44 255.384C1025.69 255.021 1026.08 254.749 1026.59 254.568C1027.11 254.376 1027.77 254.28 1028.57 254.28H1030.21V253.464C1030.21 252.877 1030.05 252.429 1029.73 252.12C1029.41 251.811 1028.91 251.656 1028.25 251.656C1027.76 251.656 1027.35 251.768 1027.01 251.992C1026.66 252.216 1026.38 252.515 1026.16 252.888L1025.39 252.168C1025.61 251.731 1025.97 251.352 1026.46 251.032C1026.95 250.712 1027.57 250.552 1028.32 250.552C1029.31 250.552 1030.08 250.797 1030.64 251.288C1031.2 251.779 1031.49 252.461 1031.49 253.336V257.88H1032.43V259ZM1030.21 255.24H1028.51C1027.78 255.24 1027.25 255.347 1026.91 255.56C1026.57 255.773 1026.4 256.083 1026.4 256.488V256.824C1026.4 257.229 1026.55 257.544 1026.85 257.768C1027.14 257.992 1027.54 258.104 1028.03 258.104C1028.46 258.104 1028.83 258.04 1029.15 257.912C1029.48 257.773 1029.74 257.592 1029.92 257.368C1030.11 257.133 1030.21 256.877 1030.21 256.6V255.24ZM1042.04 259V257.656H1041.97C1041.73 258.168 1041.4 258.552 1041 258.808C1040.6 259.064 1040.12 259.192 1039.56 259.192C1038.87 259.192 1038.28 259.016 1037.77 258.664C1037.26 258.312 1036.87 257.811 1036.6 257.16C1036.33 256.509 1036.2 255.747 1036.2 254.872C1036.2 253.987 1036.33 253.224 1036.6 252.584C1036.87 251.933 1037.26 251.432 1037.77 251.08C1038.28 250.728 1038.87 250.552 1039.56 250.552C1040.12 250.552 1040.61 250.68 1041.03 250.936C1041.45 251.181 1041.76 251.565 1041.97 252.088H1042.04V247.16H1043.32V259H1042.04ZM1039.91 258.04C1040.3 258.04 1040.66 257.976 1040.98 257.848C1041.3 257.709 1041.56 257.517 1041.75 257.272C1041.94 257.016 1042.04 256.712 1042.04 256.36V253.288C1042.04 252.979 1041.94 252.707 1041.75 252.472C1041.56 252.237 1041.3 252.051 1040.98 251.912C1040.66 251.773 1040.3 251.704 1039.91 251.704C1039.19 251.704 1038.62 251.933 1038.2 252.392C1037.78 252.84 1037.57 253.432 1037.57 254.168V255.576C1037.57 256.312 1037.78 256.909 1038.2 257.368C1038.62 257.816 1039.19 258.04 1039.91 258.04ZM1048.52 259.192C1047.78 259.192 1047.13 259.016 1046.57 258.664C1046.01 258.301 1045.57 257.8 1045.25 257.16C1044.95 256.509 1044.79 255.747 1044.79 254.872C1044.79 253.997 1044.95 253.24 1045.25 252.6C1045.57 251.949 1046.01 251.448 1046.57 251.096C1047.13 250.733 1047.78 250.552 1048.52 250.552C1049.25 250.552 1049.9 250.733 1050.45 251.096C1051.02 251.448 1051.46 251.949 1051.77 252.6C1052.09 253.24 1052.25 253.997 1052.25 254.872C1052.25 255.747 1052.09 256.509 1051.77 257.16C1051.46 257.8 1051.02 258.301 1050.45 258.664C1049.9 259.016 1049.25 259.192 1048.52 259.192ZM1048.52 258.056C1049.21 258.056 1049.78 257.843 1050.21 257.416C1050.65 256.989 1050.87 256.339 1050.87 255.464V254.28C1050.87 253.405 1050.65 252.755 1050.21 252.328C1049.78 251.901 1049.21 251.688 1048.52 251.688C1047.84 251.688 1047.27 251.901 1046.82 252.328C1046.39 252.755 1046.17 253.405 1046.17 254.28V255.464C1046.17 256.339 1046.39 256.989 1046.82 257.416C1047.27 257.843 1047.84 258.056 1048.52 258.056ZM1054.99 259H1053.71V250.744H1054.99V252.088H1055.06C1055.26 251.619 1055.54 251.245 1055.9 250.968C1056.28 250.691 1056.77 250.552 1057.39 250.552C1058.25 250.552 1058.92 250.829 1059.41 251.384C1059.91 251.928 1060.16 252.701 1060.16 253.704V259H1058.88V253.928C1058.88 253.192 1058.72 252.637 1058.4 252.264C1058.09 251.891 1057.63 251.704 1057.01 251.704C1056.67 251.704 1056.34 251.763 1056.03 251.88C1055.72 251.987 1055.47 252.157 1055.28 252.392C1055.09 252.627 1054.99 252.92 1054.99 253.272V259ZM1067.45 259V257.656H1067.38C1067.14 258.168 1066.81 258.552 1066.41 258.808C1066.01 259.064 1065.53 259.192 1064.97 259.192C1064.28 259.192 1063.69 259.016 1063.17 258.664C1062.67 258.312 1062.28 257.811 1062.01 257.16C1061.74 256.509 1061.61 255.747 1061.61 254.872C1061.61 253.987 1061.74 253.224 1062.01 252.584C1062.28 251.933 1062.67 251.432 1063.17 251.08C1063.69 250.728 1064.28 250.552 1064.97 250.552C1065.53 250.552 1066.02 250.68 1066.44 250.936C1066.85 251.181 1067.17 251.565 1067.38 252.088H1067.45V247.16H1068.73V259H1067.45ZM1065.32 258.04C1065.71 258.04 1066.07 257.976 1066.39 257.848C1066.71 257.709 1066.97 257.517 1067.16 257.272C1067.35 257.016 1067.45 256.712 1067.45 256.36V253.288C1067.45 252.979 1067.35 252.707 1067.16 252.472C1066.97 252.237 1066.71 252.051 1066.39 251.912C1066.07 251.773 1065.71 251.704 1065.32 251.704C1064.6 251.704 1064.03 251.933 1063.61 252.392C1063.19 252.84 1062.98 253.432 1062.98 254.168V255.576C1062.98 256.312 1063.19 256.909 1063.61 257.368C1064.03 257.816 1064.6 258.04 1065.32 258.04ZM1073.91 259.192C1073.16 259.192 1072.51 259.016 1071.96 258.664C1071.4 258.301 1070.97 257.8 1070.66 257.16C1070.35 256.509 1070.2 255.747 1070.2 254.872C1070.2 253.997 1070.35 253.24 1070.66 252.6C1070.97 251.949 1071.4 251.448 1071.96 251.096C1072.51 250.733 1073.16 250.552 1073.91 250.552C1074.65 250.552 1075.28 250.728 1075.81 251.08C1076.35 251.421 1076.76 251.896 1077.05 252.504C1077.33 253.112 1077.48 253.805 1077.48 254.584V255.192H1071.54V255.576C1071.54 256.291 1071.76 256.888 1072.18 257.368C1072.62 257.837 1073.22 258.072 1073.99 258.072C1074.51 258.072 1074.97 257.949 1075.35 257.704C1075.75 257.459 1076.05 257.107 1076.26 256.648L1077.17 257.304C1076.91 257.859 1076.49 258.312 1075.93 258.664C1075.36 259.016 1074.69 259.192 1073.91 259.192ZM1073.91 251.624C1073.45 251.624 1073.04 251.731 1072.68 251.944C1072.33 252.157 1072.05 252.456 1071.85 252.84C1071.64 253.213 1071.54 253.64 1071.54 254.12V254.232H1076.1V254.056C1076.1 253.565 1076.01 253.139 1075.83 252.776C1075.65 252.413 1075.39 252.131 1075.06 251.928C1074.73 251.725 1074.35 251.624 1073.91 251.624ZM1085.4 259H1083.91L1081.02 250.744H1082.3L1083.74 254.84L1084.63 257.656H1084.71L1085.61 254.84L1087.08 250.744H1088.31L1085.4 259ZM1095.9 259H1095.18C1094.84 259 1094.57 258.931 1094.35 258.792C1094.14 258.643 1093.98 258.44 1093.89 258.184C1093.79 257.928 1093.74 257.635 1093.74 257.304V257.192L1094.24 257.656H1093.68C1093.51 258.157 1093.21 258.541 1092.78 258.808C1092.37 259.064 1091.87 259.192 1091.3 259.192C1090.42 259.192 1089.74 258.968 1089.25 258.52C1088.77 258.072 1088.53 257.464 1088.53 256.696C1088.53 256.173 1088.66 255.736 1088.91 255.384C1089.17 255.021 1089.55 254.749 1090.06 254.568C1090.59 254.376 1091.25 254.28 1092.05 254.28H1093.68V253.464C1093.68 252.877 1093.52 252.429 1093.2 252.12C1092.88 251.811 1092.39 251.656 1091.73 251.656C1091.24 251.656 1090.82 251.768 1090.48 251.992C1090.14 252.216 1089.86 252.515 1089.63 252.888L1088.86 252.168C1089.09 251.731 1089.45 251.352 1089.94 251.032C1090.43 250.712 1091.05 250.552 1091.79 250.552C1092.78 250.552 1093.56 250.797 1094.11 251.288C1094.68 251.779 1094.96 252.461 1094.96 253.336V257.88H1095.9V259ZM1093.68 255.24H1091.98C1091.26 255.24 1090.73 255.347 1090.38 255.56C1090.04 255.773 1089.87 256.083 1089.87 256.488V256.824C1089.87 257.229 1090.02 257.544 1090.32 257.768C1090.62 257.992 1091.01 258.104 1091.5 258.104C1091.93 258.104 1092.3 258.04 1092.62 257.912C1092.95 257.773 1093.21 257.592 1093.39 257.368C1093.58 257.133 1093.68 256.877 1093.68 256.6V255.24ZM1100.1 256.36L1102.1 250.744H1103.36L1099.67 260.92C1099.55 261.251 1099.42 261.507 1099.27 261.688C1099.13 261.88 1098.94 262.013 1098.71 262.088C1098.47 262.163 1098.15 262.2 1097.75 262.2H1097.09V261.08H1098.39L1099.01 259.32L1095.92 250.744H1097.2L1099.19 256.36L1099.57 257.704H1099.65L1100.1 256.36ZM1110.86 259H1110.14C1109.8 259 1109.52 258.931 1109.31 258.792C1109.09 258.643 1108.94 258.44 1108.84 258.184C1108.75 257.928 1108.7 257.635 1108.7 257.304V257.192L1109.19 257.656H1108.63C1108.46 258.157 1108.16 258.541 1107.74 258.808C1107.32 259.064 1106.83 259.192 1106.25 259.192C1105.38 259.192 1104.69 258.968 1104.2 258.52C1103.72 258.072 1103.48 257.464 1103.48 256.696C1103.48 256.173 1103.61 255.736 1103.87 255.384C1104.12 255.021 1104.51 254.749 1105.02 254.568C1105.54 254.376 1106.2 254.28 1107 254.28H1108.63V253.464C1108.63 252.877 1108.47 252.429 1108.15 252.12C1107.83 251.811 1107.34 251.656 1106.68 251.656C1106.19 251.656 1105.78 251.768 1105.43 251.992C1105.09 252.216 1104.81 252.515 1104.59 252.888L1103.82 252.168C1104.04 251.731 1104.4 251.352 1104.89 251.032C1105.38 250.712 1106 250.552 1106.75 250.552C1107.74 250.552 1108.51 250.797 1109.07 251.288C1109.63 251.779 1109.91 252.461 1109.91 253.336V257.88H1110.86V259ZM1108.63 255.24H1106.94C1106.21 255.24 1105.68 255.347 1105.34 255.56C1105 255.773 1104.83 256.083 1104.83 256.488V256.824C1104.83 257.229 1104.98 257.544 1105.27 257.768C1105.57 257.992 1105.97 258.104 1106.46 258.104C1106.88 258.104 1107.26 258.04 1107.58 257.912C1107.91 257.773 1108.16 257.592 1108.35 257.368C1108.54 257.133 1108.63 256.877 1108.63 256.6V255.24ZM1114.52 259.192C1113.77 259.192 1113.13 259.048 1112.6 258.76C1112.08 258.461 1111.63 258.067 1111.26 257.576L1112.17 256.84C1112.49 257.235 1112.85 257.544 1113.24 257.768C1113.64 257.992 1114.1 258.104 1114.62 258.104C1115.16 258.104 1115.59 257.987 1115.88 257.752C1116.19 257.517 1116.35 257.187 1116.35 256.76C1116.35 256.44 1116.24 256.163 1116.03 255.928C1115.83 255.693 1115.45 255.539 1114.91 255.464L1114.25 255.368C1113.75 255.293 1113.3 255.171 1112.89 255C1112.49 254.819 1112.17 254.568 1111.93 254.248C1111.71 253.917 1111.6 253.496 1111.6 252.984C1111.6 252.163 1111.87 251.555 1112.43 251.16C1112.99 250.755 1113.7 250.552 1114.54 250.552C1114.99 250.552 1115.38 250.605 1115.72 250.712C1116.08 250.819 1116.39 250.973 1116.67 251.176C1116.95 251.368 1117.2 251.603 1117.42 251.88L1116.57 252.648C1116.39 252.392 1116.12 252.163 1115.77 251.96C1115.42 251.747 1114.98 251.64 1114.44 251.64C1113.92 251.64 1113.52 251.757 1113.24 251.992C1112.97 252.216 1112.83 252.525 1112.83 252.92C1112.83 253.315 1112.96 253.608 1113.23 253.8C1113.51 253.981 1113.9 254.115 1114.41 254.2L1115.05 254.296C1115.97 254.435 1116.62 254.701 1117 255.096C1117.39 255.48 1117.58 255.987 1117.58 256.616C1117.58 257.149 1117.46 257.608 1117.21 257.992C1116.97 258.376 1116.62 258.675 1116.16 258.888C1115.7 259.091 1115.15 259.192 1114.52 259.192ZM1125.43 256.36L1127.43 250.744H1128.7L1125 260.92C1124.88 261.251 1124.75 261.507 1124.6 261.688C1124.46 261.88 1124.27 262.013 1124.04 262.088C1123.8 262.163 1123.48 262.2 1123.08 262.2H1122.42V261.08H1123.72L1124.34 259.32L1121.26 250.744H1122.54L1124.52 256.36L1124.9 257.704H1124.98L1125.43 256.36ZM800.64 278H799.36V269.744H800.64V271.088H800.704C800.885 270.661 801.141 270.299 801.472 270C801.803 269.701 802.288 269.552 802.928 269.552C803.472 269.552 803.973 269.685 804.432 269.952C804.891 270.208 805.232 270.635 805.456 271.232H805.488C805.637 270.784 805.915 270.395 806.32 270.064C806.736 269.723 807.296 269.552 808 269.552C808.843 269.552 809.499 269.829 809.968 270.384C810.448 270.928 810.688 271.701 810.688 272.704V278H809.408V272.928C809.408 272.203 809.264 271.653 808.976 271.28C808.688 270.896 808.229 270.704 807.6 270.704C807.269 270.704 806.955 270.763 806.656 270.88C806.357 270.987 806.117 271.157 805.936 271.392C805.755 271.627 805.664 271.92 805.664 272.272V278H804.384V272.928C804.384 272.192 804.24 271.637 803.952 271.264C803.664 270.891 803.216 270.704 802.608 270.704C802.277 270.704 801.957 270.763 801.648 270.88C801.349 270.987 801.104 271.157 800.912 271.392C800.731 271.627 800.64 271.92 800.64 272.272V278ZM819.409 278H818.689C818.347 278 818.07 277.931 817.857 277.792C817.643 277.643 817.489 277.44 817.393 277.184C817.297 276.928 817.249 276.635 817.249 276.304V276.192L817.745 276.656H817.185C817.014 277.157 816.715 277.541 816.289 277.808C815.873 278.064 815.377 278.192 814.801 278.192C813.926 278.192 813.243 277.968 812.753 277.52C812.273 277.072 812.033 276.464 812.033 275.696C812.033 275.173 812.161 274.736 812.417 274.384C812.673 274.021 813.057 273.749 813.569 273.568C814.091 273.376 814.753 273.28 815.553 273.28H817.185V272.464C817.185 271.877 817.025 271.429 816.705 271.12C816.385 270.811 815.894 270.656 815.233 270.656C814.742 270.656 814.326 270.768 813.985 270.992C813.643 271.216 813.361 271.515 813.137 271.888L812.369 271.168C812.593 270.731 812.95 270.352 813.441 270.032C813.931 269.712 814.55 269.552 815.297 269.552C816.289 269.552 817.062 269.797 817.617 270.288C818.182 270.779 818.465 271.461 818.465 272.336V276.88H819.409V278ZM817.185 274.24H815.489C814.763 274.24 814.23 274.347 813.889 274.56C813.547 274.773 813.377 275.083 813.377 275.488V275.824C813.377 276.229 813.526 276.544 813.825 276.768C814.123 276.992 814.518 277.104 815.009 277.104C815.435 277.104 815.809 277.04 816.129 276.912C816.459 276.773 816.715 276.592 816.897 276.368C817.089 276.133 817.185 275.877 817.185 275.6V274.24ZM824.02 278H822.42C821.982 278 821.646 277.872 821.412 277.616C821.177 277.36 821.06 277.035 821.06 276.64V270.864H819.7V269.744H820.468C820.745 269.744 820.932 269.691 821.028 269.584C821.134 269.467 821.188 269.269 821.188 268.992V267.456H822.34V269.744H824.148V270.864H822.34V276.88H824.02V278ZM828.607 278.192C827.86 278.192 827.209 278.016 826.655 277.664C826.1 277.301 825.668 276.8 825.359 276.16C825.049 275.509 824.894 274.747 824.894 273.872C824.894 272.997 825.049 272.24 825.359 271.6C825.668 270.949 826.1 270.448 826.655 270.096C827.209 269.733 827.86 269.552 828.607 269.552C829.343 269.552 829.977 269.728 830.511 270.08C831.044 270.421 831.455 270.896 831.743 271.504C832.031 272.112 832.175 272.805 832.175 273.584V274.192H826.239V274.576C826.239 275.291 826.452 275.888 826.878 276.368C827.316 276.837 827.919 277.072 828.687 277.072C829.209 277.072 829.663 276.949 830.047 276.704C830.441 276.459 830.745 276.107 830.959 275.648L831.871 276.304C831.604 276.859 831.188 277.312 830.623 277.664C830.057 278.016 829.385 278.192 828.607 278.192ZM828.607 270.624C828.148 270.624 827.737 270.731 827.375 270.944C827.023 271.157 826.745 271.456 826.543 271.84C826.34 272.213 826.239 272.64 826.239 273.12V273.232H830.799V273.056C830.799 272.565 830.708 272.139 830.527 271.776C830.345 271.413 830.089 271.131 829.759 270.928C829.428 270.725 829.044 270.624 828.607 270.624ZM834.924 278H833.644V269.744H834.924V271.264H835.004C835.1 270.997 835.249 270.752 835.452 270.528C835.654 270.293 835.916 270.107 836.236 269.968C836.556 269.819 836.94 269.744 837.388 269.744H837.884V271.024H837.132C836.673 271.024 836.278 271.088 835.948 271.216C835.617 271.333 835.361 271.493 835.18 271.696C835.009 271.899 834.924 272.133 834.924 272.4V278ZM839.519 267.808C839.252 267.808 839.055 267.744 838.927 267.616C838.799 267.477 838.735 267.301 838.735 267.088V266.88C838.735 266.667 838.799 266.496 838.927 266.368C839.055 266.229 839.252 266.16 839.519 266.16C839.796 266.16 839.993 266.229 840.111 266.368C840.239 266.496 840.303 266.667 840.303 266.88V267.088C840.303 267.301 840.239 267.477 840.111 267.616C839.993 267.744 839.796 267.808 839.519 267.808ZM838.879 278V269.744H840.159V278H838.879ZM848.959 278H848.239C847.897 278 847.62 277.931 847.407 277.792C847.193 277.643 847.039 277.44 846.943 277.184C846.847 276.928 846.799 276.635 846.799 276.304V276.192L847.295 276.656H846.735C846.564 277.157 846.265 277.541 845.839 277.808C845.423 278.064 844.927 278.192 844.351 278.192C843.476 278.192 842.793 277.968 842.303 277.52C841.823 277.072 841.583 276.464 841.583 275.696C841.583 275.173 841.711 274.736 841.967 274.384C842.223 274.021 842.607 273.749 843.119 273.568C843.641 273.376 844.303 273.28 845.103 273.28H846.735V272.464C846.735 271.877 846.575 271.429 846.255 271.12C845.935 270.811 845.444 270.656 844.783 270.656C844.292 270.656 843.876 270.768 843.535 270.992C843.193 271.216 842.911 271.515 842.687 271.888L841.919 271.168C842.143 270.731 842.5 270.352 842.991 270.032C843.481 269.712 844.1 269.552 844.847 269.552C845.839 269.552 846.612 269.797 847.167 270.288C847.732 270.779 848.015 271.461 848.015 272.336V276.88H848.959V278ZM846.735 274.24H845.039C844.313 274.24 843.78 274.347 843.439 274.56C843.097 274.773 842.927 275.083 842.927 275.488V275.824C842.927 276.229 843.076 276.544 843.375 276.768C843.673 276.992 844.068 277.104 844.559 277.104C844.985 277.104 845.359 277.04 845.679 276.912C846.009 276.773 846.265 276.592 846.447 276.368C846.639 276.133 846.735 275.877 846.735 275.6V274.24ZM852.642 278H851.506C851.068 278 850.732 277.877 850.498 277.632C850.263 277.376 850.146 277.056 850.146 276.672V266.16H851.426V276.88H852.642V278ZM854.505 267.808C854.238 267.808 854.041 267.744 853.913 267.616C853.785 267.477 853.721 267.301 853.721 267.088V266.88C853.721 266.667 853.785 266.496 853.913 266.368C854.041 266.229 854.238 266.16 854.505 266.16C854.782 266.16 854.98 266.229 855.097 266.368C855.225 266.496 855.289 266.667 855.289 266.88V267.088C855.289 267.301 855.225 267.477 855.097 267.616C854.98 267.744 854.782 267.808 854.505 267.808ZM853.865 278V269.744H855.145V278H853.865ZM862.761 278H856.393V276.928L861.081 270.864H856.537V269.744H862.633V270.704L857.849 276.88H862.761V278ZM870.727 278H870.007C869.666 278 869.388 277.931 869.175 277.792C868.962 277.643 868.807 277.44 868.711 277.184C868.615 276.928 868.567 276.635 868.567 276.304V276.192L869.063 276.656H868.503C868.332 277.157 868.034 277.541 867.607 277.808C867.191 278.064 866.695 278.192 866.119 278.192C865.244 278.192 864.562 277.968 864.071 277.52C863.591 277.072 863.351 276.464 863.351 275.696C863.351 275.173 863.479 274.736 863.735 274.384C863.991 274.021 864.375 273.749 864.887 273.568C865.41 273.376 866.071 273.28 866.871 273.28H868.503V272.464C868.503 271.877 868.343 271.429 868.023 271.12C867.703 270.811 867.212 270.656 866.551 270.656C866.06 270.656 865.644 270.768 865.303 270.992C864.962 271.216 864.679 271.515 864.455 271.888L863.687 271.168C863.911 270.731 864.268 270.352 864.759 270.032C865.25 269.712 865.868 269.552 866.615 269.552C867.607 269.552 868.38 269.797 868.935 270.288C869.5 270.779 869.783 271.461 869.783 272.336V276.88H870.727V278ZM868.503 274.24H866.807C866.082 274.24 865.548 274.347 865.207 274.56C864.866 274.773 864.695 275.083 864.695 275.488V275.824C864.695 276.229 864.844 276.544 865.143 276.768C865.442 276.992 865.836 277.104 866.327 277.104C866.754 277.104 867.127 277.04 867.447 276.912C867.778 276.773 868.034 276.592 868.215 276.368C868.407 276.133 868.503 275.877 868.503 275.6V274.24ZM868.487 266.096L866.791 268.64L865.959 268.256L867.319 265.536L868.487 266.096ZM878.479 278H876.879C876.442 278 876.106 277.872 875.871 277.616C875.636 277.36 875.519 277.035 875.519 276.64V270.864H874.159V269.744H874.927C875.204 269.744 875.391 269.691 875.487 269.584C875.594 269.467 875.647 269.269 875.647 268.992V267.456H876.799V269.744H878.607V270.864H876.799V276.88H878.479V278ZM885.112 278V276.656H885.048C884.888 277.051 884.632 277.408 884.28 277.728C883.939 278.037 883.422 278.192 882.728 278.192C881.886 278.192 881.208 277.92 880.696 277.376C880.195 276.821 879.944 276.043 879.944 275.04V269.744H881.224V274.816C881.224 275.552 881.384 276.107 881.704 276.48C882.024 276.853 882.494 277.04 883.112 277.04C883.454 277.04 883.774 276.987 884.072 276.88C884.382 276.763 884.632 276.587 884.824 276.352C885.016 276.117 885.112 275.819 885.112 275.456V269.744H886.392V278H885.112ZM890.958 278.192C890.201 278.192 889.561 278.048 889.038 277.76C888.515 277.461 888.067 277.067 887.694 276.576L888.606 275.84C888.926 276.235 889.283 276.544 889.678 276.768C890.073 276.992 890.531 277.104 891.054 277.104C891.598 277.104 892.019 276.987 892.318 276.752C892.627 276.517 892.782 276.187 892.782 275.76C892.782 275.44 892.675 275.163 892.462 274.928C892.259 274.693 891.886 274.539 891.342 274.464L890.686 274.368C890.185 274.293 889.731 274.171 889.326 274C888.921 273.819 888.601 273.568 888.366 273.248C888.142 272.917 888.03 272.496 888.03 271.984C888.03 271.163 888.307 270.555 888.862 270.16C889.427 269.755 890.131 269.552 890.974 269.552C891.422 269.552 891.817 269.605 892.158 269.712C892.51 269.819 892.825 269.973 893.102 270.176C893.379 270.368 893.63 270.603 893.854 270.88L893.006 271.648C892.825 271.392 892.558 271.163 892.206 270.96C891.854 270.747 891.411 270.64 890.878 270.64C890.355 270.64 889.955 270.757 889.678 270.992C889.401 271.216 889.262 271.525 889.262 271.92C889.262 272.315 889.395 272.608 889.662 272.8C889.939 272.981 890.334 273.115 890.846 273.2L891.486 273.296C892.403 273.435 893.054 273.701 893.438 274.096C893.822 274.48 894.014 274.987 894.014 275.616C894.014 276.149 893.891 276.608 893.646 276.992C893.401 277.376 893.049 277.675 892.59 277.888C892.131 278.091 891.587 278.192 890.958 278.192ZM900.056 278H898.776V269.744H900.056V271.264H900.136C900.232 270.997 900.382 270.752 900.584 270.528C900.787 270.293 901.048 270.107 901.368 269.968C901.688 269.819 902.072 269.744 902.52 269.744H903.016V271.024H902.264C901.806 271.024 901.411 271.088 901.08 271.216C900.75 271.333 900.494 271.493 900.312 271.696C900.142 271.899 900.056 272.133 900.056 272.4V278ZM907.037 278.192C906.29 278.192 905.64 278.016 905.085 277.664C904.53 277.301 904.098 276.8 903.789 276.16C903.48 275.509 903.325 274.747 903.325 273.872C903.325 272.997 903.48 272.24 903.789 271.6C904.098 270.949 904.53 270.448 905.085 270.096C905.64 269.733 906.29 269.552 907.037 269.552C907.773 269.552 908.408 269.728 908.941 270.08C909.474 270.421 909.885 270.896 910.173 271.504C910.461 272.112 910.605 272.805 910.605 273.584V274.192H904.669V274.576C904.669 275.291 904.882 275.888 905.309 276.368C905.746 276.837 906.349 277.072 907.117 277.072C907.64 277.072 908.093 276.949 908.477 276.704C908.872 276.459 909.176 276.107 909.389 275.648L910.301 276.304C910.034 276.859 909.618 277.312 909.053 277.664C908.488 278.016 907.816 278.192 907.037 278.192ZM907.037 270.624C906.578 270.624 906.168 270.731 905.805 270.944C905.453 271.157 905.176 271.456 904.973 271.84C904.77 272.213 904.669 272.64 904.669 273.12V273.232H909.229V273.056C909.229 272.565 909.138 272.139 908.957 271.776C908.776 271.413 908.52 271.131 908.189 270.928C907.858 270.725 907.474 270.624 907.037 270.624ZM915.146 278.192C913.984 278.192 913.077 277.803 912.426 277.024C911.786 276.245 911.466 275.195 911.466 273.872C911.466 272.549 911.786 271.499 912.426 270.72C913.077 269.941 913.984 269.552 915.146 269.552C915.968 269.552 916.629 269.733 917.13 270.096C917.632 270.459 918 270.923 918.234 271.488L917.162 272.032C917.013 271.605 916.762 271.275 916.41 271.04C916.069 270.805 915.648 270.688 915.146 270.688C914.389 270.688 913.813 270.923 913.418 271.392C913.034 271.851 912.842 272.443 912.842 273.168V274.576C912.842 275.291 913.034 275.883 913.418 276.352C913.813 276.821 914.389 277.056 915.146 277.056C915.669 277.056 916.117 276.933 916.49 276.688C916.864 276.443 917.162 276.085 917.386 275.616L918.314 276.24C918.048 276.827 917.648 277.301 917.114 277.664C916.592 278.016 915.936 278.192 915.146 278.192ZM924.569 278V276.656H924.505C924.345 277.051 924.089 277.408 923.737 277.728C923.396 278.037 922.879 278.192 922.185 278.192C921.343 278.192 920.665 277.92 920.153 277.376C919.652 276.821 919.401 276.043 919.401 275.04V269.744H920.681V274.816C920.681 275.552 920.841 276.107 921.161 276.48C921.481 276.853 921.951 277.04 922.569 277.04C922.911 277.04 923.231 276.987 923.529 276.88C923.839 276.763 924.089 276.587 924.281 276.352C924.473 276.117 924.569 275.819 924.569 275.456V269.744H925.849V278H924.569ZM931.039 278.192C930.292 278.192 929.642 278.016 929.087 277.664C928.532 277.301 928.1 276.8 927.791 276.16C927.482 275.509 927.327 274.747 927.327 273.872C927.327 272.997 927.482 272.24 927.791 271.6C928.1 270.949 928.532 270.448 929.087 270.096C929.642 269.733 930.292 269.552 931.039 269.552C931.775 269.552 932.41 269.728 932.943 270.08C933.476 270.421 933.887 270.896 934.175 271.504C934.463 272.112 934.607 272.805 934.607 273.584V274.192H928.671V274.576C928.671 275.291 928.884 275.888 929.311 276.368C929.748 276.837 930.351 277.072 931.119 277.072C931.642 277.072 932.095 276.949 932.479 276.704C932.874 276.459 933.178 276.107 933.391 275.648L934.303 276.304C934.036 276.859 933.62 277.312 933.055 277.664C932.49 278.016 931.818 278.192 931.039 278.192ZM931.039 270.624C930.58 270.624 930.17 270.731 929.807 270.944C929.455 271.157 929.178 271.456 928.975 271.84C928.772 272.213 928.671 272.64 928.671 273.12V273.232H933.231V273.056C933.231 272.565 933.14 272.139 932.959 271.776C932.778 271.413 932.522 271.131 932.191 270.928C931.86 270.725 931.476 270.624 931.039 270.624ZM937.356 278H936.076V269.744H937.356V271.264H937.436C937.532 270.997 937.682 270.752 937.884 270.528C938.087 270.293 938.348 270.107 938.668 269.968C938.988 269.819 939.372 269.744 939.82 269.744H940.316V271.024H939.564C939.106 271.024 938.711 271.088 938.38 271.216C938.05 271.333 937.794 271.493 937.612 271.696C937.442 271.899 937.356 272.133 937.356 272.4V278ZM946.497 278V276.656H946.433C946.188 277.168 945.863 277.552 945.457 277.808C945.063 278.064 944.583 278.192 944.017 278.192C943.335 278.192 942.737 278.016 942.225 277.664C941.724 277.312 941.335 276.811 941.057 276.16C940.791 275.509 940.657 274.747 940.657 273.872C940.657 272.987 940.791 272.224 941.057 271.584C941.335 270.933 941.724 270.432 942.225 270.08C942.737 269.728 943.335 269.552 944.017 269.552C944.583 269.552 945.073 269.68 945.489 269.936C945.905 270.181 946.22 270.565 946.433 271.088H946.497V266.16H947.777V278H946.497ZM944.369 277.04C944.764 277.04 945.121 276.976 945.441 276.848C945.761 276.709 946.017 276.517 946.209 276.272C946.401 276.016 946.497 275.712 946.497 275.36V272.288C946.497 271.979 946.401 271.707 946.209 271.472C946.017 271.237 945.761 271.051 945.441 270.912C945.121 270.773 944.764 270.704 944.369 270.704C943.655 270.704 943.084 270.933 942.657 271.392C942.241 271.84 942.033 272.432 942.033 273.168V274.576C942.033 275.312 942.241 275.909 942.657 276.368C943.084 276.816 943.655 277.04 944.369 277.04ZM952.979 278.192C952.243 278.192 951.592 278.016 951.027 277.664C950.472 277.301 950.035 276.8 949.715 276.16C949.405 275.509 949.251 274.747 949.251 273.872C949.251 272.997 949.405 272.24 949.715 271.6C950.035 270.949 950.472 270.448 951.027 270.096C951.592 269.733 952.243 269.552 952.979 269.552C953.715 269.552 954.36 269.733 954.915 270.096C955.48 270.448 955.917 270.949 956.227 271.6C956.547 272.24 956.707 272.997 956.707 273.872C956.707 274.747 956.547 275.509 956.227 276.16C955.917 276.8 955.48 277.301 954.915 277.664C954.36 278.016 953.715 278.192 952.979 278.192ZM952.979 277.056C953.672 277.056 954.237 276.843 954.675 276.416C955.112 275.989 955.331 275.339 955.331 274.464V273.28C955.331 272.405 955.112 271.755 954.675 271.328C954.237 270.901 953.672 270.688 952.979 270.688C952.296 270.688 951.731 270.901 951.283 271.328C950.845 271.755 950.627 272.405 950.627 273.28V274.464C950.627 275.339 950.845 275.989 951.283 276.416C951.731 276.843 952.296 277.056 952.979 277.056ZM960.652 278.192C959.895 278.192 959.255 278.048 958.732 277.76C958.209 277.461 957.761 277.067 957.388 276.576L958.3 275.84C958.62 276.235 958.977 276.544 959.372 276.768C959.767 276.992 960.225 277.104 960.748 277.104C961.292 277.104 961.713 276.987 962.012 276.752C962.321 276.517 962.476 276.187 962.476 275.76C962.476 275.44 962.369 275.163 962.156 274.928C961.953 274.693 961.58 274.539 961.036 274.464L960.38 274.368C959.879 274.293 959.425 274.171 959.02 274C958.615 273.819 958.295 273.568 958.06 273.248C957.836 272.917 957.724 272.496 957.724 271.984C957.724 271.163 958.001 270.555 958.556 270.16C959.121 269.755 959.825 269.552 960.668 269.552C961.116 269.552 961.511 269.605 961.852 269.712C962.204 269.819 962.519 269.973 962.796 270.176C963.073 270.368 963.324 270.603 963.548 270.88L962.7 271.648C962.519 271.392 962.252 271.163 961.9 270.96C961.548 270.747 961.105 270.64 960.572 270.64C960.049 270.64 959.649 270.757 959.372 270.992C959.095 271.216 958.956 271.525 958.956 271.92C958.956 272.315 959.089 272.608 959.356 272.8C959.633 272.981 960.028 273.115 960.54 273.2L961.18 273.296C962.097 273.435 962.748 273.701 963.132 274.096C963.516 274.48 963.708 274.987 963.708 275.616C963.708 276.149 963.585 276.608 963.34 276.992C963.095 277.376 962.743 277.675 962.284 277.888C961.825 278.091 961.281 278.192 960.652 278.192ZM975.19 278H974.47C974.129 278 973.851 277.931 973.638 277.792C973.425 277.643 973.27 277.44 973.174 277.184C973.078 276.928 973.03 276.635 973.03 276.304V276.192L973.526 276.656H972.966C972.795 277.157 972.497 277.541 972.07 277.808C971.654 278.064 971.158 278.192 970.582 278.192C969.707 278.192 969.025 277.968 968.534 277.52C968.054 277.072 967.814 276.464 967.814 275.696C967.814 275.173 967.942 274.736 968.198 274.384C968.454 274.021 968.838 273.749 969.35 273.568C969.873 273.376 970.534 273.28 971.334 273.28H972.966V272.464C972.966 271.877 972.806 271.429 972.486 271.12C972.166 270.811 971.675 270.656 971.014 270.656C970.523 270.656 970.107 270.768 969.766 270.992C969.425 271.216 969.142 271.515 968.918 271.888L968.15 271.168C968.374 270.731 968.731 270.352 969.222 270.032C969.713 269.712 970.331 269.552 971.078 269.552C972.07 269.552 972.843 269.797 973.398 270.288C973.963 270.779 974.246 271.461 974.246 272.336V276.88H975.19V278ZM972.966 274.24H971.27C970.545 274.24 970.011 274.347 969.67 274.56C969.329 274.773 969.158 275.083 969.158 275.488V275.824C969.158 276.229 969.307 276.544 969.606 276.768C969.905 276.992 970.299 277.104 970.79 277.104C971.217 277.104 971.59 277.04 971.91 276.912C972.241 276.773 972.497 276.592 972.678 276.368C972.87 276.133 972.966 275.877 972.966 275.6V274.24ZM978.873 278H977.737C977.3 278 976.964 277.877 976.729 277.632C976.494 277.376 976.377 277.056 976.377 276.672V266.16H977.657V276.88H978.873V278ZM983.878 267.808C983.611 267.808 983.414 267.744 983.286 267.616C983.158 267.477 983.094 267.301 983.094 267.088V266.88C983.094 266.667 983.158 266.496 983.286 266.368C983.414 266.229 983.611 266.16 983.878 266.16C984.155 266.16 984.352 266.229 984.47 266.368C984.598 266.496 984.662 266.667 984.662 266.88V267.088C984.662 267.301 984.598 267.477 984.47 267.616C984.352 267.744 984.155 267.808 983.878 267.808ZM983.238 278V269.744H984.518V278H983.238ZM987.878 278H986.598V269.744H987.878V271.088H987.942C988.144 270.619 988.427 270.245 988.79 269.968C989.163 269.691 989.659 269.552 990.278 269.552C991.131 269.552 991.803 269.829 992.294 270.384C992.795 270.928 993.046 271.701 993.046 272.704V278H991.766V272.928C991.766 272.192 991.606 271.637 991.286 271.264C990.976 270.891 990.512 270.704 989.894 270.704C989.552 270.704 989.227 270.763 988.918 270.88C988.608 270.987 988.358 271.157 988.166 271.392C987.974 271.627 987.878 271.92 987.878 272.272V278ZM997.531 278.192C996.774 278.192 996.134 278.048 995.611 277.76C995.089 277.461 994.641 277.067 994.267 276.576L995.179 275.84C995.499 276.235 995.857 276.544 996.251 276.768C996.646 276.992 997.105 277.104 997.627 277.104C998.171 277.104 998.593 276.987 998.891 276.752C999.201 276.517 999.355 276.187 999.355 275.76C999.355 275.44 999.249 275.163 999.035 274.928C998.833 274.693 998.459 274.539 997.915 274.464L997.259 274.368C996.758 274.293 996.305 274.171 995.899 274C995.494 273.819 995.174 273.568 994.939 273.248C994.715 272.917 994.603 272.496 994.603 271.984C994.603 271.163 994.881 270.555 995.435 270.16C996.001 269.755 996.705 269.552 997.547 269.552C997.995 269.552 998.39 269.605 998.731 269.712C999.083 269.819 999.398 269.973 999.675 270.176C999.953 270.368 1000.2 270.603 1000.43 270.88L999.579 271.648C999.398 271.392 999.131 271.163 998.779 270.96C998.427 270.747 997.985 270.64 997.451 270.64C996.929 270.64 996.529 270.757 996.251 270.992C995.974 271.216 995.835 271.525 995.835 271.92C995.835 272.315 995.969 272.608 996.235 272.8C996.513 272.981 996.907 273.115 997.419 273.2L998.059 273.296C998.977 273.435 999.627 273.701 1000.01 274.096C1000.4 274.48 1000.59 274.987 1000.59 275.616C1000.59 276.149 1000.46 276.608 1000.22 276.992C999.974 277.376 999.622 277.675 999.163 277.888C998.705 278.091 998.161 278.192 997.531 278.192ZM1005.52 278H1003.92C1003.49 278 1003.15 277.872 1002.91 277.616C1002.68 277.36 1002.56 277.035 1002.56 276.64V270.864H1001.2V269.744H1001.97C1002.25 269.744 1002.43 269.691 1002.53 269.584C1002.64 269.467 1002.69 269.269 1002.69 268.992V267.456H1003.84V269.744H1005.65V270.864H1003.84V276.88H1005.52V278ZM1013.79 278H1013.07C1012.73 278 1012.45 277.931 1012.24 277.792C1012.02 277.643 1011.87 277.44 1011.77 277.184C1011.68 276.928 1011.63 276.635 1011.63 276.304V276.192L1012.12 276.656H1011.56C1011.39 277.157 1011.09 277.541 1010.67 277.808C1010.25 278.064 1009.76 278.192 1009.18 278.192C1008.31 278.192 1007.62 277.968 1007.13 277.52C1006.65 277.072 1006.41 276.464 1006.41 275.696C1006.41 275.173 1006.54 274.736 1006.8 274.384C1007.05 274.021 1007.44 273.749 1007.95 273.568C1008.47 273.376 1009.13 273.28 1009.93 273.28H1011.56V272.464C1011.56 271.877 1011.4 271.429 1011.08 271.12C1010.76 270.811 1010.27 270.656 1009.61 270.656C1009.12 270.656 1008.71 270.768 1008.36 270.992C1008.02 271.216 1007.74 271.515 1007.52 271.888L1006.75 271.168C1006.97 270.731 1007.33 270.352 1007.82 270.032C1008.31 269.712 1008.93 269.552 1009.68 269.552C1010.67 269.552 1011.44 269.797 1012 270.288C1012.56 270.779 1012.84 271.461 1012.84 272.336V276.88H1013.79V278ZM1011.56 274.24H1009.87C1009.14 274.24 1008.61 274.347 1008.27 274.56C1007.93 274.773 1007.76 275.083 1007.76 275.488V275.824C1007.76 276.229 1007.91 276.544 1008.2 276.768C1008.5 276.992 1008.9 277.104 1009.39 277.104C1009.81 277.104 1010.19 277.04 1010.51 276.912C1010.84 276.773 1011.09 276.592 1011.28 276.368C1011.47 276.133 1011.56 275.877 1011.56 275.6V274.24ZM1016.26 278H1014.98V269.744H1016.26V271.088H1016.32C1016.52 270.619 1016.8 270.245 1017.17 269.968C1017.54 269.691 1018.04 269.552 1018.66 269.552C1019.51 269.552 1020.18 269.829 1020.67 270.384C1021.17 270.928 1021.42 271.701 1021.42 272.704V278H1020.14V272.928C1020.14 272.192 1019.98 271.637 1019.66 271.264C1019.35 270.891 1018.89 270.704 1018.27 270.704C1017.93 270.704 1017.6 270.763 1017.3 270.88C1016.99 270.987 1016.74 271.157 1016.54 271.392C1016.35 271.627 1016.26 271.92 1016.26 272.272V278ZM1026.85 278H1025.25C1024.82 278 1024.48 277.872 1024.24 277.616C1024.01 277.36 1023.89 277.035 1023.89 276.64V270.864H1022.53V269.744H1023.3C1023.58 269.744 1023.76 269.691 1023.86 269.584C1023.97 269.467 1024.02 269.269 1024.02 268.992V267.456H1025.17V269.744H1026.98V270.864H1025.17V276.88H1026.85V278ZM1031.44 278.192C1030.69 278.192 1030.04 278.016 1029.49 277.664C1028.93 277.301 1028.5 276.8 1028.19 276.16C1027.88 275.509 1027.73 274.747 1027.73 273.872C1027.73 272.997 1027.88 272.24 1028.19 271.6C1028.5 270.949 1028.93 270.448 1029.49 270.096C1030.04 269.733 1030.69 269.552 1031.44 269.552C1032.18 269.552 1032.81 269.728 1033.34 270.08C1033.88 270.421 1034.29 270.896 1034.58 271.504C1034.86 272.112 1035.01 272.805 1035.01 273.584V274.192H1029.07V274.576C1029.07 275.291 1029.28 275.888 1029.71 276.368C1030.15 276.837 1030.75 277.072 1031.52 277.072C1032.04 277.072 1032.5 276.949 1032.88 276.704C1033.27 276.459 1033.58 276.107 1033.79 275.648L1034.7 276.304C1034.44 276.859 1034.02 277.312 1033.46 277.664C1032.89 278.016 1032.22 278.192 1031.44 278.192ZM1031.44 270.624C1030.98 270.624 1030.57 270.731 1030.21 270.944C1029.86 271.157 1029.58 271.456 1029.38 271.84C1029.17 272.213 1029.07 272.64 1029.07 273.12V273.232H1033.63V273.056C1033.63 272.565 1033.54 272.139 1033.36 271.776C1033.18 271.413 1032.92 271.131 1032.59 270.928C1032.26 270.725 1031.88 270.624 1031.44 270.624ZM1036.98 278.192C1036.65 278.192 1036.4 278.107 1036.24 277.936C1036.08 277.755 1036 277.531 1036 277.264V277.056C1036 276.779 1036.08 276.555 1036.24 276.384C1036.4 276.213 1036.65 276.128 1036.98 276.128C1037.32 276.128 1037.57 276.213 1037.72 276.384C1037.88 276.555 1037.96 276.779 1037.96 277.056V277.264C1037.96 277.531 1037.88 277.755 1037.72 277.936C1037.57 278.107 1037.32 278.192 1036.98 278.192Z" fill="black"/>
<path d="M799.674 179.436H800.754V187.194C800.754 188.13 800.85 188.898 801.042 189.498C801.246 190.086 801.588 190.524 802.068 190.812C802.548 191.1 803.196 191.244 804.012 191.244C804.828 191.244 805.47 191.1 805.938 190.812C806.418 190.524 806.76 190.086 806.964 189.498C807.168 188.898 807.27 188.13 807.27 187.194V179.436H808.35V186.96C808.35 188.184 808.212 189.186 807.936 189.966C807.66 190.746 807.198 191.316 806.55 191.676C805.914 192.036 805.056 192.216 803.976 192.216C802.908 192.216 802.056 192.036 801.42 191.676C800.796 191.316 800.346 190.746 800.07 189.966C799.806 189.186 799.674 188.184 799.674 186.96V179.436ZM813.425 192H812.111C811.739 192 811.457 191.898 811.265 191.694C811.073 191.49 810.977 191.22 810.977 190.884V178.68H812.003V191.1H813.425V192ZM818.336 192H816.5C816.14 192 815.858 191.898 815.654 191.694C815.462 191.478 815.366 191.202 815.366 190.866V183.684H813.764V182.784H814.808C815.06 182.784 815.228 182.73 815.312 182.622C815.408 182.514 815.456 182.334 815.456 182.082V180.21H816.392V182.784H818.48V183.684H816.392V191.1H818.336V192ZM821.251 192H820.225V182.784H821.251V184.44H821.323C821.443 184.14 821.617 183.87 821.845 183.63C822.073 183.378 822.367 183.174 822.727 183.018C823.099 182.862 823.549 182.784 824.077 182.784H824.689V183.792H823.879C823.363 183.792 822.907 183.87 822.511 184.026C822.115 184.182 821.803 184.404 821.575 184.692C821.359 184.968 821.251 185.304 821.251 185.7V192ZM833.283 192H832.239C831.963 192 831.735 191.946 831.555 191.838C831.375 191.718 831.243 191.556 831.159 191.352C831.087 191.148 831.051 190.908 831.051 190.632V190.146L831.465 190.542H830.979C830.775 191.046 830.439 191.454 829.971 191.766C829.503 192.066 828.909 192.216 828.189 192.216C827.217 192.216 826.467 191.976 825.939 191.496C825.411 191.016 825.147 190.35 825.147 189.498C825.147 188.946 825.273 188.472 825.525 188.076C825.789 187.68 826.191 187.374 826.731 187.158C827.283 186.942 828.003 186.834 828.891 186.834H831.015V185.754C831.015 184.986 830.817 184.41 830.421 184.026C830.025 183.642 829.437 183.45 828.657 183.45C828.057 183.45 827.547 183.582 827.127 183.846C826.719 184.11 826.389 184.482 826.137 184.962L825.489 184.422C825.741 183.894 826.125 183.456 826.641 183.108C827.169 182.748 827.853 182.568 828.693 182.568C829.761 182.568 830.583 182.838 831.159 183.378C831.747 183.918 832.041 184.674 832.041 185.646V191.1H833.283V192ZM831.015 187.608H828.855C827.943 187.608 827.277 187.758 826.857 188.058C826.437 188.346 826.227 188.748 826.227 189.264V189.696C826.227 190.224 826.419 190.632 826.803 190.92C827.199 191.196 827.709 191.334 828.333 191.334C828.837 191.334 829.287 191.256 829.683 191.1C830.091 190.932 830.415 190.698 830.655 190.398C830.895 190.086 831.015 189.726 831.015 189.318V187.608ZM839.415 192H838.335V179.436H843.267C843.999 179.436 844.611 179.58 845.103 179.868C845.607 180.156 845.985 180.564 846.237 181.092C846.501 181.608 846.633 182.226 846.633 182.946C846.633 183.666 846.501 184.29 846.237 184.818C845.985 185.346 845.607 185.754 845.103 186.042C844.611 186.33 843.999 186.474 843.267 186.474H839.415V192ZM839.415 180.39V185.52H843.267C843.747 185.52 844.149 185.43 844.473 185.25C844.809 185.058 845.055 184.806 845.211 184.494C845.379 184.17 845.463 183.798 845.463 183.378V182.514C845.463 182.106 845.379 181.74 845.211 181.416C845.055 181.092 844.809 180.84 844.473 180.66C844.149 180.48 843.747 180.39 843.267 180.39H839.415ZM851.401 192.216C850.585 192.216 849.877 192.024 849.277 191.64C848.677 191.256 848.209 190.704 847.873 189.984C847.537 189.264 847.369 188.4 847.369 187.392C847.369 186.384 847.537 185.52 847.873 184.8C848.209 184.08 848.677 183.528 849.277 183.144C849.877 182.76 850.585 182.568 851.401 182.568C852.217 182.568 852.925 182.76 853.525 183.144C854.137 183.528 854.605 184.08 854.929 184.8C855.265 185.52 855.433 186.384 855.433 187.392C855.433 188.4 855.265 189.264 854.929 189.984C854.605 190.704 854.137 191.256 853.525 191.64C852.925 192.024 852.217 192.216 851.401 192.216ZM851.401 191.298C852.301 191.298 853.015 191.016 853.543 190.452C854.071 189.876 854.335 189.048 854.335 187.968V186.816C854.335 185.736 854.071 184.914 853.543 184.35C853.015 183.774 852.301 183.486 851.401 183.486C850.513 183.486 849.805 183.774 849.277 184.35C848.749 184.914 848.485 185.736 848.485 186.816V187.968C848.485 189.048 848.749 189.876 849.277 190.452C849.805 191.016 850.513 191.298 851.401 191.298ZM858.344 192H857.318V182.784H858.344V184.44H858.416C858.536 184.14 858.71 183.87 858.938 183.63C859.166 183.378 859.46 183.174 859.82 183.018C860.192 182.862 860.642 182.784 861.17 182.784H861.782V183.792H860.972C860.456 183.792 860 183.87 859.604 184.026C859.208 184.182 858.896 184.404 858.668 184.692C858.452 184.968 858.344 185.304 858.344 185.7V192ZM866.593 192H864.757C864.397 192 864.115 191.898 863.911 191.694C863.719 191.478 863.623 191.202 863.623 190.866V183.684H862.021V182.784H863.065C863.317 182.784 863.485 182.73 863.569 182.622C863.665 182.514 863.713 182.334 863.713 182.082V180.21H864.649V182.784H866.737V183.684H864.649V191.1H866.593V192ZM875.862 192H874.818C874.542 192 874.314 191.946 874.134 191.838C873.954 191.718 873.822 191.556 873.738 191.352C873.666 191.148 873.63 190.908 873.63 190.632V190.146L874.044 190.542H873.558C873.354 191.046 873.018 191.454 872.55 191.766C872.082 192.066 871.488 192.216 870.768 192.216C869.796 192.216 869.046 191.976 868.518 191.496C867.99 191.016 867.726 190.35 867.726 189.498C867.726 188.946 867.852 188.472 868.104 188.076C868.368 187.68 868.77 187.374 869.31 187.158C869.862 186.942 870.582 186.834 871.47 186.834H873.594V185.754C873.594 184.986 873.396 184.41 873 184.026C872.604 183.642 872.016 183.45 871.236 183.45C870.636 183.45 870.126 183.582 869.706 183.846C869.298 184.11 868.968 184.482 868.716 184.962L868.068 184.422C868.32 183.894 868.704 183.456 869.22 183.108C869.748 182.748 870.432 182.568 871.272 182.568C872.34 182.568 873.162 182.838 873.738 183.378C874.326 183.918 874.62 184.674 874.62 185.646V191.1H875.862V192ZM873.594 187.608H871.434C870.522 187.608 869.856 187.758 869.436 188.058C869.016 188.346 868.806 188.748 868.806 189.264V189.696C868.806 190.224 868.998 190.632 869.382 190.92C869.778 191.196 870.288 191.334 870.912 191.334C871.416 191.334 871.866 191.256 872.262 191.1C872.67 190.932 872.994 190.698 873.234 190.398C873.474 190.086 873.594 189.726 873.594 189.318V187.608ZM873.252 178.644L871.272 181.452L870.606 181.128L872.316 178.176L873.252 178.644ZM880.727 192H878.891C878.531 192 878.249 191.898 878.045 191.694C877.853 191.478 877.757 191.202 877.757 190.866V183.684H876.155V182.784H877.199C877.451 182.784 877.619 182.73 877.703 182.622C877.799 182.514 877.847 182.334 877.847 182.082V180.21H878.783V182.784H880.871V183.684H878.783V191.1H880.727V192ZM883.12 180.282C882.88 180.282 882.7 180.222 882.58 180.102C882.472 179.982 882.418 179.826 882.418 179.634V179.454C882.418 179.262 882.472 179.106 882.58 178.986C882.7 178.866 882.88 178.806 883.12 178.806C883.372 178.806 883.552 178.866 883.66 178.986C883.768 179.106 883.822 179.262 883.822 179.454V179.634C883.822 179.826 883.768 179.982 883.66 180.102C883.552 180.222 883.372 180.282 883.12 180.282ZM882.616 192V182.784H883.642V192H882.616ZM888.721 192H887.407C887.035 192 886.753 191.898 886.561 191.694C886.369 191.49 886.273 191.22 886.273 190.884V178.68H887.299V191.1H888.721V192Z" fill="black"/>
</g>
<defs>
<linearGradient id="paint0_linear_404_1515" x1="798" y1="219.5" x2="1160" y2="219.5" gradientUnits="userSpaceOnUse">
<stop offset="0.182692" stop-color="#58286A"/>
<stop offset="0.600962" stop-color="#DBA0E7"/>
<stop offset="0.826923" stop-color="#C29CCB"/>
</linearGradient>
<clipPath id="clip0_404_1515">
<rect width="1280" height="575" fill="white"/>
</clipPath>
</defs>
</svg>
