<svg width="1280" height="269" viewBox="0 0 1280 269" fill="none" xmlns="http://www.w3.org/2000/svg">
<path d="M913.929 240.192C912.948 240.192 912.094 239.979 911.369 239.552C910.654 239.125 910.1 238.491 909.705 237.648C909.31 236.795 909.113 235.744 909.113 234.496C909.113 233.237 909.31 232.176 909.705 231.312C910.1 230.437 910.654 229.776 911.369 229.328C912.094 228.869 912.948 228.64 913.929 228.64C914.921 228.64 915.748 228.853 916.409 229.28C917.081 229.707 917.614 230.352 918.009 231.216L916.201 232.176C916.041 231.675 915.78 231.275 915.417 230.976C915.054 230.667 914.558 230.512 913.929 230.512C913.14 230.512 912.51 230.779 912.041 231.312C911.582 231.845 911.353 232.592 911.353 233.552V235.312C911.353 236.261 911.582 237.003 912.041 237.536C912.51 238.059 913.14 238.32 913.929 238.32C914.558 238.32 915.07 238.149 915.465 237.808C915.86 237.467 916.153 237.045 916.345 236.544L918.057 237.552C917.662 238.384 917.124 239.035 916.441 239.504C915.758 239.963 914.921 240.192 913.929 240.192ZM926.691 240H925.555C925.245 240 924.968 239.931 924.723 239.792C924.488 239.643 924.301 239.429 924.163 239.152C924.035 238.875 923.971 238.549 923.971 238.176V238L924.483 238.56H923.907C923.768 239.093 923.48 239.499 923.043 239.776C922.616 240.053 922.093 240.192 921.475 240.192C920.621 240.192 919.965 239.968 919.507 239.52C919.048 239.061 918.819 238.464 918.819 237.728C918.819 237.152 918.957 236.677 919.235 236.304C919.523 235.931 919.933 235.648 920.467 235.456C921 235.264 921.64 235.168 922.387 235.168H923.811V234.56C923.811 234.101 923.688 233.744 923.443 233.488C923.197 233.221 922.803 233.088 922.259 233.088C921.779 233.088 921.389 233.195 921.091 233.408C920.803 233.611 920.557 233.856 920.355 234.144L919.139 233.056C919.448 232.576 919.859 232.192 920.371 231.904C920.883 231.605 921.56 231.456 922.403 231.456C923.523 231.456 924.376 231.717 924.963 232.24C925.56 232.752 925.859 233.483 925.859 234.432V238.368H926.691V240ZM923.811 236.4H922.499C921.965 236.4 921.565 236.491 921.299 236.672C921.032 236.843 920.899 237.093 920.899 237.424V237.696C920.899 238.027 921.011 238.277 921.235 238.448C921.459 238.619 921.768 238.704 922.163 238.704C922.472 238.704 922.749 238.661 922.995 238.576C923.24 238.48 923.437 238.341 923.587 238.16C923.736 237.979 923.811 237.76 923.811 237.504V236.4ZM930.076 240H928.028V231.648H930.076V233.04H930.156C930.327 232.592 930.593 232.219 930.956 231.92C931.329 231.611 931.841 231.456 932.492 231.456C933.345 231.456 934.001 231.744 934.46 232.32C934.929 232.885 935.164 233.685 935.164 234.72V240H933.116V234.928C933.116 234.341 933.009 233.899 932.796 233.6C932.583 233.291 932.231 233.136 931.74 233.136C931.463 233.136 931.196 233.189 930.94 233.296C930.684 233.392 930.476 233.541 930.316 233.744C930.156 233.936 930.076 234.181 930.076 234.48V240ZM941.194 240H939.722C939.018 240 938.48 239.819 938.106 239.456C937.744 239.083 937.562 238.555 937.562 237.872V233.264H936.33V231.648H936.97C937.28 231.648 937.488 231.579 937.594 231.44C937.712 231.291 937.77 231.072 937.77 230.784V229.36H939.61V231.648H941.322V233.264H939.61V238.368H941.194V240ZM943.803 230.432C943.387 230.432 943.083 230.336 942.891 230.144C942.699 229.941 942.603 229.696 942.603 229.408V229.088C942.603 228.789 942.699 228.544 942.891 228.352C943.083 228.16 943.387 228.064 943.803 228.064C944.219 228.064 944.523 228.16 944.715 228.352C944.907 228.544 945.003 228.789 945.003 229.088V229.408C945.003 229.696 944.907 229.941 944.715 230.144C944.523 230.336 944.219 230.432 943.803 230.432ZM942.779 240V231.648H944.827V240H942.779ZM952.049 240V238.608H951.969C951.82 239.088 951.537 239.472 951.121 239.76C950.705 240.048 950.22 240.192 949.665 240.192C948.972 240.192 948.38 240.021 947.889 239.68C947.409 239.339 947.041 238.843 946.785 238.192C946.529 237.531 946.401 236.736 946.401 235.808C946.401 234.88 946.529 234.096 946.785 233.456C947.041 232.805 947.409 232.309 947.889 231.968C948.38 231.627 948.972 231.456 949.665 231.456C950.22 231.456 950.705 231.6 951.121 231.888C951.548 232.165 951.83 232.544 951.969 233.024H952.049V228.16H954.097V240H952.049ZM950.321 238.496C950.652 238.496 950.945 238.443 951.201 238.336C951.468 238.229 951.676 238.075 951.825 237.872C951.974 237.669 952.049 237.424 952.049 237.136V234.48C952.049 234.213 951.974 233.979 951.825 233.776C951.676 233.573 951.468 233.419 951.201 233.312C950.945 233.195 950.652 233.136 950.321 233.136C949.798 233.136 949.372 233.317 949.041 233.68C948.71 234.032 948.545 234.507 948.545 235.104V236.544C948.545 237.131 948.71 237.605 949.041 237.968C949.372 238.32 949.798 238.496 950.321 238.496ZM963.419 240H962.283C961.973 240 961.696 239.931 961.451 239.792C961.216 239.643 961.029 239.429 960.891 239.152C960.763 238.875 960.699 238.549 960.699 238.176V238L961.211 238.56H960.635C960.496 239.093 960.208 239.499 959.771 239.776C959.344 240.053 958.821 240.192 958.203 240.192C957.349 240.192 956.693 239.968 956.235 239.52C955.776 239.061 955.547 238.464 955.547 237.728C955.547 237.152 955.685 236.677 955.963 236.304C956.251 235.931 956.661 235.648 957.195 235.456C957.728 235.264 958.368 235.168 959.115 235.168H960.539V234.56C960.539 234.101 960.416 233.744 960.171 233.488C959.925 233.221 959.531 233.088 958.987 233.088C958.507 233.088 958.117 233.195 957.819 233.408C957.531 233.611 957.285 233.856 957.083 234.144L955.867 233.056C956.176 232.576 956.587 232.192 957.099 231.904C957.611 231.605 958.288 231.456 959.131 231.456C960.251 231.456 961.104 231.717 961.691 232.24C962.288 232.752 962.587 233.483 962.587 234.432V238.368H963.419V240ZM960.539 236.4H959.227C958.693 236.4 958.293 236.491 958.027 236.672C957.76 236.843 957.627 237.093 957.627 237.424V237.696C957.627 238.027 957.739 238.277 957.963 238.448C958.187 238.619 958.496 238.704 958.891 238.704C959.2 238.704 959.477 238.661 959.723 238.576C959.968 238.48 960.165 238.341 960.315 238.16C960.464 237.979 960.539 237.76 960.539 237.504V236.4ZM969.94 240V238.608H969.86C969.711 239.088 969.428 239.472 969.012 239.76C968.596 240.048 968.111 240.192 967.556 240.192C966.863 240.192 966.271 240.021 965.78 239.68C965.3 239.339 964.932 238.843 964.676 238.192C964.42 237.531 964.292 236.736 964.292 235.808C964.292 234.88 964.42 234.096 964.676 233.456C964.932 232.805 965.3 232.309 965.78 231.968C966.271 231.627 966.863 231.456 967.556 231.456C968.111 231.456 968.596 231.6 969.012 231.888C969.439 232.165 969.722 232.544 969.86 233.024H969.94V228.16H971.988V240H969.94ZM968.212 238.496C968.543 238.496 968.836 238.443 969.092 238.336C969.359 238.229 969.567 238.075 969.716 237.872C969.866 237.669 969.94 237.424 969.94 237.136V234.48C969.94 234.213 969.866 233.979 969.716 233.776C969.567 233.573 969.359 233.419 969.092 233.312C968.836 233.195 968.543 233.136 968.212 233.136C967.69 233.136 967.263 233.317 966.932 233.68C966.602 234.032 966.436 234.507 966.436 235.104V236.544C966.436 237.131 966.602 237.605 966.932 237.968C967.263 238.32 967.69 238.496 968.212 238.496ZM982.675 240V238.608H982.595C982.446 239.088 982.163 239.472 981.747 239.76C981.331 240.048 980.846 240.192 980.291 240.192C979.598 240.192 979.006 240.021 978.515 239.68C978.035 239.339 977.667 238.843 977.411 238.192C977.155 237.531 977.027 236.736 977.027 235.808C977.027 234.88 977.155 234.096 977.411 233.456C977.667 232.805 978.035 232.309 978.515 231.968C979.006 231.627 979.598 231.456 980.291 231.456C980.846 231.456 981.331 231.6 981.747 231.888C982.174 232.165 982.457 232.544 982.595 233.024H982.675V228.16H984.723V240H982.675ZM980.947 238.496C981.278 238.496 981.571 238.443 981.827 238.336C982.094 238.229 982.302 238.075 982.451 237.872C982.601 237.669 982.675 237.424 982.675 237.136V234.48C982.675 234.213 982.601 233.979 982.451 233.776C982.302 233.573 982.094 233.419 981.827 233.312C981.571 233.195 981.278 233.136 980.947 233.136C980.425 233.136 979.998 233.317 979.667 233.68C979.337 234.032 979.171 234.507 979.171 235.104V236.544C979.171 237.131 979.337 237.605 979.667 237.968C979.998 238.32 980.425 238.496 980.947 238.496ZM990.141 240.192C989.32 240.192 988.616 240.016 988.029 239.664C987.442 239.301 986.989 238.795 986.669 238.144C986.36 237.483 986.205 236.704 986.205 235.808C986.205 234.933 986.36 234.171 986.669 233.52C986.978 232.859 987.421 232.352 987.997 232C988.573 231.637 989.266 231.456 990.077 231.456C990.952 231.456 991.666 231.648 992.221 232.032C992.786 232.416 993.202 232.928 993.469 233.568C993.746 234.197 993.885 234.896 993.885 235.664V236.336H988.333V236.544C988.333 237.141 988.504 237.627 988.845 238C989.186 238.373 989.693 238.56 990.365 238.56C990.866 238.56 991.282 238.453 991.613 238.24C991.944 238.016 992.237 237.744 992.493 237.424L993.597 238.656C993.256 239.115 992.786 239.488 992.189 239.776C991.602 240.053 990.92 240.192 990.141 240.192ZM990.109 232.992C989.746 232.992 989.432 233.077 989.165 233.248C988.898 233.408 988.69 233.637 988.541 233.936C988.402 234.224 988.333 234.56 988.333 234.944V235.072H991.757V234.928C991.757 234.533 991.693 234.197 991.565 233.92C991.437 233.632 991.25 233.408 991.005 233.248C990.76 233.077 990.461 232.992 990.109 232.992ZM999.244 240V233.264H998.012V231.648H999.244V230.448C999.244 229.712 999.441 229.147 999.836 228.752C1000.23 228.357 1000.8 228.16 1001.55 228.16H1003V229.792H1001.29V231.648H1003V233.264H1001.29V240H999.244ZM1007.35 240.192C1006.56 240.192 1005.87 240.016 1005.29 239.664C1004.71 239.301 1004.26 238.795 1003.94 238.144C1003.63 237.483 1003.48 236.704 1003.48 235.808C1003.48 234.912 1003.63 234.144 1003.94 233.504C1004.26 232.853 1004.71 232.352 1005.29 232C1005.87 231.637 1006.56 231.456 1007.35 231.456C1008.15 231.456 1008.84 231.637 1009.42 232C1010 232.352 1010.45 232.853 1010.76 233.504C1011.08 234.144 1011.24 234.912 1011.24 235.808C1011.24 236.704 1011.08 237.483 1010.76 238.144C1010.45 238.795 1010 239.301 1009.42 239.664C1008.84 240.016 1008.15 240.192 1007.35 240.192ZM1007.35 238.544C1007.9 238.544 1008.32 238.379 1008.63 238.048C1008.94 237.707 1009.1 237.221 1009.1 236.592V235.04C1009.1 234.411 1008.94 233.931 1008.63 233.6C1008.32 233.269 1007.9 233.104 1007.35 233.104C1006.83 233.104 1006.41 233.269 1006.09 233.6C1005.78 233.931 1005.62 234.411 1005.62 235.04V236.592C1005.62 237.221 1005.78 237.707 1006.09 238.048C1006.41 238.379 1006.83 238.544 1007.35 238.544ZM1016.75 240H1015.28C1014.58 240 1014.04 239.819 1013.66 239.456C1013.3 239.083 1013.12 238.555 1013.12 237.872V233.264H1011.89V231.648H1012.53C1012.84 231.648 1013.05 231.579 1013.15 231.44C1013.27 231.291 1013.33 231.072 1013.33 230.784V229.36H1015.17V231.648H1016.88V233.264H1015.17V238.368H1016.75V240ZM1021.59 240.192C1020.8 240.192 1020.11 240.016 1019.52 239.664C1018.95 239.301 1018.5 238.795 1018.18 238.144C1017.87 237.483 1017.71 236.704 1017.71 235.808C1017.71 234.912 1017.87 234.144 1018.18 233.504C1018.5 232.853 1018.95 232.352 1019.52 232C1020.11 231.637 1020.8 231.456 1021.59 231.456C1022.39 231.456 1023.07 231.637 1023.65 232C1024.24 232.352 1024.68 232.853 1024.99 233.504C1025.31 234.144 1025.47 234.912 1025.47 235.808C1025.47 236.704 1025.31 237.483 1024.99 238.144C1024.68 238.795 1024.24 239.301 1023.65 239.664C1023.07 240.016 1022.39 240.192 1021.59 240.192ZM1021.59 238.544C1022.13 238.544 1022.56 238.379 1022.87 238.048C1023.18 237.707 1023.33 237.221 1023.33 236.592V235.04C1023.33 234.411 1023.18 233.931 1022.87 233.6C1022.56 233.269 1022.13 233.104 1021.59 233.104C1021.06 233.104 1020.64 233.269 1020.32 233.6C1020.01 233.931 1019.86 234.411 1019.86 235.04V236.592C1019.86 237.221 1020.01 237.707 1020.32 238.048C1020.64 238.379 1021.06 238.544 1021.59 238.544ZM1029.71 240.192C1028.91 240.192 1028.23 240.059 1027.69 239.792C1027.15 239.515 1026.67 239.136 1026.25 238.656L1027.5 237.44C1027.81 237.792 1028.14 238.069 1028.51 238.272C1028.88 238.475 1029.31 238.576 1029.79 238.576C1030.28 238.576 1030.63 238.491 1030.84 238.32C1031.07 238.149 1031.18 237.915 1031.18 237.616C1031.18 237.371 1031.1 237.179 1030.94 237.04C1030.79 236.891 1030.53 236.789 1030.15 236.736L1029.32 236.624C1028.72 236.549 1028.22 236.411 1027.8 236.208C1027.39 236.005 1027.07 235.728 1026.86 235.376C1026.64 235.024 1026.54 234.597 1026.54 234.096C1026.54 233.285 1026.83 232.645 1027.4 232.176C1027.99 231.696 1028.76 231.456 1029.71 231.456C1030.25 231.456 1030.71 231.509 1031.1 231.616C1031.49 231.712 1031.84 231.861 1032.14 232.064C1032.44 232.256 1032.71 232.491 1032.97 232.768L1031.77 233.968C1031.52 233.712 1031.23 233.499 1030.89 233.328C1030.55 233.157 1030.18 233.072 1029.77 233.072C1029.34 233.072 1029.02 233.152 1028.81 233.312C1028.61 233.461 1028.51 233.669 1028.51 233.936C1028.51 234.213 1028.59 234.427 1028.75 234.576C1028.92 234.715 1029.2 234.816 1029.59 234.88L1030.44 234.992C1031.36 235.12 1032.04 235.392 1032.47 235.808C1032.92 236.213 1033.15 236.763 1033.15 237.456C1033.15 237.989 1033 238.464 1032.71 238.88C1032.44 239.296 1032.04 239.621 1031.51 239.856C1031 240.08 1030.4 240.192 1029.71 240.192ZM1043.28 243.2V238.608H1043.2C1043.05 239.088 1042.77 239.472 1042.35 239.76C1041.94 240.048 1041.45 240.192 1040.9 240.192C1040.2 240.192 1039.61 240.021 1039.12 239.68C1038.64 239.339 1038.27 238.843 1038.02 238.192C1037.76 237.531 1037.63 236.736 1037.63 235.808C1037.63 234.88 1037.76 234.096 1038.02 233.456C1038.27 232.805 1038.64 232.309 1039.12 231.968C1039.61 231.627 1040.2 231.456 1040.9 231.456C1041.45 231.456 1041.94 231.6 1042.35 231.888C1042.78 232.165 1043.06 232.544 1043.2 233.024H1043.28V231.648H1045.33V243.2H1043.28ZM1041.55 238.496C1041.88 238.496 1042.18 238.443 1042.43 238.336C1042.7 238.229 1042.91 238.075 1043.06 237.872C1043.2 237.669 1043.28 237.424 1043.28 237.136V234.48C1043.28 234.213 1043.2 233.979 1043.06 233.776C1042.91 233.573 1042.7 233.419 1042.43 233.312C1042.18 233.195 1041.88 233.136 1041.55 233.136C1041.03 233.136 1040.6 233.317 1040.27 233.68C1039.94 234.032 1039.78 234.507 1039.78 235.104V236.544C1039.78 237.131 1039.94 237.605 1040.27 237.968C1040.6 238.32 1041.03 238.496 1041.55 238.496ZM1052.36 240V238.608H1052.28C1052.14 239.024 1051.89 239.392 1051.53 239.712C1051.17 240.032 1050.64 240.192 1049.95 240.192C1049.09 240.192 1048.43 239.909 1047.96 239.344C1047.5 238.768 1047.27 237.963 1047.27 236.928V231.648H1049.32V236.72C1049.32 237.296 1049.43 237.739 1049.66 238.048C1049.88 238.347 1050.24 238.496 1050.73 238.496C1051 238.496 1051.25 238.448 1051.5 238.352C1051.75 238.256 1051.96 238.112 1052.12 237.92C1052.28 237.717 1052.36 237.467 1052.36 237.168V231.648H1054.41V240H1052.36ZM1059.83 240.192C1059.01 240.192 1058.31 240.016 1057.72 239.664C1057.13 239.301 1056.68 238.795 1056.36 238.144C1056.05 237.483 1055.9 236.704 1055.9 235.808C1055.9 234.933 1056.05 234.171 1056.36 233.52C1056.67 232.859 1057.11 232.352 1057.69 232C1058.26 231.637 1058.96 231.456 1059.77 231.456C1060.64 231.456 1061.36 231.648 1061.91 232.032C1062.48 232.416 1062.89 232.928 1063.16 233.568C1063.44 234.197 1063.58 234.896 1063.58 235.664V236.336H1058.02V236.544C1058.02 237.141 1058.19 237.627 1058.54 238C1058.88 238.373 1059.38 238.56 1060.06 238.56C1060.56 238.56 1060.97 238.453 1061.3 238.24C1061.63 238.016 1061.93 237.744 1062.18 237.424L1063.29 238.656C1062.95 239.115 1062.48 239.488 1061.88 239.776C1061.29 240.053 1060.61 240.192 1059.83 240.192ZM1059.8 232.992C1059.44 232.992 1059.12 233.077 1058.86 233.248C1058.59 233.408 1058.38 233.637 1058.23 233.936C1058.09 234.224 1058.02 234.56 1058.02 234.944V235.072H1061.45V234.928C1061.45 234.533 1061.38 234.197 1061.26 233.92C1061.13 233.632 1060.94 233.408 1060.7 233.248C1060.45 233.077 1060.15 232.992 1059.8 232.992ZM1071.89 240.192C1071.07 240.192 1070.37 240.016 1069.78 239.664C1069.2 239.301 1068.74 238.795 1068.42 238.144C1068.11 237.483 1067.96 236.704 1067.96 235.808C1067.96 234.933 1068.11 234.171 1068.42 233.52C1068.73 232.859 1069.17 232.352 1069.75 232C1070.33 231.637 1071.02 231.456 1071.83 231.456C1072.71 231.456 1073.42 231.648 1073.97 232.032C1074.54 232.416 1074.96 232.928 1075.22 233.568C1075.5 234.197 1075.64 234.896 1075.64 235.664V236.336H1070.09V236.544C1070.09 237.141 1070.26 237.627 1070.6 238C1070.94 238.373 1071.45 238.56 1072.12 238.56C1072.62 238.56 1073.04 238.453 1073.37 238.24C1073.7 238.016 1073.99 237.744 1074.25 237.424L1075.35 238.656C1075.01 239.115 1074.54 239.488 1073.94 239.776C1073.36 240.053 1072.67 240.192 1071.89 240.192ZM1071.86 232.992C1071.5 232.992 1071.19 233.077 1070.92 233.248C1070.65 233.408 1070.44 233.637 1070.29 233.936C1070.16 234.224 1070.09 234.56 1070.09 234.944V235.072H1073.51V234.928C1073.51 234.533 1073.45 234.197 1073.32 233.92C1073.19 233.632 1073 233.408 1072.76 233.248C1072.51 233.077 1072.21 232.992 1071.86 232.992ZM1079.17 240H1077.12V231.648H1079.17V233.04H1079.25C1079.42 232.592 1079.69 232.219 1080.05 231.92C1080.42 231.611 1080.93 231.456 1081.58 231.456C1082.44 231.456 1083.09 231.744 1083.55 232.32C1084.02 232.885 1084.26 233.685 1084.26 234.72V240H1082.21V234.928C1082.21 234.341 1082.1 233.899 1081.89 233.6C1081.68 233.291 1081.32 233.136 1080.83 233.136C1080.56 233.136 1080.29 233.189 1080.03 233.296C1079.78 233.392 1079.57 233.541 1079.41 233.744C1079.25 233.936 1079.17 234.181 1079.17 234.48V240ZM1090.29 240H1088.81C1088.11 240 1087.57 239.819 1087.2 239.456C1086.84 239.083 1086.65 238.555 1086.65 237.872V233.264H1085.42V231.648H1086.06C1086.37 231.648 1086.58 231.579 1086.69 231.44C1086.8 231.291 1086.86 231.072 1086.86 230.784V229.36H1088.7V231.648H1090.41V233.264H1088.7V238.368H1090.29V240ZM1093.92 240H1091.87V231.648H1093.92V233.376H1094C1094.07 233.077 1094.2 232.8 1094.37 232.544C1094.55 232.277 1094.79 232.064 1095.09 231.904C1095.4 231.733 1095.77 231.648 1096.21 231.648H1096.66V233.584H1096.02C1095.56 233.584 1095.17 233.632 1094.85 233.728C1094.54 233.813 1094.3 233.952 1094.14 234.144C1093.99 234.325 1093.92 234.571 1093.92 234.88V240ZM1104.94 240H1103.8C1103.5 240 1103.22 239.931 1102.97 239.792C1102.74 239.643 1102.55 239.429 1102.41 239.152C1102.28 238.875 1102.22 238.549 1102.22 238.176V238L1102.73 238.56H1102.16C1102.02 239.093 1101.73 239.499 1101.29 239.776C1100.87 240.053 1100.34 240.192 1099.72 240.192C1098.87 240.192 1098.22 239.968 1097.76 239.52C1097.3 239.061 1097.07 238.464 1097.07 237.728C1097.07 237.152 1097.21 236.677 1097.48 236.304C1097.77 235.931 1098.18 235.648 1098.72 235.456C1099.25 235.264 1099.89 235.168 1100.64 235.168H1102.06V234.56C1102.06 234.101 1101.94 233.744 1101.69 233.488C1101.45 233.221 1101.05 233.088 1100.51 233.088C1100.03 233.088 1099.64 233.195 1099.34 233.408C1099.05 233.611 1098.81 233.856 1098.6 234.144L1097.39 233.056C1097.7 232.576 1098.11 232.192 1098.62 231.904C1099.13 231.605 1099.81 231.456 1100.65 231.456C1101.77 231.456 1102.63 231.717 1103.21 232.24C1103.81 232.752 1104.11 233.483 1104.11 234.432V238.368H1104.94V240ZM1102.06 236.4H1100.75C1100.22 236.4 1099.82 236.491 1099.55 236.672C1099.28 236.843 1099.15 237.093 1099.15 237.424V237.696C1099.15 238.027 1099.26 238.277 1099.48 238.448C1099.71 238.619 1100.02 238.704 1100.41 238.704C1100.72 238.704 1101 238.661 1101.24 238.576C1101.49 238.48 1101.69 238.341 1101.84 238.16C1101.99 237.979 1102.06 237.76 1102.06 237.504V236.4ZM1108.33 240H1106.28V231.648H1108.33V233.04H1108.41C1108.58 232.592 1108.84 232.219 1109.21 231.92C1109.58 231.611 1110.09 231.456 1110.74 231.456C1111.6 231.456 1112.25 231.744 1112.71 232.32C1113.18 232.885 1113.41 233.685 1113.41 234.72V240H1111.37V234.928C1111.37 234.341 1111.26 233.899 1111.05 233.6C1110.83 233.291 1110.48 233.136 1109.99 233.136C1109.71 233.136 1109.45 233.189 1109.19 233.296C1108.93 233.392 1108.73 233.541 1108.57 233.744C1108.41 233.936 1108.33 234.181 1108.33 234.48V240ZM966.316 259.192C965.495 259.192 964.791 259.016 964.204 258.664C963.617 258.301 963.164 257.795 962.844 257.144C962.535 256.483 962.38 255.704 962.38 254.808C962.38 253.933 962.535 253.171 962.844 252.52C963.153 251.859 963.596 251.352 964.172 251C964.748 250.637 965.441 250.456 966.252 250.456C967.127 250.456 967.841 250.648 968.396 251.032C968.961 251.416 969.377 251.928 969.644 252.568C969.921 253.197 970.06 253.896 970.06 254.664V255.336H964.508V255.544C964.508 256.141 964.679 256.627 965.02 257C965.361 257.373 965.868 257.56 966.54 257.56C967.041 257.56 967.457 257.453 967.788 257.24C968.119 257.016 968.412 256.744 968.668 256.424L969.772 257.656C969.431 258.115 968.961 258.488 968.364 258.776C967.777 259.053 967.095 259.192 966.316 259.192ZM966.284 251.992C965.921 251.992 965.607 252.077 965.34 252.248C965.073 252.408 964.865 252.637 964.716 252.936C964.577 253.224 964.508 253.56 964.508 253.944V254.072H967.932V253.928C967.932 253.533 967.868 253.197 967.74 252.92C967.612 252.632 967.425 252.408 967.18 252.248C966.935 252.077 966.636 251.992 966.284 251.992ZM973.59 259H971.542V250.648H973.59V252.04H973.67C973.84 251.592 974.107 251.219 974.47 250.92C974.843 250.611 975.355 250.456 976.006 250.456C976.859 250.456 977.515 250.744 977.974 251.32C978.443 251.885 978.678 252.685 978.678 253.72V259H976.63V253.928C976.63 253.341 976.523 252.899 976.31 252.6C976.096 252.291 975.744 252.136 975.254 252.136C974.976 252.136 974.71 252.189 974.454 252.296C974.198 252.392 973.99 252.541 973.83 252.744C973.67 252.936 973.59 253.181 973.59 253.48V259ZM987.241 259H986.137C985.444 259 984.927 258.824 984.585 258.472C984.255 258.12 984.089 257.624 984.089 256.984V247.16H986.137V257.368H987.241V259ZM995.752 259H994.616C994.307 259 994.03 258.931 993.784 258.792C993.55 258.643 993.363 258.429 993.224 258.152C993.096 257.875 993.032 257.549 993.032 257.176V257L993.544 257.56H992.968C992.83 258.093 992.542 258.499 992.104 258.776C991.678 259.053 991.155 259.192 990.536 259.192C989.683 259.192 989.027 258.968 988.568 258.52C988.11 258.061 987.88 257.464 987.88 256.728C987.88 256.152 988.019 255.677 988.296 255.304C988.584 254.931 988.995 254.648 989.528 254.456C990.062 254.264 990.702 254.168 991.448 254.168H992.872V253.56C992.872 253.101 992.75 252.744 992.504 252.488C992.259 252.221 991.864 252.088 991.32 252.088C990.84 252.088 990.451 252.195 990.152 252.408C989.864 252.611 989.619 252.856 989.416 253.144L988.2 252.056C988.51 251.576 988.92 251.192 989.432 250.904C989.944 250.605 990.622 250.456 991.464 250.456C992.584 250.456 993.438 250.717 994.024 251.24C994.622 251.752 994.92 252.483 994.92 253.432V257.368H995.752V259ZM992.872 255.4H991.56C991.027 255.4 990.627 255.491 990.36 255.672C990.094 255.843 989.96 256.093 989.96 256.424V256.696C989.96 257.027 990.072 257.277 990.296 257.448C990.52 257.619 990.83 257.704 991.224 257.704C991.534 257.704 991.811 257.661 992.056 257.576C992.302 257.48 992.499 257.341 992.648 257.16C992.798 256.979 992.872 256.76 992.872 256.504V255.4ZM1000.55 259V247.16H1002.6V252.024H1002.66C1002.81 251.544 1003.1 251.165 1003.51 250.888C1003.94 250.6 1004.42 250.456 1004.97 250.456C1005.68 250.456 1006.28 250.627 1006.76 250.968C1007.24 251.309 1007.61 251.805 1007.86 252.456C1008.12 253.096 1008.25 253.88 1008.25 254.808C1008.25 255.736 1008.12 256.531 1007.86 257.192C1007.61 257.843 1007.24 258.339 1006.76 258.68C1006.28 259.021 1005.68 259.192 1004.97 259.192C1004.42 259.192 1003.94 259.048 1003.53 258.76C1003.11 258.472 1002.82 258.088 1002.66 257.608H1002.6V259H1000.55ZM1004.31 257.496C1004.84 257.496 1005.28 257.32 1005.61 256.968C1005.94 256.605 1006.1 256.131 1006.1 255.544V254.104C1006.1 253.507 1005.94 253.032 1005.61 252.68C1005.28 252.317 1004.84 252.136 1004.31 252.136C1003.99 252.136 1003.7 252.195 1003.43 252.312C1003.18 252.419 1002.97 252.573 1002.82 252.776C1002.67 252.979 1002.6 253.213 1002.6 253.48V256.136C1002.6 256.424 1002.67 256.669 1002.82 256.872C1002.97 257.075 1003.18 257.229 1003.43 257.336C1003.7 257.443 1003.99 257.496 1004.31 257.496ZM1017.1 259H1015.97C1015.66 259 1015.38 258.931 1015.14 258.792C1014.9 258.643 1014.72 258.429 1014.58 258.152C1014.45 257.875 1014.38 257.549 1014.38 257.176V257L1014.9 257.56H1014.32C1014.18 258.093 1013.89 258.499 1013.46 258.776C1013.03 259.053 1012.51 259.192 1011.89 259.192C1011.04 259.192 1010.38 258.968 1009.92 258.52C1009.46 258.061 1009.23 257.464 1009.23 256.728C1009.23 256.152 1009.37 255.677 1009.65 255.304C1009.94 254.931 1010.35 254.648 1010.88 254.456C1011.41 254.264 1012.05 254.168 1012.8 254.168H1014.22V253.56C1014.22 253.101 1014.1 252.744 1013.86 252.488C1013.61 252.221 1013.22 252.088 1012.67 252.088C1012.19 252.088 1011.8 252.195 1011.5 252.408C1011.22 252.611 1010.97 252.856 1010.77 253.144L1009.55 252.056C1009.86 251.576 1010.27 251.192 1010.78 250.904C1011.3 250.605 1011.97 250.456 1012.82 250.456C1013.94 250.456 1014.79 250.717 1015.38 251.24C1015.97 251.752 1016.27 252.483 1016.27 253.432V257.368H1017.1V259ZM1014.22 255.4H1012.91C1012.38 255.4 1011.98 255.491 1011.71 255.672C1011.45 255.843 1011.31 256.093 1011.31 256.424V256.696C1011.31 257.027 1011.42 257.277 1011.65 257.448C1011.87 257.619 1012.18 257.704 1012.58 257.704C1012.89 257.704 1013.16 257.661 1013.41 257.576C1013.65 257.48 1013.85 257.341 1014 257.16C1014.15 256.979 1014.22 256.76 1014.22 256.504V255.4ZM1020.49 259H1018.44V250.648H1020.49V252.04H1020.57C1020.74 251.592 1021.01 251.219 1021.37 250.92C1021.74 250.611 1022.26 250.456 1022.91 250.456C1023.76 250.456 1024.42 250.744 1024.87 251.32C1025.34 251.885 1025.58 252.685 1025.58 253.72V259H1023.53V253.928C1023.53 253.341 1023.42 252.899 1023.21 252.6C1023 252.291 1022.65 252.136 1022.15 252.136C1021.88 252.136 1021.61 252.189 1021.35 252.296C1021.1 252.392 1020.89 252.541 1020.73 252.744C1020.57 252.936 1020.49 253.181 1020.49 253.48V259ZM1032.71 259V257.608H1032.63C1032.48 258.088 1032.2 258.472 1031.78 258.76C1031.37 259.048 1030.88 259.192 1030.33 259.192C1029.64 259.192 1029.04 259.021 1028.55 258.68C1028.07 258.339 1027.7 257.843 1027.45 257.192C1027.19 256.531 1027.06 255.736 1027.06 254.808C1027.06 253.88 1027.19 253.096 1027.45 252.456C1027.7 251.805 1028.07 251.309 1028.55 250.968C1029.04 250.627 1029.64 250.456 1030.33 250.456C1030.88 250.456 1031.37 250.6 1031.78 250.888C1032.21 251.165 1032.49 251.544 1032.63 252.024H1032.71V247.16H1034.76V259H1032.71ZM1030.98 257.496C1031.32 257.496 1031.61 257.443 1031.86 257.336C1032.13 257.229 1032.34 257.075 1032.49 256.872C1032.64 256.669 1032.71 256.424 1032.71 256.136V253.48C1032.71 253.213 1032.64 252.979 1032.49 252.776C1032.34 252.573 1032.13 252.419 1031.86 252.312C1031.61 252.195 1031.32 252.136 1030.98 252.136C1030.46 252.136 1030.04 252.317 1029.7 252.68C1029.37 253.032 1029.21 253.507 1029.21 254.104V255.544C1029.21 256.131 1029.37 256.605 1029.7 256.968C1030.04 257.32 1030.46 257.496 1030.98 257.496ZM1040.18 259.192C1039.36 259.192 1038.65 259.016 1038.07 258.664C1037.48 258.301 1037.03 257.795 1036.71 257.144C1036.4 256.483 1036.24 255.704 1036.24 254.808C1036.24 253.933 1036.4 253.171 1036.71 252.52C1037.02 251.859 1037.46 251.352 1038.03 251C1038.61 250.637 1039.3 250.456 1040.11 250.456C1040.99 250.456 1041.7 250.648 1042.26 251.032C1042.82 251.416 1043.24 251.928 1043.51 252.568C1043.78 253.197 1043.92 253.896 1043.92 254.664V255.336H1038.37V255.544C1038.37 256.141 1038.54 256.627 1038.88 257C1039.22 257.373 1039.73 257.56 1040.4 257.56C1040.9 257.56 1041.32 257.453 1041.65 257.24C1041.98 257.016 1042.27 256.744 1042.53 256.424L1043.63 257.656C1043.29 258.115 1042.82 258.488 1042.23 258.776C1041.64 259.053 1040.96 259.192 1040.18 259.192ZM1040.15 251.992C1039.78 251.992 1039.47 252.077 1039.2 252.248C1038.94 252.408 1038.73 252.637 1038.58 252.936C1038.44 253.224 1038.37 253.56 1038.37 253.944V254.072H1041.79V253.928C1041.79 253.533 1041.73 253.197 1041.6 252.92C1041.47 252.632 1041.29 252.408 1041.04 252.248C1040.8 252.077 1040.5 251.992 1040.15 251.992ZM1045.4 260.568V250.648H1047.45V260.008C1047.45 260.701 1047.28 261.24 1046.92 261.624C1046.57 262.008 1046.01 262.2 1045.24 262.2H1044.12V260.568H1045.4ZM1046.43 249.432C1046.01 249.432 1045.71 249.336 1045.52 249.144C1045.32 248.941 1045.23 248.696 1045.23 248.408V248.088C1045.23 247.789 1045.32 247.544 1045.52 247.352C1045.71 247.16 1046.01 247.064 1046.43 247.064C1046.84 247.064 1047.15 247.16 1047.34 247.352C1047.53 247.544 1047.63 247.789 1047.63 248.088V248.408C1047.63 248.696 1047.53 248.941 1047.34 249.144C1047.15 249.336 1046.84 249.432 1046.43 249.432ZM1056.77 259H1055.63C1055.33 259 1055.05 258.931 1054.8 258.792C1054.57 258.643 1054.38 258.429 1054.24 258.152C1054.11 257.875 1054.05 257.549 1054.05 257.176V257L1054.56 257.56H1053.99C1053.85 258.093 1053.56 258.499 1053.12 258.776C1052.7 259.053 1052.17 259.192 1051.55 259.192C1050.7 259.192 1050.05 258.968 1049.59 258.52C1049.13 258.061 1048.9 257.464 1048.9 256.728C1048.9 256.152 1049.04 255.677 1049.31 255.304C1049.6 254.931 1050.01 254.648 1050.55 254.456C1051.08 254.264 1051.72 254.168 1052.47 254.168H1053.89V253.56C1053.89 253.101 1053.77 252.744 1053.52 252.488C1053.28 252.221 1052.88 252.088 1052.34 252.088C1051.86 252.088 1051.47 252.195 1051.17 252.408C1050.88 252.611 1050.64 252.856 1050.43 253.144L1049.22 252.056C1049.53 251.576 1049.94 251.192 1050.45 250.904C1050.96 250.605 1051.64 250.456 1052.48 250.456C1053.6 250.456 1054.46 250.717 1055.04 251.24C1055.64 251.752 1055.94 252.483 1055.94 253.432V257.368H1056.77V259ZM1053.89 255.4H1052.58C1052.05 255.4 1051.65 255.491 1051.38 255.672C1051.11 255.843 1050.98 256.093 1050.98 256.424V256.696C1050.98 257.027 1051.09 257.277 1051.31 257.448C1051.54 257.619 1051.85 257.704 1052.24 257.704C1052.55 257.704 1052.83 257.661 1053.07 257.576C1053.32 257.48 1053.52 257.341 1053.67 257.16C1053.82 256.979 1053.89 256.76 1053.89 256.504V255.4Z" fill="black"/>
<path d="M167.691 232.696V237H165.579V225.832H170.619C171.302 225.832 171.889 225.976 172.379 226.264C172.87 226.541 173.249 226.941 173.515 227.464C173.782 227.976 173.915 228.584 173.915 229.288C173.915 230.045 173.739 230.707 173.387 231.272C173.046 231.827 172.529 232.221 171.835 232.456L174.123 237H171.771L169.691 232.696H167.691ZM167.691 230.92H170.411C170.689 230.92 170.923 230.872 171.115 230.776C171.307 230.669 171.457 230.525 171.563 230.344C171.67 230.152 171.723 229.923 171.723 229.656V228.92C171.723 228.643 171.67 228.413 171.563 228.232C171.457 228.051 171.307 227.912 171.115 227.816C170.923 227.72 170.689 227.672 170.411 227.672H167.691V230.92ZM178.898 237.192C178.076 237.192 177.372 237.016 176.786 236.664C176.199 236.301 175.746 235.795 175.426 235.144C175.116 234.483 174.962 233.704 174.962 232.808C174.962 231.933 175.116 231.171 175.426 230.52C175.735 229.859 176.178 229.352 176.754 229C177.33 228.637 178.023 228.456 178.834 228.456C179.708 228.456 180.423 228.648 180.978 229.032C181.543 229.416 181.959 229.928 182.226 230.568C182.503 231.197 182.642 231.896 182.642 232.664V233.336H177.09V233.544C177.09 234.141 177.26 234.627 177.602 235C177.943 235.373 178.45 235.56 179.122 235.56C179.623 235.56 180.039 235.453 180.37 235.24C180.7 235.016 180.994 234.744 181.25 234.424L182.354 235.656C182.012 236.115 181.543 236.488 180.946 236.776C180.359 237.053 179.676 237.192 178.898 237.192ZM178.866 229.992C178.503 229.992 178.188 230.077 177.922 230.248C177.655 230.408 177.447 230.637 177.298 230.936C177.159 231.224 177.09 231.56 177.09 231.944V232.072H180.514V231.928C180.514 231.533 180.45 231.197 180.322 230.92C180.194 230.632 180.007 230.408 179.762 230.248C179.516 230.077 179.218 229.992 178.866 229.992ZM188.207 237H185.775L182.991 228.648H185.007L186.175 232.248L186.991 235.224H187.103L187.919 232.248L189.055 228.648H191.007L188.207 237ZM195.305 237.192C194.483 237.192 193.779 237.016 193.193 236.664C192.606 236.301 192.153 235.795 191.833 235.144C191.523 234.483 191.369 233.704 191.369 232.808C191.369 231.933 191.523 231.171 191.833 230.52C192.142 229.859 192.585 229.352 193.161 229C193.737 228.637 194.43 228.456 195.241 228.456C196.115 228.456 196.83 228.648 197.385 229.032C197.95 229.416 198.366 229.928 198.633 230.568C198.91 231.197 199.049 231.896 199.049 232.664V233.336H193.497V233.544C193.497 234.141 193.667 234.627 194.009 235C194.35 235.373 194.857 235.56 195.529 235.56C196.03 235.56 196.446 235.453 196.777 235.24C197.107 235.016 197.401 234.744 197.657 234.424L198.761 235.656C198.419 236.115 197.95 236.488 197.353 236.776C196.766 237.053 196.083 237.192 195.305 237.192ZM195.273 229.992C194.91 229.992 194.595 230.077 194.329 230.248C194.062 230.408 193.854 230.637 193.705 230.936C193.566 231.224 193.497 231.56 193.497 231.944V232.072H196.921V231.928C196.921 231.533 196.857 231.197 196.729 230.92C196.601 230.632 196.414 230.408 196.169 230.248C195.923 230.077 195.625 229.992 195.273 229.992ZM203.683 237H202.579C201.885 237 201.368 236.824 201.027 236.472C200.696 236.12 200.531 235.624 200.531 234.984V225.16H202.579V235.368H203.683V237ZM212.194 237H211.058C210.748 237 210.471 236.931 210.226 236.792C209.991 236.643 209.804 236.429 209.666 236.152C209.538 235.875 209.474 235.549 209.474 235.176V235L209.986 235.56H209.41C209.271 236.093 208.983 236.499 208.546 236.776C208.119 237.053 207.596 237.192 206.978 237.192C206.124 237.192 205.468 236.968 205.01 236.52C204.551 236.061 204.322 235.464 204.322 234.728C204.322 234.152 204.46 233.677 204.738 233.304C205.026 232.931 205.436 232.648 205.97 232.456C206.503 232.264 207.143 232.168 207.89 232.168H209.314V231.56C209.314 231.101 209.191 230.744 208.946 230.488C208.7 230.221 208.306 230.088 207.762 230.088C207.282 230.088 206.892 230.195 206.594 230.408C206.306 230.611 206.06 230.856 205.858 231.144L204.642 230.056C204.951 229.576 205.362 229.192 205.874 228.904C206.386 228.605 207.063 228.456 207.906 228.456C209.026 228.456 209.879 228.717 210.466 229.24C211.063 229.752 211.362 230.483 211.362 231.432V235.368H212.194V237ZM209.314 233.4H208.002C207.468 233.4 207.068 233.491 206.802 233.672C206.535 233.843 206.402 234.093 206.402 234.424V234.696C206.402 235.027 206.514 235.277 206.738 235.448C206.962 235.619 207.271 235.704 207.666 235.704C207.975 235.704 208.252 235.661 208.498 235.576C208.743 235.48 208.94 235.341 209.09 235.16C209.239 234.979 209.314 234.76 209.314 234.504V233.4ZM218.715 237V235.608H218.635C218.486 236.088 218.203 236.472 217.787 236.76C217.371 237.048 216.886 237.192 216.331 237.192C215.638 237.192 215.046 237.021 214.555 236.68C214.075 236.339 213.707 235.843 213.451 235.192C213.195 234.531 213.067 233.736 213.067 232.808C213.067 231.88 213.195 231.096 213.451 230.456C213.707 229.805 214.075 229.309 214.555 228.968C215.046 228.627 215.638 228.456 216.331 228.456C216.886 228.456 217.371 228.6 217.787 228.888C218.214 229.165 218.497 229.544 218.635 230.024H218.715V225.16H220.763V237H218.715ZM216.987 235.496C217.318 235.496 217.611 235.443 217.867 235.336C218.134 235.229 218.342 235.075 218.491 234.872C218.641 234.669 218.715 234.424 218.715 234.136V231.48C218.715 231.213 218.641 230.979 218.491 230.776C218.342 230.573 218.134 230.419 217.867 230.312C217.611 230.195 217.318 230.136 216.987 230.136C216.465 230.136 216.038 230.317 215.707 230.68C215.377 231.032 215.211 231.507 215.211 232.104V233.544C215.211 234.131 215.377 234.605 215.707 234.968C216.038 235.32 216.465 235.496 216.987 235.496ZM226.117 237.192C225.328 237.192 224.64 237.016 224.053 236.664C223.477 236.301 223.029 235.795 222.709 235.144C222.4 234.483 222.245 233.704 222.245 232.808C222.245 231.912 222.4 231.144 222.709 230.504C223.029 229.853 223.477 229.352 224.053 229C224.64 228.637 225.328 228.456 226.117 228.456C226.917 228.456 227.605 228.637 228.181 229C228.768 229.352 229.216 229.853 229.525 230.504C229.845 231.144 230.005 231.912 230.005 232.808C230.005 233.704 229.845 234.483 229.525 235.144C229.216 235.795 228.768 236.301 228.181 236.664C227.605 237.016 226.917 237.192 226.117 237.192ZM226.117 235.544C226.661 235.544 227.088 235.379 227.397 235.048C227.706 234.707 227.861 234.221 227.861 233.592V232.04C227.861 231.411 227.706 230.931 227.397 230.6C227.088 230.269 226.661 230.104 226.117 230.104C225.594 230.104 225.173 230.269 224.853 230.6C224.544 230.931 224.389 231.411 224.389 232.04V233.592C224.389 234.221 224.544 234.707 224.853 235.048C225.173 235.379 225.594 235.544 226.117 235.544ZM239.042 237H237.57C236.866 237 236.327 236.819 235.954 236.456C235.591 236.083 235.41 235.555 235.41 234.872V230.264H234.178V228.648H234.818C235.127 228.648 235.335 228.579 235.442 228.44C235.559 228.291 235.618 228.072 235.618 227.784V226.36H237.458V228.648H239.17V230.264H237.458V235.368H239.042V237ZM243.94 237.192C243.118 237.192 242.414 237.016 241.828 236.664C241.241 236.301 240.788 235.795 240.468 235.144C240.158 234.483 240.004 233.704 240.004 232.808C240.004 231.933 240.158 231.171 240.468 230.52C240.777 229.859 241.22 229.352 241.796 229C242.372 228.637 243.065 228.456 243.876 228.456C244.75 228.456 245.465 228.648 246.02 229.032C246.585 229.416 247.001 229.928 247.268 230.568C247.545 231.197 247.684 231.896 247.684 232.664V233.336H242.132V233.544C242.132 234.141 242.302 234.627 242.644 235C242.985 235.373 243.492 235.56 244.164 235.56C244.665 235.56 245.081 235.453 245.412 235.24C245.742 235.016 246.036 234.744 246.292 234.424L247.396 235.656C247.054 236.115 246.585 236.488 245.988 236.776C245.401 237.053 244.718 237.192 243.94 237.192ZM243.908 229.992C243.545 229.992 243.23 230.077 242.964 230.248C242.697 230.408 242.489 230.637 242.34 230.936C242.201 231.224 242.132 231.56 242.132 231.944V232.072H245.556V231.928C245.556 231.533 245.492 231.197 245.364 230.92C245.236 230.632 245.049 230.408 244.804 230.248C244.558 230.077 244.26 229.992 243.908 229.992ZM246.164 224.968L244.148 227.704L242.916 227.112L244.436 224.12L246.164 224.968ZM251.214 237H249.166V228.648H251.214V230.376H251.294C251.368 230.077 251.491 229.8 251.662 229.544C251.843 229.277 252.083 229.064 252.382 228.904C252.691 228.733 253.064 228.648 253.502 228.648H253.95V230.584H253.31C252.851 230.584 252.462 230.632 252.142 230.728C251.832 230.813 251.598 230.952 251.438 231.144C251.288 231.325 251.214 231.571 251.214 231.88V237ZM257.175 237H255.127V228.648H257.175V230.04H257.255C257.415 229.603 257.671 229.229 258.023 228.92C258.385 228.611 258.876 228.456 259.495 228.456C260.071 228.456 260.567 228.595 260.983 228.872C261.409 229.149 261.719 229.571 261.911 230.136H261.943C262.092 229.677 262.391 229.283 262.839 228.952C263.287 228.621 263.841 228.456 264.503 228.456C265.313 228.456 265.943 228.744 266.391 229.32C266.839 229.885 267.063 230.685 267.063 231.72V237H265.015V231.928C265.015 231.331 264.903 230.883 264.679 230.584C264.465 230.285 264.129 230.136 263.671 230.136C263.404 230.136 263.148 230.189 262.903 230.296C262.668 230.392 262.476 230.541 262.327 230.744C262.188 230.936 262.119 231.181 262.119 231.48V237H260.071V231.928C260.071 231.331 259.959 230.883 259.735 230.584C259.511 230.285 259.175 230.136 258.727 230.136C258.471 230.136 258.22 230.189 257.975 230.296C257.74 230.392 257.548 230.541 257.399 230.744C257.249 230.936 257.175 231.181 257.175 231.48V237ZM270.034 227.432C269.618 227.432 269.314 227.336 269.122 227.144C268.93 226.941 268.834 226.696 268.834 226.408V226.088C268.834 225.789 268.93 225.544 269.122 225.352C269.314 225.16 269.618 225.064 270.034 225.064C270.45 225.064 270.754 225.16 270.946 225.352C271.138 225.544 271.234 225.789 271.234 226.088V226.408C271.234 226.696 271.138 226.941 270.946 227.144C270.754 227.336 270.45 227.432 270.034 227.432ZM269.01 237V228.648H271.058V237H269.01ZM276.392 237.192C275.155 237.192 274.2 236.797 273.528 236.008C272.867 235.219 272.536 234.152 272.536 232.808C272.536 231.475 272.867 230.419 273.528 229.64C274.2 228.851 275.155 228.456 276.392 228.456C277.235 228.456 277.928 228.643 278.472 229.016C279.027 229.389 279.427 229.907 279.672 230.568L277.992 231.32C277.896 230.968 277.715 230.68 277.448 230.456C277.182 230.221 276.83 230.104 276.392 230.104C275.827 230.104 275.4 230.285 275.112 230.648C274.824 231 274.68 231.475 274.68 232.072V233.592C274.68 234.168 274.824 234.637 275.112 235C275.4 235.363 275.827 235.544 276.392 235.544C276.872 235.544 277.246 235.421 277.512 235.176C277.79 234.92 278.003 234.605 278.152 234.232L279.72 234.984C279.454 235.72 279.032 236.275 278.456 236.648C277.891 237.011 277.203 237.192 276.392 237.192ZM284.213 237.192C283.424 237.192 282.736 237.016 282.149 236.664C281.573 236.301 281.125 235.795 280.805 235.144C280.496 234.483 280.341 233.704 280.341 232.808C280.341 231.912 280.496 231.144 280.805 230.504C281.125 229.853 281.573 229.352 282.149 229C282.736 228.637 283.424 228.456 284.213 228.456C285.013 228.456 285.701 228.637 286.277 229C286.864 229.352 287.312 229.853 287.621 230.504C287.941 231.144 288.101 231.912 288.101 232.808C288.101 233.704 287.941 234.483 287.621 235.144C287.312 235.795 286.864 236.301 286.277 236.664C285.701 237.016 285.013 237.192 284.213 237.192ZM284.213 235.544C284.757 235.544 285.184 235.379 285.493 235.048C285.803 234.707 285.957 234.221 285.957 233.592V232.04C285.957 231.411 285.803 230.931 285.493 230.6C285.184 230.269 284.757 230.104 284.213 230.104C283.691 230.104 283.269 230.269 282.949 230.6C282.64 230.931 282.485 231.411 282.485 232.04V233.592C282.485 234.221 282.64 234.707 282.949 235.048C283.269 235.379 283.691 235.544 284.213 235.544ZM192.613 246.432C192.197 246.432 191.893 246.336 191.701 246.144C191.509 245.941 191.413 245.696 191.413 245.408V245.088C191.413 244.789 191.509 244.544 191.701 244.352C191.893 244.16 192.197 244.064 192.613 244.064C193.029 244.064 193.333 244.16 193.525 244.352C193.717 244.544 193.813 244.789 193.813 245.088V245.408C193.813 245.696 193.717 245.941 193.525 246.144C193.333 246.336 193.029 246.432 192.613 246.432ZM191.589 256V247.648H193.637V256H191.589ZM197.723 256H195.675V247.648H197.723V249.04H197.803C197.974 248.592 198.241 248.219 198.603 247.92C198.977 247.611 199.489 247.456 200.139 247.456C200.993 247.456 201.649 247.744 202.107 248.32C202.577 248.885 202.811 249.685 202.811 250.72V256H200.763V250.928C200.763 250.341 200.657 249.899 200.443 249.6C200.23 249.291 199.878 249.136 199.387 249.136C199.11 249.136 198.843 249.189 198.587 249.296C198.331 249.392 198.123 249.541 197.963 249.744C197.803 249.936 197.723 250.181 197.723 250.48V256ZM206.809 256H204.761V247.648H206.809V249.04H206.889C207.049 248.603 207.305 248.229 207.657 247.92C208.02 247.611 208.511 247.456 209.129 247.456C209.705 247.456 210.201 247.595 210.617 247.872C211.044 248.149 211.353 248.571 211.545 249.136H211.577C211.727 248.677 212.025 248.283 212.474 247.952C212.922 247.621 213.476 247.456 214.137 247.456C214.948 247.456 215.578 247.744 216.026 248.32C216.474 248.885 216.698 249.685 216.698 250.72V256H214.649V250.928C214.649 250.331 214.537 249.883 214.313 249.584C214.1 249.285 213.764 249.136 213.306 249.136C213.039 249.136 212.783 249.189 212.537 249.296C212.303 249.392 212.111 249.541 211.962 249.744C211.823 249.936 211.753 250.181 211.753 250.48V256H209.705V250.928C209.705 250.331 209.593 249.883 209.369 249.584C209.145 249.285 208.809 249.136 208.361 249.136C208.105 249.136 207.855 249.189 207.609 249.296C207.375 249.392 207.183 249.541 207.033 249.744C206.884 249.936 206.809 250.181 206.809 250.48V256ZM222.021 256.192C221.199 256.192 220.495 256.016 219.909 255.664C219.322 255.301 218.869 254.795 218.549 254.144C218.239 253.483 218.085 252.704 218.085 251.808C218.085 250.933 218.239 250.171 218.549 249.52C218.858 248.859 219.301 248.352 219.877 248C220.453 247.637 221.146 247.456 221.957 247.456C222.831 247.456 223.546 247.648 224.101 248.032C224.666 248.416 225.082 248.928 225.349 249.568C225.626 250.197 225.765 250.896 225.765 251.664V252.336H220.213V252.544C220.213 253.141 220.383 253.627 220.725 254C221.066 254.373 221.573 254.56 222.245 254.56C222.746 254.56 223.162 254.453 223.493 254.24C223.823 254.016 224.117 253.744 224.373 253.424L225.477 254.656C225.135 255.115 224.666 255.488 224.069 255.776C223.482 256.053 222.799 256.192 222.021 256.192ZM221.989 248.992C221.626 248.992 221.311 249.077 221.045 249.248C220.778 249.408 220.57 249.637 220.421 249.936C220.282 250.224 220.213 250.56 220.213 250.944V251.072H223.637V250.928C223.637 250.533 223.573 250.197 223.445 249.92C223.317 249.632 223.13 249.408 222.885 249.248C222.639 249.077 222.341 248.992 221.989 248.992ZM232.431 256V254.608H232.351C232.201 255.088 231.919 255.472 231.503 255.76C231.087 256.048 230.601 256.192 230.047 256.192C229.353 256.192 228.761 256.021 228.271 255.68C227.791 255.339 227.423 254.843 227.167 254.192C226.911 253.531 226.783 252.736 226.783 251.808C226.783 250.88 226.911 250.096 227.167 249.456C227.423 248.805 227.791 248.309 228.271 247.968C228.761 247.627 229.353 247.456 230.047 247.456C230.601 247.456 231.087 247.6 231.503 247.888C231.929 248.165 232.212 248.544 232.351 249.024H232.431V244.16H234.479V256H232.431ZM230.703 254.496C231.033 254.496 231.327 254.443 231.583 254.336C231.849 254.229 232.057 254.075 232.207 253.872C232.356 253.669 232.431 253.424 232.431 253.136V250.48C232.431 250.213 232.356 249.979 232.207 249.776C232.057 249.573 231.849 249.419 231.583 249.312C231.327 249.195 231.033 249.136 230.703 249.136C230.18 249.136 229.753 249.317 229.423 249.68C229.092 250.032 228.927 250.507 228.927 251.104V252.544C228.927 253.131 229.092 253.605 229.423 253.968C229.753 254.32 230.18 254.496 230.703 254.496ZM237.544 246.432C237.128 246.432 236.824 246.336 236.632 246.144C236.44 245.941 236.344 245.696 236.344 245.408V245.088C236.344 244.789 236.44 244.544 236.632 244.352C236.824 244.16 237.128 244.064 237.544 244.064C237.96 244.064 238.264 244.16 238.456 244.352C238.648 244.544 238.744 244.789 238.744 245.088V245.408C238.744 245.696 238.648 245.941 238.456 246.144C238.264 246.336 237.96 246.432 237.544 246.432ZM236.52 256V247.648H238.568V256H236.52ZM247.887 256H246.751C246.441 256 246.164 255.931 245.919 255.792C245.684 255.643 245.497 255.429 245.359 255.152C245.231 254.875 245.167 254.549 245.167 254.176V254L245.679 254.56H245.103C244.964 255.093 244.676 255.499 244.239 255.776C243.812 256.053 243.289 256.192 242.671 256.192C241.817 256.192 241.161 255.968 240.703 255.52C240.244 255.061 240.015 254.464 240.015 253.728C240.015 253.152 240.153 252.677 240.431 252.304C240.719 251.931 241.129 251.648 241.663 251.456C242.196 251.264 242.836 251.168 243.583 251.168H245.007V250.56C245.007 250.101 244.884 249.744 244.639 249.488C244.393 249.221 243.999 249.088 243.455 249.088C242.975 249.088 242.585 249.195 242.287 249.408C241.999 249.611 241.753 249.856 241.551 250.144L240.335 249.056C240.644 248.576 241.055 248.192 241.567 247.904C242.079 247.605 242.756 247.456 243.599 247.456C244.719 247.456 245.572 247.717 246.159 248.24C246.756 248.752 247.055 249.483 247.055 250.432V254.368H247.887V256ZM245.007 252.4H243.695C243.161 252.4 242.761 252.491 242.495 252.672C242.228 252.843 242.095 253.093 242.095 253.424V253.696C242.095 254.027 242.207 254.277 242.431 254.448C242.655 254.619 242.964 254.704 243.359 254.704C243.668 254.704 243.945 254.661 244.191 254.576C244.436 254.48 244.633 254.341 244.783 254.16C244.932 253.979 245.007 253.76 245.007 253.504V252.4ZM253.241 256H251.769C251.065 256 250.527 255.819 250.153 255.456C249.791 255.083 249.609 254.555 249.609 253.872V249.264H248.377V247.648H249.017C249.327 247.648 249.535 247.579 249.641 247.44C249.759 247.291 249.817 247.072 249.817 246.784V245.36H251.657V247.648H253.369V249.264H251.657V254.368H253.241V256ZM258.075 256.192C257.286 256.192 256.598 256.016 256.011 255.664C255.435 255.301 254.987 254.795 254.667 254.144C254.358 253.483 254.203 252.704 254.203 251.808C254.203 250.912 254.358 250.144 254.667 249.504C254.987 248.853 255.435 248.352 256.011 248C256.598 247.637 257.286 247.456 258.075 247.456C258.875 247.456 259.563 247.637 260.139 248C260.726 248.352 261.174 248.853 261.483 249.504C261.803 250.144 261.963 250.912 261.963 251.808C261.963 252.704 261.803 253.483 261.483 254.144C261.174 254.795 260.726 255.301 260.139 255.664C259.563 256.016 258.875 256.192 258.075 256.192ZM258.075 254.544C258.619 254.544 259.046 254.379 259.355 254.048C259.665 253.707 259.819 253.221 259.819 252.592V251.04C259.819 250.411 259.665 249.931 259.355 249.6C259.046 249.269 258.619 249.104 258.075 249.104C257.553 249.104 257.131 249.269 256.811 249.6C256.502 249.931 256.347 250.411 256.347 251.04V252.592C256.347 253.221 256.502 253.707 256.811 254.048C257.131 254.379 257.553 254.544 258.075 254.544Z" fill="black"/>
<path d="M205.153 196H198.289V189.568H183.553V183.424L196.609 162.496H205.153V184H209.377V189.568H205.153V196ZM197.809 169.936L189.313 184H198.289V169.936H197.809ZM223.854 196.576C220.942 196.576 218.526 195.888 216.606 194.512C214.686 193.136 213.262 191.168 212.334 188.608C211.406 186.016 210.942 182.896 210.942 179.248C210.942 175.6 211.406 172.48 212.334 169.888C213.262 167.296 214.686 165.328 216.606 163.984C218.526 162.608 220.942 161.92 223.854 161.92C226.798 161.92 229.214 162.608 231.102 163.984C233.022 165.328 234.446 167.296 235.374 169.888C236.302 172.48 236.766 175.6 236.766 179.248C236.766 182.896 236.302 186.016 235.374 188.608C234.446 191.168 233.022 193.136 231.102 194.512C229.214 195.888 226.798 196.576 223.854 196.576ZM223.854 190.48C225.134 190.48 226.142 190.16 226.878 189.52C227.614 188.88 228.142 187.968 228.462 186.784C228.782 185.568 228.942 184.112 228.942 182.416V176.08C228.942 174.384 228.782 172.944 228.462 171.76C228.142 170.544 227.614 169.616 226.878 168.976C226.142 168.336 225.134 168.016 223.854 168.016C222.574 168.016 221.566 168.336 220.83 168.976C220.094 169.616 219.566 170.544 219.246 171.76C218.926 172.944 218.766 174.384 218.766 176.08V182.416C218.766 184.112 218.926 185.568 219.246 186.784C219.566 187.968 220.094 188.88 220.83 189.52C221.566 190.16 222.574 190.48 223.854 190.48ZM258.555 196.576C256.123 196.576 254.075 196.192 252.411 195.424C250.747 194.624 249.259 193.504 247.947 192.064L252.123 187.84C253.019 188.832 254.011 189.616 255.099 190.192C256.187 190.768 257.419 191.056 258.795 191.056C260.203 191.056 261.179 190.848 261.723 190.432C262.267 189.984 262.539 189.392 262.539 188.656C262.539 188.016 262.331 187.536 261.915 187.216C261.531 186.896 260.891 186.672 259.995 186.544L257.259 186.208C255.371 185.952 253.787 185.504 252.507 184.864C251.259 184.224 250.315 183.376 249.675 182.32C249.067 181.232 248.763 179.936 248.763 178.432C248.763 176 249.643 174.032 251.403 172.528C253.163 170.992 255.547 170.224 258.555 170.224C260.315 170.224 261.803 170.384 263.019 170.704C264.235 170.992 265.291 171.44 266.187 172.048C267.115 172.624 267.995 173.328 268.827 174.16L264.747 178.336C263.947 177.536 263.035 176.912 262.011 176.464C261.019 175.984 259.995 175.744 258.939 175.744C257.755 175.744 256.891 175.936 256.347 176.32C255.835 176.704 255.579 177.216 255.579 177.856C255.579 178.528 255.755 179.056 256.107 179.44C256.491 179.792 257.195 180.048 258.219 180.208L261.051 180.592C263.803 180.944 265.867 181.76 267.243 183.04C268.651 184.288 269.355 186 269.355 188.176C269.355 189.776 268.907 191.216 268.011 192.496C267.115 193.776 265.851 194.784 264.219 195.52C262.619 196.224 260.731 196.576 258.555 196.576Z" fill="url(#paint0_linear_393_610)"/>
<path d="M544.929 162.496V168.784H529.713L528.993 179.392H529.377C529.825 178.336 530.337 177.408 530.913 176.608C531.489 175.808 532.225 175.184 533.121 174.736C534.017 174.288 535.169 174.064 536.577 174.064C538.497 174.064 540.225 174.496 541.761 175.36C543.329 176.192 544.577 177.408 545.505 179.008C546.433 180.576 546.897 182.48 546.897 184.72C546.897 186.992 546.401 189.024 545.409 190.816C544.417 192.608 542.961 194.016 541.041 195.04C539.121 196.064 536.785 196.576 534.033 196.576C531.889 196.576 530.049 196.288 528.513 195.712C526.977 195.104 525.681 194.304 524.625 193.312C523.601 192.32 522.753 191.264 522.081 190.144L527.313 186.016C528.049 187.296 528.929 188.4 529.953 189.328C530.977 190.256 532.353 190.72 534.081 190.72C535.809 190.72 537.105 190.224 537.969 189.232C538.865 188.24 539.313 186.928 539.313 185.296V184.912C539.313 183.376 538.865 182.16 537.969 181.264C537.073 180.368 535.841 179.92 534.273 179.92C532.993 179.92 531.921 180.192 531.057 180.736C530.193 181.248 529.537 181.76 529.089 182.272L523.185 181.456L524.433 162.496H544.929ZM548.079 196L556.383 183.184L548.175 170.8H556.239L560.943 178.72H561.135L565.695 170.8H573.183L564.831 183.424L573.231 196H565.167L560.319 187.792H560.127L555.471 196H548.079ZM588.186 196H580.602L591.834 168.352H581.37V174.448H575.274V162.496H598.986V168.736L588.186 196ZM623.367 196.576C619.591 196.576 616.679 195.392 614.631 193.024C612.615 190.624 611.607 187.408 611.607 183.376C611.607 179.344 612.615 176.144 614.631 173.776C616.679 171.408 619.591 170.224 623.367 170.224C625.927 170.224 628.055 170.8 629.751 171.952C631.479 173.104 632.711 174.72 633.447 176.8L627.687 179.296C627.463 178.336 626.999 177.52 626.295 176.848C625.591 176.176 624.615 175.84 623.367 175.84C621.927 175.84 620.839 176.32 620.103 177.28C619.367 178.208 618.999 179.472 618.999 181.072V185.776C618.999 187.344 619.367 188.608 620.103 189.568C620.839 190.528 621.927 191.008 623.367 191.008C624.775 191.008 625.815 190.624 626.487 189.856C627.191 189.088 627.719 188.208 628.071 187.216L633.591 189.616C632.759 192.016 631.463 193.776 629.703 194.896C627.943 196.016 625.831 196.576 623.367 196.576ZM643.652 196H636.548V170.8H643.652V175.072H643.94C644.388 173.728 645.156 172.592 646.244 171.664C647.364 170.704 648.852 170.224 650.708 170.224C652.436 170.224 653.908 170.656 655.124 171.52C656.34 172.384 657.22 173.648 657.764 175.312H657.908C658.356 173.904 659.268 172.704 660.644 171.712C662.02 170.72 663.668 170.224 665.588 170.224C668.02 170.224 669.876 171.104 671.156 172.864C672.468 174.592 673.124 177.04 673.124 180.208V196H666.02V180.784C666.02 179.152 665.732 177.952 665.156 177.184C664.612 176.384 663.748 175.984 662.564 175.984C661.86 175.984 661.188 176.128 660.548 176.416C659.908 176.672 659.38 177.072 658.964 177.616C658.58 178.16 658.388 178.848 658.388 179.68V196H651.284V180.784C651.284 179.152 650.996 177.952 650.42 177.184C649.844 176.384 648.98 175.984 647.828 175.984C647.156 175.984 646.5 176.128 645.86 176.416C645.22 176.672 644.692 177.072 644.276 177.616C643.86 178.16 643.652 178.848 643.652 179.68V196Z" fill="url(#paint1_linear_393_610)"/>
<path d="M1008.78 196H985.451V190.192H994.475V167.728H994.043L987.227 176.656L982.619 173.056L990.635 162.496H1001.67V190.192H1008.78V196ZM1022.68 196.576C1019.77 196.576 1017.35 195.888 1015.43 194.512C1013.51 193.136 1012.09 191.168 1011.16 188.608C1010.23 186.016 1009.77 182.896 1009.77 179.248C1009.77 175.6 1010.23 172.48 1011.16 169.888C1012.09 167.296 1013.51 165.328 1015.43 163.984C1017.35 162.608 1019.77 161.92 1022.68 161.92C1025.62 161.92 1028.04 162.608 1029.93 163.984C1031.85 165.328 1033.27 167.296 1034.2 169.888C1035.13 172.48 1035.59 175.6 1035.59 179.248C1035.59 182.896 1035.13 186.016 1034.2 188.608C1033.27 191.168 1031.85 193.136 1029.93 194.512C1028.04 195.888 1025.62 196.576 1022.68 196.576ZM1022.68 190.48C1023.96 190.48 1024.97 190.16 1025.7 189.52C1026.44 188.88 1026.97 187.968 1027.29 186.784C1027.61 185.568 1027.77 184.112 1027.77 182.416V176.08C1027.77 174.384 1027.61 172.944 1027.29 171.76C1026.97 170.544 1026.44 169.616 1025.7 168.976C1024.97 168.336 1023.96 168.016 1022.68 168.016C1021.4 168.016 1020.39 168.336 1019.66 168.976C1018.92 169.616 1018.39 170.544 1018.07 171.76C1017.75 172.944 1017.59 174.384 1017.59 176.08V182.416C1017.59 184.112 1017.75 185.568 1018.07 186.784C1018.39 187.968 1018.92 188.88 1019.66 189.52C1020.39 190.16 1021.4 190.48 1022.68 190.48Z" fill="url(#paint2_linear_393_610)"/>
<path d="M510.626 226.704H507.442V236H505.33V226.704H502.162V224.832H510.626V226.704ZM518.046 236H516.91C516.601 236 516.324 235.931 516.078 235.792C515.844 235.643 515.657 235.429 515.518 235.152C515.39 234.875 515.326 234.549 515.326 234.176V234L515.838 234.56H515.262C515.124 235.093 514.836 235.499 514.398 235.776C513.972 236.053 513.449 236.192 512.83 236.192C511.977 236.192 511.321 235.968 510.862 235.52C510.404 235.061 510.174 234.464 510.174 233.728C510.174 233.152 510.313 232.677 510.59 232.304C510.878 231.931 511.289 231.648 511.822 231.456C512.356 231.264 512.996 231.168 513.742 231.168H515.166V230.56C515.166 230.101 515.044 229.744 514.798 229.488C514.553 229.221 514.158 229.088 513.614 229.088C513.134 229.088 512.745 229.195 512.446 229.408C512.158 229.611 511.913 229.856 511.71 230.144L510.494 229.056C510.804 228.576 511.214 228.192 511.726 227.904C512.238 227.605 512.916 227.456 513.758 227.456C514.878 227.456 515.732 227.717 516.318 228.24C516.916 228.752 517.214 229.483 517.214 230.432V234.368H518.046V236ZM515.166 232.4H513.854C513.321 232.4 512.921 232.491 512.654 232.672C512.388 232.843 512.254 233.093 512.254 233.424V233.696C512.254 234.027 512.366 234.277 512.59 234.448C512.814 234.619 513.124 234.704 513.518 234.704C513.828 234.704 514.105 234.661 514.35 234.576C514.596 234.48 514.793 234.341 514.942 234.16C515.092 233.979 515.166 233.76 515.166 233.504V232.4ZM521.432 236H519.384V227.648H521.432V229.04H521.512C521.672 228.603 521.928 228.229 522.28 227.92C522.643 227.611 523.133 227.456 523.752 227.456C524.328 227.456 524.824 227.595 525.24 227.872C525.667 228.149 525.976 228.571 526.168 229.136H526.2C526.349 228.677 526.648 228.283 527.096 227.952C527.544 227.621 528.099 227.456 528.76 227.456C529.571 227.456 530.2 227.744 530.648 228.32C531.096 228.885 531.32 229.685 531.32 230.72V236H529.272V230.928C529.272 230.331 529.16 229.883 528.936 229.584C528.723 229.285 528.387 229.136 527.928 229.136C527.661 229.136 527.405 229.189 527.16 229.296C526.925 229.392 526.733 229.541 526.584 229.744C526.445 229.936 526.376 230.181 526.376 230.48V236H524.328V230.928C524.328 230.331 524.216 229.883 523.992 229.584C523.768 229.285 523.432 229.136 522.984 229.136C522.728 229.136 522.477 229.189 522.232 229.296C521.997 229.392 521.805 229.541 521.656 229.744C521.507 229.936 521.432 230.181 521.432 230.48V236ZM540.547 236H539.411C539.102 236 538.824 235.931 538.579 235.792C538.344 235.643 538.158 235.429 538.019 235.152C537.891 234.875 537.827 234.549 537.827 234.176V234L538.339 234.56H537.763C537.624 235.093 537.336 235.499 536.899 235.776C536.472 236.053 535.95 236.192 535.331 236.192C534.478 236.192 533.822 235.968 533.363 235.52C532.904 235.061 532.675 234.464 532.675 233.728C532.675 233.152 532.814 232.677 533.091 232.304C533.379 231.931 533.79 231.648 534.323 231.456C534.856 231.264 535.496 231.168 536.243 231.168H537.667V230.56C537.667 230.101 537.544 229.744 537.299 229.488C537.054 229.221 536.659 229.088 536.115 229.088C535.635 229.088 535.246 229.195 534.947 229.408C534.659 229.611 534.414 229.856 534.211 230.144L532.995 229.056C533.304 228.576 533.715 228.192 534.227 227.904C534.739 227.605 535.416 227.456 536.259 227.456C537.379 227.456 538.232 227.717 538.819 228.24C539.416 228.752 539.715 229.483 539.715 230.432V234.368H540.547V236ZM537.667 232.4H536.355C535.822 232.4 535.422 232.491 535.155 232.672C534.888 232.843 534.755 233.093 534.755 233.424V233.696C534.755 234.027 534.867 234.277 535.091 234.448C535.315 234.619 535.624 234.704 536.019 234.704C536.328 234.704 536.606 234.661 536.851 234.576C537.096 234.48 537.294 234.341 537.443 234.16C537.592 233.979 537.667 233.76 537.667 233.504V232.4ZM543.933 236H541.885V227.648H543.933V229.04H544.013C544.183 228.592 544.45 228.219 544.813 227.92C545.186 227.611 545.698 227.456 546.349 227.456C547.202 227.456 547.858 227.744 548.317 228.32C548.786 228.885 549.021 229.685 549.021 230.72V236H546.973V230.928C546.973 230.341 546.866 229.899 546.653 229.6C546.439 229.291 546.087 229.136 545.597 229.136C545.319 229.136 545.053 229.189 544.797 229.296C544.541 229.392 544.333 229.541 544.173 229.744C544.013 229.936 543.933 230.181 543.933 230.48V236ZM546.637 226.336C546.391 226.336 546.167 226.299 545.965 226.224C545.773 226.149 545.581 226.069 545.389 225.984C545.154 225.877 544.941 225.792 544.749 225.728C544.567 225.653 544.381 225.616 544.189 225.616C544.007 225.616 543.847 225.653 543.709 225.728C543.57 225.792 543.415 225.893 543.245 226.032L542.493 225.072C542.674 224.805 542.909 224.576 543.197 224.384C543.485 224.192 543.831 224.096 544.237 224.096C544.493 224.096 544.717 224.133 544.909 224.208C545.101 224.283 545.293 224.363 545.485 224.448C545.719 224.555 545.933 224.645 546.125 224.72C546.317 224.784 546.503 224.816 546.685 224.816C546.866 224.816 547.026 224.784 547.165 224.72C547.303 224.645 547.458 224.539 547.629 224.4L548.381 225.36C548.199 225.627 547.965 225.856 547.677 226.048C547.399 226.24 547.053 226.336 546.637 226.336ZM554.283 236.192C553.494 236.192 552.806 236.016 552.219 235.664C551.643 235.301 551.195 234.795 550.875 234.144C550.566 233.483 550.411 232.704 550.411 231.808C550.411 230.912 550.566 230.144 550.875 229.504C551.195 228.853 551.643 228.352 552.219 228C552.806 227.637 553.494 227.456 554.283 227.456C555.083 227.456 555.771 227.637 556.347 228C556.934 228.352 557.382 228.853 557.691 229.504C558.011 230.144 558.171 230.912 558.171 231.808C558.171 232.704 558.011 233.483 557.691 234.144C557.382 234.795 556.934 235.301 556.347 235.664C555.771 236.016 555.083 236.192 554.283 236.192ZM554.283 234.544C554.827 234.544 555.254 234.379 555.563 234.048C555.872 233.707 556.027 233.221 556.027 232.592V231.04C556.027 230.411 555.872 229.931 555.563 229.6C555.254 229.269 554.827 229.104 554.283 229.104C553.76 229.104 553.339 229.269 553.019 229.6C552.71 229.931 552.555 230.411 552.555 231.04V232.592C552.555 233.221 552.71 233.707 553.019 234.048C553.339 234.379 553.76 234.544 554.283 234.544ZM568.312 236V234.608H568.232C568.082 235.088 567.8 235.472 567.384 235.76C566.968 236.048 566.482 236.192 565.928 236.192C565.234 236.192 564.642 236.021 564.152 235.68C563.672 235.339 563.304 234.843 563.048 234.192C562.792 233.531 562.664 232.736 562.664 231.808C562.664 230.88 562.792 230.096 563.048 229.456C563.304 228.805 563.672 228.309 564.152 227.968C564.642 227.627 565.234 227.456 565.928 227.456C566.482 227.456 566.968 227.6 567.384 227.888C567.81 228.165 568.093 228.544 568.232 229.024H568.312V224.16H570.36V236H568.312ZM566.584 234.496C566.914 234.496 567.208 234.443 567.464 234.336C567.73 234.229 567.938 234.075 568.088 233.872C568.237 233.669 568.312 233.424 568.312 233.136V230.48C568.312 230.213 568.237 229.979 568.088 229.776C567.938 229.573 567.73 229.419 567.464 229.312C567.208 229.195 566.914 229.136 566.584 229.136C566.061 229.136 565.634 229.317 565.304 229.68C564.973 230.032 564.808 230.507 564.808 231.104V232.544C564.808 233.131 564.973 233.605 565.304 233.968C565.634 234.32 566.061 234.496 566.584 234.496ZM575.777 236.192C574.956 236.192 574.252 236.016 573.665 235.664C573.079 235.301 572.625 234.795 572.305 234.144C571.996 233.483 571.841 232.704 571.841 231.808C571.841 230.933 571.996 230.171 572.305 229.52C572.615 228.859 573.057 228.352 573.633 228C574.209 227.637 574.903 227.456 575.713 227.456C576.588 227.456 577.303 227.648 577.857 228.032C578.423 228.416 578.839 228.928 579.105 229.568C579.383 230.197 579.521 230.896 579.521 231.664V232.336H573.969V232.544C573.969 233.141 574.14 233.627 574.481 234C574.823 234.373 575.329 234.56 576.001 234.56C576.503 234.56 576.919 234.453 577.249 234.24C577.58 234.016 577.873 233.744 578.129 233.424L579.233 234.656C578.892 235.115 578.423 235.488 577.825 235.776C577.239 236.053 576.556 236.192 575.777 236.192ZM575.745 228.992C575.383 228.992 575.068 229.077 574.801 229.248C574.535 229.408 574.327 229.637 574.177 229.936C574.039 230.224 573.969 230.56 573.969 230.944V231.072H577.393V230.928C577.393 230.533 577.329 230.197 577.201 229.92C577.073 229.632 576.887 229.408 576.641 229.248C576.396 229.077 576.097 228.992 575.745 228.992ZM587.617 236H586.513C585.819 236 585.302 235.824 584.961 235.472C584.63 235.12 584.465 234.624 584.465 233.984V224.16H586.513V234.368H587.617V236ZM596.128 236H594.992C594.682 236 594.405 235.931 594.16 235.792C593.925 235.643 593.738 235.429 593.6 235.152C593.472 234.875 593.408 234.549 593.408 234.176V234L593.92 234.56H593.344C593.205 235.093 592.917 235.499 592.48 235.776C592.053 236.053 591.53 236.192 590.912 236.192C590.058 236.192 589.402 235.968 588.944 235.52C588.485 235.061 588.256 234.464 588.256 233.728C588.256 233.152 588.394 232.677 588.672 232.304C588.96 231.931 589.37 231.648 589.904 231.456C590.437 231.264 591.077 231.168 591.824 231.168H593.248V230.56C593.248 230.101 593.125 229.744 592.88 229.488C592.634 229.221 592.24 229.088 591.696 229.088C591.216 229.088 590.826 229.195 590.528 229.408C590.24 229.611 589.994 229.856 589.792 230.144L588.576 229.056C588.885 228.576 589.296 228.192 589.808 227.904C590.32 227.605 590.997 227.456 591.84 227.456C592.96 227.456 593.813 227.717 594.4 228.24C594.997 228.752 595.296 229.483 595.296 230.432V234.368H596.128V236ZM593.248 232.4H591.936C591.402 232.4 591.002 232.491 590.736 232.672C590.469 232.843 590.336 233.093 590.336 233.424V233.696C590.336 234.027 590.448 234.277 590.672 234.448C590.896 234.619 591.205 234.704 591.6 234.704C591.909 234.704 592.186 234.661 592.432 234.576C592.677 234.48 592.874 234.341 593.024 234.16C593.173 233.979 593.248 233.76 593.248 233.504V232.4ZM600.201 236.192C599.401 236.192 598.729 236.059 598.185 235.792C597.641 235.515 597.161 235.136 596.745 234.656L597.993 233.44C598.303 233.792 598.639 234.069 599.001 234.272C599.375 234.475 599.801 234.576 600.281 234.576C600.772 234.576 601.124 234.491 601.337 234.32C601.561 234.149 601.673 233.915 601.673 233.616C601.673 233.371 601.593 233.179 601.433 233.04C601.284 232.891 601.023 232.789 600.649 232.736L599.817 232.624C599.22 232.549 598.713 232.411 598.297 232.208C597.881 232.005 597.567 231.728 597.353 231.376C597.14 231.024 597.033 230.597 597.033 230.096C597.033 229.285 597.321 228.645 597.897 228.176C598.484 227.696 599.252 227.456 600.201 227.456C600.745 227.456 601.209 227.509 601.593 227.616C601.988 227.712 602.335 227.861 602.633 228.064C602.932 228.256 603.209 228.491 603.465 228.768L602.265 229.968C602.02 229.712 601.727 229.499 601.385 229.328C601.044 229.157 600.671 229.072 600.265 229.072C599.839 229.072 599.519 229.152 599.305 229.312C599.103 229.461 599.001 229.669 599.001 229.936C599.001 230.213 599.081 230.427 599.241 230.576C599.412 230.715 599.695 230.816 600.089 230.88L600.937 230.992C601.855 231.12 602.532 231.392 602.969 231.808C603.417 232.213 603.641 232.763 603.641 233.456C603.641 233.989 603.497 234.464 603.209 234.88C602.932 235.296 602.532 235.621 602.009 235.856C601.497 236.08 600.895 236.192 600.201 236.192ZM609.615 226.432C609.199 226.432 608.895 226.336 608.703 226.144C608.511 225.941 608.415 225.696 608.415 225.408V225.088C608.415 224.789 608.511 224.544 608.703 224.352C608.895 224.16 609.199 224.064 609.615 224.064C610.031 224.064 610.335 224.16 610.527 224.352C610.719 224.544 610.815 224.789 610.815 225.088V225.408C610.815 225.696 610.719 225.941 610.527 226.144C610.335 226.336 610.031 226.432 609.615 226.432ZM608.591 236V227.648H610.639V236H608.591ZM614.725 236H612.677V227.648H614.725V229.04H614.805C614.965 228.603 615.221 228.229 615.573 227.92C615.936 227.611 616.426 227.456 617.045 227.456C617.621 227.456 618.117 227.595 618.533 227.872C618.96 228.149 619.269 228.571 619.461 229.136H619.493C619.642 228.677 619.941 228.283 620.389 227.952C620.837 227.621 621.392 227.456 622.053 227.456C622.864 227.456 623.493 227.744 623.941 228.32C624.389 228.885 624.613 229.685 624.613 230.72V236H622.565V230.928C622.565 230.331 622.453 229.883 622.229 229.584C622.016 229.285 621.68 229.136 621.221 229.136C620.954 229.136 620.698 229.189 620.453 229.296C620.218 229.392 620.026 229.541 619.877 229.744C619.738 229.936 619.669 230.181 619.669 230.48V236H617.621V230.928C617.621 230.331 617.509 229.883 617.285 229.584C617.061 229.285 616.725 229.136 616.277 229.136C616.021 229.136 615.77 229.189 615.525 229.296C615.29 229.392 615.098 229.541 614.949 229.744C614.8 229.936 614.725 230.181 614.725 230.48V236ZM626.56 239.2V227.648H628.608V229.024H628.672C628.822 228.544 629.104 228.165 629.52 227.888C629.947 227.6 630.432 227.456 630.976 227.456C631.691 227.456 632.288 227.627 632.768 227.968C633.248 228.309 633.616 228.805 633.872 229.456C634.128 230.096 634.256 230.88 634.256 231.808C634.256 232.736 634.128 233.531 633.872 234.192C633.616 234.843 633.248 235.339 632.768 235.68C632.288 236.021 631.691 236.192 630.976 236.192C630.432 236.192 629.952 236.048 629.536 235.76C629.12 235.472 628.832 235.088 628.672 234.608H628.608V239.2H626.56ZM630.32 234.496C630.854 234.496 631.286 234.32 631.616 233.968C631.947 233.605 632.112 233.131 632.112 232.544V231.104C632.112 230.507 631.947 230.032 631.616 229.68C631.286 229.317 630.854 229.136 630.32 229.136C630 229.136 629.707 229.195 629.44 229.312C629.184 229.419 628.982 229.573 628.832 229.776C628.683 229.979 628.608 230.213 628.608 230.48V233.136C628.608 233.424 628.683 233.669 628.832 233.872C628.982 234.075 629.184 234.229 629.44 234.336C629.707 234.443 630 234.496 630.32 234.496ZM637.882 236H635.834V227.648H637.882V229.376H637.962C638.037 229.077 638.159 228.8 638.33 228.544C638.511 228.277 638.751 228.064 639.05 227.904C639.359 227.733 639.733 227.648 640.17 227.648H640.618V229.584H639.978C639.519 229.584 639.13 229.632 638.81 229.728C638.501 229.813 638.266 229.952 638.106 230.144C637.957 230.325 637.882 230.571 637.882 230.88V236ZM645.093 236.192C644.272 236.192 643.568 236.016 642.981 235.664C642.394 235.301 641.941 234.795 641.621 234.144C641.312 233.483 641.157 232.704 641.157 231.808C641.157 230.933 641.312 230.171 641.621 229.52C641.93 228.859 642.373 228.352 642.949 228C643.525 227.637 644.218 227.456 645.029 227.456C645.904 227.456 646.618 227.648 647.173 228.032C647.738 228.416 648.154 228.928 648.421 229.568C648.698 230.197 648.837 230.896 648.837 231.664V232.336H643.285V232.544C643.285 233.141 643.456 233.627 643.797 234C644.138 234.373 644.645 234.56 645.317 234.56C645.818 234.56 646.234 234.453 646.565 234.24C646.896 234.016 647.189 233.744 647.445 233.424L648.549 234.656C648.208 235.115 647.738 235.488 647.141 235.776C646.554 236.053 645.872 236.192 645.093 236.192ZM645.061 228.992C644.698 228.992 644.384 229.077 644.117 229.248C643.85 229.408 643.642 229.637 643.493 229.936C643.354 230.224 643.285 230.56 643.285 230.944V231.072H646.709V230.928C646.709 230.533 646.645 230.197 646.517 229.92C646.389 229.632 646.202 229.408 645.957 229.248C645.712 229.077 645.413 228.992 645.061 228.992ZM653.055 236.192C652.255 236.192 651.583 236.059 651.039 235.792C650.495 235.515 650.015 235.136 649.599 234.656L650.847 233.44C651.156 233.792 651.492 234.069 651.855 234.272C652.228 234.475 652.655 234.576 653.135 234.576C653.626 234.576 653.978 234.491 654.191 234.32C654.415 234.149 654.527 233.915 654.527 233.616C654.527 233.371 654.447 233.179 654.287 233.04C654.138 232.891 653.876 232.789 653.503 232.736L652.671 232.624C652.074 232.549 651.567 232.411 651.151 232.208C650.735 232.005 650.42 231.728 650.207 231.376C649.994 231.024 649.887 230.597 649.887 230.096C649.887 229.285 650.175 228.645 650.751 228.176C651.338 227.696 652.106 227.456 653.055 227.456C653.599 227.456 654.063 227.509 654.447 227.616C654.842 227.712 655.188 227.861 655.487 228.064C655.786 228.256 656.063 228.491 656.319 228.768L655.119 229.968C654.874 229.712 654.58 229.499 654.239 229.328C653.898 229.157 653.524 229.072 653.119 229.072C652.692 229.072 652.372 229.152 652.159 229.312C651.956 229.461 651.855 229.669 651.855 229.936C651.855 230.213 651.935 230.427 652.095 230.576C652.266 230.715 652.548 230.816 652.943 230.88L653.791 230.992C654.708 231.12 655.386 231.392 655.823 231.808C656.271 232.213 656.495 232.763 656.495 233.456C656.495 233.989 656.351 234.464 656.063 234.88C655.786 235.296 655.386 235.621 654.863 235.856C654.351 236.08 653.748 236.192 653.055 236.192ZM659.007 226.432C658.591 226.432 658.287 226.336 658.095 226.144C657.903 225.941 657.807 225.696 657.807 225.408V225.088C657.807 224.789 657.903 224.544 658.095 224.352C658.287 224.16 658.591 224.064 659.007 224.064C659.423 224.064 659.727 224.16 659.919 224.352C660.111 224.544 660.207 224.789 660.207 225.088V225.408C660.207 225.696 660.111 225.941 659.919 226.144C659.727 226.336 659.423 226.432 659.007 226.432ZM657.983 236V227.648H660.031V236H657.983ZM665.382 236.192C664.592 236.192 663.904 236.016 663.318 235.664C662.742 235.301 662.294 234.795 661.974 234.144C661.664 233.483 661.51 232.704 661.51 231.808C661.51 230.912 661.664 230.144 661.974 229.504C662.294 228.853 662.742 228.352 663.318 228C663.904 227.637 664.592 227.456 665.382 227.456C666.182 227.456 666.87 227.637 667.446 228C668.032 228.352 668.48 228.853 668.79 229.504C669.11 230.144 669.27 230.912 669.27 231.808C669.27 232.704 669.11 233.483 668.79 234.144C668.48 234.795 668.032 235.301 667.446 235.664C666.87 236.016 666.182 236.192 665.382 236.192ZM665.382 234.544C665.926 234.544 666.352 234.379 666.662 234.048C666.971 233.707 667.126 233.221 667.126 232.592V231.04C667.126 230.411 666.971 229.931 666.662 229.6C666.352 229.269 665.926 229.104 665.382 229.104C664.859 229.104 664.438 229.269 664.118 229.6C663.808 229.931 663.654 230.411 663.654 231.04V232.592C663.654 233.221 663.808 233.707 664.118 234.048C664.438 234.379 664.859 234.544 665.382 234.544ZM672.813 236H670.765V227.648H672.813V229.04H672.893C673.064 228.592 673.331 228.219 673.693 227.92C674.067 227.611 674.579 227.456 675.229 227.456C676.083 227.456 676.739 227.744 677.197 228.32C677.667 228.885 677.901 229.685 677.901 230.72V236H675.853V230.928C675.853 230.341 675.747 229.899 675.533 229.6C675.32 229.291 674.968 229.136 674.477 229.136C674.2 229.136 673.933 229.189 673.677 229.296C673.421 229.392 673.213 229.541 673.053 229.744C672.893 229.936 672.813 230.181 672.813 230.48V236ZM683.227 236.192C682.406 236.192 681.702 236.016 681.115 235.664C680.529 235.301 680.075 234.795 679.755 234.144C679.446 233.483 679.291 232.704 679.291 231.808C679.291 230.933 679.446 230.171 679.755 229.52C680.065 228.859 680.507 228.352 681.083 228C681.659 227.637 682.353 227.456 683.163 227.456C684.038 227.456 684.753 227.648 685.307 228.032C685.873 228.416 686.289 228.928 686.555 229.568C686.833 230.197 686.971 230.896 686.971 231.664V232.336H681.419V232.544C681.419 233.141 681.59 233.627 681.931 234C682.273 234.373 682.779 234.56 683.451 234.56C683.953 234.56 684.369 234.453 684.699 234.24C685.03 234.016 685.323 233.744 685.579 233.424L686.683 234.656C686.342 235.115 685.873 235.488 685.275 235.776C684.689 236.053 684.006 236.192 683.227 236.192ZM683.195 228.992C682.833 228.992 682.518 229.077 682.251 229.248C681.985 229.408 681.777 229.637 681.627 229.936C681.489 230.224 681.419 230.56 681.419 230.944V231.072H684.843V230.928C684.843 230.533 684.779 230.197 684.651 229.92C684.523 229.632 684.337 229.408 684.091 229.248C683.846 229.077 683.547 228.992 683.195 228.992ZM691.189 236.192C690.389 236.192 689.717 236.059 689.173 235.792C688.629 235.515 688.149 235.136 687.733 234.656L688.981 233.44C689.291 233.792 689.627 234.069 689.989 234.272C690.363 234.475 690.789 234.576 691.269 234.576C691.76 234.576 692.112 234.491 692.325 234.32C692.549 234.149 692.661 233.915 692.661 233.616C692.661 233.371 692.581 233.179 692.421 233.04C692.272 232.891 692.011 232.789 691.637 232.736L690.805 232.624C690.208 232.549 689.701 232.411 689.285 232.208C688.869 232.005 688.555 231.728 688.341 231.376C688.128 231.024 688.021 230.597 688.021 230.096C688.021 229.285 688.309 228.645 688.885 228.176C689.472 227.696 690.24 227.456 691.189 227.456C691.733 227.456 692.197 227.509 692.581 227.616C692.976 227.712 693.323 227.861 693.621 228.064C693.92 228.256 694.197 228.491 694.453 228.768L693.253 229.968C693.008 229.712 692.715 229.499 692.373 229.328C692.032 229.157 691.659 229.072 691.253 229.072C690.827 229.072 690.507 229.152 690.293 229.312C690.091 229.461 689.989 229.669 689.989 229.936C689.989 230.213 690.069 230.427 690.229 230.576C690.4 230.715 690.683 230.816 691.077 230.88L691.925 230.992C692.843 231.12 693.52 231.392 693.957 231.808C694.405 232.213 694.629 232.763 694.629 233.456C694.629 233.989 694.485 234.464 694.197 234.88C693.92 235.296 693.52 235.621 692.997 235.856C692.485 236.08 691.883 236.192 691.189 236.192Z" fill="black"/>
<foreignObject x="354.1" y="108.6" width="83.8" height="186.3"><div xmlns="http://www.w3.org/1999/xhtml" style="backdrop-filter:blur(20.2px);height:100%;width:100%"></div></foreignObject><path data-figma-bg-blur-radius="40.4" d="M396 149V254.5" stroke="#C29CCB" stroke-width="3"/>
<path d="M802 149V254.5" stroke="#C096C8" stroke-width="3"/>
<defs>
<linearGradient id="paint0_linear_393_610" x1="179" y1="177.5" x2="274" y2="177.5" gradientUnits="userSpaceOnUse">
<stop offset="0.182692" stop-color="#58286A"/>
<stop offset="0.600962" stop-color="#DBA0E7"/>
<stop offset="0.826923" stop-color="#C29CCB"/>
</linearGradient>
<linearGradient id="paint1_linear_393_610" x1="502" y1="177.5" x2="694" y2="177.5" gradientUnits="userSpaceOnUse">
<stop offset="0.182692" stop-color="#58286A"/>
<stop offset="0.600962" stop-color="#DBA0E7"/>
<stop offset="0.826923" stop-color="#C29CCB"/>
</linearGradient>
<linearGradient id="paint2_linear_393_610" x1="913" y1="177.5" x2="1105" y2="177.5" gradientUnits="userSpaceOnUse">
<stop offset="0.182692" stop-color="#58286A"/>
<stop offset="0.600962" stop-color="#DBA0E7"/>
<stop offset="0.826923" stop-color="#C29CCB"/>
</linearGradient>
</defs>
</svg>
