<svg width="1280" height="535" viewBox="0 0 1280 535" fill="none" xmlns="http://www.w3.org/2000/svg">
<path d="M130.44 269H125.96V267.88H127.528V258.952H125.96V257.832H130.44V258.952H128.872V267.88H130.44V269ZM133.406 269H132.126V260.744H133.406V262.088H133.47C133.652 261.661 133.908 261.299 134.238 261C134.569 260.701 135.054 260.552 135.694 260.552C136.238 260.552 136.74 260.685 137.198 260.952C137.657 261.208 137.998 261.635 138.222 262.232H138.254C138.404 261.784 138.681 261.395 139.086 261.064C139.502 260.723 140.062 260.552 140.766 260.552C141.609 260.552 142.265 260.829 142.734 261.384C143.214 261.928 143.454 262.701 143.454 263.704V269H142.174V263.928C142.174 263.203 142.03 262.653 141.742 262.28C141.454 261.896 140.996 261.704 140.366 261.704C140.036 261.704 139.721 261.763 139.422 261.88C139.124 261.987 138.884 262.157 138.702 262.392C138.521 262.627 138.43 262.92 138.43 263.272V269H137.15V263.928C137.15 263.192 137.006 262.637 136.718 262.264C136.43 261.891 135.982 261.704 135.374 261.704C135.044 261.704 134.724 261.763 134.414 261.88C134.116 261.987 133.87 262.157 133.678 262.392C133.497 262.627 133.406 262.92 133.406 263.272V269ZM145.455 272.2V260.744H146.735V262.088H146.799C147.012 261.565 147.327 261.181 147.743 260.936C148.159 260.68 148.65 260.552 149.215 260.552C149.908 260.552 150.506 260.728 151.007 261.08C151.508 261.432 151.892 261.933 152.159 262.584C152.436 263.224 152.575 263.987 152.575 264.872C152.575 265.747 152.436 266.509 152.159 267.16C151.892 267.811 151.508 268.312 151.007 268.664C150.506 269.016 149.908 269.192 149.215 269.192C148.65 269.192 148.164 269.064 147.759 268.808C147.364 268.552 147.044 268.168 146.799 267.656H146.735V272.2H145.455ZM148.863 268.04C149.588 268.04 150.159 267.816 150.575 267.368C150.991 266.909 151.199 266.312 151.199 265.576V264.168C151.199 263.432 150.991 262.84 150.575 262.392C150.159 261.933 149.588 261.704 148.863 261.704C148.479 261.704 148.122 261.773 147.791 261.912C147.471 262.051 147.215 262.237 147.023 262.472C146.831 262.707 146.735 262.979 146.735 263.288V266.36C146.735 266.712 146.831 267.016 147.023 267.272C147.215 267.517 147.471 267.709 147.791 267.848C148.122 267.976 148.479 268.04 148.863 268.04ZM155.376 269H154.096V260.744H155.376V262.264H155.456C155.552 261.997 155.702 261.752 155.904 261.528C156.107 261.293 156.368 261.107 156.688 260.968C157.008 260.819 157.392 260.744 157.84 260.744H158.336V262.024H157.584C157.126 262.024 156.731 262.088 156.4 262.216C156.07 262.333 155.814 262.493 155.632 262.696C155.462 262.899 155.376 263.133 155.376 263.4V269ZM159.971 258.808C159.705 258.808 159.507 258.744 159.379 258.616C159.251 258.477 159.187 258.301 159.187 258.088V257.88C159.187 257.667 159.251 257.496 159.379 257.368C159.507 257.229 159.705 257.16 159.971 257.16C160.249 257.16 160.446 257.229 160.563 257.368C160.691 257.496 160.755 257.667 160.755 257.88V258.088C160.755 258.301 160.691 258.477 160.563 258.616C160.446 258.744 160.249 258.808 159.971 258.808ZM159.331 269V260.744H160.611V269H159.331ZM163.971 269H162.691V260.744H163.971V262.088H164.035C164.217 261.661 164.473 261.299 164.803 261C165.134 260.701 165.619 260.552 166.259 260.552C166.803 260.552 167.305 260.685 167.763 260.952C168.222 261.208 168.563 261.635 168.787 262.232H168.819C168.969 261.784 169.246 261.395 169.651 261.064C170.067 260.723 170.627 260.552 171.331 260.552C172.174 260.552 172.83 260.829 173.299 261.384C173.779 261.928 174.019 262.701 174.019 263.704V269H172.739V263.928C172.739 263.203 172.595 262.653 172.307 262.28C172.019 261.896 171.561 261.704 170.931 261.704C170.601 261.704 170.286 261.763 169.987 261.88C169.689 261.987 169.449 262.157 169.267 262.392C169.086 262.627 168.995 262.92 168.995 263.272V269H167.715V263.928C167.715 263.192 167.571 262.637 167.283 262.264C166.995 261.891 166.547 261.704 165.939 261.704C165.609 261.704 165.289 261.763 164.979 261.88C164.681 261.987 164.435 262.157 164.243 262.392C164.062 262.627 163.971 262.92 163.971 263.272V269ZM177.3 269H176.02V260.744H177.3V269ZM178.468 257.096L176.772 259.64L175.94 259.256L177.3 256.536L178.468 257.096ZM185.945 269H184.345C183.908 269 183.572 268.872 183.337 268.616C183.103 268.36 182.985 268.035 182.985 267.64V261.864H181.625V260.744H182.393C182.671 260.744 182.857 260.691 182.953 260.584C183.06 260.467 183.113 260.269 183.113 259.992V258.456H184.265V260.744H186.073V261.864H184.265V267.88H185.945V269ZM192.579 269V267.656H192.515C192.355 268.051 192.099 268.408 191.747 268.728C191.405 269.037 190.888 269.192 190.195 269.192C189.352 269.192 188.675 268.92 188.163 268.376C187.661 267.821 187.411 267.043 187.411 266.04V260.744H188.691V265.816C188.691 266.552 188.851 267.107 189.171 267.48C189.491 267.853 189.96 268.04 190.579 268.04C190.92 268.04 191.24 267.987 191.539 267.88C191.848 267.763 192.099 267.587 192.291 267.352C192.483 267.117 192.579 266.819 192.579 266.456V260.744H193.859V269H192.579ZM198.424 269.192C197.667 269.192 197.027 269.048 196.504 268.76C195.982 268.461 195.534 268.067 195.16 267.576L196.072 266.84C196.392 267.235 196.75 267.544 197.144 267.768C197.539 267.992 197.998 268.104 198.52 268.104C199.064 268.104 199.486 267.987 199.784 267.752C200.094 267.517 200.248 267.187 200.248 266.76C200.248 266.44 200.142 266.163 199.928 265.928C199.726 265.693 199.352 265.539 198.808 265.464L198.152 265.368C197.651 265.293 197.198 265.171 196.792 265C196.387 264.819 196.067 264.568 195.832 264.248C195.608 263.917 195.496 263.496 195.496 262.984C195.496 262.163 195.774 261.555 196.328 261.16C196.894 260.755 197.598 260.552 198.44 260.552C198.888 260.552 199.283 260.605 199.624 260.712C199.976 260.819 200.291 260.973 200.568 261.176C200.846 261.368 201.096 261.603 201.32 261.88L200.472 262.648C200.291 262.392 200.024 262.163 199.672 261.96C199.32 261.747 198.878 261.64 198.344 261.64C197.822 261.64 197.422 261.757 197.144 261.992C196.867 262.216 196.728 262.525 196.728 262.92C196.728 263.315 196.862 263.608 197.128 263.8C197.406 263.981 197.8 264.115 198.312 264.2L198.952 264.296C199.87 264.435 200.52 264.701 200.904 265.096C201.288 265.48 201.48 265.987 201.48 266.616C201.48 267.149 201.358 267.608 201.112 267.992C200.867 268.376 200.515 268.675 200.056 268.888C199.598 269.091 199.054 269.192 198.424 269.192ZM206.69 269V261.864H205.346V260.744H206.69V259.08C206.69 258.515 206.84 258.056 207.138 257.704C207.437 257.341 207.89 257.16 208.498 257.16H209.747V258.28H207.97V260.744H209.747V261.864H207.97V269H206.69ZM213.848 269.192C213.112 269.192 212.461 269.016 211.896 268.664C211.341 268.301 210.904 267.8 210.584 267.16C210.274 266.509 210.12 265.747 210.12 264.872C210.12 263.997 210.274 263.24 210.584 262.6C210.904 261.949 211.341 261.448 211.896 261.096C212.461 260.733 213.112 260.552 213.848 260.552C214.584 260.552 215.229 260.733 215.784 261.096C216.349 261.448 216.786 261.949 217.096 262.6C217.416 263.24 217.576 263.997 217.576 264.872C217.576 265.747 217.416 266.509 217.096 267.16C216.786 267.8 216.349 268.301 215.784 268.664C215.229 269.016 214.584 269.192 213.848 269.192ZM213.848 268.056C214.541 268.056 215.106 267.843 215.544 267.416C215.981 266.989 216.2 266.339 216.2 265.464V264.28C216.2 263.405 215.981 262.755 215.544 262.328C215.106 261.901 214.541 261.688 213.848 261.688C213.165 261.688 212.6 261.901 212.152 262.328C211.714 262.755 211.496 263.405 211.496 264.28V265.464C211.496 266.339 211.714 266.989 212.152 267.416C212.6 267.843 213.165 268.056 213.848 268.056ZM222.465 269H220.865C220.427 269 220.091 268.872 219.857 268.616C219.622 268.36 219.505 268.035 219.505 267.64V261.864H218.145V260.744H218.913C219.19 260.744 219.377 260.691 219.473 260.584C219.579 260.467 219.633 260.269 219.633 259.992V258.456H220.785V260.744H222.593V261.864H220.785V267.88H222.465V269ZM227.068 269.192C226.332 269.192 225.681 269.016 225.116 268.664C224.561 268.301 224.124 267.8 223.804 267.16C223.494 266.509 223.34 265.747 223.34 264.872C223.34 263.997 223.494 263.24 223.804 262.6C224.124 261.949 224.561 261.448 225.116 261.096C225.681 260.733 226.332 260.552 227.068 260.552C227.804 260.552 228.449 260.733 229.004 261.096C229.569 261.448 230.006 261.949 230.316 262.6C230.636 263.24 230.796 263.997 230.796 264.872C230.796 265.747 230.636 266.509 230.316 267.16C230.006 267.8 229.569 268.301 229.004 268.664C228.449 269.016 227.804 269.192 227.068 269.192ZM227.068 268.056C227.761 268.056 228.326 267.843 228.764 267.416C229.201 266.989 229.42 266.339 229.42 265.464V264.28C229.42 263.405 229.201 262.755 228.764 262.328C228.326 261.901 227.761 261.688 227.068 261.688C226.385 261.688 225.82 261.901 225.372 262.328C224.934 262.755 224.716 263.405 224.716 264.28V265.464C224.716 266.339 224.934 266.989 225.372 267.416C225.82 267.843 226.385 268.056 227.068 268.056ZM234.741 269.192C233.983 269.192 233.343 269.048 232.821 268.76C232.298 268.461 231.85 268.067 231.477 267.576L232.389 266.84C232.709 267.235 233.066 267.544 233.461 267.768C233.855 267.992 234.314 268.104 234.837 268.104C235.381 268.104 235.802 267.987 236.101 267.752C236.41 267.517 236.565 267.187 236.565 266.76C236.565 266.44 236.458 266.163 236.245 265.928C236.042 265.693 235.669 265.539 235.125 265.464L234.469 265.368C233.967 265.293 233.514 265.171 233.109 265C232.703 264.819 232.383 264.568 232.149 264.248C231.925 263.917 231.813 263.496 231.813 262.984C231.813 262.163 232.09 261.555 232.645 261.16C233.21 260.755 233.914 260.552 234.757 260.552C235.205 260.552 235.599 260.605 235.941 260.712C236.293 260.819 236.607 260.973 236.885 261.176C237.162 261.368 237.413 261.603 237.637 261.88L236.789 262.648C236.607 262.392 236.341 262.163 235.989 261.96C235.637 261.747 235.194 261.64 234.661 261.64C234.138 261.64 233.738 261.757 233.461 261.992C233.183 262.216 233.045 262.525 233.045 262.92C233.045 263.315 233.178 263.608 233.445 263.8C233.722 263.981 234.117 264.115 234.629 264.2L235.269 264.296C236.186 264.435 236.837 264.701 237.221 265.096C237.605 265.48 237.797 265.987 237.797 266.616C237.797 267.149 237.674 267.608 237.429 267.992C237.183 268.376 236.831 268.675 236.373 268.888C235.914 269.091 235.37 269.192 234.741 269.192ZM243.007 269V261.864H241.663V260.744H243.007V259.08C243.007 258.515 243.156 258.056 243.455 257.704C243.753 257.341 244.207 257.16 244.815 257.16H246.063V258.28H244.287V260.744H246.063V261.864H244.287V269H243.007ZM253.826 269H253.106C252.765 269 252.488 268.931 252.274 268.792C252.061 268.643 251.906 268.44 251.81 268.184C251.714 267.928 251.666 267.635 251.666 267.304V267.192L252.162 267.656H251.602C251.432 268.157 251.133 268.541 250.706 268.808C250.29 269.064 249.794 269.192 249.218 269.192C248.344 269.192 247.661 268.968 247.17 268.52C246.69 268.072 246.45 267.464 246.45 266.696C246.45 266.173 246.578 265.736 246.834 265.384C247.09 265.021 247.474 264.749 247.986 264.568C248.509 264.376 249.17 264.28 249.97 264.28H251.602V263.464C251.602 262.877 251.442 262.429 251.122 262.12C250.802 261.811 250.312 261.656 249.65 261.656C249.16 261.656 248.744 261.768 248.402 261.992C248.061 262.216 247.778 262.515 247.554 262.888L246.786 262.168C247.01 261.731 247.368 261.352 247.858 261.032C248.349 260.712 248.968 260.552 249.714 260.552C250.706 260.552 251.48 260.797 252.034 261.288C252.6 261.779 252.882 262.461 252.882 263.336V267.88H253.826V269ZM251.602 265.24H249.906C249.181 265.24 248.648 265.347 248.306 265.56C247.965 265.773 247.794 266.083 247.794 266.488V266.824C247.794 267.229 247.944 267.544 248.242 267.768C248.541 267.992 248.936 268.104 249.426 268.104C249.853 268.104 250.226 268.04 250.546 267.912C250.877 267.773 251.133 267.592 251.314 267.368C251.506 267.133 251.602 266.877 251.602 266.6V265.24ZM258.2 269H256.712L253.816 260.744H255.096L256.536 264.84L257.432 267.656H257.512L258.408 264.84L259.88 260.744H261.112L258.2 269ZM265.118 269.192C264.382 269.192 263.731 269.016 263.166 268.664C262.611 268.301 262.174 267.8 261.854 267.16C261.545 266.509 261.39 265.747 261.39 264.872C261.39 263.997 261.545 263.24 261.854 262.6C262.174 261.949 262.611 261.448 263.166 261.096C263.731 260.733 264.382 260.552 265.118 260.552C265.854 260.552 266.499 260.733 267.054 261.096C267.619 261.448 268.057 261.949 268.366 262.6C268.686 263.24 268.846 263.997 268.846 264.872C268.846 265.747 268.686 266.509 268.366 267.16C268.057 267.8 267.619 268.301 267.054 268.664C266.499 269.016 265.854 269.192 265.118 269.192ZM265.118 268.056C265.811 268.056 266.377 267.843 266.814 267.416C267.251 266.989 267.47 266.339 267.47 265.464V264.28C267.47 263.405 267.251 262.755 266.814 262.328C266.377 261.901 265.811 261.688 265.118 261.688C264.435 261.688 263.87 261.901 263.422 262.328C262.985 262.755 262.766 263.405 262.766 264.28V265.464C262.766 266.339 262.985 266.989 263.422 267.416C263.87 267.843 264.435 268.056 265.118 268.056ZM271.591 269H270.311V260.744H271.591V262.264H271.671C271.767 261.997 271.917 261.752 272.119 261.528C272.322 261.293 272.583 261.107 272.903 260.968C273.223 260.819 273.607 260.744 274.055 260.744H274.551V262.024H273.799C273.341 262.024 272.946 262.088 272.615 262.216C272.285 262.333 272.029 262.493 271.847 262.696C271.677 262.899 271.591 263.133 271.591 263.4V269ZM276.186 258.808C275.92 258.808 275.722 258.744 275.594 258.616C275.466 258.477 275.402 258.301 275.402 258.088V257.88C275.402 257.667 275.466 257.496 275.594 257.368C275.722 257.229 275.92 257.16 276.186 257.16C276.464 257.16 276.661 257.229 276.778 257.368C276.906 257.496 276.97 257.667 276.97 257.88V258.088C276.97 258.301 276.906 258.477 276.778 258.616C276.661 258.744 276.464 258.808 276.186 258.808ZM275.546 269V260.744H276.826V269H275.546ZM282.33 269H280.73C280.293 269 279.957 268.872 279.722 268.616C279.488 268.36 279.37 268.035 279.37 267.64V261.864H278.01V260.744H278.778C279.056 260.744 279.242 260.691 279.338 260.584C279.445 260.467 279.498 260.269 279.498 259.992V258.456H280.65V260.744H282.458V261.864H280.65V267.88H282.33V269ZM290.596 269H289.876C289.534 269 289.257 268.931 289.044 268.792C288.83 268.643 288.676 268.44 288.58 268.184C288.484 267.928 288.436 267.635 288.436 267.304V267.192L288.932 267.656H288.372C288.201 268.157 287.902 268.541 287.476 268.808C287.06 269.064 286.564 269.192 285.988 269.192C285.113 269.192 284.43 268.968 283.94 268.52C283.46 268.072 283.22 267.464 283.22 266.696C283.22 266.173 283.348 265.736 283.604 265.384C283.86 265.021 284.244 264.749 284.756 264.568C285.278 264.376 285.94 264.28 286.74 264.28H288.372V263.464C288.372 262.877 288.212 262.429 287.892 262.12C287.572 261.811 287.081 261.656 286.42 261.656C285.929 261.656 285.513 261.768 285.172 261.992C284.83 262.216 284.548 262.515 284.324 262.888L283.556 262.168C283.78 261.731 284.137 261.352 284.628 261.032C285.118 260.712 285.737 260.552 286.484 260.552C287.476 260.552 288.249 260.797 288.804 261.288C289.369 261.779 289.652 262.461 289.652 263.336V267.88H290.596V269ZM288.372 265.24H286.676C285.95 265.24 285.417 265.347 285.076 265.56C284.734 265.773 284.564 266.083 284.564 266.488V266.824C284.564 267.229 284.713 267.544 285.012 267.768C285.31 267.992 285.705 268.104 286.196 268.104C286.622 268.104 286.996 268.04 287.316 267.912C287.646 267.773 287.902 267.592 288.084 267.368C288.276 267.133 288.372 266.877 288.372 266.6V265.24ZM294.263 269.192C293.505 269.192 292.865 269.048 292.343 268.76C291.82 268.461 291.372 268.067 290.999 267.576L291.911 266.84C292.231 267.235 292.588 267.544 292.983 267.768C293.377 267.992 293.836 268.104 294.359 268.104C294.903 268.104 295.324 267.987 295.623 267.752C295.932 267.517 296.087 267.187 296.087 266.76C296.087 266.44 295.98 266.163 295.767 265.928C295.564 265.693 295.191 265.539 294.647 265.464L293.991 265.368C293.489 265.293 293.036 265.171 292.631 265C292.225 264.819 291.905 264.568 291.671 264.248C291.447 263.917 291.335 263.496 291.335 262.984C291.335 262.163 291.612 261.555 292.167 261.16C292.732 260.755 293.436 260.552 294.279 260.552C294.727 260.552 295.121 260.605 295.463 260.712C295.815 260.819 296.129 260.973 296.407 261.176C296.684 261.368 296.935 261.603 297.159 261.88L296.311 262.648C296.129 262.392 295.863 262.163 295.511 261.96C295.159 261.747 294.716 261.64 294.183 261.64C293.66 261.64 293.26 261.757 292.983 261.992C292.705 262.216 292.567 262.525 292.567 262.92C292.567 263.315 292.7 263.608 292.967 263.8C293.244 263.981 293.639 264.115 294.151 264.2L294.791 264.296C295.708 264.435 296.359 264.701 296.743 265.096C297.127 265.48 297.319 265.987 297.319 266.616C297.319 267.149 297.196 267.608 296.951 267.992C296.705 268.376 296.353 268.675 295.895 268.888C295.436 269.091 294.892 269.192 294.263 269.192ZM307.361 269V267.656H307.297C307.051 268.168 306.726 268.552 306.321 268.808C305.926 269.064 305.446 269.192 304.881 269.192C304.198 269.192 303.601 269.016 303.089 268.664C302.587 268.312 302.198 267.811 301.921 267.16C301.654 266.509 301.521 265.747 301.521 264.872C301.521 263.987 301.654 263.224 301.921 262.584C302.198 261.933 302.587 261.432 303.089 261.08C303.601 260.728 304.198 260.552 304.881 260.552C305.446 260.552 305.937 260.68 306.353 260.936C306.769 261.181 307.083 261.565 307.297 262.088H307.361V257.16H308.641V269H307.361ZM305.233 268.04C305.627 268.04 305.985 267.976 306.305 267.848C306.625 267.709 306.881 267.517 307.073 267.272C307.265 267.016 307.361 266.712 307.361 266.36V263.288C307.361 262.979 307.265 262.707 307.073 262.472C306.881 262.237 306.625 262.051 306.305 261.912C305.985 261.773 305.627 261.704 305.233 261.704C304.518 261.704 303.947 261.933 303.521 262.392C303.105 262.84 302.897 263.432 302.897 264.168V265.576C302.897 266.312 303.105 266.909 303.521 267.368C303.947 267.816 304.518 268.04 305.233 268.04ZM313.826 269.192C313.079 269.192 312.429 269.016 311.874 268.664C311.319 268.301 310.887 267.8 310.578 267.16C310.269 266.509 310.114 265.747 310.114 264.872C310.114 263.997 310.269 263.24 310.578 262.6C310.887 261.949 311.319 261.448 311.874 261.096C312.429 260.733 313.079 260.552 313.826 260.552C314.562 260.552 315.197 260.728 315.73 261.08C316.263 261.421 316.674 261.896 316.962 262.504C317.25 263.112 317.394 263.805 317.394 264.584V265.192H311.458V265.576C311.458 266.291 311.671 266.888 312.098 267.368C312.535 267.837 313.138 268.072 313.906 268.072C314.429 268.072 314.882 267.949 315.266 267.704C315.661 267.459 315.965 267.107 316.178 266.648L317.09 267.304C316.823 267.859 316.407 268.312 315.842 268.664C315.277 269.016 314.605 269.192 313.826 269.192ZM313.826 261.624C313.367 261.624 312.957 261.731 312.594 261.944C312.242 262.157 311.965 262.456 311.762 262.84C311.559 263.213 311.458 263.64 311.458 264.12V264.232H316.018V264.056C316.018 263.565 315.927 263.139 315.746 262.776C315.565 262.413 315.309 262.131 314.978 261.928C314.647 261.725 314.263 261.624 313.826 261.624ZM321.343 269.192C320.586 269.192 319.946 269.048 319.423 268.76C318.9 268.461 318.452 268.067 318.079 267.576L318.991 266.84C319.311 267.235 319.668 267.544 320.063 267.768C320.458 267.992 320.916 268.104 321.439 268.104C321.983 268.104 322.404 267.987 322.703 267.752C323.012 267.517 323.167 267.187 323.167 266.76C323.167 266.44 323.06 266.163 322.847 265.928C322.644 265.693 322.271 265.539 321.727 265.464L321.071 265.368C320.57 265.293 320.116 265.171 319.711 265C319.306 264.819 318.986 264.568 318.751 264.248C318.527 263.917 318.415 263.496 318.415 262.984C318.415 262.163 318.692 261.555 319.247 261.16C319.812 260.755 320.516 260.552 321.359 260.552C321.807 260.552 322.202 260.605 322.543 260.712C322.895 260.819 323.21 260.973 323.487 261.176C323.764 261.368 324.015 261.603 324.239 261.88L323.391 262.648C323.21 262.392 322.943 262.163 322.591 261.96C322.239 261.747 321.796 261.64 321.263 261.64C320.74 261.64 320.34 261.757 320.063 261.992C319.786 262.216 319.647 262.525 319.647 262.92C319.647 263.315 319.78 263.608 320.047 263.8C320.324 263.981 320.719 264.115 321.231 264.2L321.871 264.296C322.788 264.435 323.439 264.701 323.823 265.096C324.207 265.48 324.399 265.987 324.399 266.616C324.399 267.149 324.276 267.608 324.031 267.992C323.786 268.376 323.434 268.675 322.975 268.888C322.516 269.091 321.972 269.192 321.343 269.192ZM331.3 269V267.656H331.236C330.991 268.168 330.665 268.552 330.26 268.808C329.865 269.064 329.385 269.192 328.82 269.192C328.137 269.192 327.54 269.016 327.028 268.664C326.527 268.312 326.137 267.811 325.86 267.16C325.593 266.509 325.46 265.747 325.46 264.872C325.46 263.987 325.593 263.224 325.86 262.584C326.137 261.933 326.527 261.432 327.028 261.08C327.54 260.728 328.137 260.552 328.82 260.552C329.385 260.552 329.876 260.68 330.292 260.936C330.708 261.181 331.023 261.565 331.236 262.088H331.3V257.16H332.58V269H331.3ZM329.172 268.04C329.567 268.04 329.924 267.976 330.244 267.848C330.564 267.709 330.82 267.517 331.012 267.272C331.204 267.016 331.3 266.712 331.3 266.36V263.288C331.3 262.979 331.204 262.707 331.012 262.472C330.82 262.237 330.564 262.051 330.244 261.912C329.924 261.773 329.567 261.704 329.172 261.704C328.457 261.704 327.887 261.933 327.46 262.392C327.044 262.84 326.836 263.432 326.836 264.168V265.576C326.836 266.312 327.044 266.909 327.46 267.368C327.887 267.816 328.457 268.04 329.172 268.04ZM337.765 269.192C337.019 269.192 336.368 269.016 335.813 268.664C335.259 268.301 334.827 267.8 334.517 267.16C334.208 266.509 334.053 265.747 334.053 264.872C334.053 263.997 334.208 263.24 334.517 262.6C334.827 261.949 335.259 261.448 335.813 261.096C336.368 260.733 337.019 260.552 337.765 260.552C338.501 260.552 339.136 260.728 339.669 261.08C340.203 261.421 340.613 261.896 340.901 262.504C341.189 263.112 341.333 263.805 341.333 264.584V265.192H335.397V265.576C335.397 266.291 335.611 266.888 336.037 267.368C336.475 267.837 337.077 268.072 337.845 268.072C338.368 268.072 338.821 267.949 339.205 267.704C339.6 267.459 339.904 267.107 340.117 266.648L341.029 267.304C340.763 267.859 340.347 268.312 339.781 268.664C339.216 269.016 338.544 269.192 337.765 269.192ZM337.765 261.624C337.307 261.624 336.896 261.731 336.533 261.944C336.181 262.157 335.904 262.456 335.701 262.84C335.499 263.213 335.397 263.64 335.397 264.12V264.232H339.957V264.056C339.957 263.565 339.867 263.139 339.685 262.776C339.504 262.413 339.248 262.131 338.917 261.928C338.587 261.725 338.203 261.624 337.765 261.624ZM349.048 269.192C348.301 269.192 347.65 269.016 347.096 268.664C346.541 268.301 346.109 267.8 345.8 267.16C345.49 266.509 345.336 265.747 345.336 264.872C345.336 263.997 345.49 263.24 345.8 262.6C346.109 261.949 346.541 261.448 347.096 261.096C347.65 260.733 348.301 260.552 349.048 260.552C349.784 260.552 350.418 260.728 350.952 261.08C351.485 261.421 351.896 261.896 352.184 262.504C352.472 263.112 352.616 263.805 352.616 264.584V265.192H346.68V265.576C346.68 266.291 346.893 266.888 347.32 267.368C347.757 267.837 348.36 268.072 349.128 268.072C349.65 268.072 350.104 267.949 350.488 267.704C350.882 267.459 351.186 267.107 351.4 266.648L352.312 267.304C352.045 267.859 351.629 268.312 351.064 268.664C350.498 269.016 349.826 269.192 349.048 269.192ZM349.048 261.624C348.589 261.624 348.178 261.731 347.816 261.944C347.464 262.157 347.186 262.456 346.984 262.84C346.781 263.213 346.68 263.64 346.68 264.12V264.232H351.24V264.056C351.24 263.565 351.149 263.139 350.968 262.776C350.786 262.413 350.53 262.131 350.2 261.928C349.869 261.725 349.485 261.624 349.048 261.624ZM356.581 269H355.445C355.008 269 354.672 268.877 354.437 268.632C354.202 268.376 354.085 268.056 354.085 267.672V257.16H355.365V267.88H356.581V269ZM364.018 269.192C362.855 269.192 361.948 268.803 361.298 268.024C360.658 267.245 360.338 266.195 360.338 264.872C360.338 263.549 360.658 262.499 361.298 261.72C361.948 260.941 362.855 260.552 364.018 260.552C364.839 260.552 365.5 260.733 366.002 261.096C366.503 261.459 366.871 261.923 367.106 262.488L366.034 263.032C365.884 262.605 365.634 262.275 365.282 262.04C364.94 261.805 364.519 261.688 364.018 261.688C363.26 261.688 362.684 261.923 362.29 262.392C361.906 262.851 361.714 263.443 361.714 264.168V265.576C361.714 266.291 361.906 266.883 362.29 267.352C362.684 267.821 363.26 268.056 364.018 268.056C364.54 268.056 364.988 267.933 365.362 267.688C365.735 267.443 366.034 267.085 366.258 266.616L367.186 267.24C366.919 267.827 366.519 268.301 365.986 268.664C365.463 269.016 364.807 269.192 364.018 269.192ZM371.363 269.192C370.616 269.192 369.965 269.016 369.411 268.664C368.856 268.301 368.424 267.8 368.115 267.16C367.805 266.509 367.651 265.747 367.651 264.872C367.651 263.997 367.805 263.24 368.115 262.6C368.424 261.949 368.856 261.448 369.411 261.096C369.965 260.733 370.616 260.552 371.363 260.552C372.099 260.552 372.733 260.728 373.267 261.08C373.8 261.421 374.211 261.896 374.499 262.504C374.787 263.112 374.931 263.805 374.931 264.584V265.192H368.995V265.576C368.995 266.291 369.208 266.888 369.635 267.368C370.072 267.837 370.675 268.072 371.443 268.072C371.965 268.072 372.419 267.949 372.803 267.704C373.197 267.459 373.501 267.107 373.715 266.648L374.627 267.304C374.36 267.859 373.944 268.312 373.379 268.664C372.813 269.016 372.141 269.192 371.363 269.192ZM371.363 261.624C370.904 261.624 370.493 261.731 370.131 261.944C369.779 262.157 369.501 262.456 369.299 262.84C369.096 263.213 368.995 263.64 368.995 264.12V264.232H373.555V264.056C373.555 263.565 373.464 263.139 373.283 262.776C373.101 262.413 372.845 262.131 372.515 261.928C372.184 261.725 371.8 261.624 371.363 261.624ZM378.896 269H377.76C377.323 269 376.987 268.877 376.752 268.632C376.517 268.376 376.4 268.056 376.4 267.672V257.16H377.68V267.88H378.896V269ZM385.207 269V267.656H385.143C384.983 268.051 384.727 268.408 384.375 268.728C384.034 269.037 383.517 269.192 382.823 269.192C381.981 269.192 381.303 268.92 380.791 268.376C380.29 267.821 380.039 267.043 380.039 266.04V260.744H381.319V265.816C381.319 266.552 381.479 267.107 381.799 267.48C382.119 267.853 382.589 268.04 383.207 268.04C383.549 268.04 383.869 267.987 384.167 267.88C384.477 267.763 384.727 267.587 384.919 267.352C385.111 267.117 385.207 266.819 385.207 266.456V260.744H386.487V269H385.207ZM391.069 269H389.933C389.496 269 389.16 268.877 388.925 268.632C388.69 268.376 388.573 268.056 388.573 267.672V257.16H389.853V267.88H391.069V269ZM399.012 269H398.292C397.951 269 397.674 268.931 397.46 268.792C397.247 268.643 397.092 268.44 396.996 268.184C396.9 267.928 396.852 267.635 396.852 267.304V267.192L397.348 267.656H396.788C396.618 268.157 396.319 268.541 395.892 268.808C395.476 269.064 394.98 269.192 394.404 269.192C393.53 269.192 392.847 268.968 392.356 268.52C391.876 268.072 391.636 267.464 391.636 266.696C391.636 266.173 391.764 265.736 392.02 265.384C392.276 265.021 392.66 264.749 393.172 264.568C393.695 264.376 394.356 264.28 395.156 264.28H396.788V263.464C396.788 262.877 396.628 262.429 396.308 262.12C395.988 261.811 395.498 261.656 394.836 261.656C394.346 261.656 393.93 261.768 393.588 261.992C393.247 262.216 392.964 262.515 392.74 262.888L391.972 262.168C392.196 261.731 392.554 261.352 393.044 261.032C393.535 260.712 394.154 260.552 394.9 260.552C395.892 260.552 396.666 260.797 397.22 261.288C397.786 261.779 398.068 262.461 398.068 263.336V267.88H399.012V269ZM396.788 265.24H395.092C394.367 265.24 393.834 265.347 393.492 265.56C393.151 265.773 392.98 266.083 392.98 266.488V266.824C392.98 267.229 393.13 267.544 393.428 267.768C393.727 267.992 394.122 268.104 394.612 268.104C395.039 268.104 395.412 268.04 395.732 267.912C396.063 267.773 396.319 267.592 396.5 267.368C396.692 267.133 396.788 266.877 396.788 266.6V265.24ZM401.479 269H400.199V260.744H401.479V262.264H401.559C401.655 261.997 401.805 261.752 402.007 261.528C402.21 261.293 402.471 261.107 402.791 260.968C403.111 260.819 403.495 260.744 403.943 260.744H404.439V262.024H403.687C403.229 262.024 402.834 262.088 402.503 262.216C402.173 262.333 401.917 262.493 401.735 262.696C401.565 262.899 401.479 263.133 401.479 263.4V269ZM411.68 269.192C410.933 269.192 410.282 269.016 409.728 268.664C409.173 268.301 408.741 267.8 408.432 267.16C408.122 266.509 407.968 265.747 407.968 264.872C407.968 263.997 408.122 263.24 408.432 262.6C408.741 261.949 409.173 261.448 409.728 261.096C410.282 260.733 410.933 260.552 411.68 260.552C412.416 260.552 413.05 260.728 413.584 261.08C414.117 261.421 414.528 261.896 414.816 262.504C415.104 263.112 415.248 263.805 415.248 264.584V265.192H409.312V265.576C409.312 266.291 409.525 266.888 409.952 267.368C410.389 267.837 410.992 268.072 411.76 268.072C412.282 268.072 412.736 267.949 413.12 267.704C413.514 267.459 413.818 267.107 414.032 266.648L414.944 267.304C414.677 267.859 414.261 268.312 413.696 268.664C413.13 269.016 412.458 269.192 411.68 269.192ZM411.68 261.624C411.221 261.624 410.81 261.731 410.448 261.944C410.096 262.157 409.818 262.456 409.616 262.84C409.413 263.213 409.312 263.64 409.312 264.12V264.232H413.872V264.056C413.872 263.565 413.781 263.139 413.6 262.776C413.418 262.413 413.162 262.131 412.832 261.928C412.501 261.725 412.117 261.624 411.68 261.624ZM417.997 269H416.717V260.744H417.997V262.088H418.061C418.264 261.619 418.546 261.245 418.909 260.968C419.282 260.691 419.778 260.552 420.397 260.552C421.25 260.552 421.922 260.829 422.413 261.384C422.914 261.928 423.165 262.701 423.165 263.704V269H421.885V263.928C421.885 263.192 421.725 262.637 421.405 262.264C421.096 261.891 420.632 261.704 420.013 261.704C419.672 261.704 419.346 261.763 419.037 261.88C418.728 261.987 418.477 262.157 418.285 262.392C418.093 262.627 417.997 262.92 417.997 263.272V269ZM430.792 269.192C430.035 269.192 429.395 269.048 428.872 268.76C428.349 268.461 427.901 268.067 427.528 267.576L428.44 266.84C428.76 267.235 429.117 267.544 429.512 267.768C429.907 267.992 430.365 268.104 430.888 268.104C431.432 268.104 431.853 267.987 432.152 267.752C432.461 267.517 432.616 267.187 432.616 266.76C432.616 266.44 432.509 266.163 432.296 265.928C432.093 265.693 431.72 265.539 431.176 265.464L430.52 265.368C430.019 265.293 429.565 265.171 429.16 265C428.755 264.819 428.435 264.568 428.2 264.248C427.976 263.917 427.864 263.496 427.864 262.984C427.864 262.163 428.141 261.555 428.696 261.16C429.261 260.755 429.965 260.552 430.808 260.552C431.256 260.552 431.651 260.605 431.992 260.712C432.344 260.819 432.659 260.973 432.936 261.176C433.213 261.368 433.464 261.603 433.688 261.88L432.84 262.648C432.659 262.392 432.392 262.163 432.04 261.96C431.688 261.747 431.245 261.64 430.712 261.64C430.189 261.64 429.789 261.757 429.512 261.992C429.235 262.216 429.096 262.525 429.096 262.92C429.096 263.315 429.229 263.608 429.496 263.8C429.773 263.981 430.168 264.115 430.68 264.2L431.32 264.296C432.237 264.435 432.888 264.701 433.272 265.096C433.656 265.48 433.848 265.987 433.848 266.616C433.848 267.149 433.725 267.608 433.48 267.992C433.235 268.376 432.883 268.675 432.424 268.888C431.965 269.091 431.421 269.192 430.792 269.192ZM438.573 269.192C437.826 269.192 437.175 269.016 436.621 268.664C436.066 268.301 435.634 267.8 435.325 267.16C435.015 266.509 434.861 265.747 434.861 264.872C434.861 263.997 435.015 263.24 435.325 262.6C435.634 261.949 436.066 261.448 436.621 261.096C437.175 260.733 437.826 260.552 438.573 260.552C439.309 260.552 439.943 260.728 440.477 261.08C441.01 261.421 441.421 261.896 441.709 262.504C441.997 263.112 442.141 263.805 442.141 264.584V265.192H436.205V265.576C436.205 266.291 436.418 266.888 436.845 267.368C437.282 267.837 437.885 268.072 438.653 268.072C439.175 268.072 439.629 267.949 440.013 267.704C440.407 267.459 440.711 267.107 440.925 266.648L441.837 267.304C441.57 267.859 441.154 268.312 440.589 268.664C440.023 269.016 439.351 269.192 438.573 269.192ZM438.573 261.624C438.114 261.624 437.703 261.731 437.341 261.944C436.989 262.157 436.711 262.456 436.509 262.84C436.306 263.213 436.205 263.64 436.205 264.12V264.232H440.765V264.056C440.765 263.565 440.674 263.139 440.493 262.776C440.311 262.413 440.055 262.131 439.725 261.928C439.394 261.725 439.01 261.624 438.573 261.624ZM450.57 269.912C450.57 270.477 450.421 270.941 450.122 271.304C449.823 271.677 449.375 271.949 448.778 272.12C448.191 272.301 447.455 272.392 446.57 272.392C445.717 272.392 445.018 272.312 444.474 272.152C443.941 271.992 443.551 271.757 443.306 271.448C443.061 271.149 442.938 270.787 442.938 270.36C442.938 269.912 443.055 269.56 443.29 269.304C443.525 269.048 443.845 268.867 444.25 268.76V268.584C444.015 268.467 443.834 268.317 443.706 268.136C443.578 267.944 443.514 267.709 443.514 267.432C443.514 267.016 443.647 266.701 443.914 266.488C444.181 266.264 444.522 266.099 444.938 265.992V265.928C444.447 265.693 444.063 265.357 443.786 264.92C443.519 264.483 443.386 263.976 443.386 263.4C443.386 262.835 443.514 262.339 443.77 261.912C444.026 261.485 444.389 261.155 444.858 260.92C445.327 260.675 445.871 260.552 446.49 260.552C446.789 260.552 447.066 260.579 447.322 260.632C447.589 260.685 447.834 260.765 448.058 260.872V260.728C448.058 260.408 448.133 260.147 448.282 259.944C448.431 259.731 448.677 259.624 449.018 259.624H450.25V260.744H448.682V261.272C448.981 261.528 449.21 261.837 449.37 262.2C449.541 262.563 449.626 262.963 449.626 263.4C449.626 263.955 449.498 264.451 449.242 264.888C448.986 265.315 448.623 265.651 448.154 265.896C447.685 266.131 447.135 266.248 446.506 266.248C446.367 266.248 446.229 266.243 446.09 266.232C445.951 266.211 445.823 266.189 445.706 266.168C445.439 266.243 445.189 266.355 444.954 266.504C444.73 266.643 444.618 266.84 444.618 267.096C444.618 267.341 444.735 267.507 444.97 267.592C445.205 267.677 445.509 267.72 445.882 267.72H447.642C448.666 267.72 449.407 267.917 449.866 268.312C450.335 268.696 450.57 269.229 450.57 269.912ZM449.37 270.008C449.37 269.677 449.242 269.411 448.986 269.208C448.741 269.016 448.298 268.92 447.658 268.92H444.906C444.639 269.037 444.442 269.187 444.314 269.368C444.197 269.56 444.138 269.784 444.138 270.04C444.138 270.403 444.271 270.712 444.538 270.968C444.815 271.224 445.279 271.352 445.93 271.352H447.114C447.829 271.352 448.383 271.24 448.778 271.016C449.173 270.792 449.37 270.456 449.37 270.008ZM446.506 265.224C447.05 265.224 447.482 265.096 447.802 264.84C448.122 264.573 448.282 264.168 448.282 263.624V263.176C448.282 262.632 448.122 262.232 447.802 261.976C447.482 261.709 447.05 261.576 446.506 261.576C445.962 261.576 445.53 261.709 445.21 261.976C444.89 262.232 444.73 262.632 444.73 263.176V263.624C444.73 264.168 444.89 264.573 445.21 264.84C445.53 265.096 445.962 265.224 446.506 265.224ZM456.449 269V267.656H456.385C456.225 268.051 455.969 268.408 455.617 268.728C455.275 269.037 454.758 269.192 454.065 269.192C453.222 269.192 452.545 268.92 452.033 268.376C451.531 267.821 451.281 267.043 451.281 266.04V260.744H452.561V265.816C452.561 266.552 452.721 267.107 453.041 267.48C453.361 267.853 453.83 268.04 454.449 268.04C454.79 268.04 455.11 267.987 455.409 267.88C455.718 267.763 455.969 267.587 456.161 267.352C456.353 267.117 456.449 266.819 456.449 266.456V260.744H457.729V269H456.449ZM461.094 269H459.814V260.744H461.094V262.088H461.158C461.361 261.619 461.644 261.245 462.006 260.968C462.38 260.691 462.876 260.552 463.494 260.552C464.348 260.552 465.02 260.829 465.51 261.384C466.012 261.928 466.262 262.701 466.262 263.704V269H464.982V263.928C464.982 263.192 464.822 262.637 464.502 262.264C464.193 261.891 463.729 261.704 463.11 261.704C462.769 261.704 462.444 261.763 462.134 261.88C461.825 261.987 461.574 262.157 461.382 262.392C461.19 262.627 461.094 262.92 461.094 263.272V269ZM473.548 269V267.656H473.484C473.239 268.168 472.913 268.552 472.508 268.808C472.113 269.064 471.633 269.192 471.068 269.192C470.385 269.192 469.788 269.016 469.276 268.664C468.775 268.312 468.385 267.811 468.108 267.16C467.841 266.509 467.708 265.747 467.708 264.872C467.708 263.987 467.841 263.224 468.108 262.584C468.385 261.933 468.775 261.432 469.276 261.08C469.788 260.728 470.385 260.552 471.068 260.552C471.633 260.552 472.124 260.68 472.54 260.936C472.956 261.181 473.271 261.565 473.484 262.088H473.548V257.16H474.828V269H473.548ZM471.42 268.04C471.815 268.04 472.172 267.976 472.492 267.848C472.812 267.709 473.068 267.517 473.26 267.272C473.452 267.016 473.548 266.712 473.548 266.36V263.288C473.548 262.979 473.452 262.707 473.26 262.472C473.068 262.237 472.812 262.051 472.492 261.912C472.172 261.773 471.815 261.704 471.42 261.704C470.705 261.704 470.135 261.933 469.708 262.392C469.292 262.84 469.084 263.432 469.084 264.168V265.576C469.084 266.312 469.292 266.909 469.708 267.368C470.135 267.816 470.705 268.04 471.42 268.04ZM480.029 269.192C479.293 269.192 478.643 269.016 478.077 268.664C477.523 268.301 477.085 267.8 476.765 267.16C476.456 266.509 476.301 265.747 476.301 264.872C476.301 263.997 476.456 263.24 476.765 262.6C477.085 261.949 477.523 261.448 478.077 261.096C478.643 260.733 479.293 260.552 480.029 260.552C480.765 260.552 481.411 260.733 481.965 261.096C482.531 261.448 482.968 261.949 483.277 262.6C483.597 263.24 483.757 263.997 483.757 264.872C483.757 265.747 483.597 266.509 483.277 267.16C482.968 267.8 482.531 268.301 481.965 268.664C481.411 269.016 480.765 269.192 480.029 269.192ZM480.029 268.056C480.723 268.056 481.288 267.843 481.725 267.416C482.163 266.989 482.381 266.339 482.381 265.464V264.28C482.381 263.405 482.163 262.755 481.725 262.328C481.288 261.901 480.723 261.688 480.029 261.688C479.347 261.688 478.781 261.901 478.333 262.328C477.896 262.755 477.677 263.405 477.677 264.28V265.464C477.677 266.339 477.896 266.989 478.333 267.416C478.781 267.843 479.347 268.056 480.029 268.056ZM487.702 269.192C486.945 269.192 486.305 269.048 485.782 268.76C485.26 268.461 484.812 268.067 484.438 267.576L485.35 266.84C485.67 267.235 486.028 267.544 486.422 267.768C486.817 267.992 487.276 268.104 487.798 268.104C488.342 268.104 488.764 267.987 489.062 267.752C489.372 267.517 489.526 267.187 489.526 266.76C489.526 266.44 489.42 266.163 489.206 265.928C489.004 265.693 488.63 265.539 488.086 265.464L487.43 265.368C486.929 265.293 486.476 265.171 486.07 265C485.665 264.819 485.345 264.568 485.11 264.248C484.886 263.917 484.774 263.496 484.774 262.984C484.774 262.163 485.052 261.555 485.606 261.16C486.172 260.755 486.876 260.552 487.718 260.552C488.166 260.552 488.561 260.605 488.902 260.712C489.254 260.819 489.569 260.973 489.846 261.176C490.124 261.368 490.374 261.603 490.598 261.88L489.75 262.648C489.569 262.392 489.302 262.163 488.95 261.96C488.598 261.747 488.156 261.64 487.622 261.64C487.1 261.64 486.7 261.757 486.422 261.992C486.145 262.216 486.006 262.525 486.006 262.92C486.006 263.315 486.14 263.608 486.406 263.8C486.684 263.981 487.078 264.115 487.59 264.2L488.23 264.296C489.148 264.435 489.798 264.701 490.182 265.096C490.566 265.48 490.758 265.987 490.758 266.616C490.758 267.149 490.636 267.608 490.39 267.992C490.145 268.376 489.793 268.675 489.334 268.888C488.876 269.091 488.332 269.192 487.702 269.192ZM498.609 266.36L500.609 260.744H501.873L498.177 270.92C498.059 271.251 497.926 271.507 497.777 271.688C497.638 271.88 497.451 272.013 497.217 272.088C496.982 272.163 496.662 272.2 496.257 272.2H495.601V271.08H496.897L497.521 269.32L494.433 260.744H495.713L497.697 266.36L498.081 267.704H498.161L498.609 266.36ZM509.078 269.192C507.916 269.192 507.009 268.803 506.358 268.024C505.718 267.245 505.398 266.195 505.398 264.872C505.398 263.549 505.718 262.499 506.358 261.72C507.009 260.941 507.916 260.552 509.078 260.552C509.9 260.552 510.561 260.733 511.062 261.096C511.564 261.459 511.932 261.923 512.166 262.488L511.094 263.032C510.945 262.605 510.694 262.275 510.342 262.04C510.001 261.805 509.58 261.688 509.078 261.688C508.321 261.688 507.745 261.923 507.35 262.392C506.966 262.851 506.774 263.443 506.774 264.168V265.576C506.774 266.291 506.966 266.883 507.35 267.352C507.745 267.821 508.321 268.056 509.078 268.056C509.601 268.056 510.049 267.933 510.422 267.688C510.796 267.443 511.094 267.085 511.318 266.616L512.246 267.24C511.98 267.827 511.58 268.301 511.046 268.664C510.524 269.016 509.868 269.192 509.078 269.192ZM516.439 269.192C515.703 269.192 515.053 269.016 514.487 268.664C513.933 268.301 513.495 267.8 513.175 267.16C512.866 266.509 512.711 265.747 512.711 264.872C512.711 263.997 512.866 263.24 513.175 262.6C513.495 261.949 513.933 261.448 514.487 261.096C515.053 260.733 515.703 260.552 516.439 260.552C517.175 260.552 517.821 260.733 518.375 261.096C518.941 261.448 519.378 261.949 519.687 262.6C520.007 263.24 520.167 263.997 520.167 264.872C520.167 265.747 520.007 266.509 519.687 267.16C519.378 267.8 518.941 268.301 518.375 268.664C517.821 269.016 517.175 269.192 516.439 269.192ZM516.439 268.056C517.133 268.056 517.698 267.843 518.135 267.416C518.573 266.989 518.791 266.339 518.791 265.464V264.28C518.791 263.405 518.573 262.755 518.135 262.328C517.698 261.901 517.133 261.688 516.439 261.688C515.757 261.688 515.191 261.901 514.743 262.328C514.306 262.755 514.087 263.405 514.087 264.28V265.464C514.087 266.339 514.306 266.989 514.743 267.416C515.191 267.843 515.757 268.056 516.439 268.056ZM522.912 269H521.632V260.744H522.912V262.088H522.976C523.179 261.619 523.462 261.245 523.824 260.968C524.198 260.691 524.694 260.552 525.312 260.552C526.166 260.552 526.838 260.829 527.328 261.384C527.83 261.928 528.08 262.701 528.08 263.704V269H526.8V263.928C526.8 263.192 526.64 262.637 526.32 262.264C526.011 261.891 525.547 261.704 524.928 261.704C524.587 261.704 524.262 261.763 523.952 261.88C523.643 261.987 523.392 262.157 523.2 262.392C523.008 262.627 522.912 262.92 522.912 263.272V269ZM533.273 269H531.785L528.889 260.744H530.169L531.609 264.84L532.505 267.656H532.585L533.481 264.84L534.953 260.744H536.185L533.273 269ZM540.175 269.192C539.429 269.192 538.778 269.016 538.223 268.664C537.669 268.301 537.237 267.8 536.927 267.16C536.618 266.509 536.463 265.747 536.463 264.872C536.463 263.997 536.618 263.24 536.927 262.6C537.237 261.949 537.669 261.448 538.223 261.096C538.778 260.733 539.429 260.552 540.175 260.552C540.911 260.552 541.546 260.728 542.079 261.08C542.613 261.421 543.023 261.896 543.311 262.504C543.599 263.112 543.743 263.805 543.743 264.584V265.192H537.807V265.576C537.807 266.291 538.021 266.888 538.447 267.368C538.885 267.837 539.487 268.072 540.255 268.072C540.778 268.072 541.231 267.949 541.615 267.704C542.01 267.459 542.314 267.107 542.527 266.648L543.439 267.304C543.173 267.859 542.757 268.312 542.191 268.664C541.626 269.016 540.954 269.192 540.175 269.192ZM540.175 261.624C539.717 261.624 539.306 261.731 538.943 261.944C538.591 262.157 538.314 262.456 538.111 262.84C537.909 263.213 537.807 263.64 537.807 264.12V264.232H542.367V264.056C542.367 263.565 542.277 263.139 542.095 262.776C541.914 262.413 541.658 262.131 541.327 261.928C540.997 261.725 540.613 261.624 540.175 261.624ZM546.493 269H545.213V260.744H546.493V262.264H546.573C546.669 261.997 546.818 261.752 547.021 261.528C547.223 261.293 547.485 261.107 547.805 260.968C548.125 260.819 548.509 260.744 548.957 260.744H549.453V262.024H548.701C548.242 262.024 547.847 262.088 547.517 262.216C547.186 262.333 546.93 262.493 546.749 262.696C546.578 262.899 546.493 263.133 546.493 263.4V269ZM553.934 269H552.334C551.897 269 551.561 268.872 551.326 268.616C551.091 268.36 550.974 268.035 550.974 267.64V261.864H549.614V260.744H550.382C550.659 260.744 550.846 260.691 550.942 260.584C551.049 260.467 551.102 260.269 551.102 259.992V258.456H552.254V260.744H554.062V261.864H552.254V267.88H553.934V269ZM556.759 269H555.479V260.744H556.759V269ZM557.927 257.096L556.231 259.64L555.399 259.256L556.759 256.536L557.927 257.096ZM129.432 286.192C128.269 286.192 127.363 285.803 126.712 285.024C126.072 284.245 125.752 283.195 125.752 281.872C125.752 280.549 126.072 279.499 126.712 278.72C127.363 277.941 128.269 277.552 129.432 277.552C130.253 277.552 130.915 277.733 131.416 278.096C131.917 278.459 132.285 278.923 132.52 279.488L131.448 280.032C131.299 279.605 131.048 279.275 130.696 279.04C130.355 278.805 129.933 278.688 129.432 278.688C128.675 278.688 128.099 278.923 127.704 279.392C127.32 279.851 127.128 280.443 127.128 281.168V282.576C127.128 283.291 127.32 283.883 127.704 284.352C128.099 284.821 128.675 285.056 129.432 285.056C129.955 285.056 130.403 284.933 130.776 284.688C131.149 284.443 131.448 284.085 131.672 283.616L132.6 284.24C132.333 284.827 131.933 285.301 131.4 285.664C130.877 286.016 130.221 286.192 129.432 286.192ZM138.855 286V284.656H138.791C138.631 285.051 138.375 285.408 138.023 285.728C137.682 286.037 137.164 286.192 136.471 286.192C135.628 286.192 134.951 285.92 134.439 285.376C133.938 284.821 133.687 284.043 133.687 283.04V277.744H134.967V282.816C134.967 283.552 135.127 284.107 135.447 284.48C135.767 284.853 136.236 285.04 136.855 285.04C137.196 285.04 137.516 284.987 137.815 284.88C138.124 284.763 138.375 284.587 138.567 284.352C138.759 284.117 138.855 283.819 138.855 283.456V277.744H140.135V286H138.855ZM148.941 286H148.221C147.879 286 147.602 285.931 147.389 285.792C147.175 285.643 147.021 285.44 146.925 285.184C146.829 284.928 146.781 284.635 146.781 284.304V284.192L147.277 284.656H146.717C146.546 285.157 146.247 285.541 145.821 285.808C145.405 286.064 144.909 286.192 144.333 286.192C143.458 286.192 142.775 285.968 142.285 285.52C141.805 285.072 141.565 284.464 141.565 283.696C141.565 283.173 141.693 282.736 141.949 282.384C142.205 282.021 142.589 281.749 143.101 281.568C143.623 281.376 144.285 281.28 145.085 281.28H146.717V280.464C146.717 279.877 146.557 279.429 146.237 279.12C145.917 278.811 145.426 278.656 144.765 278.656C144.274 278.656 143.858 278.768 143.517 278.992C143.175 279.216 142.893 279.515 142.669 279.888L141.901 279.168C142.125 278.731 142.482 278.352 142.973 278.032C143.463 277.712 144.082 277.552 144.829 277.552C145.821 277.552 146.594 277.797 147.149 278.288C147.714 278.779 147.997 279.461 147.997 280.336V284.88H148.941V286ZM146.717 282.24H145.021C144.295 282.24 143.762 282.347 143.421 282.56C143.079 282.773 142.909 283.083 142.909 283.488V283.824C142.909 284.229 143.058 284.544 143.357 284.768C143.655 284.992 144.05 285.104 144.541 285.104C144.967 285.104 145.341 285.04 145.661 284.912C145.991 284.773 146.247 284.592 146.429 284.368C146.621 284.133 146.717 283.877 146.717 283.6V282.24ZM152.624 286H151.487C151.05 286 150.714 285.877 150.48 285.632C150.245 285.376 150.127 285.056 150.127 284.672V274.16H151.408V284.88H152.624V286ZM159.127 289.2V284.656H159.063C158.818 285.168 158.492 285.552 158.087 285.808C157.692 286.064 157.212 286.192 156.647 286.192C155.964 286.192 155.367 286.016 154.855 285.664C154.354 285.312 153.964 284.811 153.687 284.16C153.42 283.509 153.287 282.747 153.287 281.872C153.287 280.987 153.42 280.224 153.687 279.584C153.964 278.933 154.354 278.432 154.855 278.08C155.367 277.728 155.964 277.552 156.647 277.552C157.212 277.552 157.703 277.68 158.119 277.936C158.535 278.181 158.85 278.565 159.063 279.088H159.127V277.744H160.407V289.2H159.127ZM156.999 285.04C157.394 285.04 157.751 284.976 158.071 284.848C158.391 284.709 158.647 284.517 158.839 284.272C159.031 284.016 159.127 283.712 159.127 283.36V280.288C159.127 279.979 159.031 279.707 158.839 279.472C158.647 279.237 158.391 279.051 158.071 278.912C157.751 278.773 157.394 278.704 156.999 278.704C156.284 278.704 155.714 278.933 155.287 279.392C154.871 279.84 154.663 280.432 154.663 281.168V282.576C154.663 283.312 154.871 283.909 155.287 284.368C155.714 284.816 156.284 285.04 156.999 285.04ZM167.576 286V284.656H167.512C167.352 285.051 167.096 285.408 166.744 285.728C166.403 286.037 165.885 286.192 165.192 286.192C164.349 286.192 163.672 285.92 163.16 285.376C162.659 284.821 162.408 284.043 162.408 283.04V277.744H163.688V282.816C163.688 283.552 163.848 284.107 164.168 284.48C164.488 284.853 164.957 285.04 165.576 285.04C165.917 285.04 166.237 284.987 166.536 284.88C166.845 284.763 167.096 284.587 167.288 284.352C167.48 284.117 167.576 283.819 167.576 283.456V277.744H168.856V286H167.576ZM171.582 275.808C171.315 275.808 171.118 275.744 170.99 275.616C170.862 275.477 170.798 275.301 170.798 275.088V274.88C170.798 274.667 170.862 274.496 170.99 274.368C171.118 274.229 171.315 274.16 171.582 274.16C171.859 274.16 172.057 274.229 172.174 274.368C172.302 274.496 172.366 274.667 172.366 274.88V275.088C172.366 275.301 172.302 275.477 172.174 275.616C172.057 275.744 171.859 275.808 171.582 275.808ZM170.942 286V277.744H172.222V286H170.942ZM177.406 286.192C176.659 286.192 176.009 286.016 175.454 285.664C174.899 285.301 174.467 284.8 174.158 284.16C173.849 283.509 173.694 282.747 173.694 281.872C173.694 280.997 173.849 280.24 174.158 279.6C174.467 278.949 174.899 278.448 175.454 278.096C176.009 277.733 176.659 277.552 177.406 277.552C178.142 277.552 178.777 277.728 179.31 278.08C179.843 278.421 180.254 278.896 180.542 279.504C180.83 280.112 180.974 280.805 180.974 281.584V282.192H175.038V282.576C175.038 283.291 175.251 283.888 175.678 284.368C176.115 284.837 176.718 285.072 177.486 285.072C178.009 285.072 178.462 284.949 178.846 284.704C179.241 284.459 179.545 284.107 179.758 283.648L180.67 284.304C180.403 284.859 179.987 285.312 179.422 285.664C178.857 286.016 178.185 286.192 177.406 286.192ZM177.406 278.624C176.947 278.624 176.537 278.731 176.174 278.944C175.822 279.157 175.545 279.456 175.342 279.84C175.139 280.213 175.038 280.64 175.038 281.12V281.232H179.598V281.056C179.598 280.565 179.507 280.139 179.326 279.776C179.145 279.413 178.889 279.131 178.558 278.928C178.227 278.725 177.843 278.624 177.406 278.624ZM183.723 286H182.443V277.744H183.723V279.264H183.803C183.899 278.997 184.048 278.752 184.251 278.528C184.454 278.293 184.715 278.107 185.035 277.968C185.355 277.819 185.739 277.744 186.187 277.744H186.683V279.024H185.931C185.472 279.024 185.078 279.088 184.747 279.216C184.416 279.333 184.16 279.493 183.979 279.696C183.808 279.899 183.723 280.133 183.723 280.4V286ZM192.099 286H190.819V277.744H192.099V279.088H192.163C192.345 278.661 192.601 278.299 192.931 278C193.262 277.701 193.747 277.552 194.387 277.552C194.931 277.552 195.433 277.685 195.891 277.952C196.35 278.208 196.691 278.635 196.915 279.232H196.947C197.097 278.784 197.374 278.395 197.779 278.064C198.195 277.723 198.755 277.552 199.459 277.552C200.302 277.552 200.958 277.829 201.427 278.384C201.907 278.928 202.147 279.701 202.147 280.704V286H200.867V280.928C200.867 280.203 200.723 279.653 200.435 279.28C200.147 278.896 199.689 278.704 199.059 278.704C198.729 278.704 198.414 278.763 198.115 278.88C197.817 278.987 197.577 279.157 197.395 279.392C197.214 279.627 197.123 279.92 197.123 280.272V286H195.843V280.928C195.843 280.192 195.699 279.637 195.411 279.264C195.123 278.891 194.675 278.704 194.067 278.704C193.737 278.704 193.417 278.763 193.107 278.88C192.809 278.987 192.563 279.157 192.371 279.392C192.19 279.627 192.099 279.92 192.099 280.272V286ZM207.268 286.192C206.532 286.192 205.881 286.016 205.316 285.664C204.761 285.301 204.324 284.8 204.004 284.16C203.695 283.509 203.54 282.747 203.54 281.872C203.54 280.997 203.695 280.24 204.004 279.6C204.324 278.949 204.761 278.448 205.316 278.096C205.881 277.733 206.532 277.552 207.268 277.552C208.004 277.552 208.649 277.733 209.204 278.096C209.769 278.448 210.207 278.949 210.516 279.6C210.836 280.24 210.996 280.997 210.996 281.872C210.996 282.747 210.836 283.509 210.516 284.16C210.207 284.8 209.769 285.301 209.204 285.664C208.649 286.016 208.004 286.192 207.268 286.192ZM207.268 285.056C207.961 285.056 208.527 284.843 208.964 284.416C209.401 283.989 209.62 283.339 209.62 282.464V281.28C209.62 280.405 209.401 279.755 208.964 279.328C208.527 278.901 207.961 278.688 207.268 278.688C206.585 278.688 206.02 278.901 205.572 279.328C205.135 279.755 204.916 280.405 204.916 281.28V282.464C204.916 283.339 205.135 283.989 205.572 284.416C206.02 284.843 206.585 285.056 207.268 285.056ZM213.741 286H212.461V277.744H213.741V279.088H213.805C213.987 278.661 214.243 278.299 214.573 278C214.904 277.701 215.389 277.552 216.029 277.552C216.573 277.552 217.075 277.685 217.533 277.952C217.992 278.208 218.333 278.635 218.557 279.232H218.589C218.739 278.784 219.016 278.395 219.421 278.064C219.837 277.723 220.397 277.552 221.101 277.552C221.944 277.552 222.6 277.829 223.069 278.384C223.549 278.928 223.789 279.701 223.789 280.704V286H222.509V280.928C222.509 280.203 222.365 279.653 222.077 279.28C221.789 278.896 221.331 278.704 220.701 278.704C220.371 278.704 220.056 278.763 219.757 278.88C219.459 278.987 219.219 279.157 219.037 279.392C218.856 279.627 218.765 279.92 218.765 280.272V286H217.485V280.928C217.485 280.192 217.341 279.637 217.053 279.264C216.765 278.891 216.317 278.704 215.709 278.704C215.379 278.704 215.059 278.763 214.749 278.88C214.451 278.987 214.205 279.157 214.013 279.392C213.832 279.627 213.741 279.92 213.741 280.272V286ZM228.894 286.192C228.147 286.192 227.497 286.016 226.942 285.664C226.387 285.301 225.955 284.8 225.646 284.16C225.337 283.509 225.182 282.747 225.182 281.872C225.182 280.997 225.337 280.24 225.646 279.6C225.955 278.949 226.387 278.448 226.942 278.096C227.497 277.733 228.147 277.552 228.894 277.552C229.63 277.552 230.265 277.728 230.798 278.08C231.331 278.421 231.742 278.896 232.03 279.504C232.318 280.112 232.462 280.805 232.462 281.584V282.192H226.526V282.576C226.526 283.291 226.739 283.888 227.166 284.368C227.603 284.837 228.206 285.072 228.974 285.072C229.497 285.072 229.95 284.949 230.334 284.704C230.729 284.459 231.033 284.107 231.246 283.648L232.158 284.304C231.891 284.859 231.475 285.312 230.91 285.664C230.345 286.016 229.673 286.192 228.894 286.192ZM228.894 278.624C228.435 278.624 228.025 278.731 227.662 278.944C227.31 279.157 227.033 279.456 226.83 279.84C226.627 280.213 226.526 280.64 226.526 281.12V281.232H231.086V281.056C231.086 280.565 230.995 280.139 230.814 279.776C230.633 279.413 230.377 279.131 230.046 278.928C229.715 278.725 229.331 278.624 228.894 278.624ZM235.211 286H233.931V277.744H235.211V279.088H235.275C235.478 278.619 235.761 278.245 236.123 277.968C236.497 277.691 236.993 277.552 237.611 277.552C238.465 277.552 239.137 277.829 239.627 278.384C240.129 278.928 240.379 279.701 240.379 280.704V286H239.099V280.928C239.099 280.192 238.939 279.637 238.619 279.264C238.31 278.891 237.846 278.704 237.227 278.704C236.886 278.704 236.561 278.763 236.251 278.88C235.942 278.987 235.691 279.157 235.499 279.392C235.307 279.627 235.211 279.92 235.211 280.272V286ZM245.809 286H244.209C243.772 286 243.436 285.872 243.201 285.616C242.966 285.36 242.849 285.035 242.849 284.64V278.864H241.489V277.744H242.257C242.534 277.744 242.721 277.691 242.817 277.584C242.924 277.467 242.977 277.269 242.977 276.992V275.456H244.129V277.744H245.937V278.864H244.129V284.88H245.809V286ZM250.412 286.192C249.676 286.192 249.025 286.016 248.46 285.664C247.905 285.301 247.468 284.8 247.148 284.16C246.839 283.509 246.684 282.747 246.684 281.872C246.684 280.997 246.839 280.24 247.148 279.6C247.468 278.949 247.905 278.448 248.46 278.096C249.025 277.733 249.676 277.552 250.412 277.552C251.148 277.552 251.793 277.733 252.348 278.096C252.913 278.448 253.351 278.949 253.66 279.6C253.98 280.24 254.14 280.997 254.14 281.872C254.14 282.747 253.98 283.509 253.66 284.16C253.351 284.8 252.913 285.301 252.348 285.664C251.793 286.016 251.148 286.192 250.412 286.192ZM250.412 285.056C251.105 285.056 251.671 284.843 252.108 284.416C252.545 283.989 252.764 283.339 252.764 282.464V281.28C252.764 280.405 252.545 279.755 252.108 279.328C251.671 278.901 251.105 278.688 250.412 278.688C249.729 278.688 249.164 278.901 248.716 279.328C248.279 279.755 248.06 280.405 248.06 281.28V282.464C248.06 283.339 248.279 283.989 248.716 284.416C249.164 284.843 249.729 285.056 250.412 285.056ZM261.85 286.192C261.104 286.192 260.453 286.016 259.898 285.664C259.344 285.301 258.912 284.8 258.602 284.16C258.293 283.509 258.138 282.747 258.138 281.872C258.138 280.997 258.293 280.24 258.602 279.6C258.912 278.949 259.344 278.448 259.898 278.096C260.453 277.733 261.104 277.552 261.85 277.552C262.586 277.552 263.221 277.728 263.754 278.08C264.288 278.421 264.698 278.896 264.986 279.504C265.274 280.112 265.418 280.805 265.418 281.584V282.192H259.482V282.576C259.482 283.291 259.696 283.888 260.122 284.368C260.56 284.837 261.162 285.072 261.93 285.072C262.453 285.072 262.906 284.949 263.29 284.704C263.685 284.459 263.989 284.107 264.202 283.648L265.114 284.304C264.848 284.859 264.432 285.312 263.866 285.664C263.301 286.016 262.629 286.192 261.85 286.192ZM261.85 278.624C261.392 278.624 260.981 278.731 260.618 278.944C260.266 279.157 259.989 279.456 259.786 279.84C259.584 280.213 259.482 280.64 259.482 281.12V281.232H264.042V281.056C264.042 280.565 263.952 280.139 263.77 279.776C263.589 279.413 263.333 279.131 263.002 278.928C262.672 278.725 262.288 278.624 261.85 278.624ZM268.167 286H266.887V277.744H268.167V279.088H268.231C268.434 278.619 268.717 278.245 269.079 277.968C269.453 277.691 269.949 277.552 270.567 277.552C271.421 277.552 272.093 277.829 272.583 278.384C273.085 278.928 273.335 279.701 273.335 280.704V286H272.055V280.928C272.055 280.192 271.895 279.637 271.575 279.264C271.266 278.891 270.802 278.704 270.183 278.704C269.842 278.704 269.517 278.763 269.207 278.88C268.898 278.987 268.647 279.157 268.455 279.392C268.263 279.627 268.167 279.92 268.167 280.272V286ZM283.57 286V284.656H283.506C283.346 285.051 283.09 285.408 282.738 285.728C282.397 286.037 281.88 286.192 281.186 286.192C280.344 286.192 279.666 285.92 279.154 285.376C278.653 284.821 278.402 284.043 278.402 283.04V277.744H279.682V282.816C279.682 283.552 279.842 284.107 280.162 284.48C280.482 284.853 280.952 285.04 281.57 285.04C281.912 285.04 282.232 284.987 282.53 284.88C282.84 284.763 283.09 284.587 283.282 284.352C283.474 284.117 283.57 283.819 283.57 283.456V277.744H284.85V286H283.57ZM288.216 286H286.936V277.744H288.216V279.088H288.28C288.483 278.619 288.766 278.245 289.128 277.968C289.502 277.691 289.998 277.552 290.616 277.552C291.47 277.552 292.142 277.829 292.632 278.384C293.134 278.928 293.384 279.701 293.384 280.704V286H292.104V280.928C292.104 280.192 291.944 279.637 291.624 279.264C291.315 278.891 290.851 278.704 290.232 278.704C289.891 278.704 289.566 278.763 289.256 278.88C288.947 278.987 288.696 279.157 288.504 279.392C288.312 279.627 288.216 279.92 288.216 280.272V286ZM299.811 286H298.531V277.744H299.811V279.264H299.891C299.987 278.997 300.137 278.752 300.339 278.528C300.542 278.293 300.803 278.107 301.123 277.968C301.443 277.819 301.827 277.744 302.275 277.744H302.771V279.024H302.019C301.561 279.024 301.166 279.088 300.835 279.216C300.505 279.333 300.249 279.493 300.067 279.696C299.897 279.899 299.811 280.133 299.811 280.4V286ZM306.792 286.192C306.045 286.192 305.395 286.016 304.84 285.664C304.285 285.301 303.853 284.8 303.544 284.16C303.235 283.509 303.08 282.747 303.08 281.872C303.08 280.997 303.235 280.24 303.544 279.6C303.853 278.949 304.285 278.448 304.84 278.096C305.395 277.733 306.045 277.552 306.792 277.552C307.528 277.552 308.163 277.728 308.696 278.08C309.229 278.421 309.64 278.896 309.928 279.504C310.216 280.112 310.36 280.805 310.36 281.584V282.192H304.424V282.576C304.424 283.291 304.637 283.888 305.064 284.368C305.501 284.837 306.104 285.072 306.872 285.072C307.395 285.072 307.848 284.949 308.232 284.704C308.627 284.459 308.931 284.107 309.144 283.648L310.056 284.304C309.789 284.859 309.373 285.312 308.808 285.664C308.243 286.016 307.571 286.192 306.792 286.192ZM306.792 278.624C306.333 278.624 305.923 278.731 305.56 278.944C305.208 279.157 304.931 279.456 304.728 279.84C304.525 280.213 304.424 280.64 304.424 281.12V281.232H308.984V281.056C308.984 280.565 308.893 280.139 308.712 279.776C308.531 279.413 308.275 279.131 307.944 278.928C307.613 278.725 307.229 278.624 306.792 278.624ZM314.901 286.192C313.739 286.192 312.832 285.803 312.181 285.024C311.541 284.245 311.221 283.195 311.221 281.872C311.221 280.549 311.541 279.499 312.181 278.72C312.832 277.941 313.739 277.552 314.901 277.552C315.723 277.552 316.384 277.733 316.885 278.096C317.387 278.459 317.755 278.923 317.989 279.488L316.917 280.032C316.768 279.605 316.517 279.275 316.165 279.04C315.824 278.805 315.403 278.688 314.901 278.688C314.144 278.688 313.568 278.923 313.173 279.392C312.789 279.851 312.597 280.443 312.597 281.168V282.576C312.597 283.291 312.789 283.883 313.173 284.352C313.568 284.821 314.144 285.056 314.901 285.056C315.424 285.056 315.872 284.933 316.245 284.688C316.619 284.443 316.917 284.085 317.141 283.616L318.069 284.24C317.803 284.827 317.403 285.301 316.869 285.664C316.347 286.016 315.691 286.192 314.901 286.192ZM324.324 286V284.656H324.26C324.1 285.051 323.844 285.408 323.492 285.728C323.151 286.037 322.634 286.192 321.94 286.192C321.098 286.192 320.42 285.92 319.908 285.376C319.407 284.821 319.156 284.043 319.156 283.04V277.744H320.436V282.816C320.436 283.552 320.596 284.107 320.916 284.48C321.236 284.853 321.706 285.04 322.324 285.04C322.666 285.04 322.986 284.987 323.284 284.88C323.594 284.763 323.844 284.587 324.036 284.352C324.228 284.117 324.324 283.819 324.324 283.456V277.744H325.604V286H324.324ZM330.794 286.192C330.047 286.192 329.397 286.016 328.842 285.664C328.287 285.301 327.855 284.8 327.546 284.16C327.237 283.509 327.082 282.747 327.082 281.872C327.082 280.997 327.237 280.24 327.546 279.6C327.855 278.949 328.287 278.448 328.842 278.096C329.397 277.733 330.047 277.552 330.794 277.552C331.53 277.552 332.165 277.728 332.698 278.08C333.231 278.421 333.642 278.896 333.93 279.504C334.218 280.112 334.362 280.805 334.362 281.584V282.192H328.426V282.576C328.426 283.291 328.639 283.888 329.066 284.368C329.503 284.837 330.106 285.072 330.874 285.072C331.397 285.072 331.85 284.949 332.234 284.704C332.629 284.459 332.933 284.107 333.146 283.648L334.058 284.304C333.791 284.859 333.375 285.312 332.81 285.664C332.245 286.016 331.573 286.192 330.794 286.192ZM330.794 278.624C330.335 278.624 329.925 278.731 329.562 278.944C329.21 279.157 328.933 279.456 328.73 279.84C328.527 280.213 328.426 280.64 328.426 281.12V281.232H332.986V281.056C332.986 280.565 332.895 280.139 332.714 279.776C332.533 279.413 332.277 279.131 331.946 278.928C331.615 278.725 331.231 278.624 330.794 278.624ZM337.111 286H335.831V277.744H337.111V279.264H337.191C337.287 278.997 337.437 278.752 337.639 278.528C337.842 278.293 338.103 278.107 338.423 277.968C338.743 277.819 339.127 277.744 339.575 277.744H340.071V279.024H339.319C338.861 279.024 338.466 279.088 338.135 279.216C337.805 279.333 337.549 279.493 337.367 279.696C337.197 279.899 337.111 280.133 337.111 280.4V286ZM346.253 286V284.656H346.189C345.943 285.168 345.618 285.552 345.213 285.808C344.818 286.064 344.338 286.192 343.773 286.192C343.09 286.192 342.493 286.016 341.981 285.664C341.479 285.312 341.09 284.811 340.813 284.16C340.546 283.509 340.413 282.747 340.413 281.872C340.413 280.987 340.546 280.224 340.813 279.584C341.09 278.933 341.479 278.432 341.981 278.08C342.493 277.728 343.09 277.552 343.773 277.552C344.338 277.552 344.829 277.68 345.245 277.936C345.661 278.181 345.975 278.565 346.189 279.088H346.253V274.16H347.533V286H346.253ZM344.125 285.04C344.519 285.04 344.877 284.976 345.197 284.848C345.517 284.709 345.773 284.517 345.965 284.272C346.157 284.016 346.253 283.712 346.253 283.36V280.288C346.253 279.979 346.157 279.707 345.965 279.472C345.773 279.237 345.517 279.051 345.197 278.912C344.877 278.773 344.519 278.704 344.125 278.704C343.41 278.704 342.839 278.933 342.413 279.392C341.997 279.84 341.789 280.432 341.789 281.168V282.576C341.789 283.312 341.997 283.909 342.413 284.368C342.839 284.816 343.41 285.04 344.125 285.04ZM352.734 286.192C351.998 286.192 351.347 286.016 350.782 285.664C350.227 285.301 349.79 284.8 349.47 284.16C349.16 283.509 349.006 282.747 349.006 281.872C349.006 280.997 349.16 280.24 349.47 279.6C349.79 278.949 350.227 278.448 350.782 278.096C351.347 277.733 351.998 277.552 352.734 277.552C353.47 277.552 354.115 277.733 354.67 278.096C355.235 278.448 355.672 278.949 355.982 279.6C356.302 280.24 356.462 280.997 356.462 281.872C356.462 282.747 356.302 283.509 355.982 284.16C355.672 284.8 355.235 285.301 354.67 285.664C354.115 286.016 353.47 286.192 352.734 286.192ZM352.734 285.056C353.427 285.056 353.992 284.843 354.43 284.416C354.867 283.989 355.086 283.339 355.086 282.464V281.28C355.086 280.405 354.867 279.755 354.43 279.328C353.992 278.901 353.427 278.688 352.734 278.688C352.051 278.688 351.486 278.901 351.038 279.328C350.6 279.755 350.382 280.405 350.382 281.28V282.464C350.382 283.339 350.6 283.989 351.038 284.416C351.486 284.843 352.051 285.056 352.734 285.056ZM361.516 286V278.864H360.172V277.744H361.516V276.08C361.516 275.515 361.665 275.056 361.964 274.704C362.263 274.341 362.716 274.16 363.324 274.16H364.572V275.28H362.796V277.744H364.572V278.864H362.796V286H361.516ZM366.896 286H365.616V277.744H366.896V286ZM368.064 274.096L366.368 276.64L365.536 276.256L366.896 273.536L368.064 274.096ZM371.456 286.192C370.698 286.192 370.058 286.048 369.536 285.76C369.013 285.461 368.565 285.067 368.192 284.576L369.104 283.84C369.424 284.235 369.781 284.544 370.176 284.768C370.57 284.992 371.029 285.104 371.552 285.104C372.096 285.104 372.517 284.987 372.816 284.752C373.125 284.517 373.28 284.187 373.28 283.76C373.28 283.44 373.173 283.163 372.96 282.928C372.757 282.693 372.384 282.539 371.84 282.464L371.184 282.368C370.682 282.293 370.229 282.171 369.824 282C369.418 281.819 369.098 281.568 368.864 281.248C368.64 280.917 368.528 280.496 368.528 279.984C368.528 279.163 368.805 278.555 369.36 278.16C369.925 277.755 370.629 277.552 371.472 277.552C371.92 277.552 372.314 277.605 372.656 277.712C373.008 277.819 373.322 277.973 373.6 278.176C373.877 278.368 374.128 278.603 374.352 278.88L373.504 279.648C373.322 279.392 373.056 279.163 372.704 278.96C372.352 278.747 371.909 278.64 371.376 278.64C370.853 278.64 370.453 278.757 370.176 278.992C369.898 279.216 369.76 279.525 369.76 279.92C369.76 280.315 369.893 280.608 370.16 280.8C370.437 280.981 370.832 281.115 371.344 281.2L371.984 281.296C372.901 281.435 373.552 281.701 373.936 282.096C374.32 282.48 374.512 282.987 374.512 283.616C374.512 284.149 374.389 284.608 374.144 284.992C373.898 285.376 373.546 285.675 373.088 285.888C372.629 286.091 372.085 286.192 371.456 286.192ZM376.773 275.808C376.506 275.808 376.309 275.744 376.181 275.616C376.053 275.477 375.989 275.301 375.989 275.088V274.88C375.989 274.667 376.053 274.496 376.181 274.368C376.309 274.229 376.506 274.16 376.773 274.16C377.05 274.16 377.247 274.229 377.365 274.368C377.493 274.496 377.557 274.667 377.557 274.88V275.088C377.557 275.301 377.493 275.477 377.365 275.616C377.247 275.744 377.05 275.808 376.773 275.808ZM376.133 286V277.744H377.413V286H376.133ZM382.565 286.192C381.402 286.192 380.495 285.803 379.845 285.024C379.205 284.245 378.885 283.195 378.885 281.872C378.885 280.549 379.205 279.499 379.845 278.72C380.495 277.941 381.402 277.552 382.565 277.552C383.386 277.552 384.047 277.733 384.549 278.096C385.05 278.459 385.418 278.923 385.653 279.488L384.581 280.032C384.431 279.605 384.181 279.275 383.829 279.04C383.487 278.805 383.066 278.688 382.565 278.688C381.807 278.688 381.231 278.923 380.837 279.392C380.453 279.851 380.261 280.443 380.261 281.168V282.576C380.261 283.291 380.453 283.883 380.837 284.352C381.231 284.821 381.807 285.056 382.565 285.056C383.087 285.056 383.535 284.933 383.909 284.688C384.282 284.443 384.581 284.085 384.805 283.616L385.733 284.24C385.466 284.827 385.066 285.301 384.533 285.664C384.01 286.016 383.354 286.192 382.565 286.192ZM389.926 286.192C389.19 286.192 388.539 286.016 387.974 285.664C387.419 285.301 386.982 284.8 386.662 284.16C386.352 283.509 386.198 282.747 386.198 281.872C386.198 280.997 386.352 280.24 386.662 279.6C386.982 278.949 387.419 278.448 387.974 278.096C388.539 277.733 389.19 277.552 389.926 277.552C390.662 277.552 391.307 277.733 391.862 278.096C392.427 278.448 392.864 278.949 393.174 279.6C393.494 280.24 393.654 280.997 393.654 281.872C393.654 282.747 393.494 283.509 393.174 284.16C392.864 284.8 392.427 285.301 391.862 285.664C391.307 286.016 390.662 286.192 389.926 286.192ZM389.926 285.056C390.619 285.056 391.184 284.843 391.622 284.416C392.059 283.989 392.278 283.339 392.278 282.464V281.28C392.278 280.405 392.059 279.755 391.622 279.328C391.184 278.901 390.619 278.688 389.926 278.688C389.243 278.688 388.678 278.901 388.23 279.328C387.792 279.755 387.574 280.405 387.574 281.28V282.464C387.574 283.339 387.792 283.989 388.23 284.416C388.678 284.843 389.243 285.056 389.926 285.056ZM395.622 286.192C395.292 286.192 395.046 286.107 394.886 285.936C394.726 285.755 394.646 285.531 394.646 285.264V285.056C394.646 284.779 394.726 284.555 394.886 284.384C395.046 284.213 395.292 284.128 395.622 284.128C395.964 284.128 396.209 284.213 396.358 284.384C396.518 284.555 396.598 284.779 396.598 285.056V285.264C396.598 285.531 396.518 285.755 396.358 285.936C396.209 286.107 395.964 286.192 395.622 286.192Z" fill="black"/>
<path d="M131.25 162H126.516V161.1H128.352V150.336H126.516V149.436H131.25V150.336H129.414V161.1H131.25V162ZM134.358 162H133.332V152.784H134.358V154.242H134.412C134.604 153.786 134.898 153.396 135.294 153.072C135.69 152.736 136.266 152.568 137.022 152.568C137.682 152.568 138.264 152.724 138.768 153.036C139.284 153.348 139.65 153.84 139.866 154.512H139.92C140.088 153.972 140.406 153.516 140.874 153.144C141.354 152.76 142.002 152.568 142.818 152.568C143.79 152.568 144.54 152.874 145.068 153.486C145.596 154.086 145.86 154.95 145.86 156.078V162H144.834V156.258C144.834 155.334 144.642 154.644 144.258 154.188C143.886 153.72 143.31 153.486 142.53 153.486C142.11 153.486 141.714 153.564 141.342 153.72C140.97 153.864 140.67 154.092 140.442 154.404C140.226 154.704 140.118 155.082 140.118 155.538V162H139.092V156.258C139.092 155.322 138.9 154.626 138.516 154.17C138.132 153.714 137.556 153.486 136.788 153.486C136.368 153.486 135.972 153.564 135.6 153.72C135.228 153.864 134.928 154.086 134.7 154.386C134.472 154.686 134.358 155.064 134.358 155.52V162ZM148.362 165.6V152.784H149.388V154.26H149.442C149.67 153.744 150.018 153.336 150.486 153.036C150.966 152.724 151.554 152.568 152.25 152.568C153.042 152.568 153.72 152.76 154.284 153.144C154.848 153.516 155.28 154.062 155.58 154.782C155.892 155.502 156.048 156.372 156.048 157.392C156.048 158.4 155.892 159.27 155.58 160.002C155.28 160.722 154.848 161.274 154.284 161.658C153.72 162.03 153.042 162.216 152.25 162.216C151.554 162.216 150.972 162.06 150.504 161.748C150.048 161.436 149.694 161.028 149.442 160.524H149.388V165.6H148.362ZM152.016 161.298C152.94 161.298 153.66 161.004 154.176 160.416C154.692 159.816 154.95 159.024 154.95 158.04V156.744C154.95 155.748 154.692 154.956 154.176 154.368C153.66 153.78 152.94 153.486 152.016 153.486C151.548 153.486 151.11 153.576 150.702 153.756C150.306 153.924 149.988 154.164 149.748 154.476C149.508 154.776 149.388 155.13 149.388 155.538V159.192C149.388 159.612 149.508 159.984 149.748 160.308C149.988 160.62 150.306 160.866 150.702 161.046C151.11 161.214 151.548 161.298 152.016 161.298ZM159.004 162H157.978V152.784H159.004V154.44H159.076C159.196 154.14 159.37 153.87 159.598 153.63C159.826 153.378 160.12 153.174 160.48 153.018C160.852 152.862 161.302 152.784 161.83 152.784H162.442V153.792H161.632C161.116 153.792 160.66 153.87 160.264 154.026C159.868 154.182 159.556 154.404 159.328 154.692C159.112 154.968 159.004 155.304 159.004 155.7V162ZM166.933 162.216C166.117 162.216 165.403 162.024 164.791 161.64C164.191 161.256 163.723 160.704 163.387 159.984C163.063 159.264 162.901 158.4 162.901 157.392C162.901 156.384 163.063 155.52 163.387 154.8C163.723 154.08 164.191 153.528 164.791 153.144C165.391 152.76 166.099 152.568 166.915 152.568C167.707 152.568 168.391 152.76 168.967 153.144C169.543 153.516 169.993 154.044 170.317 154.728C170.641 155.412 170.803 156.204 170.803 157.104V157.59H163.981V158.04C163.981 159.012 164.245 159.804 164.773 160.416C165.301 161.016 166.039 161.316 166.987 161.316C167.647 161.316 168.211 161.16 168.679 160.848C169.159 160.524 169.525 160.062 169.777 159.462L170.533 159.966C170.245 160.638 169.789 161.184 169.165 161.604C168.553 162.012 167.809 162.216 166.933 162.216ZM166.915 153.432C166.315 153.432 165.793 153.57 165.349 153.846C164.917 154.122 164.581 154.506 164.341 154.998C164.101 155.49 163.981 156.06 163.981 156.708V156.798H169.687V156.654C169.687 156.006 169.573 155.442 169.345 154.962C169.117 154.482 168.793 154.11 168.373 153.846C167.953 153.57 167.467 153.432 166.915 153.432ZM175.302 162.216C174.498 162.216 173.808 162.066 173.232 161.766C172.668 161.454 172.176 161.016 171.756 160.452L172.512 159.858C172.896 160.35 173.316 160.722 173.772 160.974C174.228 161.214 174.762 161.334 175.374 161.334C176.082 161.334 176.628 161.184 177.012 160.884C177.396 160.572 177.588 160.14 177.588 159.588C177.588 159.108 177.438 158.724 177.138 158.436C176.85 158.148 176.37 157.956 175.698 157.86L174.942 157.734C174.39 157.65 173.898 157.512 173.466 157.32C173.034 157.128 172.698 156.858 172.458 156.51C172.23 156.15 172.116 155.694 172.116 155.142C172.116 154.278 172.416 153.636 173.016 153.216C173.616 152.784 174.36 152.568 175.248 152.568C175.764 152.568 176.214 152.628 176.598 152.748C176.982 152.868 177.318 153.036 177.606 153.252C177.906 153.468 178.17 153.714 178.398 153.99L177.714 154.62C177.474 154.32 177.156 154.05 176.76 153.81C176.364 153.57 175.842 153.45 175.194 153.45C174.534 153.45 174.018 153.594 173.646 153.882C173.286 154.17 173.106 154.572 173.106 155.088C173.106 155.628 173.268 156.024 173.592 156.276C173.928 156.516 174.426 156.69 175.086 156.798L175.824 156.906C176.76 157.05 177.45 157.332 177.894 157.752C178.35 158.16 178.578 158.736 178.578 159.48C178.578 160.056 178.446 160.548 178.182 160.956C177.918 161.364 177.54 161.676 177.048 161.892C176.568 162.108 175.986 162.216 175.302 162.216ZM183.844 162.216C183.028 162.216 182.32 162.024 181.72 161.64C181.12 161.256 180.652 160.704 180.316 159.984C179.98 159.264 179.812 158.4 179.812 157.392C179.812 156.384 179.98 155.52 180.316 154.8C180.652 154.08 181.12 153.528 181.72 153.144C182.32 152.76 183.028 152.568 183.844 152.568C184.66 152.568 185.368 152.76 185.968 153.144C186.58 153.528 187.048 154.08 187.372 154.8C187.708 155.52 187.876 156.384 187.876 157.392C187.876 158.4 187.708 159.264 187.372 159.984C187.048 160.704 186.58 161.256 185.968 161.64C185.368 162.024 184.66 162.216 183.844 162.216ZM183.844 161.298C184.744 161.298 185.458 161.016 185.986 160.452C186.514 159.876 186.778 159.048 186.778 157.968V156.816C186.778 155.736 186.514 154.914 185.986 154.35C185.458 153.774 184.744 153.486 183.844 153.486C182.956 153.486 182.248 153.774 181.72 154.35C181.192 154.914 180.928 155.736 180.928 156.816V157.968C180.928 159.048 181.192 159.876 181.72 160.452C182.248 161.016 182.956 161.298 183.844 161.298ZM190.788 162H189.762V152.784H190.788V154.44H190.86C190.98 154.14 191.154 153.87 191.382 153.63C191.61 153.378 191.904 153.174 192.264 153.018C192.636 152.862 193.086 152.784 193.614 152.784H194.226V153.792H193.416C192.9 153.792 192.444 153.87 192.048 154.026C191.652 154.182 191.34 154.404 191.112 154.692C190.896 154.968 190.788 155.304 190.788 155.7V162ZM202.82 162H201.776C201.5 162 201.272 161.946 201.092 161.838C200.912 161.718 200.78 161.556 200.696 161.352C200.624 161.148 200.588 160.908 200.588 160.632V160.146L201.002 160.542H200.516C200.312 161.046 199.976 161.454 199.508 161.766C199.04 162.066 198.446 162.216 197.726 162.216C196.754 162.216 196.004 161.976 195.476 161.496C194.948 161.016 194.684 160.35 194.684 159.498C194.684 158.946 194.81 158.472 195.062 158.076C195.326 157.68 195.728 157.374 196.268 157.158C196.82 156.942 197.54 156.834 198.428 156.834H200.552V155.754C200.552 154.986 200.354 154.41 199.958 154.026C199.562 153.642 198.974 153.45 198.194 153.45C197.594 153.45 197.084 153.582 196.664 153.846C196.256 154.11 195.926 154.482 195.674 154.962L195.026 154.422C195.278 153.894 195.662 153.456 196.178 153.108C196.706 152.748 197.39 152.568 198.23 152.568C199.298 152.568 200.12 152.838 200.696 153.378C201.284 153.918 201.578 154.674 201.578 155.646V161.1H202.82V162ZM200.552 157.608H198.392C197.48 157.608 196.814 157.758 196.394 158.058C195.974 158.346 195.764 158.748 195.764 159.264V159.696C195.764 160.224 195.956 160.632 196.34 160.92C196.736 161.196 197.246 161.334 197.87 161.334C198.374 161.334 198.824 161.256 199.22 161.1C199.628 160.932 199.952 160.698 200.192 160.398C200.432 160.086 200.552 159.726 200.552 159.318V157.608ZM207.764 165.6V152.784H208.79V154.26H208.844C209.072 153.744 209.42 153.336 209.888 153.036C210.368 152.724 210.956 152.568 211.652 152.568C212.444 152.568 213.122 152.76 213.686 153.144C214.25 153.516 214.682 154.062 214.982 154.782C215.294 155.502 215.45 156.372 215.45 157.392C215.45 158.4 215.294 159.27 214.982 160.002C214.682 160.722 214.25 161.274 213.686 161.658C213.122 162.03 212.444 162.216 211.652 162.216C210.956 162.216 210.374 162.06 209.906 161.748C209.45 161.436 209.096 161.028 208.844 160.524H208.79V165.6H207.764ZM211.418 161.298C212.342 161.298 213.062 161.004 213.578 160.416C214.094 159.816 214.352 159.024 214.352 158.04V156.744C214.352 155.748 214.094 154.956 213.578 154.368C213.062 153.78 212.342 153.486 211.418 153.486C210.95 153.486 210.512 153.576 210.104 153.756C209.708 153.924 209.39 154.164 209.15 154.476C208.91 154.776 208.79 155.13 208.79 155.538V159.192C208.79 159.612 208.91 159.984 209.15 160.308C209.39 160.62 209.708 160.866 210.104 161.046C210.512 161.214 210.95 161.298 211.418 161.298ZM220.674 162.216C219.858 162.216 219.15 162.024 218.55 161.64C217.95 161.256 217.482 160.704 217.146 159.984C216.81 159.264 216.642 158.4 216.642 157.392C216.642 156.384 216.81 155.52 217.146 154.8C217.482 154.08 217.95 153.528 218.55 153.144C219.15 152.76 219.858 152.568 220.674 152.568C221.49 152.568 222.198 152.76 222.798 153.144C223.41 153.528 223.878 154.08 224.202 154.8C224.538 155.52 224.706 156.384 224.706 157.392C224.706 158.4 224.538 159.264 224.202 159.984C223.878 160.704 223.41 161.256 222.798 161.64C222.198 162.024 221.49 162.216 220.674 162.216ZM220.674 161.298C221.574 161.298 222.288 161.016 222.816 160.452C223.344 159.876 223.608 159.048 223.608 157.968V156.816C223.608 155.736 223.344 154.914 222.816 154.35C222.288 153.774 221.574 153.486 220.674 153.486C219.786 153.486 219.078 153.774 218.55 154.35C218.022 154.914 217.758 155.736 217.758 156.816V157.968C217.758 159.048 218.022 159.876 218.55 160.452C219.078 161.016 219.786 161.298 220.674 161.298ZM227.618 162H226.592V152.784H227.618V154.44H227.69C227.81 154.14 227.984 153.87 228.212 153.63C228.44 153.378 228.734 153.174 229.094 153.018C229.466 152.862 229.916 152.784 230.444 152.784H231.056V153.792H230.246C229.73 153.792 229.274 153.87 228.878 154.026C228.482 154.182 228.17 154.404 227.942 154.692C227.726 154.968 227.618 155.304 227.618 155.7V162ZM235.866 162H234.03C233.67 162 233.388 161.898 233.184 161.694C232.992 161.478 232.896 161.202 232.896 160.866V153.684H231.294V152.784H232.338C232.59 152.784 232.758 152.73 232.842 152.622C232.938 152.514 232.986 152.334 232.986 152.082V150.21H233.922V152.784H236.01V153.684H233.922V161.1H235.866V162ZM245.135 162H244.091C243.815 162 243.587 161.946 243.407 161.838C243.227 161.718 243.095 161.556 243.011 161.352C242.939 161.148 242.903 160.908 242.903 160.632V160.146L243.317 160.542H242.831C242.627 161.046 242.291 161.454 241.823 161.766C241.355 162.066 240.761 162.216 240.041 162.216C239.069 162.216 238.319 161.976 237.791 161.496C237.263 161.016 236.999 160.35 236.999 159.498C236.999 158.946 237.125 158.472 237.377 158.076C237.641 157.68 238.043 157.374 238.583 157.158C239.135 156.942 239.855 156.834 240.743 156.834H242.867V155.754C242.867 154.986 242.669 154.41 242.273 154.026C241.877 153.642 241.289 153.45 240.509 153.45C239.909 153.45 239.399 153.582 238.979 153.846C238.571 154.11 238.241 154.482 237.989 154.962L237.341 154.422C237.593 153.894 237.977 153.456 238.493 153.108C239.021 152.748 239.705 152.568 240.545 152.568C241.613 152.568 242.435 152.838 243.011 153.378C243.599 153.918 243.893 154.674 243.893 155.646V161.1H245.135V162ZM242.867 157.608H240.707C239.795 157.608 239.129 157.758 238.709 158.058C238.289 158.346 238.079 158.748 238.079 159.264V159.696C238.079 160.224 238.271 160.632 238.655 160.92C239.051 161.196 239.561 161.334 240.185 161.334C240.689 161.334 241.139 161.256 241.535 161.1C241.943 160.932 242.267 160.698 242.507 160.398C242.747 160.086 242.867 159.726 242.867 159.318V157.608ZM242.525 148.644L240.545 151.452L239.879 151.128L241.589 148.176L242.525 148.644ZM250 162H248.164C247.804 162 247.522 161.898 247.318 161.694C247.126 161.478 247.03 161.202 247.03 160.866V153.684H245.428V152.784H246.472C246.724 152.784 246.892 152.73 246.976 152.622C247.072 152.514 247.12 152.334 247.12 152.082V150.21H248.056V152.784H250.144V153.684H248.056V161.1H250V162ZM252.393 150.282C252.153 150.282 251.973 150.222 251.853 150.102C251.745 149.982 251.691 149.826 251.691 149.634V149.454C251.691 149.262 251.745 149.106 251.853 148.986C251.973 148.866 252.153 148.806 252.393 148.806C252.645 148.806 252.825 148.866 252.933 148.986C253.041 149.106 253.095 149.262 253.095 149.454V149.634C253.095 149.826 253.041 149.982 252.933 150.102C252.825 150.222 252.645 150.282 252.393 150.282ZM251.889 162V152.784H252.915V162H251.889ZM257.994 162H256.68C256.308 162 256.026 161.898 255.834 161.694C255.642 161.49 255.546 161.22 255.546 160.884V148.68H256.572V161.1H257.994V162Z" fill="black"/>
<path d="M144.776 228.896C141.32 228.896 138.269 228.277 135.624 227.04C132.979 225.803 130.909 224.032 129.416 221.728C127.923 219.424 127.176 216.651 127.176 213.408V211.616H135.496V213.408C135.496 216.096 136.328 218.123 137.992 219.488C139.656 220.811 141.917 221.472 144.776 221.472C147.677 221.472 149.832 220.896 151.24 219.744C152.691 218.592 153.416 217.12 153.416 215.328C153.416 214.091 153.053 213.088 152.328 212.32C151.645 211.552 150.621 210.933 149.256 210.464C147.933 209.952 146.312 209.483 144.392 209.056L142.92 208.736C139.848 208.053 137.203 207.2 134.984 206.176C132.808 205.109 131.123 203.723 129.928 202.016C128.776 200.309 128.2 198.091 128.2 195.36C128.2 192.629 128.84 190.304 130.12 188.384C131.443 186.421 133.277 184.928 135.624 183.904C138.013 182.837 140.808 182.304 144.008 182.304C147.208 182.304 150.045 182.859 152.52 183.968C155.037 185.035 157 186.656 158.408 188.832C159.859 190.965 160.584 193.653 160.584 196.896V198.816H152.264V196.896C152.264 195.189 151.923 193.824 151.24 192.8C150.6 191.733 149.661 190.965 148.424 190.496C147.187 189.984 145.715 189.728 144.008 189.728C141.448 189.728 139.549 190.219 138.312 191.2C137.117 192.139 136.52 193.44 136.52 195.104C136.52 196.213 136.797 197.152 137.352 197.92C137.949 198.688 138.824 199.328 139.976 199.84C141.128 200.352 142.6 200.8 144.392 201.184L145.864 201.504C149.064 202.187 151.837 203.061 154.184 204.128C156.573 205.195 158.429 206.603 159.752 208.352C161.075 210.101 161.736 212.341 161.736 215.072C161.736 217.803 161.032 220.213 159.624 222.304C158.259 224.352 156.296 225.973 153.736 227.168C151.219 228.32 148.232 228.896 144.776 228.896ZM166.373 240.8V196.256H174.309V200.096H175.461C176.186 198.859 177.317 197.771 178.853 196.832C180.389 195.851 182.586 195.36 185.445 195.36C188.005 195.36 190.373 196 192.549 197.28C194.725 198.517 196.474 200.352 197.797 202.784C199.119 205.216 199.781 208.16 199.781 211.616V212.64C199.781 216.096 199.119 219.04 197.797 221.472C196.474 223.904 194.725 225.76 192.549 227.04C190.373 228.277 188.005 228.896 185.445 228.896C183.525 228.896 181.903 228.661 180.581 228.192C179.301 227.765 178.255 227.211 177.445 226.528C176.677 225.803 176.058 225.077 175.589 224.352H174.437V240.8H166.373ZM183.013 221.856C185.53 221.856 187.599 221.067 189.221 219.488C190.885 217.867 191.717 215.52 191.717 212.448V211.808C191.717 208.736 190.885 206.411 189.221 204.832C187.557 203.211 185.487 202.4 183.013 202.4C180.538 202.4 178.469 203.211 176.805 204.832C175.141 206.411 174.309 208.736 174.309 211.808V212.448C174.309 215.52 175.141 217.867 176.805 219.488C178.469 221.067 180.538 221.856 183.013 221.856ZM205.265 228V196.256H213.201V199.84H214.353C214.822 198.56 215.59 197.621 216.657 197.024C217.766 196.427 219.046 196.128 220.497 196.128H224.337V203.296H220.369C218.321 203.296 216.636 203.851 215.313 204.96C213.99 206.027 213.329 207.691 213.329 209.952V228H205.265ZM242.699 228.896C239.542 228.896 236.704 228.256 234.187 226.976C231.67 225.696 229.686 223.84 228.235 221.408C226.784 218.976 226.059 216.053 226.059 212.64V211.616C226.059 208.203 226.784 205.28 228.235 202.848C229.686 200.416 231.67 198.56 234.187 197.28C236.704 196 239.542 195.36 242.699 195.36C245.856 195.36 248.694 196 251.211 197.28C253.728 198.56 255.712 200.416 257.163 202.848C258.614 205.28 259.339 208.203 259.339 211.616V212.64C259.339 216.053 258.614 218.976 257.163 221.408C255.712 223.84 253.728 225.696 251.211 226.976C248.694 228.256 245.856 228.896 242.699 228.896ZM242.699 221.728C245.174 221.728 247.222 220.939 248.843 219.36C250.464 217.739 251.275 215.435 251.275 212.448V211.808C251.275 208.821 250.464 206.539 248.843 204.96C247.264 203.339 245.216 202.528 242.699 202.528C240.224 202.528 238.176 203.339 236.555 204.96C234.934 206.539 234.123 208.821 234.123 211.808V212.448C234.123 215.435 234.934 217.739 236.555 219.36C238.176 220.939 240.224 221.728 242.699 221.728ZM279.775 228.896C276.703 228.896 273.908 228.256 271.391 226.976C268.916 225.696 266.953 223.84 265.503 221.408C264.052 218.976 263.327 216.032 263.327 212.576V211.68C263.327 208.224 264.052 205.28 265.503 202.848C266.953 200.416 268.916 198.56 271.391 197.28C273.908 196 276.703 195.36 279.775 195.36C282.804 195.36 285.407 195.893 287.583 196.96C289.759 198.027 291.508 199.499 292.831 201.376C294.196 203.211 295.092 205.301 295.519 207.648L287.711 209.312C287.54 208.032 287.156 206.88 286.559 205.856C285.961 204.832 285.108 204.021 283.999 203.424C282.932 202.827 281.588 202.528 279.967 202.528C278.345 202.528 276.873 202.891 275.551 203.616C274.271 204.299 273.247 205.344 272.479 206.752C271.753 208.117 271.391 209.803 271.391 211.808V212.448C271.391 214.453 271.753 216.16 272.479 217.568C273.247 218.933 274.271 219.979 275.551 220.704C276.873 221.387 278.345 221.728 279.967 221.728C282.399 221.728 284.233 221.109 285.471 219.872C286.751 218.592 287.561 216.928 287.903 214.88L295.711 216.736C295.156 218.997 294.196 221.067 292.831 222.944C291.508 224.779 289.759 226.229 287.583 227.296C285.407 228.363 282.804 228.896 279.775 228.896ZM300.442 228V183.2H308.506V207.968H309.658L320.154 196.256H330.65L315.994 211.616L331.162 228H320.794L309.658 215.392H308.506V228H300.442ZM347.174 228.896C344.017 228.896 341.222 228.235 338.79 226.912C336.401 225.547 334.523 223.648 333.158 221.216C331.835 218.741 331.174 215.84 331.174 212.512V211.744C331.174 208.416 331.835 205.536 333.158 203.104C334.481 200.629 336.337 198.731 338.726 197.408C341.115 196.043 343.889 195.36 347.046 195.36C350.161 195.36 352.87 196.064 355.174 197.472C357.478 198.837 359.27 200.757 360.55 203.232C361.83 205.664 362.47 208.501 362.47 211.744V214.496H339.366C339.451 216.672 340.262 218.443 341.798 219.808C343.334 221.173 345.211 221.856 347.43 221.856C349.691 221.856 351.355 221.365 352.422 220.384C353.489 219.403 354.299 218.315 354.854 217.12L361.446 220.576C360.849 221.685 359.974 222.901 358.822 224.224C357.713 225.504 356.219 226.613 354.342 227.552C352.465 228.448 350.075 228.896 347.174 228.896ZM339.43 208.48H354.278C354.107 206.645 353.361 205.173 352.038 204.064C350.758 202.955 349.073 202.4 346.982 202.4C344.806 202.4 343.078 202.955 341.798 204.064C340.518 205.173 339.729 206.645 339.43 208.48ZM378.825 228C376.734 228 375.028 227.36 373.705 226.08C372.425 224.757 371.785 223.008 371.785 220.832V202.912H363.849V196.256H371.785V186.4H379.849V196.256H388.553V202.912H379.849V219.424C379.849 220.704 380.446 221.344 381.641 221.344H387.785V228H378.825ZM423.559 228.896C420.103 228.896 417.052 228.277 414.407 227.04C411.761 225.803 409.692 224.032 408.199 221.728C406.705 219.424 405.959 216.651 405.959 213.408V211.616H414.279V213.408C414.279 216.096 415.111 218.123 416.775 219.488C418.439 220.811 420.7 221.472 423.559 221.472C426.46 221.472 428.615 220.896 430.023 219.744C431.473 218.592 432.199 217.12 432.199 215.328C432.199 214.091 431.836 213.088 431.111 212.32C430.428 211.552 429.404 210.933 428.039 210.464C426.716 209.952 425.095 209.483 423.175 209.056L421.703 208.736C418.631 208.053 415.985 207.2 413.767 206.176C411.591 205.109 409.905 203.723 408.711 202.016C407.559 200.309 406.983 198.091 406.983 195.36C406.983 192.629 407.623 190.304 408.903 188.384C410.225 186.421 412.06 184.928 414.407 183.904C416.796 182.837 419.591 182.304 422.791 182.304C425.991 182.304 428.828 182.859 431.303 183.968C433.82 185.035 435.783 186.656 437.191 188.832C438.641 190.965 439.367 193.653 439.367 196.896V198.816H431.047V196.896C431.047 195.189 430.705 193.824 430.023 192.8C429.383 191.733 428.444 190.965 427.207 190.496C425.969 189.984 424.497 189.728 422.791 189.728C420.231 189.728 418.332 190.219 417.095 191.2C415.9 192.139 415.303 193.44 415.303 195.104C415.303 196.213 415.58 197.152 416.135 197.92C416.732 198.688 417.607 199.328 418.759 199.84C419.911 200.352 421.383 200.8 423.175 201.184L424.647 201.504C427.847 202.187 430.62 203.061 432.967 204.128C435.356 205.195 437.212 206.603 438.535 208.352C439.857 210.101 440.519 212.341 440.519 215.072C440.519 217.803 439.815 220.213 438.407 222.304C437.041 224.352 435.079 225.973 432.519 227.168C430.001 228.32 427.015 228.896 423.559 228.896ZM459.619 228.896C456.462 228.896 453.667 228.235 451.235 226.912C448.846 225.547 446.968 223.648 445.603 221.216C444.28 218.741 443.619 215.84 443.619 212.512V211.744C443.619 208.416 444.28 205.536 445.603 203.104C446.926 200.629 448.782 198.731 451.171 197.408C453.56 196.043 456.334 195.36 459.491 195.36C462.606 195.36 465.315 196.064 467.619 197.472C469.923 198.837 471.715 200.757 472.995 203.232C474.275 205.664 474.915 208.501 474.915 211.744V214.496H451.811C451.896 216.672 452.707 218.443 454.243 219.808C455.779 221.173 457.656 221.856 459.875 221.856C462.136 221.856 463.8 221.365 464.867 220.384C465.934 219.403 466.744 218.315 467.299 217.12L473.891 220.576C473.294 221.685 472.419 222.901 471.267 224.224C470.158 225.504 468.664 226.613 466.787 227.552C464.91 228.448 462.52 228.896 459.619 228.896ZM451.875 208.48H466.723C466.552 206.645 465.806 205.173 464.483 204.064C463.203 202.955 461.518 202.4 459.427 202.4C457.251 202.4 455.523 202.955 454.243 204.064C452.963 205.173 452.174 206.645 451.875 208.48ZM480.173 228V183.2H488.237V228H480.173ZM509.716 228.896C506.559 228.896 503.764 228.235 501.332 226.912C498.943 225.547 497.066 223.648 495.7 221.216C494.378 218.741 493.716 215.84 493.716 212.512V211.744C493.716 208.416 494.378 205.536 495.7 203.104C497.023 200.629 498.879 198.731 501.268 197.408C503.658 196.043 506.431 195.36 509.588 195.36C512.703 195.36 515.412 196.064 517.716 197.472C520.02 198.837 521.812 200.757 523.092 203.232C524.372 205.664 525.012 208.501 525.012 211.744V214.496H501.908C501.994 216.672 502.804 218.443 504.34 219.808C505.876 221.173 507.754 221.856 509.972 221.856C512.234 221.856 513.898 221.365 514.964 220.384C516.031 219.403 516.842 218.315 517.396 217.12L523.988 220.576C523.391 221.685 522.516 222.901 521.364 224.224C520.255 225.504 518.762 226.613 516.884 227.552C515.007 228.448 512.618 228.896 509.716 228.896ZM501.972 208.48H516.82C516.65 206.645 515.903 205.173 514.58 204.064C513.3 202.955 511.615 202.4 509.524 202.4C507.348 202.4 505.62 202.955 504.34 204.064C503.06 205.173 502.271 206.645 501.972 208.48ZM545.182 228.896C542.11 228.896 539.315 228.256 536.798 226.976C534.323 225.696 532.361 223.84 530.91 221.408C529.459 218.976 528.734 216.032 528.734 212.576V211.68C528.734 208.224 529.459 205.28 530.91 202.848C532.361 200.416 534.323 198.56 536.798 197.28C539.315 196 542.11 195.36 545.182 195.36C548.211 195.36 550.814 195.893 552.99 196.96C555.166 198.027 556.915 199.499 558.238 201.376C559.603 203.211 560.499 205.301 560.926 207.648L553.118 209.312C552.947 208.032 552.563 206.88 551.966 205.856C551.369 204.832 550.515 204.021 549.406 203.424C548.339 202.827 546.995 202.528 545.374 202.528C543.753 202.528 542.281 202.891 540.958 203.616C539.678 204.299 538.654 205.344 537.886 206.752C537.161 208.117 536.798 209.803 536.798 211.808V212.448C536.798 214.453 537.161 216.16 537.886 217.568C538.654 218.933 539.678 219.979 540.958 220.704C542.281 221.387 543.753 221.728 545.374 221.728C547.806 221.728 549.641 221.109 550.878 219.872C552.158 218.592 552.969 216.928 553.31 214.88L561.118 216.736C560.563 218.997 559.603 221.067 558.238 222.944C556.915 224.779 555.166 226.229 552.99 227.296C550.814 228.363 548.211 228.896 545.182 228.896ZM576.947 228C574.857 228 573.15 227.36 571.827 226.08C570.547 224.757 569.907 223.008 569.907 220.832V202.912H561.971V196.256H569.907V186.4H577.971V196.256H586.675V202.912H577.971V219.424C577.971 220.704 578.569 221.344 579.763 221.344H585.907V228H576.947Z" fill="url(#paint0_linear_399_1332)"/>
<defs>
<linearGradient id="paint0_linear_399_1332" x1="125" y1="206" x2="727" y2="206" gradientUnits="userSpaceOnUse">
<stop offset="0.182692" stop-color="#58286A"/>
<stop offset="0.600962" stop-color="#DBA0E7"/>
<stop offset="0.826923" stop-color="#C29CCB"/>
</linearGradient>
</defs>
</svg>
