<svg width="1280" height="1486" viewBox="0 0 1280 1486" fill="none" xmlns="http://www.w3.org/2000/svg">
<path d="M423.626 51V25.8H428.378V51H423.626ZM432.182 51V33.144H436.646V35.088H437.294C437.606 34.488 438.122 33.972 438.842 33.54C439.562 33.084 440.51 32.856 441.686 32.856C442.958 32.856 443.978 33.108 444.746 33.612C445.514 34.092 446.102 34.728 446.51 35.52H447.158C447.566 34.752 448.142 34.116 448.886 33.612C449.63 33.108 450.686 32.856 452.054 32.856C453.158 32.856 454.154 33.096 455.042 33.576C455.954 34.032 456.674 34.74 457.202 35.7C457.754 36.636 458.03 37.824 458.03 39.264V51H453.494V39.588C453.494 38.604 453.242 37.872 452.738 37.392C452.234 36.888 451.526 36.636 450.614 36.636C449.582 36.636 448.778 36.972 448.202 37.644C447.65 38.292 447.374 39.228 447.374 40.452V51H442.838V39.588C442.838 38.604 442.586 37.872 442.082 37.392C441.578 36.888 440.87 36.636 439.958 36.636C438.926 36.636 438.122 36.972 437.546 37.644C436.994 38.292 436.718 39.228 436.718 40.452V51H432.182ZM461.829 58.2V33.144H466.293V35.304H466.941C467.349 34.608 467.985 33.996 468.849 33.468C469.713 32.916 470.949 32.64 472.557 32.64C473.997 32.64 475.329 33 476.553 33.72C477.777 34.416 478.761 35.448 479.505 36.816C480.249 38.184 480.621 39.84 480.621 41.784V42.36C480.621 44.304 480.249 45.96 479.505 47.328C478.761 48.696 477.777 49.74 476.553 50.46C475.329 51.156 473.997 51.504 472.557 51.504C471.477 51.504 470.565 51.372 469.821 51.108C469.101 50.868 468.513 50.556 468.057 50.172C467.625 49.764 467.277 49.356 467.013 48.948H466.365V58.2H461.829ZM471.189 47.544C472.605 47.544 473.769 47.1 474.681 46.212C475.617 45.3 476.085 43.98 476.085 42.252V41.892C476.085 40.164 475.617 38.856 474.681 37.968C473.745 37.056 472.581 36.6 471.189 36.6C469.797 36.6 468.633 37.056 467.697 37.968C466.761 38.856 466.293 40.164 466.293 41.892V42.252C466.293 43.98 466.761 45.3 467.697 46.212C468.633 47.1 469.797 47.544 471.189 47.544ZM483.706 51V33.144H488.17V35.16H488.818C489.082 34.44 489.514 33.912 490.114 33.576C490.738 33.24 491.458 33.072 492.274 33.072H494.434V37.104H492.202C491.05 37.104 490.102 37.416 489.358 38.04C488.614 38.64 488.242 39.576 488.242 40.848V51H483.706ZM496.899 51V33.144H501.435V51H496.899ZM499.167 31.056C498.351 31.056 497.655 30.792 497.079 30.264C496.527 29.736 496.251 29.04 496.251 28.176C496.251 27.312 496.527 26.616 497.079 26.088C497.655 25.56 498.351 25.296 499.167 25.296C500.007 25.296 500.703 25.56 501.255 26.088C501.807 26.616 502.083 27.312 502.083 28.176C502.083 29.04 501.807 29.736 501.255 30.264C500.703 30.792 500.007 31.056 499.167 31.056ZM505.382 51V33.144H509.846V35.088H510.494C510.806 34.488 511.322 33.972 512.042 33.54C512.762 33.084 513.71 32.856 514.886 32.856C516.158 32.856 517.178 33.108 517.946 33.612C518.714 34.092 519.302 34.728 519.71 35.52H520.358C520.766 34.752 521.342 34.116 522.086 33.612C522.83 33.108 523.886 32.856 525.254 32.856C526.358 32.856 527.354 33.096 528.242 33.576C529.154 34.032 529.874 34.74 530.402 35.7C530.954 36.636 531.23 37.824 531.23 39.264V51H526.694V39.588C526.694 38.604 526.442 37.872 525.938 37.392C525.434 36.888 524.726 36.636 523.814 36.636C522.782 36.636 521.978 36.972 521.402 37.644C520.85 38.292 520.574 39.228 520.574 40.452V51H516.038V39.588C516.038 38.604 515.786 37.872 515.282 37.392C514.778 36.888 514.07 36.636 513.158 36.636C512.126 36.636 511.322 36.972 510.746 37.644C510.194 38.292 509.918 39.228 509.918 40.452V51H505.382ZM535.028 51V33.144H539.564V51H535.028ZM534.56 31.128L537.224 25.8H542.336L538.52 31.128H534.56ZM559.707 51.504C557.931 51.504 556.359 51.132 554.991 50.388C553.647 49.62 552.591 48.552 551.823 47.184C551.079 45.792 550.707 44.16 550.707 42.288V41.856C550.707 39.984 551.079 38.364 551.823 36.996C552.567 35.604 553.611 34.536 554.955 33.792C556.299 33.024 557.859 32.64 559.635 32.64C561.387 32.64 562.911 33.036 564.207 33.828C565.503 34.596 566.511 35.676 567.231 37.068C567.951 38.436 568.311 40.032 568.311 41.856V43.404H555.315C555.363 44.628 555.819 45.624 556.683 46.392C557.547 47.16 558.603 47.544 559.851 47.544C561.123 47.544 562.059 47.268 562.659 46.716C563.259 46.164 563.715 45.552 564.027 44.88L567.735 46.824C567.399 47.448 566.907 48.132 566.259 48.876C565.635 49.596 564.795 50.22 563.739 50.748C562.683 51.252 561.339 51.504 559.707 51.504ZM555.351 40.02H563.703C563.607 38.988 563.187 38.16 562.443 37.536C561.723 36.912 560.775 36.6 559.599 36.6C558.375 36.6 557.403 36.912 556.683 37.536C555.963 38.16 555.519 38.988 555.351 40.02ZM571.269 51V33.144H575.733V35.484H576.381C576.669 34.86 577.209 34.272 578.001 33.72C578.793 33.144 579.993 32.856 581.601 32.856C582.993 32.856 584.205 33.18 585.237 33.828C586.293 34.452 587.109 35.328 587.685 36.456C588.261 37.56 588.549 38.856 588.549 40.344V51H584.013V40.704C584.013 39.36 583.677 38.352 583.005 37.68C582.357 37.008 581.421 36.672 580.197 36.672C578.805 36.672 577.725 37.14 576.957 38.076C576.189 38.988 575.805 40.272 575.805 41.928V51H571.269ZM608.857 51.504C606.961 51.504 605.281 51.168 603.817 50.496C602.353 49.824 601.201 48.864 600.361 47.616C599.545 46.344 599.137 44.844 599.137 43.116V42.468H603.745V42.972C603.745 44.316 604.213 45.396 605.149 46.212C606.085 47.004 607.321 47.4 608.857 47.4C610.417 47.4 611.617 47.028 612.457 46.284C613.321 45.54 613.753 44.604 613.753 43.476V43.116C613.753 42.348 613.561 41.724 613.177 41.244C612.793 40.764 612.277 40.416 611.629 40.2C610.981 39.96 610.249 39.84 609.433 39.84H604.393V34.8L612.529 30.48V29.904H599.785V25.8H617.641V31.92L610.045 35.952V36.528H611.377C612.505 36.528 613.597 36.756 614.653 37.212C615.733 37.668 616.621 38.376 617.317 39.336C618.013 40.272 618.361 41.496 618.361 43.008V43.44C618.361 45.072 617.965 46.5 617.173 47.724C616.381 48.924 615.265 49.86 613.825 50.532C612.409 51.18 610.753 51.504 608.857 51.504ZM636.732 51.504C634.404 51.504 632.496 51 631.008 49.992C629.52 48.984 628.62 47.544 628.308 45.672L632.484 44.592C632.652 45.432 632.928 46.092 633.312 46.572C633.72 47.052 634.212 47.4 634.788 47.616C635.388 47.808 636.036 47.904 636.732 47.904C637.788 47.904 638.568 47.724 639.072 47.364C639.576 46.98 639.828 46.512 639.828 45.96C639.828 45.408 639.588 44.988 639.108 44.7C638.628 44.388 637.86 44.136 636.804 43.944L635.796 43.764C634.548 43.524 633.408 43.2 632.376 42.792C631.344 42.36 630.516 41.772 629.892 41.028C629.268 40.284 628.956 39.324 628.956 38.148C628.956 36.372 629.604 35.016 630.9 34.08C632.196 33.12 633.9 32.64 636.012 32.64C638.004 32.64 639.66 33.084 640.98 33.972C642.3 34.86 643.164 36.024 643.572 37.464L639.36 38.76C639.168 37.848 638.772 37.2 638.172 36.816C637.596 36.432 636.876 36.24 636.012 36.24C635.148 36.24 634.488 36.396 634.032 36.708C633.576 36.996 633.348 37.404 633.348 37.932C633.348 38.508 633.588 38.94 634.068 39.228C634.548 39.492 635.196 39.696 636.012 39.84L637.02 40.02C638.364 40.26 639.576 40.584 640.656 40.992C641.76 41.376 642.624 41.94 643.248 42.684C643.896 43.404 644.22 44.388 644.22 45.636C644.22 47.508 643.536 48.96 642.168 49.992C640.824 51 639.012 51.504 636.732 51.504ZM647.115 51V33.144H651.651V51H647.115ZM649.383 31.056C648.567 31.056 647.871 30.792 647.295 30.264C646.743 29.736 646.467 29.04 646.467 28.176C646.467 27.312 646.743 26.616 647.295 26.088C647.871 25.56 648.567 25.296 649.383 25.296C650.223 25.296 650.919 25.56 651.471 26.088C652.023 26.616 652.299 27.312 652.299 28.176C652.299 29.04 652.023 29.736 651.471 30.264C650.919 30.792 650.223 31.056 649.383 31.056ZM655.597 51V33.144H660.061V35.088H660.709C661.021 34.488 661.537 33.972 662.257 33.54C662.977 33.084 663.925 32.856 665.101 32.856C666.373 32.856 667.393 33.108 668.161 33.612C668.929 34.092 669.517 34.728 669.925 35.52H670.573C670.981 34.752 671.557 34.116 672.301 33.612C673.045 33.108 674.101 32.856 675.469 32.856C676.573 32.856 677.569 33.096 678.457 33.576C679.369 34.032 680.089 34.74 680.617 35.7C681.169 36.636 681.445 37.824 681.445 39.264V51H676.909V39.588C676.909 38.604 676.657 37.872 676.153 37.392C675.649 36.888 674.941 36.636 674.029 36.636C672.997 36.636 672.193 36.972 671.617 37.644C671.065 38.292 670.789 39.228 670.789 40.452V51H666.253V39.588C666.253 38.604 666.001 37.872 665.497 37.392C664.993 36.888 664.285 36.636 663.373 36.636C662.341 36.636 661.537 36.972 660.961 37.644C660.409 38.292 660.133 39.228 660.133 40.452V51H655.597ZM685.244 58.2V33.144H689.708V35.304H690.356C690.764 34.608 691.4 33.996 692.264 33.468C693.128 32.916 694.364 32.64 695.972 32.64C697.412 32.64 698.744 33 699.968 33.72C701.192 34.416 702.176 35.448 702.92 36.816C703.664 38.184 704.036 39.84 704.036 41.784V42.36C704.036 44.304 703.664 45.96 702.92 47.328C702.176 48.696 701.192 49.74 699.968 50.46C698.744 51.156 697.412 51.504 695.972 51.504C694.892 51.504 693.98 51.372 693.236 51.108C692.516 50.868 691.928 50.556 691.472 50.172C691.04 49.764 690.692 49.356 690.428 48.948H689.78V58.2H685.244ZM694.604 47.544C696.02 47.544 697.184 47.1 698.096 46.212C699.032 45.3 699.5 43.98 699.5 42.252V41.892C699.5 40.164 699.032 38.856 698.096 37.968C697.16 37.056 695.996 36.6 694.604 36.6C693.212 36.6 692.048 37.056 691.112 37.968C690.176 38.856 689.708 40.164 689.708 41.892V42.252C689.708 43.98 690.176 45.3 691.112 46.212C692.048 47.1 693.212 47.544 694.604 47.544ZM707.121 51V25.8H711.657V51H707.121ZM723.739 51.504C721.963 51.504 720.391 51.132 719.023 50.388C717.679 49.62 716.623 48.552 715.855 47.184C715.111 45.792 714.739 44.16 714.739 42.288V41.856C714.739 39.984 715.111 38.364 715.855 36.996C716.599 35.604 717.643 34.536 718.987 33.792C720.331 33.024 721.891 32.64 723.667 32.64C725.419 32.64 726.943 33.036 728.239 33.828C729.535 34.596 730.543 35.676 731.263 37.068C731.983 38.436 732.343 40.032 732.343 41.856V43.404H719.347C719.395 44.628 719.851 45.624 720.715 46.392C721.579 47.16 722.635 47.544 723.883 47.544C725.155 47.544 726.091 47.268 726.691 46.716C727.291 46.164 727.747 45.552 728.059 44.88L731.767 46.824C731.431 47.448 730.939 48.132 730.291 48.876C729.667 49.596 728.827 50.22 727.771 50.748C726.715 51.252 725.371 51.504 723.739 51.504ZM719.383 40.02H727.735C727.639 38.988 727.219 38.16 726.475 37.536C725.755 36.912 724.807 36.6 723.631 36.6C722.407 36.6 721.435 36.912 720.715 37.536C719.995 38.16 719.551 38.988 719.383 40.02ZM742.717 51.504C740.389 51.504 738.481 51 736.993 49.992C735.505 48.984 734.605 47.544 734.293 45.672L738.469 44.592C738.637 45.432 738.913 46.092 739.297 46.572C739.705 47.052 740.197 47.4 740.773 47.616C741.373 47.808 742.021 47.904 742.717 47.904C743.773 47.904 744.553 47.724 745.057 47.364C745.561 46.98 745.813 46.512 745.813 45.96C745.813 45.408 745.573 44.988 745.093 44.7C744.613 44.388 743.845 44.136 742.789 43.944L741.781 43.764C740.533 43.524 739.393 43.2 738.361 42.792C737.329 42.36 736.501 41.772 735.877 41.028C735.253 40.284 734.941 39.324 734.941 38.148C734.941 36.372 735.589 35.016 736.885 34.08C738.181 33.12 739.885 32.64 741.997 32.64C743.989 32.64 745.645 33.084 746.965 33.972C748.285 34.86 749.149 36.024 749.557 37.464L745.345 38.76C745.153 37.848 744.757 37.2 744.157 36.816C743.581 36.432 742.861 36.24 741.997 36.24C741.133 36.24 740.473 36.396 740.017 36.708C739.561 36.996 739.333 37.404 739.333 37.932C739.333 38.508 739.573 38.94 740.053 39.228C740.533 39.492 741.181 39.696 741.997 39.84L743.005 40.02C744.349 40.26 745.561 40.584 746.641 40.992C747.745 41.376 748.609 41.94 749.233 42.684C749.881 43.404 750.205 44.388 750.205 45.636C750.205 47.508 749.521 48.96 748.153 49.992C746.809 51 744.997 51.504 742.717 51.504ZM761.16 58.2V33.144H765.624V35.304H766.272C766.68 34.608 767.316 33.996 768.18 33.468C769.044 32.916 770.28 32.64 771.888 32.64C773.328 32.64 774.66 33 775.884 33.72C777.108 34.416 778.092 35.448 778.836 36.816C779.58 38.184 779.952 39.84 779.952 41.784V42.36C779.952 44.304 779.58 45.96 778.836 47.328C778.092 48.696 777.108 49.74 775.884 50.46C774.66 51.156 773.328 51.504 771.888 51.504C770.808 51.504 769.896 51.372 769.152 51.108C768.432 50.868 767.844 50.556 767.388 50.172C766.956 49.764 766.608 49.356 766.344 48.948H765.696V58.2H761.16ZM770.52 47.544C771.936 47.544 773.1 47.1 774.012 46.212C774.948 45.3 775.416 43.98 775.416 42.252V41.892C775.416 40.164 774.948 38.856 774.012 37.968C773.076 37.056 771.912 36.6 770.52 36.6C769.128 36.6 767.964 37.056 767.028 37.968C766.092 38.856 765.624 40.164 765.624 41.892V42.252C765.624 43.98 766.092 45.3 767.028 46.212C767.964 47.1 769.128 47.544 770.52 47.544ZM788.581 51.504C787.309 51.504 786.169 51.288 785.161 50.856C784.153 50.4 783.349 49.752 782.749 48.912C782.173 48.048 781.885 47.004 781.885 45.78C781.885 44.556 782.173 43.536 782.749 42.72C783.349 41.88 784.165 41.256 785.197 40.848C786.253 40.416 787.453 40.2 788.797 40.2H793.693V39.192C793.693 38.352 793.429 37.668 792.901 37.14C792.373 36.588 791.533 36.312 790.381 36.312C789.253 36.312 788.413 36.576 787.861 37.104C787.309 37.608 786.949 38.268 786.781 39.084L782.605 37.68C782.893 36.768 783.349 35.94 783.973 35.196C784.621 34.428 785.473 33.816 786.529 33.36C787.609 32.88 788.917 32.64 790.453 32.64C792.805 32.64 794.665 33.228 796.033 34.404C797.401 35.58 798.085 37.284 798.085 39.516V46.176C798.085 46.896 798.421 47.256 799.093 47.256H800.533V51H797.509C796.621 51 795.889 50.784 795.313 50.352C794.737 49.92 794.449 49.344 794.449 48.624V48.588H793.765C793.669 48.876 793.453 49.26 793.117 49.74C792.781 50.196 792.253 50.604 791.533 50.964C790.813 51.324 789.829 51.504 788.581 51.504ZM789.373 47.832C790.645 47.832 791.677 47.484 792.469 46.788C793.285 46.068 793.693 45.12 793.693 43.944V43.584H789.121C788.281 43.584 787.621 43.764 787.141 44.124C786.661 44.484 786.421 44.988 786.421 45.636C786.421 46.284 786.673 46.812 787.177 47.22C787.681 47.628 788.413 47.832 789.373 47.832ZM810.045 51.504C807.717 51.504 805.809 51 804.321 49.992C802.833 48.984 801.933 47.544 801.621 45.672L805.797 44.592C805.965 45.432 806.241 46.092 806.625 46.572C807.033 47.052 807.525 47.4 808.101 47.616C808.701 47.808 809.349 47.904 810.045 47.904C811.101 47.904 811.881 47.724 812.385 47.364C812.889 46.98 813.141 46.512 813.141 45.96C813.141 45.408 812.901 44.988 812.421 44.7C811.941 44.388 811.173 44.136 810.117 43.944L809.109 43.764C807.861 43.524 806.721 43.2 805.689 42.792C804.657 42.36 803.829 41.772 803.205 41.028C802.581 40.284 802.269 39.324 802.269 38.148C802.269 36.372 802.917 35.016 804.213 34.08C805.509 33.12 807.213 32.64 809.325 32.64C811.317 32.64 812.973 33.084 814.293 33.972C815.613 34.86 816.477 36.024 816.885 37.464L812.673 38.76C812.481 37.848 812.085 37.2 811.485 36.816C810.909 36.432 810.189 36.24 809.325 36.24C808.461 36.24 807.801 36.396 807.345 36.708C806.889 36.996 806.661 37.404 806.661 37.932C806.661 38.508 806.901 38.94 807.381 39.228C807.861 39.492 808.509 39.696 809.325 39.84L810.333 40.02C811.677 40.26 812.889 40.584 813.969 40.992C815.073 41.376 815.937 41.94 816.561 42.684C817.209 43.404 817.533 44.388 817.533 45.636C817.533 47.508 816.849 48.96 815.481 49.992C814.137 51 812.325 51.504 810.045 51.504ZM828.924 51.504C827.148 51.504 825.552 51.144 824.136 50.424C822.72 49.704 821.604 48.66 820.788 47.292C819.972 45.924 819.564 44.28 819.564 42.36V41.784C819.564 39.864 819.972 38.22 820.788 36.852C821.604 35.484 822.72 34.44 824.136 33.72C825.552 33 827.148 32.64 828.924 32.64C830.7 32.64 832.296 33 833.712 33.72C835.128 34.44 836.244 35.484 837.06 36.852C837.876 38.22 838.284 39.864 838.284 41.784V42.36C838.284 44.28 837.876 45.924 837.06 47.292C836.244 48.66 835.128 49.704 833.712 50.424C832.296 51.144 830.7 51.504 828.924 51.504ZM828.924 47.472C830.316 47.472 831.468 47.028 832.38 46.14C833.292 45.228 833.748 43.932 833.748 42.252V41.892C833.748 40.212 833.292 38.928 832.38 38.04C831.492 37.128 830.34 36.672 828.924 36.672C827.532 36.672 826.38 37.128 825.468 38.04C824.556 38.928 824.1 40.212 824.1 41.892V42.252C824.1 43.932 824.556 45.228 825.468 46.14C826.38 47.028 827.532 47.472 828.924 47.472ZM848.807 51.504C846.479 51.504 844.571 51 843.083 49.992C841.595 48.984 840.695 47.544 840.383 45.672L844.559 44.592C844.727 45.432 845.003 46.092 845.387 46.572C845.795 47.052 846.287 47.4 846.863 47.616C847.463 47.808 848.111 47.904 848.807 47.904C849.863 47.904 850.643 47.724 851.147 47.364C851.651 46.98 851.903 46.512 851.903 45.96C851.903 45.408 851.663 44.988 851.183 44.7C850.703 44.388 849.935 44.136 848.879 43.944L847.871 43.764C846.623 43.524 845.483 43.2 844.451 42.792C843.419 42.36 842.591 41.772 841.967 41.028C841.343 40.284 841.031 39.324 841.031 38.148C841.031 36.372 841.679 35.016 842.975 34.08C844.271 33.12 845.975 32.64 848.087 32.64C850.079 32.64 851.735 33.084 853.055 33.972C854.375 34.86 855.239 36.024 855.647 37.464L851.435 38.76C851.243 37.848 850.847 37.2 850.247 36.816C849.671 36.432 848.951 36.24 848.087 36.24C847.223 36.24 846.563 36.396 846.107 36.708C845.651 36.996 845.423 37.404 845.423 37.932C845.423 38.508 845.663 38.94 846.143 39.228C846.623 39.492 847.271 39.696 848.087 39.84L849.095 40.02C850.439 40.26 851.651 40.584 852.731 40.992C853.835 41.376 854.699 41.94 855.323 42.684C855.971 43.404 856.295 44.388 856.295 45.636C856.295 47.508 855.611 48.96 854.243 49.992C852.899 51 851.087 51.504 848.807 51.504Z" fill="url(#paint0_linear_394_842)"/>
<defs>
<linearGradient id="paint0_linear_394_842" x1="417" y1="38.5" x2="862" y2="38.5" gradientUnits="userSpaceOnUse">
<stop offset="0.182692" stop-color="#58286A"/>
<stop offset="0.600962" stop-color="#DBA0E7"/>
<stop offset="0.826923" stop-color="#C29CCB"/>
</linearGradient>
</defs>
</svg>
