<svg width="1280" height="1180" viewBox="0 0 1280 1180" fill="none" xmlns="http://www.w3.org/2000/svg">
<path d="M483.261 652V626.8H499.461V631.12H488.013V637.132H498.453V641.452H488.013V647.68H499.677V652H483.261ZM502.259 652V626.8H506.795V652H502.259ZM518.877 652.504C517.101 652.504 515.529 652.132 514.161 651.388C512.817 650.62 511.761 649.552 510.993 648.184C510.249 646.792 509.877 645.16 509.877 643.288V642.856C509.877 640.984 510.249 639.364 510.993 637.996C511.737 636.604 512.781 635.536 514.125 634.792C515.469 634.024 517.029 633.64 518.805 633.64C520.557 633.64 522.081 634.036 523.377 634.828C524.673 635.596 525.681 636.676 526.401 638.068C527.121 639.436 527.481 641.032 527.481 642.856V644.404H514.485C514.533 645.628 514.989 646.624 515.853 647.392C516.717 648.16 517.773 648.544 519.021 648.544C520.293 648.544 521.229 648.268 521.829 647.716C522.429 647.164 522.885 646.552 523.197 645.88L526.905 647.824C526.569 648.448 526.077 649.132 525.429 649.876C524.805 650.596 523.965 651.22 522.909 651.748C521.853 652.252 520.509 652.504 518.877 652.504ZM514.521 641.02H522.873C522.777 639.988 522.357 639.16 521.613 638.536C520.893 637.912 519.945 637.6 518.769 637.6C517.545 637.6 516.573 637.912 515.853 638.536C515.133 639.16 514.689 639.988 514.521 641.02ZM529.574 643.144V642.568C529.574 640.696 529.946 639.1 530.69 637.78C531.434 636.436 532.418 635.416 533.642 634.72C534.89 634 536.246 633.64 537.71 633.64C539.342 633.64 540.578 633.928 541.418 634.504C542.258 635.08 542.87 635.68 543.254 636.304H543.902V634.144H548.366V655.168C548.366 656.392 548.006 657.364 547.286 658.084C546.566 658.828 545.606 659.2 544.406 659.2H532.454V655.24H542.822C543.494 655.24 543.83 654.88 543.83 654.16V649.516H543.182C542.942 649.9 542.606 650.296 542.174 650.704C541.742 651.088 541.166 651.412 540.446 651.676C539.726 651.94 538.814 652.072 537.71 652.072C536.246 652.072 534.89 651.724 533.642 651.028C532.418 650.308 531.434 649.288 530.69 647.968C529.946 646.624 529.574 645.016 529.574 643.144ZM539.006 648.112C540.398 648.112 541.562 647.668 542.498 646.78C543.434 645.892 543.902 644.644 543.902 643.036V642.676C543.902 641.044 543.434 639.796 542.498 638.932C541.586 638.044 540.422 637.6 539.006 637.6C537.614 637.6 536.45 638.044 535.514 638.932C534.578 639.796 534.11 641.044 534.11 642.676V643.036C534.11 644.644 534.578 645.892 535.514 646.78C536.45 647.668 537.614 648.112 539.006 648.112ZM552.315 652V634.144H556.851V652H552.315ZM551.847 632.128L554.511 626.8H559.623L555.807 632.128H551.847ZM575.699 652C574.523 652 573.563 651.64 572.819 650.92C572.099 650.176 571.739 649.192 571.739 647.968V637.888H567.275V634.144H571.739V628.6H576.275V634.144H581.171V637.888H576.275V647.176C576.275 647.896 576.611 648.256 577.283 648.256H580.739V652H575.699ZM591 652.288C589.608 652.288 588.384 651.976 587.328 651.352C586.296 650.704 585.492 649.816 584.916 648.688C584.34 647.56 584.052 646.264 584.052 644.8V634.144H588.588V644.44C588.588 645.784 588.912 646.792 589.56 647.464C590.232 648.136 591.18 648.472 592.404 648.472C593.796 648.472 594.876 648.016 595.644 647.104C596.412 646.168 596.796 644.872 596.796 643.216V634.144H601.332V652H596.868V649.66H596.22C595.932 650.26 595.392 650.848 594.6 651.424C593.808 652 592.608 652.288 591 652.288ZM613.361 659.2V634.144H617.825V636.304H618.473C618.881 635.608 619.517 634.996 620.381 634.468C621.245 633.916 622.481 633.64 624.089 633.64C625.529 633.64 626.861 634 628.085 634.72C629.309 635.416 630.293 636.448 631.037 637.816C631.781 639.184 632.153 640.84 632.153 642.784V643.36C632.153 645.304 631.781 646.96 631.037 648.328C630.293 649.696 629.309 650.74 628.085 651.46C626.861 652.156 625.529 652.504 624.089 652.504C623.009 652.504 622.097 652.372 621.353 652.108C620.633 651.868 620.045 651.556 619.589 651.172C619.157 650.764 618.809 650.356 618.545 649.948H617.897V659.2H613.361ZM622.721 648.544C624.137 648.544 625.301 648.1 626.213 647.212C627.149 646.3 627.617 644.98 627.617 643.252V642.892C627.617 641.164 627.149 639.856 626.213 638.968C625.277 638.056 624.113 637.6 622.721 637.6C621.329 637.6 620.165 638.056 619.229 638.968C618.293 639.856 617.825 641.164 617.825 642.892V643.252C617.825 644.98 618.293 646.3 619.229 647.212C620.165 648.1 621.329 648.544 622.721 648.544ZM635.238 652V634.144H639.702V636.16H640.35C640.614 635.44 641.046 634.912 641.646 634.576C642.27 634.24 642.99 634.072 643.806 634.072H645.966V638.104H643.734C642.582 638.104 641.634 638.416 640.89 639.04C640.146 639.64 639.774 640.576 639.774 641.848V652H635.238ZM656.294 652.504C654.518 652.504 652.922 652.144 651.506 651.424C650.09 650.704 648.974 649.66 648.158 648.292C647.342 646.924 646.934 645.28 646.934 643.36V642.784C646.934 640.864 647.342 639.22 648.158 637.852C648.974 636.484 650.09 635.44 651.506 634.72C652.922 634 654.518 633.64 656.294 633.64C658.07 633.64 659.666 634 661.082 634.72C662.498 635.44 663.614 636.484 664.43 637.852C665.246 639.22 665.654 640.864 665.654 642.784V643.36C665.654 645.28 665.246 646.924 664.43 648.292C663.614 649.66 662.498 650.704 661.082 651.424C659.666 652.144 658.07 652.504 656.294 652.504ZM656.294 648.472C657.686 648.472 658.838 648.028 659.75 647.14C660.662 646.228 661.118 644.932 661.118 643.252V642.892C661.118 641.212 660.662 639.928 659.75 639.04C658.862 638.128 657.71 637.672 656.294 637.672C654.902 637.672 653.75 638.128 652.838 639.04C651.926 639.928 651.47 641.212 651.47 642.892V643.252C651.47 644.932 651.926 646.228 652.838 647.14C653.75 648.028 654.902 648.472 656.294 648.472ZM668.761 659.2V634.144H673.225V636.304H673.873C674.281 635.608 674.917 634.996 675.781 634.468C676.645 633.916 677.881 633.64 679.489 633.64C680.929 633.64 682.261 634 683.485 634.72C684.709 635.416 685.693 636.448 686.437 637.816C687.181 639.184 687.553 640.84 687.553 642.784V643.36C687.553 645.304 687.181 646.96 686.437 648.328C685.693 649.696 684.709 650.74 683.485 651.46C682.261 652.156 680.929 652.504 679.489 652.504C678.409 652.504 677.497 652.372 676.753 652.108C676.033 651.868 675.445 651.556 674.989 651.172C674.557 650.764 674.209 650.356 673.945 649.948H673.297V659.2H668.761ZM678.121 648.544C679.537 648.544 680.701 648.1 681.613 647.212C682.549 646.3 683.017 644.98 683.017 643.252V642.892C683.017 641.164 682.549 639.856 681.613 638.968C680.677 638.056 679.513 637.6 678.121 637.6C676.729 637.6 675.565 638.056 674.629 638.968C673.693 639.856 673.225 641.164 673.225 642.892V643.252C673.225 644.98 673.693 646.3 674.629 647.212C675.565 648.1 676.729 648.544 678.121 648.544ZM690.638 652V634.144H695.174V652H690.638ZM692.906 632.056C692.09 632.056 691.394 631.792 690.818 631.264C690.266 630.736 689.99 630.04 689.99 629.176C689.99 628.312 690.266 627.616 690.818 627.088C691.394 626.56 692.09 626.296 692.906 626.296C693.746 626.296 694.442 626.56 694.994 627.088C695.546 627.616 695.822 628.312 695.822 629.176C695.822 630.04 695.546 630.736 694.994 631.264C694.442 631.792 693.746 632.056 692.906 632.056ZM707.617 652.504C705.841 652.504 704.245 652.144 702.829 651.424C701.413 650.704 700.297 649.66 699.481 648.292C698.665 646.924 698.257 645.28 698.257 643.36V642.784C698.257 640.864 698.665 639.22 699.481 637.852C700.297 636.484 701.413 635.44 702.829 634.72C704.245 634 705.841 633.64 707.617 633.64C709.393 633.64 710.989 634 712.405 634.72C713.821 635.44 714.937 636.484 715.753 637.852C716.569 639.22 716.977 640.864 716.977 642.784V643.36C716.977 645.28 716.569 646.924 715.753 648.292C714.937 649.66 713.821 650.704 712.405 651.424C710.989 652.144 709.393 652.504 707.617 652.504ZM707.617 648.472C709.009 648.472 710.161 648.028 711.073 647.14C711.985 646.228 712.441 644.932 712.441 643.252V642.892C712.441 641.212 711.985 639.928 711.073 639.04C710.185 638.128 709.033 637.672 707.617 637.672C706.225 637.672 705.073 638.128 704.161 639.04C703.249 639.928 702.793 641.212 702.793 642.892V643.252C702.793 644.932 703.249 646.228 704.161 647.14C705.073 648.028 706.225 648.472 707.617 648.472ZM736.28 652.504C734.504 652.504 732.932 652.132 731.564 651.388C730.22 650.62 729.164 649.552 728.396 648.184C727.652 646.792 727.28 645.16 727.28 643.288V642.856C727.28 640.984 727.652 639.364 728.396 637.996C729.14 636.604 730.184 635.536 731.528 634.792C732.872 634.024 734.432 633.64 736.208 633.64C737.96 633.64 739.484 634.036 740.78 634.828C742.076 635.596 743.084 636.676 743.804 638.068C744.524 639.436 744.884 641.032 744.884 642.856V644.404H731.888C731.936 645.628 732.392 646.624 733.256 647.392C734.12 648.16 735.176 648.544 736.424 648.544C737.696 648.544 738.632 648.268 739.232 647.716C739.832 647.164 740.288 646.552 740.6 645.88L744.308 647.824C743.972 648.448 743.48 649.132 742.832 649.876C742.208 650.596 741.368 651.22 740.312 651.748C739.256 652.252 737.912 652.504 736.28 652.504ZM731.924 641.02H740.276C740.18 639.988 739.76 639.16 739.016 638.536C738.296 637.912 737.348 637.6 736.172 637.6C734.948 637.6 733.976 637.912 733.256 638.536C732.536 639.16 732.092 639.988 731.924 641.02ZM755.258 652.504C752.93 652.504 751.022 652 749.534 650.992C748.046 649.984 747.146 648.544 746.834 646.672L751.01 645.592C751.178 646.432 751.454 647.092 751.838 647.572C752.246 648.052 752.738 648.4 753.314 648.616C753.914 648.808 754.562 648.904 755.258 648.904C756.314 648.904 757.094 648.724 757.598 648.364C758.102 647.98 758.354 647.512 758.354 646.96C758.354 646.408 758.114 645.988 757.634 645.7C757.154 645.388 756.386 645.136 755.33 644.944L754.322 644.764C753.074 644.524 751.934 644.2 750.902 643.792C749.87 643.36 749.042 642.772 748.418 642.028C747.794 641.284 747.482 640.324 747.482 639.148C747.482 637.372 748.13 636.016 749.426 635.08C750.722 634.12 752.426 633.64 754.538 633.64C756.53 633.64 758.186 634.084 759.506 634.972C760.826 635.86 761.69 637.024 762.098 638.464L757.886 639.76C757.694 638.848 757.298 638.2 756.698 637.816C756.122 637.432 755.402 637.24 754.538 637.24C753.674 637.24 753.014 637.396 752.558 637.708C752.102 637.996 751.874 638.404 751.874 638.932C751.874 639.508 752.114 639.94 752.594 640.228C753.074 640.492 753.722 640.696 754.538 640.84L755.546 641.02C756.89 641.26 758.102 641.584 759.182 641.992C760.286 642.376 761.15 642.94 761.774 643.684C762.422 644.404 762.746 645.388 762.746 646.636C762.746 648.508 762.062 649.96 760.694 650.992C759.35 652 757.538 652.504 755.258 652.504ZM772.129 652C770.953 652 769.993 651.64 769.249 650.92C768.529 650.176 768.169 649.192 768.169 647.968V637.888H763.705V634.144H768.169V628.6H772.705V634.144H777.601V637.888H772.705V647.176C772.705 647.896 773.041 648.256 773.713 648.256H777.169V652H772.129ZM780.627 652V634.144H785.163V652H780.627ZM782.895 632.056C782.079 632.056 781.383 631.792 780.807 631.264C780.255 630.736 779.979 630.04 779.979 629.176C779.979 628.312 780.255 627.616 780.807 627.088C781.383 626.56 782.079 626.296 782.895 626.296C783.735 626.296 784.431 626.56 784.983 627.088C785.535 627.616 785.811 628.312 785.811 629.176C785.811 630.04 785.535 630.736 784.983 631.264C784.431 631.792 783.735 632.056 782.895 632.056ZM789.11 652V626.8H793.646V652H789.11ZM806.088 652.504C804.312 652.504 802.716 652.144 801.3 651.424C799.884 650.704 798.768 649.66 797.952 648.292C797.136 646.924 796.728 645.28 796.728 643.36V642.784C796.728 640.864 797.136 639.22 797.952 637.852C798.768 636.484 799.884 635.44 801.3 634.72C802.716 634 804.312 633.64 806.088 633.64C807.864 633.64 809.46 634 810.876 634.72C812.292 635.44 813.408 636.484 814.224 637.852C815.04 639.22 815.448 640.864 815.448 642.784V643.36C815.448 645.28 815.04 646.924 814.224 648.292C813.408 649.66 812.292 650.704 810.876 651.424C809.46 652.144 807.864 652.504 806.088 652.504ZM806.088 648.472C807.48 648.472 808.632 648.028 809.544 647.14C810.456 646.228 810.912 644.932 810.912 643.252V642.892C810.912 641.212 810.456 639.928 809.544 639.04C808.656 638.128 807.504 637.672 806.088 637.672C804.696 637.672 803.544 638.128 802.632 639.04C801.72 639.928 801.264 641.212 801.264 642.892V643.252C801.264 644.932 801.72 646.228 802.632 647.14C803.544 648.028 804.696 648.472 806.088 648.472Z" fill="url(#paint0_linear_427_1672)"/>
<path d="M569.782 608V595.436H573.778C574.846 595.436 575.758 595.67 576.514 596.138C577.282 596.594 577.864 597.29 578.26 598.226C578.656 599.15 578.854 600.314 578.854 601.718C578.854 603.11 578.656 604.274 578.26 605.21C577.864 606.146 577.282 606.848 576.514 607.316C575.758 607.772 574.846 608 573.778 608H569.782ZM570.862 607.046H573.796C574.624 607.046 575.326 606.866 575.902 606.506C576.49 606.134 576.934 605.618 577.234 604.958C577.546 604.286 577.702 603.482 577.702 602.546V600.89C577.702 599.954 577.546 599.15 577.234 598.478C576.934 597.806 576.49 597.29 575.902 596.93C575.326 596.57 574.624 596.39 573.796 596.39H570.862V607.046ZM581.446 596.282C581.206 596.282 581.026 596.222 580.906 596.102C580.798 595.982 580.744 595.826 580.744 595.634V595.454C580.744 595.262 580.798 595.106 580.906 594.986C581.026 594.866 581.206 594.806 581.446 594.806C581.698 594.806 581.878 594.866 581.986 594.986C582.094 595.106 582.148 595.262 582.148 595.454V595.634C582.148 595.826 582.094 595.982 581.986 596.102C581.878 596.222 581.698 596.282 581.446 596.282ZM580.942 608V598.784H581.968V608H580.942ZM587.209 608.216C586.405 608.216 585.715 608.066 585.139 607.766C584.575 607.454 584.083 607.016 583.663 606.452L584.419 605.858C584.803 606.35 585.223 606.722 585.679 606.974C586.135 607.214 586.669 607.334 587.281 607.334C587.989 607.334 588.535 607.184 588.919 606.884C589.303 606.572 589.495 606.14 589.495 605.588C589.495 605.108 589.345 604.724 589.045 604.436C588.757 604.148 588.277 603.956 587.605 603.86L586.849 603.734C586.297 603.65 585.805 603.512 585.373 603.32C584.941 603.128 584.605 602.858 584.365 602.51C584.137 602.15 584.023 601.694 584.023 601.142C584.023 600.278 584.323 599.636 584.923 599.216C585.523 598.784 586.267 598.568 587.155 598.568C587.671 598.568 588.121 598.628 588.505 598.748C588.889 598.868 589.225 599.036 589.513 599.252C589.813 599.468 590.077 599.714 590.305 599.99L589.621 600.62C589.381 600.32 589.063 600.05 588.667 599.81C588.271 599.57 587.749 599.45 587.101 599.45C586.441 599.45 585.925 599.594 585.553 599.882C585.193 600.17 585.013 600.572 585.013 601.088C585.013 601.628 585.175 602.024 585.499 602.276C585.835 602.516 586.333 602.69 586.993 602.798L587.731 602.906C588.667 603.05 589.357 603.332 589.801 603.752C590.257 604.16 590.485 604.736 590.485 605.48C590.485 606.056 590.353 606.548 590.089 606.956C589.825 607.364 589.447 607.676 588.955 607.892C588.475 608.108 587.893 608.216 587.209 608.216ZM592.457 611.6V598.784H593.483V600.26H593.537C593.765 599.744 594.113 599.336 594.581 599.036C595.061 598.724 595.649 598.568 596.345 598.568C597.137 598.568 597.815 598.76 598.379 599.144C598.943 599.516 599.375 600.062 599.675 600.782C599.987 601.502 600.143 602.372 600.143 603.392C600.143 604.4 599.987 605.27 599.675 606.002C599.375 606.722 598.943 607.274 598.379 607.658C597.815 608.03 597.137 608.216 596.345 608.216C595.649 608.216 595.067 608.06 594.599 607.748C594.143 607.436 593.789 607.028 593.537 606.524H593.483V611.6H592.457ZM596.111 607.298C597.035 607.298 597.755 607.004 598.271 606.416C598.787 605.816 599.045 605.024 599.045 604.04V602.744C599.045 601.748 598.787 600.956 598.271 600.368C597.755 599.78 597.035 599.486 596.111 599.486C595.643 599.486 595.205 599.576 594.797 599.756C594.401 599.924 594.083 600.164 593.843 600.476C593.603 600.776 593.483 601.13 593.483 601.538V605.192C593.483 605.612 593.603 605.984 593.843 606.308C594.083 606.62 594.401 606.866 594.797 607.046C595.205 607.214 595.643 607.298 596.111 607.298ZM605.367 608.216C604.551 608.216 603.843 608.024 603.243 607.64C602.643 607.256 602.175 606.704 601.839 605.984C601.503 605.264 601.335 604.4 601.335 603.392C601.335 602.384 601.503 601.52 601.839 600.8C602.175 600.08 602.643 599.528 603.243 599.144C603.843 598.76 604.551 598.568 605.367 598.568C606.183 598.568 606.891 598.76 607.491 599.144C608.103 599.528 608.571 600.08 608.895 600.8C609.231 601.52 609.399 602.384 609.399 603.392C609.399 604.4 609.231 605.264 608.895 605.984C608.571 606.704 608.103 607.256 607.491 607.64C606.891 608.024 606.183 608.216 605.367 608.216ZM605.367 607.298C606.267 607.298 606.981 607.016 607.509 606.452C608.037 605.876 608.301 605.048 608.301 603.968V602.816C608.301 601.736 608.037 600.914 607.509 600.35C606.981 599.774 606.267 599.486 605.367 599.486C604.479 599.486 603.771 599.774 603.243 600.35C602.715 600.914 602.451 601.736 602.451 602.816V603.968C602.451 605.048 602.715 605.876 603.243 606.452C603.771 607.016 604.479 607.298 605.367 607.298ZM612.311 608H611.285V598.784H612.311V600.242H612.365C612.569 599.762 612.887 599.366 613.319 599.054C613.751 598.73 614.339 598.568 615.083 598.568C616.067 598.568 616.829 598.874 617.369 599.486C617.921 600.086 618.197 600.95 618.197 602.078V608H617.171V602.258C617.171 601.322 616.967 600.626 616.559 600.17C616.163 599.714 615.581 599.486 614.813 599.486C614.381 599.486 613.973 599.564 613.589 599.72C613.205 599.864 612.893 600.086 612.653 600.386C612.425 600.686 612.311 601.064 612.311 601.52V608ZM621.212 596.282C620.972 596.282 620.792 596.222 620.672 596.102C620.564 595.982 620.51 595.826 620.51 595.634V595.454C620.51 595.262 620.564 595.106 620.672 594.986C620.792 594.866 620.972 594.806 621.212 594.806C621.464 594.806 621.644 594.866 621.752 594.986C621.86 595.106 621.914 595.262 621.914 595.454V595.634C621.914 595.826 621.86 595.982 621.752 596.102C621.644 596.222 621.464 596.282 621.212 596.282ZM620.708 608V598.784H621.734V608H620.708ZM624.364 608V594.68H625.39V600.26H625.444C625.672 599.744 626.02 599.336 626.488 599.036C626.968 598.724 627.556 598.568 628.252 598.568C629.044 598.568 629.722 598.76 630.286 599.144C630.85 599.516 631.282 600.062 631.582 600.782C631.894 601.502 632.05 602.372 632.05 603.392C632.05 604.4 631.894 605.27 631.582 606.002C631.282 606.722 630.85 607.274 630.286 607.658C629.722 608.03 629.044 608.216 628.252 608.216C627.556 608.216 626.974 608.06 626.506 607.748C626.05 607.436 625.696 607.028 625.444 606.524H625.39V608H624.364ZM628.018 607.298C628.942 607.298 629.662 607.004 630.178 606.416C630.694 605.816 630.952 605.024 630.952 604.04V602.744C630.952 601.748 630.694 600.956 630.178 600.368C629.662 599.78 628.942 599.486 628.018 599.486C627.55 599.486 627.112 599.576 626.704 599.756C626.308 599.924 625.99 600.164 625.75 600.476C625.51 600.776 625.39 601.13 625.39 601.538V605.192C625.39 605.612 625.51 605.984 625.75 606.308C625.99 606.62 626.308 606.866 626.704 607.046C627.112 607.214 627.55 607.298 628.018 607.298ZM636.428 608H635.114C634.742 608 634.46 607.898 634.268 607.694C634.076 607.49 633.98 607.22 633.98 606.884V594.68H635.006V607.1H636.428V608ZM641.3 608.216C640.484 608.216 639.77 608.024 639.158 607.64C638.558 607.256 638.09 606.704 637.754 605.984C637.43 605.264 637.268 604.4 637.268 603.392C637.268 602.384 637.43 601.52 637.754 600.8C638.09 600.08 638.558 599.528 639.158 599.144C639.758 598.76 640.466 598.568 641.282 598.568C642.074 598.568 642.758 598.76 643.334 599.144C643.91 599.516 644.36 600.044 644.684 600.728C645.008 601.412 645.17 602.204 645.17 603.104V603.59H638.348V604.04C638.348 605.012 638.612 605.804 639.14 606.416C639.668 607.016 640.406 607.316 641.354 607.316C642.014 607.316 642.578 607.16 643.046 606.848C643.526 606.524 643.892 606.062 644.144 605.462L644.9 605.966C644.612 606.638 644.156 607.184 643.532 607.604C642.92 608.012 642.176 608.216 641.3 608.216ZM641.282 599.432C640.682 599.432 640.16 599.57 639.716 599.846C639.284 600.122 638.948 600.506 638.708 600.998C638.468 601.49 638.348 602.06 638.348 602.708V602.798H644.054V602.654C644.054 602.006 643.94 601.442 643.712 600.962C643.484 600.482 643.16 600.11 642.74 599.846C642.32 599.57 641.834 599.432 641.282 599.432ZM653.888 608.216C653.072 608.216 652.358 608.024 651.746 607.64C651.146 607.256 650.678 606.704 650.342 605.984C650.018 605.264 649.856 604.4 649.856 603.392C649.856 602.384 650.018 601.52 650.342 600.8C650.678 600.08 651.146 599.528 651.746 599.144C652.346 598.76 653.054 598.568 653.87 598.568C654.662 598.568 655.346 598.76 655.922 599.144C656.498 599.516 656.948 600.044 657.272 600.728C657.596 601.412 657.758 602.204 657.758 603.104V603.59H650.936V604.04C650.936 605.012 651.2 605.804 651.728 606.416C652.256 607.016 652.994 607.316 653.942 607.316C654.602 607.316 655.166 607.16 655.634 606.848C656.114 606.524 656.48 606.062 656.732 605.462L657.488 605.966C657.2 606.638 656.744 607.184 656.12 607.604C655.508 608.012 654.764 608.216 653.888 608.216ZM653.87 599.432C653.27 599.432 652.748 599.57 652.304 599.846C651.872 600.122 651.536 600.506 651.296 600.998C651.056 601.49 650.936 602.06 650.936 602.708V602.798H656.642V602.654C656.642 602.006 656.528 601.442 656.3 600.962C656.072 600.482 655.748 600.11 655.328 599.846C654.908 599.57 654.422 599.432 653.87 599.432ZM660.673 608H659.647V598.784H660.673V600.242H660.727C660.931 599.762 661.249 599.366 661.681 599.054C662.113 598.73 662.701 598.568 663.445 598.568C664.429 598.568 665.191 598.874 665.731 599.486C666.283 600.086 666.559 600.95 666.559 602.078V608H665.533V602.258C665.533 601.322 665.329 600.626 664.921 600.17C664.525 599.714 663.943 599.486 663.175 599.486C662.743 599.486 662.335 599.564 661.951 599.72C661.567 599.864 661.255 600.086 661.015 600.386C660.787 600.686 660.673 601.064 660.673 601.52V608ZM674.26 600.944H675.754C676.63 600.944 677.308 600.728 677.788 600.296C678.28 599.864 678.526 599.312 678.526 598.64V598.406C678.526 597.698 678.292 597.152 677.824 596.768C677.356 596.384 676.75 596.192 676.006 596.192C675.274 596.192 674.686 596.342 674.242 596.642C673.81 596.93 673.462 597.326 673.198 597.83L672.388 597.254C672.58 596.894 672.838 596.564 673.162 596.264C673.486 595.952 673.882 595.7 674.35 595.508C674.818 595.316 675.376 595.22 676.024 595.22C676.72 595.22 677.344 595.346 677.896 595.598C678.448 595.85 678.88 596.21 679.192 596.678C679.504 597.146 679.66 597.71 679.66 598.37C679.66 599.21 679.426 599.876 678.958 600.368C678.49 600.86 677.908 601.184 677.212 601.34V601.412C677.716 601.484 678.172 601.652 678.58 601.916C678.988 602.18 679.312 602.534 679.552 602.978C679.792 603.422 679.912 603.962 679.912 604.598C679.912 605.318 679.744 605.954 679.408 606.506C679.072 607.046 678.598 607.466 677.986 607.766C677.386 608.066 676.678 608.216 675.862 608.216C675.202 608.216 674.62 608.126 674.116 607.946C673.612 607.766 673.18 607.52 672.82 607.208C672.46 606.896 672.148 606.548 671.884 606.164L672.694 605.552C673.042 606.092 673.456 606.512 673.936 606.812C674.428 607.1 675.064 607.244 675.844 607.244C676.768 607.244 677.488 607.016 678.004 606.56C678.52 606.104 678.778 605.486 678.778 604.706V604.418C678.778 603.626 678.52 603.008 678.004 602.564C677.5 602.108 676.78 601.88 675.844 601.88H674.26V600.944ZM689.469 608.216C688.209 608.216 687.225 607.796 686.517 606.956C685.821 606.104 685.473 604.916 685.473 603.392C685.473 601.868 685.821 600.686 686.517 599.846C687.225 598.994 688.209 598.568 689.469 598.568C690.321 598.568 691.011 598.76 691.539 599.144C692.079 599.516 692.481 600.002 692.745 600.602L691.881 601.034C691.677 600.53 691.371 600.146 690.963 599.882C690.567 599.618 690.069 599.486 689.469 599.486C688.533 599.486 687.819 599.786 687.327 600.386C686.835 600.974 686.589 601.76 686.589 602.744V604.04C686.589 605.012 686.835 605.798 687.327 606.398C687.819 606.998 688.533 607.298 689.469 607.298C690.105 607.298 690.639 607.16 691.071 606.884C691.503 606.608 691.851 606.212 692.115 605.696L692.871 606.2C692.571 606.8 692.139 607.286 691.575 607.658C691.023 608.03 690.321 608.216 689.469 608.216ZM697.591 608.216C696.775 608.216 696.067 608.024 695.467 607.64C694.867 607.256 694.399 606.704 694.063 605.984C693.727 605.264 693.559 604.4 693.559 603.392C693.559 602.384 693.727 601.52 694.063 600.8C694.399 600.08 694.867 599.528 695.467 599.144C696.067 598.76 696.775 598.568 697.591 598.568C698.407 598.568 699.115 598.76 699.715 599.144C700.327 599.528 700.795 600.08 701.119 600.8C701.455 601.52 701.623 602.384 701.623 603.392C701.623 604.4 701.455 605.264 701.119 605.984C700.795 606.704 700.327 607.256 699.715 607.64C699.115 608.024 698.407 608.216 697.591 608.216ZM697.591 607.298C698.491 607.298 699.205 607.016 699.733 606.452C700.261 605.876 700.525 605.048 700.525 603.968V602.816C700.525 601.736 700.261 600.914 699.733 600.35C699.205 599.774 698.491 599.486 697.591 599.486C696.703 599.486 695.995 599.774 695.467 600.35C694.939 600.914 694.675 601.736 694.675 602.816V603.968C694.675 605.048 694.939 605.876 695.467 606.452C695.995 607.016 696.703 607.298 697.591 607.298ZM705.957 608H704.643C704.271 608 703.989 607.898 703.797 607.694C703.605 607.49 703.509 607.22 703.509 606.884V594.68H704.535V607.1H705.957V608ZM710.829 608.216C710.013 608.216 709.305 608.024 708.705 607.64C708.105 607.256 707.637 606.704 707.301 605.984C706.965 605.264 706.797 604.4 706.797 603.392C706.797 602.384 706.965 601.52 707.301 600.8C707.637 600.08 708.105 599.528 708.705 599.144C709.305 598.76 710.013 598.568 710.829 598.568C711.645 598.568 712.353 598.76 712.953 599.144C713.565 599.528 714.033 600.08 714.357 600.8C714.693 601.52 714.861 602.384 714.861 603.392C714.861 604.4 714.693 605.264 714.357 605.984C714.033 606.704 713.565 607.256 712.953 607.64C712.353 608.024 711.645 608.216 710.829 608.216ZM710.829 607.298C711.729 607.298 712.443 607.016 712.971 606.452C713.499 605.876 713.763 605.048 713.763 603.968V602.816C713.763 601.736 713.499 600.914 712.971 600.35C712.443 599.774 711.729 599.486 710.829 599.486C709.941 599.486 709.233 599.774 708.705 600.35C708.177 600.914 707.913 601.736 707.913 602.816V603.968C707.913 605.048 708.177 605.876 708.705 606.452C709.233 607.016 709.941 607.298 710.829 607.298ZM717.773 608H716.747V598.784H717.773V600.44H717.845C717.965 600.14 718.139 599.87 718.367 599.63C718.595 599.378 718.889 599.174 719.249 599.018C719.621 598.862 720.071 598.784 720.599 598.784H721.211V599.792H720.401C719.885 599.792 719.429 599.87 719.033 600.026C718.637 600.182 718.325 600.404 718.097 600.692C717.881 600.968 717.773 601.304 717.773 601.7V608ZM725.702 608.216C724.886 608.216 724.172 608.024 723.56 607.64C722.96 607.256 722.492 606.704 722.156 605.984C721.832 605.264 721.67 604.4 721.67 603.392C721.67 602.384 721.832 601.52 722.156 600.8C722.492 600.08 722.96 599.528 723.56 599.144C724.16 598.76 724.868 598.568 725.684 598.568C726.476 598.568 727.16 598.76 727.736 599.144C728.312 599.516 728.762 600.044 729.086 600.728C729.41 601.412 729.572 602.204 729.572 603.104V603.59H722.75V604.04C722.75 605.012 723.014 605.804 723.542 606.416C724.07 607.016 724.808 607.316 725.756 607.316C726.416 607.316 726.98 607.16 727.448 606.848C727.928 606.524 728.294 606.062 728.546 605.462L729.302 605.966C729.014 606.638 728.558 607.184 727.934 607.604C727.322 608.012 726.578 608.216 725.702 608.216ZM725.684 599.432C725.084 599.432 724.562 599.57 724.118 599.846C723.686 600.122 723.35 600.506 723.11 600.998C722.87 601.49 722.75 602.06 722.75 602.708V602.798H728.456V602.654C728.456 602.006 728.342 601.442 728.114 600.962C727.886 600.482 727.562 600.11 727.142 599.846C726.722 599.57 726.236 599.432 725.684 599.432ZM734.071 608.216C733.267 608.216 732.577 608.066 732.001 607.766C731.437 607.454 730.945 607.016 730.525 606.452L731.281 605.858C731.665 606.35 732.085 606.722 732.541 606.974C732.997 607.214 733.531 607.334 734.143 607.334C734.851 607.334 735.397 607.184 735.781 606.884C736.165 606.572 736.357 606.14 736.357 605.588C736.357 605.108 736.207 604.724 735.907 604.436C735.619 604.148 735.139 603.956 734.467 603.86L733.711 603.734C733.159 603.65 732.667 603.512 732.235 603.32C731.803 603.128 731.467 602.858 731.227 602.51C730.999 602.15 730.885 601.694 730.885 601.142C730.885 600.278 731.185 599.636 731.785 599.216C732.385 598.784 733.129 598.568 734.017 598.568C734.533 598.568 734.983 598.628 735.367 598.748C735.751 598.868 736.087 599.036 736.375 599.252C736.675 599.468 736.939 599.714 737.167 599.99L736.483 600.62C736.243 600.32 735.925 600.05 735.529 599.81C735.133 599.57 734.611 599.45 733.963 599.45C733.303 599.45 732.787 599.594 732.415 599.882C732.055 600.17 731.875 600.572 731.875 601.088C731.875 601.628 732.037 602.024 732.361 602.276C732.697 602.516 733.195 602.69 733.855 602.798L734.593 602.906C735.529 603.05 736.219 603.332 736.663 603.752C737.119 604.16 737.347 604.736 737.347 605.48C737.347 606.056 737.215 606.548 736.951 606.956C736.687 607.364 736.309 607.676 735.817 607.892C735.337 608.108 734.755 608.216 734.071 608.216Z" fill="black"/>
<defs>
<linearGradient id="paint0_linear_427_1672" x1="479" y1="642.5" x2="819" y2="642.5" gradientUnits="userSpaceOnUse">
<stop offset="0.222587" stop-color="#58286A"/>
<stop offset="0.526175" stop-color="#DBA0E7"/>
<stop offset="0.836435" stop-color="#C29CCB"/>
</linearGradient>
</defs>
</svg>
