<svg width="1280" height="349" viewBox="0 0 1280 349" fill="none" xmlns="http://www.w3.org/2000/svg">
<g clip-path="url(#clip0_399_1234)">
<rect width="1278" height="47" fill="url(#paint0_linear_399_1234)" fill-opacity="0.3"/>
<path d="M9.968 32.336C7.888 32.336 6.24 31.76 5.024 30.608C3.808 29.44 3.2 27.776 3.2 25.616V21.584C3.2 19.424 3.808 17.768 5.024 16.616C6.24 15.448 7.888 14.864 9.968 14.864C12.032 14.864 13.624 15.432 14.744 16.568C15.88 17.688 16.448 19.232 16.448 21.2V21.344H13.328V21.104C13.328 20.112 13.048 19.296 12.488 18.656C11.944 18.016 11.104 17.696 9.968 17.696C8.848 17.696 7.968 18.04 7.328 18.728C6.688 19.416 6.368 20.352 6.368 21.536V25.664C6.368 26.832 6.688 27.768 7.328 28.472C7.968 29.16 8.848 29.504 9.968 29.504C11.104 29.504 11.944 29.184 12.488 28.544C13.048 27.888 13.328 27.072 13.328 26.096V25.664H16.448V26C16.448 27.968 15.88 29.52 14.744 30.656C13.624 31.776 12.032 32.336 9.968 32.336ZM24.0693 32.336C22.8853 32.336 21.8213 32.096 20.8773 31.616C19.9333 31.136 19.1893 30.44 18.6453 29.528C18.1013 28.616 17.8293 27.52 17.8293 26.24V25.856C17.8293 24.576 18.1013 23.48 18.6453 22.568C19.1893 21.656 19.9333 20.96 20.8773 20.48C21.8213 20 22.8853 19.76 24.0693 19.76C25.2533 19.76 26.3173 20 27.2613 20.48C28.2053 20.96 28.9493 21.656 29.4933 22.568C30.0373 23.48 30.3093 24.576 30.3093 25.856V26.24C30.3093 27.52 30.0373 28.616 29.4933 29.528C28.9493 30.44 28.2053 31.136 27.2613 31.616C26.3173 32.096 25.2533 32.336 24.0693 32.336ZM24.0693 29.648C24.9973 29.648 25.7653 29.352 26.3733 28.76C26.9813 28.152 27.2853 27.288 27.2853 26.168V25.928C27.2853 24.808 26.9813 23.952 26.3733 23.36C25.7813 22.752 25.0133 22.448 24.0693 22.448C23.1413 22.448 22.3733 22.752 21.7653 23.36C21.1573 23.952 20.8533 24.808 20.8533 25.928V26.168C20.8533 27.288 21.1573 28.152 21.7653 28.76C22.3733 29.352 23.1413 29.648 24.0693 29.648ZM32.3806 32V20.096H35.3566V21.392H35.7886C35.9966 20.992 36.3406 20.648 36.8206 20.36C37.3006 20.056 37.9326 19.904 38.7166 19.904C39.5646 19.904 40.2446 20.072 40.7566 20.408C41.2686 20.728 41.6606 21.152 41.9326 21.68H42.3646C42.6366 21.168 43.0206 20.744 43.5166 20.408C44.0126 20.072 44.7166 19.904 45.6286 19.904C46.3646 19.904 47.0286 20.064 47.6206 20.384C48.2286 20.688 48.7086 21.16 49.0606 21.8C49.4286 22.424 49.6126 23.216 49.6126 24.176V32H46.5886V24.392C46.5886 23.736 46.4206 23.248 46.0846 22.928C45.7486 22.592 45.2766 22.424 44.6686 22.424C43.9806 22.424 43.4446 22.648 43.0606 23.096C42.6926 23.528 42.5086 24.152 42.5086 24.968V32H39.4846V24.392C39.4846 23.736 39.3166 23.248 38.9806 22.928C38.6446 22.592 38.1726 22.424 37.5646 22.424C36.8766 22.424 36.3406 22.648 35.9566 23.096C35.5886 23.528 35.4046 24.152 35.4046 24.968V32H32.3806ZM52.145 36.8V20.096H55.121V21.536H55.553C55.825 21.072 56.249 20.664 56.825 20.312C57.401 19.944 58.225 19.76 59.297 19.76C60.257 19.76 61.145 20 61.961 20.48C62.777 20.944 63.433 21.632 63.929 22.544C64.425 23.456 64.673 24.56 64.673 25.856V26.24C64.673 27.536 64.425 28.64 63.929 29.552C63.433 30.464 62.777 31.16 61.961 31.64C61.145 32.104 60.257 32.336 59.297 32.336C58.577 32.336 57.969 32.248 57.473 32.072C56.993 31.912 56.601 31.704 56.297 31.448C56.009 31.176 55.777 30.904 55.601 30.632H55.169V36.8H52.145ZM58.385 29.696C59.329 29.696 60.105 29.4 60.713 28.808C61.337 28.2 61.649 27.32 61.649 26.168V25.928C61.649 24.776 61.337 23.904 60.713 23.312C60.089 22.704 59.313 22.4 58.385 22.4C57.457 22.4 56.681 22.704 56.057 23.312C55.433 23.904 55.121 24.776 55.121 25.928V26.168C55.121 27.32 55.433 28.2 56.057 28.808C56.681 29.4 57.457 29.696 58.385 29.696ZM70.4257 32.336C69.5777 32.336 68.8177 32.192 68.1457 31.904C67.4737 31.6 66.9377 31.168 66.5377 30.608C66.1537 30.032 65.9617 29.336 65.9617 28.52C65.9617 27.704 66.1537 27.024 66.5377 26.48C66.9377 25.92 67.4817 25.504 68.1697 25.232C68.8737 24.944 69.6737 24.8 70.5697 24.8H73.8337V24.128C73.8337 23.568 73.6577 23.112 73.3057 22.76C72.9537 22.392 72.3937 22.208 71.6257 22.208C70.8737 22.208 70.3137 22.384 69.9457 22.736C69.5777 23.072 69.3377 23.512 69.2257 24.056L66.4417 23.12C66.6337 22.512 66.9377 21.96 67.3537 21.464C67.7857 20.952 68.3537 20.544 69.0577 20.24C69.7777 19.92 70.6497 19.76 71.6737 19.76C73.2417 19.76 74.4817 20.152 75.3937 20.936C76.3057 21.72 76.7617 22.856 76.7617 24.344V28.784C76.7617 29.264 76.9857 29.504 77.4337 29.504H78.3937V32H76.3777C75.7857 32 75.2977 31.856 74.9137 31.568C74.5297 31.28 74.3377 30.896 74.3377 30.416V30.392H73.8817C73.8177 30.584 73.6737 30.84 73.4497 31.16C73.2257 31.464 72.8737 31.736 72.3937 31.976C71.9137 32.216 71.2577 32.336 70.4257 32.336ZM70.9537 29.888C71.8017 29.888 72.4897 29.656 73.0177 29.192C73.5617 28.712 73.8337 28.08 73.8337 27.296V27.056H70.7857C70.2257 27.056 69.7857 27.176 69.4657 27.416C69.1457 27.656 68.9857 27.992 68.9857 28.424C68.9857 28.856 69.1537 29.208 69.4897 29.48C69.8257 29.752 70.3137 29.888 70.9537 29.888ZM83.5775 32C82.7935 32 82.1535 31.76 81.6575 31.28C81.1775 30.784 80.9375 30.128 80.9375 29.312V22.592H77.9615V20.096H80.9375V16.4H83.9615V20.096H87.2255V22.592H83.9615V28.784C83.9615 29.264 84.1855 29.504 84.6335 29.504H86.9375V32H83.5775ZM89.2428 32V20.096H92.2668V32H89.2428ZM90.7548 18.704C90.2108 18.704 89.7468 18.528 89.3628 18.176C88.9948 17.824 88.8108 17.36 88.8108 16.784C88.8108 16.208 88.9948 15.744 89.3628 15.392C89.7468 15.04 90.2108 14.864 90.7548 14.864C91.3148 14.864 91.7788 15.04 92.1468 15.392C92.5148 15.744 92.6988 16.208 92.6988 16.784C92.6988 17.36 92.5148 17.824 92.1468 18.176C91.7788 18.528 91.3148 18.704 90.7548 18.704ZM102.05 32.336C100.978 32.336 100.154 32.152 99.5778 31.784C99.0018 31.416 98.5778 31.008 98.3058 30.56H97.8738V32H94.8978V15.2H97.9218V21.464H98.3538C98.5298 21.176 98.7618 20.904 99.0498 20.648C99.3538 20.392 99.7458 20.184 100.226 20.024C100.722 19.848 101.33 19.76 102.05 19.76C103.01 19.76 103.898 20 104.714 20.48C105.53 20.944 106.186 21.632 106.682 22.544C107.178 23.456 107.426 24.56 107.426 25.856V26.24C107.426 27.536 107.178 28.64 106.682 29.552C106.186 30.464 105.53 31.16 104.714 31.64C103.898 32.104 103.01 32.336 102.05 32.336ZM101.138 29.696C102.066 29.696 102.842 29.4 103.466 28.808C104.09 28.2 104.402 27.32 104.402 26.168V25.928C104.402 24.776 104.09 23.904 103.466 23.312C102.858 22.704 102.082 22.4 101.138 22.4C100.21 22.4 99.4338 22.704 98.8098 23.312C98.1858 23.904 97.8738 24.776 97.8738 25.928V26.168C97.8738 27.32 98.1858 28.2 98.8098 28.808C99.4338 29.4 100.21 29.696 101.138 29.696ZM109.482 32V15.2H112.506V32H109.482ZM120.561 32.336C119.377 32.336 118.329 32.088 117.417 31.592C116.521 31.08 115.817 30.368 115.305 29.456C114.809 28.528 114.561 27.44 114.561 26.192V25.904C114.561 24.656 114.809 23.576 115.305 22.664C115.801 21.736 116.497 21.024 117.393 20.528C118.289 20.016 119.329 19.76 120.513 19.76C121.681 19.76 122.697 20.024 123.561 20.552C124.425 21.064 125.097 21.784 125.577 22.712C126.057 23.624 126.297 24.688 126.297 25.904V26.936H117.633C117.665 27.752 117.969 28.416 118.545 28.928C119.121 29.44 119.825 29.696 120.657 29.696C121.505 29.696 122.129 29.512 122.529 29.144C122.929 28.776 123.233 28.368 123.441 27.92L125.913 29.216C125.689 29.632 125.361 30.088 124.929 30.584C124.513 31.064 123.953 31.48 123.249 31.832C122.545 32.168 121.649 32.336 120.561 32.336ZM117.657 24.68H123.225C123.161 23.992 122.881 23.44 122.385 23.024C121.905 22.608 121.273 22.4 120.489 22.4C119.673 22.4 119.025 22.608 118.545 23.024C118.065 23.44 117.769 23.992 117.657 24.68ZM139.235 32.336C138.083 32.336 137.035 32.096 136.091 31.616C135.163 31.136 134.427 30.44 133.883 29.528C133.339 28.616 133.067 27.512 133.067 26.216V25.88C133.067 24.584 133.339 23.48 133.883 22.568C134.427 21.656 135.163 20.96 136.091 20.48C137.035 20 138.083 19.76 139.235 19.76C140.371 19.76 141.347 19.96 142.163 20.36C142.979 20.76 143.635 21.312 144.131 22.016C144.643 22.704 144.979 23.488 145.139 24.368L142.211 24.992C142.147 24.512 142.003 24.08 141.779 23.696C141.555 23.312 141.235 23.008 140.819 22.784C140.419 22.56 139.915 22.448 139.307 22.448C138.699 22.448 138.147 22.584 137.651 22.856C137.171 23.112 136.787 23.504 136.499 24.032C136.227 24.544 136.091 25.176 136.091 25.928V26.168C136.091 26.92 136.227 27.56 136.499 28.088C136.787 28.6 137.171 28.992 137.651 29.264C138.147 29.52 138.699 29.648 139.307 29.648C140.219 29.648 140.907 29.416 141.371 28.952C141.851 28.472 142.155 27.848 142.283 27.08L145.211 27.776C145.003 28.624 144.643 29.4 144.131 30.104C143.635 30.792 142.979 31.336 142.163 31.736C141.347 32.136 140.371 32.336 139.235 32.336ZM152.649 32.336C151.465 32.336 150.401 32.096 149.457 31.616C148.513 31.136 147.769 30.44 147.225 29.528C146.681 28.616 146.409 27.52 146.409 26.24V25.856C146.409 24.576 146.681 23.48 147.225 22.568C147.769 21.656 148.513 20.96 149.457 20.48C150.401 20 151.465 19.76 152.649 19.76C153.833 19.76 154.897 20 155.841 20.48C156.785 20.96 157.529 21.656 158.073 22.568C158.617 23.48 158.889 24.576 158.889 25.856V26.24C158.889 27.52 158.617 28.616 158.073 29.528C157.529 30.44 156.785 31.136 155.841 31.616C154.897 32.096 153.833 32.336 152.649 32.336ZM152.649 29.648C153.577 29.648 154.345 29.352 154.953 28.76C155.561 28.152 155.865 27.288 155.865 26.168V25.928C155.865 24.808 155.561 23.952 154.953 23.36C154.361 22.752 153.593 22.448 152.649 22.448C151.721 22.448 150.953 22.752 150.345 23.36C149.737 23.952 149.433 24.808 149.433 25.928V26.168C149.433 27.288 149.737 28.152 150.345 28.76C150.953 29.352 151.721 29.648 152.649 29.648ZM160.961 32V20.096H163.937V21.656H164.369C164.561 21.24 164.921 20.848 165.449 20.48C165.977 20.096 166.777 19.904 167.849 19.904C168.777 19.904 169.585 20.12 170.273 20.552C170.977 20.968 171.521 21.552 171.905 22.304C172.289 23.04 172.481 23.904 172.481 24.896V32H169.457V25.136C169.457 24.24 169.233 23.568 168.785 23.12C168.353 22.672 167.729 22.448 166.913 22.448C165.985 22.448 165.265 22.76 164.753 23.384C164.241 23.992 163.985 24.848 163.985 25.952V32H160.961ZM180.403 32V20.096H183.427V32H180.403ZM181.915 18.704C181.371 18.704 180.907 18.528 180.523 18.176C180.155 17.824 179.971 17.36 179.971 16.784C179.971 16.208 180.155 15.744 180.523 15.392C180.907 15.04 181.371 14.864 181.915 14.864C182.475 14.864 182.939 15.04 183.307 15.392C183.675 15.744 183.859 16.208 183.859 16.784C183.859 17.36 183.675 17.824 183.307 18.176C182.939 18.528 182.475 18.704 181.915 18.704ZM192.49 32.336C190.378 32.336 188.698 31.76 187.45 30.608C186.202 29.44 185.578 27.776 185.578 25.616V21.584C185.578 19.424 186.202 17.768 187.45 16.616C188.698 15.448 190.378 14.864 192.49 14.864C194.602 14.864 196.282 15.448 197.53 16.616C198.778 17.768 199.402 19.424 199.402 21.584V25.616C199.402 27.776 198.778 29.44 197.53 30.608C196.282 31.76 194.602 32.336 192.49 32.336ZM192.49 29.504C193.674 29.504 194.594 29.16 195.25 28.472C195.906 27.784 196.234 26.864 196.234 25.712V21.488C196.234 20.336 195.906 19.416 195.25 18.728C194.594 18.04 193.674 17.696 192.49 17.696C191.322 17.696 190.402 18.04 189.73 18.728C189.074 19.416 188.746 20.336 188.746 21.488V25.712C188.746 26.864 189.074 27.784 189.73 28.472C190.402 29.16 191.322 29.504 192.49 29.504ZM207.293 32.336C205.997 32.336 204.853 32.104 203.861 31.64C202.869 31.176 202.093 30.512 201.533 29.648C200.973 28.784 200.693 27.744 200.693 26.528V25.856H203.813V26.528C203.813 27.536 204.125 28.296 204.749 28.808C205.373 29.304 206.221 29.552 207.293 29.552C208.381 29.552 209.189 29.336 209.717 28.904C210.261 28.472 210.533 27.92 210.533 27.248C210.533 26.784 210.397 26.408 210.125 26.12C209.869 25.832 209.485 25.6 208.973 25.424C208.477 25.232 207.869 25.056 207.149 24.896L206.597 24.776C205.445 24.52 204.453 24.2 203.621 23.816C202.805 23.416 202.173 22.896 201.725 22.256C201.293 21.616 201.077 20.784 201.077 19.76C201.077 18.736 201.317 17.864 201.797 17.144C202.293 16.408 202.981 15.848 203.861 15.464C204.757 15.064 205.805 14.864 207.005 14.864C208.205 14.864 209.269 15.072 210.197 15.488C211.141 15.888 211.877 16.496 212.405 17.312C212.949 18.112 213.221 19.12 213.221 20.336V21.056H210.101V20.336C210.101 19.696 209.973 19.184 209.717 18.8C209.477 18.4 209.125 18.112 208.661 17.936C208.197 17.744 207.645 17.648 207.005 17.648C206.045 17.648 205.333 17.832 204.869 18.2C204.421 18.552 204.197 19.04 204.197 19.664C204.197 20.08 204.301 20.432 204.509 20.72C204.733 21.008 205.061 21.248 205.493 21.44C205.925 21.632 206.477 21.8 207.149 21.944L207.701 22.064C208.901 22.32 209.941 22.648 210.821 23.048C211.717 23.448 212.413 23.976 212.909 24.632C213.405 25.288 213.653 26.128 213.653 27.152C213.653 28.176 213.389 29.08 212.861 29.864C212.349 30.632 211.613 31.24 210.653 31.688C209.709 32.12 208.589 32.336 207.293 32.336ZM222.062 36.8V34.16H228.542C228.99 34.16 229.214 33.92 229.214 33.44V30.44H228.782C228.654 30.712 228.454 30.984 228.182 31.256C227.91 31.528 227.542 31.752 227.078 31.928C226.614 32.104 226.022 32.192 225.302 32.192C224.374 32.192 223.558 31.984 222.854 31.568C222.166 31.136 221.63 30.544 221.246 29.792C220.862 29.04 220.67 28.176 220.67 27.2V20.096H223.694V26.96C223.694 27.856 223.91 28.528 224.342 28.976C224.79 29.424 225.422 29.648 226.238 29.648C227.166 29.648 227.886 29.344 228.398 28.736C228.91 28.112 229.166 27.248 229.166 26.144V20.096H232.19V34.112C232.19 34.928 231.95 35.576 231.47 36.056C230.99 36.552 230.35 36.8 229.55 36.8H222.062ZM238.679 32L243.095 15.2H248.615L253.031 32H249.767L248.855 28.304H242.855L241.943 32H238.679ZM243.599 25.376H248.111L246.071 17.192H245.639L243.599 25.376ZM254.418 32V20.096H257.394V21.656H257.826C258.018 21.24 258.378 20.848 258.906 20.48C259.434 20.096 260.234 19.904 261.306 19.904C262.234 19.904 263.042 20.12 263.73 20.552C264.434 20.968 264.978 21.552 265.362 22.304C265.746 23.04 265.938 23.904 265.938 24.896V32H262.914V25.136C262.914 24.24 262.69 23.568 262.242 23.12C261.81 22.672 261.186 22.448 260.37 22.448C259.442 22.448 258.722 22.76 258.21 23.384C257.698 23.992 257.442 24.848 257.442 25.952V32H254.418ZM273.287 32.336C272.343 32.336 271.455 32.104 270.623 31.64C269.807 31.16 269.151 30.464 268.655 29.552C268.159 28.64 267.911 27.536 267.911 26.24V25.856C267.911 24.56 268.159 23.456 268.655 22.544C269.151 21.632 269.807 20.944 270.623 20.48C271.439 20 272.327 19.76 273.287 19.76C274.007 19.76 274.607 19.848 275.087 20.024C275.583 20.184 275.983 20.392 276.287 20.648C276.591 20.904 276.823 21.176 276.983 21.464H277.415V15.2H280.439V32H277.463V30.56H277.031C276.759 31.008 276.335 31.416 275.759 31.784C275.199 32.152 274.375 32.336 273.287 32.336ZM274.199 29.696C275.127 29.696 275.903 29.4 276.527 28.808C277.151 28.2 277.463 27.32 277.463 26.168V25.928C277.463 24.776 277.151 23.904 276.527 23.312C275.919 22.704 275.143 22.4 274.199 22.4C273.271 22.4 272.495 22.704 271.871 23.312C271.247 23.904 270.935 24.776 270.935 25.928V26.168C270.935 27.32 271.247 28.2 271.871 28.808C272.495 29.4 273.271 29.696 274.199 29.696ZM283.072 32V20.096H286.048V21.44H286.48C286.656 20.96 286.944 20.608 287.344 20.384C287.76 20.16 288.24 20.048 288.784 20.048H290.224V22.736H288.736C287.968 22.736 287.336 22.944 286.84 23.36C286.344 23.76 286.096 24.384 286.096 25.232V32H283.072ZM297.11 32.336C295.926 32.336 294.862 32.096 293.918 31.616C292.974 31.136 292.23 30.44 291.686 29.528C291.142 28.616 290.87 27.52 290.87 26.24V25.856C290.87 24.576 291.142 23.48 291.686 22.568C292.23 21.656 292.974 20.96 293.918 20.48C294.862 20 295.926 19.76 297.11 19.76C298.294 19.76 299.358 20 300.302 20.48C301.246 20.96 301.99 21.656 302.534 22.568C303.078 23.48 303.35 24.576 303.35 25.856V26.24C303.35 27.52 303.078 28.616 302.534 29.528C301.99 30.44 301.246 31.136 300.302 31.616C299.358 32.096 298.294 32.336 297.11 32.336ZM297.11 29.648C298.038 29.648 298.806 29.352 299.414 28.76C300.022 28.152 300.326 27.288 300.326 26.168V25.928C300.326 24.808 300.022 23.952 299.414 23.36C298.822 22.752 298.054 22.448 297.11 22.448C296.182 22.448 295.414 22.752 294.806 23.36C294.198 23.952 293.894 24.808 293.894 25.928V26.168C293.894 27.288 294.198 28.152 294.806 28.76C295.414 29.352 296.182 29.648 297.11 29.648ZM305.421 32V20.096H308.445V32H305.421ZM306.933 18.704C306.389 18.704 305.925 18.528 305.541 18.176C305.173 17.824 304.989 17.36 304.989 16.784C304.989 16.208 305.173 15.744 305.541 15.392C305.925 15.04 306.389 14.864 306.933 14.864C307.493 14.864 307.957 15.04 308.325 15.392C308.693 15.744 308.877 16.208 308.877 16.784C308.877 17.36 308.693 17.824 308.325 18.176C307.957 18.528 307.493 18.704 306.933 18.704ZM315.876 32.336C314.932 32.336 314.044 32.104 313.212 31.64C312.396 31.16 311.74 30.464 311.244 29.552C310.748 28.64 310.5 27.536 310.5 26.24V25.856C310.5 24.56 310.748 23.456 311.244 22.544C311.74 21.632 312.396 20.944 313.212 20.48C314.028 20 314.916 19.76 315.876 19.76C316.596 19.76 317.196 19.848 317.676 20.024C318.172 20.184 318.572 20.392 318.876 20.648C319.18 20.904 319.412 21.176 319.572 21.464H320.004V15.2H323.028V32H320.052V30.56H319.62C319.348 31.008 318.924 31.416 318.348 31.784C317.788 32.152 316.964 32.336 315.876 32.336ZM316.788 29.696C317.716 29.696 318.492 29.4 319.116 28.808C319.74 28.2 320.052 27.32 320.052 26.168V25.928C320.052 24.776 319.74 23.904 319.116 23.312C318.508 22.704 317.732 22.4 316.788 22.4C315.86 22.4 315.084 22.704 314.46 23.312C313.836 23.904 313.524 24.776 313.524 25.928V26.168C313.524 27.32 313.836 28.2 314.46 28.808C315.084 29.4 315.86 29.696 316.788 29.696Z" fill="url(#paint1_linear_399_1234)"/>
<path d="M348.152 28.672C346.872 28.672 345.784 28.256 344.888 27.424C344.024 26.56 343.592 25.456 343.592 24.112C343.592 22.768 344.024 21.68 344.888 20.848C345.784 19.984 346.872 19.552 348.152 19.552C349.464 19.552 350.552 19.984 351.416 20.848C352.28 21.68 352.712 22.768 352.712 24.112C352.712 25.456 352.28 26.56 351.416 27.424C350.552 28.256 349.464 28.672 348.152 28.672Z" fill="url(#paint2_linear_399_1234)"/>
<path d="M506.152 28.672C504.872 28.672 503.784 28.256 502.888 27.424C502.024 26.56 501.592 25.456 501.592 24.112C501.592 22.768 502.024 21.68 502.888 20.848C503.784 19.984 504.872 19.552 506.152 19.552C507.464 19.552 508.552 19.984 509.416 20.848C510.28 21.68 510.712 22.768 510.712 24.112C510.712 25.456 510.28 26.56 509.416 27.424C508.552 28.256 507.464 28.672 506.152 28.672Z" fill="url(#paint3_linear_399_1234)"/>
<path d="M743.152 28.672C741.872 28.672 740.784 28.256 739.888 27.424C739.024 26.56 738.592 25.456 738.592 24.112C738.592 22.768 739.024 21.68 739.888 20.848C740.784 19.984 741.872 19.552 743.152 19.552C744.464 19.552 745.552 19.984 746.416 20.848C747.28 21.68 747.712 22.768 747.712 24.112C747.712 25.456 747.28 26.56 746.416 27.424C745.552 28.256 744.464 28.672 743.152 28.672Z" fill="url(#paint4_linear_399_1234)"/>
<path d="M938.152 28.672C936.872 28.672 935.784 28.256 934.888 27.424C934.024 26.56 933.592 25.456 933.592 24.112C933.592 22.768 934.024 21.68 934.888 20.848C935.784 19.984 936.872 19.552 938.152 19.552C939.464 19.552 940.552 19.984 941.416 20.848C942.28 21.68 942.712 22.768 942.712 24.112C942.712 25.456 942.28 26.56 941.416 27.424C940.552 28.256 939.464 28.672 938.152 28.672Z" fill="url(#paint5_linear_399_1234)"/>
<path d="M1259.15 28.672C1257.87 28.672 1256.78 28.256 1255.89 27.424C1255.02 26.56 1254.59 25.456 1254.59 24.112C1254.59 22.768 1255.02 21.68 1255.89 20.848C1256.78 19.984 1257.87 19.552 1259.15 19.552C1260.46 19.552 1261.55 19.984 1262.42 20.848C1263.28 21.68 1263.71 22.768 1263.71 24.112C1263.71 25.456 1263.28 26.56 1262.42 27.424C1261.55 28.256 1260.46 28.672 1259.15 28.672Z" fill="url(#paint6_linear_399_1234)"/>
<path d="M766.104 32V29.216H768.312V17.984H766.104V15.2H774.744C775.768 15.2 776.656 15.376 777.408 15.728C778.176 16.064 778.768 16.552 779.184 17.192C779.616 17.816 779.832 18.568 779.832 19.448V19.688C779.832 20.456 779.688 21.088 779.4 21.584C779.112 22.064 778.768 22.44 778.368 22.712C777.984 22.968 777.616 23.152 777.264 23.264V23.696C777.616 23.792 778 23.976 778.416 24.248C778.832 24.504 779.184 24.88 779.472 25.376C779.776 25.872 779.928 26.52 779.928 27.32V27.56C779.928 28.488 779.712 29.288 779.28 29.96C778.848 30.616 778.248 31.12 777.48 31.472C776.728 31.824 775.848 32 774.84 32H766.104ZM771.48 29.12H774.456C775.144 29.12 775.696 28.952 776.112 28.616C776.544 28.28 776.76 27.8 776.76 27.176V26.936C776.76 26.312 776.552 25.832 776.136 25.496C775.72 25.16 775.16 24.992 774.456 24.992H771.48V29.12ZM771.48 22.112H774.408C775.064 22.112 775.6 21.944 776.016 21.608C776.448 21.272 776.664 20.808 776.664 20.216V19.976C776.664 19.368 776.456 18.904 776.04 18.584C775.624 18.248 775.08 18.08 774.408 18.08H771.48V22.112ZM781.897 32V15.2H784.921V32H781.897ZM792.088 32.192C791.16 32.192 790.344 31.984 789.64 31.568C788.952 31.136 788.416 30.544 788.032 29.792C787.648 29.04 787.456 28.176 787.456 27.2V20.096H790.48V26.96C790.48 27.856 790.696 28.528 791.128 28.976C791.576 29.424 792.208 29.648 793.024 29.648C793.952 29.648 794.672 29.344 795.184 28.736C795.696 28.112 795.952 27.248 795.952 26.144V20.096H798.976V32H796V30.44H795.568C795.376 30.84 795.016 31.232 794.489 31.616C793.96 32 793.16 32.192 792.088 32.192ZM807.046 32.336C805.862 32.336 804.814 32.088 803.902 31.592C803.006 31.08 802.302 30.368 801.79 29.456C801.294 28.528 801.046 27.44 801.046 26.192V25.904C801.046 24.656 801.294 23.576 801.79 22.664C802.286 21.736 802.982 21.024 803.878 20.528C804.774 20.016 805.814 19.76 806.998 19.76C808.166 19.76 809.182 20.024 810.046 20.552C810.91 21.064 811.582 21.784 812.062 22.712C812.542 23.624 812.782 24.688 812.782 25.904V26.936H804.118C804.15 27.752 804.454 28.416 805.03 28.928C805.606 29.44 806.31 29.696 807.142 29.696C807.99 29.696 808.614 29.512 809.014 29.144C809.414 28.776 809.718 28.368 809.926 27.92L812.398 29.216C812.174 29.632 811.846 30.088 811.414 30.584C810.998 31.064 810.438 31.48 809.734 31.832C809.03 32.168 808.134 32.336 807.046 32.336ZM804.142 24.68H809.71C809.646 23.992 809.366 23.44 808.87 23.024C808.39 22.608 807.758 22.4 806.974 22.4C806.158 22.4 805.51 22.608 805.03 23.024C804.55 23.44 804.254 23.992 804.142 24.68ZM818.915 32C818.131 32 817.491 31.76 816.995 31.28C816.515 30.784 816.275 30.128 816.275 29.312V22.592H813.299V20.096H816.275V16.4H819.299V20.096H822.563V22.592H819.299V28.784C819.299 29.264 819.523 29.504 819.971 29.504H822.275V32H818.915ZM829.822 32.336C828.638 32.336 827.574 32.096 826.63 31.616C825.686 31.136 824.942 30.44 824.398 29.528C823.854 28.616 823.582 27.52 823.582 26.24V25.856C823.582 24.576 823.854 23.48 824.398 22.568C824.942 21.656 825.686 20.96 826.63 20.48C827.574 20 828.638 19.76 829.822 19.76C831.006 19.76 832.07 20 833.014 20.48C833.958 20.96 834.702 21.656 835.246 22.568C835.79 23.48 836.062 24.576 836.062 25.856V26.24C836.062 27.52 835.79 28.616 835.246 29.528C834.702 30.44 833.958 31.136 833.014 31.616C832.07 32.096 831.006 32.336 829.822 32.336ZM829.822 29.648C830.75 29.648 831.518 29.352 832.126 28.76C832.734 28.152 833.038 27.288 833.038 26.168V25.928C833.038 24.808 832.734 23.952 832.126 23.36C831.534 22.752 830.766 22.448 829.822 22.448C828.894 22.448 828.126 22.752 827.518 23.36C826.91 23.952 826.606 24.808 826.606 25.928V26.168C826.606 27.288 826.91 28.152 827.518 28.76C828.126 29.352 828.894 29.648 829.822 29.648ZM843.797 32.336C842.613 32.336 841.549 32.096 840.605 31.616C839.661 31.136 838.917 30.44 838.373 29.528C837.829 28.616 837.557 27.52 837.557 26.24V25.856C837.557 24.576 837.829 23.48 838.373 22.568C838.917 21.656 839.661 20.96 840.605 20.48C841.549 20 842.613 19.76 843.797 19.76C844.981 19.76 846.045 20 846.989 20.48C847.933 20.96 848.677 21.656 849.221 22.568C849.765 23.48 850.037 24.576 850.037 25.856V26.24C850.037 27.52 849.765 28.616 849.221 29.528C848.677 30.44 847.933 31.136 846.989 31.616C846.045 32.096 844.981 32.336 843.797 32.336ZM843.797 29.648C844.725 29.648 845.493 29.352 846.101 28.76C846.709 28.152 847.013 27.288 847.013 26.168V25.928C847.013 24.808 846.709 23.952 846.101 23.36C845.509 22.752 844.741 22.448 843.797 22.448C842.869 22.448 842.101 22.752 841.493 23.36C840.885 23.952 840.581 24.808 840.581 25.928V26.168C840.581 27.288 840.885 28.152 841.493 28.76C842.101 29.352 842.869 29.648 843.797 29.648ZM856.27 32C855.486 32 854.846 31.76 854.35 31.28C853.87 30.784 853.63 30.128 853.63 29.312V22.592H850.654V20.096H853.63V16.4H856.654V20.096H859.918V22.592H856.654V28.784C856.654 29.264 856.878 29.504 857.326 29.504H859.63V32H856.27ZM861.936 32V15.2H864.96V21.56H865.392C865.52 21.304 865.72 21.048 865.992 20.792C866.264 20.536 866.624 20.328 867.072 20.168C867.536 19.992 868.12 19.904 868.824 19.904C869.752 19.904 870.56 20.12 871.248 20.552C871.952 20.968 872.496 21.552 872.88 22.304C873.264 23.04 873.456 23.904 873.456 24.896V32H870.432V25.136C870.432 24.24 870.208 23.568 869.76 23.12C869.328 22.672 868.704 22.448 867.888 22.448C866.96 22.448 866.24 22.76 865.728 23.384C865.216 23.992 864.96 24.848 864.96 25.952V32H861.936ZM886.97 32.336C885.658 32.336 884.522 32.104 883.562 31.64C882.618 31.176 881.89 30.52 881.378 29.672C880.866 28.824 880.61 27.84 880.61 26.72V26.48H883.73V26.696C883.73 27.496 883.994 28.184 884.522 28.76C885.066 29.32 885.866 29.6 886.922 29.6C887.978 29.6 888.786 29.32 889.346 28.76C889.922 28.184 890.21 27.44 890.21 26.528V26.288C890.21 25.392 889.922 24.68 889.346 24.152C888.786 23.624 888.082 23.36 887.234 23.36C886.77 23.36 886.386 23.424 886.082 23.552C885.778 23.68 885.53 23.84 885.338 24.032C885.146 24.224 884.986 24.416 884.858 24.608H881.138V15.2H892.61V17.984H884.21V22.088H884.642C884.802 21.88 885.018 21.68 885.29 21.488C885.562 21.296 885.914 21.136 886.346 21.008C886.778 20.88 887.29 20.816 887.882 20.816C888.874 20.816 889.778 21.024 890.594 21.44C891.41 21.856 892.058 22.472 892.538 23.288C893.034 24.088 893.282 25.08 893.282 26.264V26.552C893.282 27.736 893.026 28.76 892.514 29.624C892.018 30.488 891.298 31.16 890.354 31.64C889.41 32.104 888.282 32.336 886.97 32.336ZM896.945 32.336C896.305 32.336 895.761 32.128 895.313 31.712C894.881 31.28 894.665 30.728 894.665 30.056C894.665 29.384 894.881 28.84 895.313 28.424C895.761 27.992 896.305 27.776 896.945 27.776C897.601 27.776 898.145 27.992 898.577 28.424C899.009 28.84 899.225 29.384 899.225 30.056C899.225 30.728 899.009 31.28 898.577 31.712C898.145 32.128 897.601 32.336 896.945 32.336ZM907.292 32.336C905.308 32.336 903.716 31.792 902.516 30.704C901.316 29.6 900.716 27.936 900.716 25.712V21.488C900.716 19.328 901.316 17.688 902.516 16.568C903.716 15.432 905.308 14.864 907.292 14.864C909.292 14.864 910.884 15.432 912.068 16.568C913.268 17.688 913.868 19.328 913.868 21.488V25.712C913.868 27.936 913.268 29.6 912.068 30.704C910.884 31.792 909.292 32.336 907.292 32.336ZM907.292 29.6C908.492 29.6 909.372 29.272 909.932 28.616C910.508 27.96 910.796 27.024 910.796 25.808V21.344C910.796 20.112 910.476 19.184 909.836 18.56C909.212 17.92 908.364 17.6 907.292 17.6C906.188 17.6 905.324 17.928 904.7 18.584C904.092 19.24 903.788 20.16 903.788 21.344V25.808C903.788 27.072 904.076 28.024 904.652 28.664C905.244 29.288 906.124 29.6 907.292 29.6Z" fill="url(#paint7_linear_399_1234)"/>
<path d="M961.584 32V15.2H972.144V18.08H964.752V22.136H971.568V25.016H964.752V32H961.584ZM979.351 32.336C978.167 32.336 977.103 32.096 976.159 31.616C975.215 31.136 974.471 30.44 973.927 29.528C973.383 28.616 973.111 27.52 973.111 26.24V25.856C973.111 24.576 973.383 23.48 973.927 22.568C974.471 21.656 975.215 20.96 976.159 20.48C977.103 20 978.167 19.76 979.351 19.76C980.535 19.76 981.599 20 982.543 20.48C983.487 20.96 984.231 21.656 984.775 22.568C985.319 23.48 985.591 24.576 985.591 25.856V26.24C985.591 27.52 985.319 28.616 984.775 29.528C984.231 30.44 983.487 31.136 982.543 31.616C981.599 32.096 980.535 32.336 979.351 32.336ZM979.351 29.648C980.279 29.648 981.047 29.352 981.655 28.76C982.263 28.152 982.567 27.288 982.567 26.168V25.928C982.567 24.808 982.263 23.952 981.655 23.36C981.063 22.752 980.295 22.448 979.351 22.448C978.423 22.448 977.655 22.752 977.047 23.36C976.439 23.952 976.135 24.808 976.135 25.928V26.168C976.135 27.288 976.439 28.152 977.047 28.76C977.655 29.352 978.423 29.648 979.351 29.648ZM991.823 32C991.039 32 990.399 31.76 989.903 31.28C989.423 30.784 989.183 30.128 989.183 29.312V22.592H986.207V20.096H989.183V16.4H992.207V20.096H995.471V22.592H992.207V28.784C992.207 29.264 992.431 29.504 992.879 29.504H995.183V32H991.823ZM1002.73 32.336C1001.55 32.336 1000.48 32.096 999.539 31.616C998.595 31.136 997.851 30.44 997.307 29.528C996.763 28.616 996.491 27.52 996.491 26.24V25.856C996.491 24.576 996.763 23.48 997.307 22.568C997.851 21.656 998.595 20.96 999.539 20.48C1000.48 20 1001.55 19.76 1002.73 19.76C1003.91 19.76 1004.98 20 1005.92 20.48C1006.87 20.96 1007.61 21.656 1008.15 22.568C1008.7 23.48 1008.97 24.576 1008.97 25.856V26.24C1008.97 27.52 1008.7 28.616 1008.15 29.528C1007.61 30.44 1006.87 31.136 1005.92 31.616C1004.98 32.096 1003.91 32.336 1002.73 32.336ZM1002.73 29.648C1003.66 29.648 1004.43 29.352 1005.03 28.76C1005.64 28.152 1005.95 27.288 1005.95 26.168V25.928C1005.95 24.808 1005.64 23.952 1005.03 23.36C1004.44 22.752 1003.67 22.448 1002.73 22.448C1001.8 22.448 1001.03 22.752 1000.43 23.36C999.819 23.952 999.515 24.808 999.515 25.928V26.168C999.515 27.288 999.819 28.152 1000.43 28.76C1001.03 29.352 1001.8 29.648 1002.73 29.648ZM1015.99 32.336C1014.43 32.336 1013.16 32 1012.17 31.328C1011.18 30.656 1010.58 29.696 1010.37 28.448L1013.15 27.728C1013.27 28.288 1013.45 28.728 1013.71 29.048C1013.98 29.368 1014.31 29.6 1014.69 29.744C1015.09 29.872 1015.52 29.936 1015.99 29.936C1016.69 29.936 1017.21 29.816 1017.55 29.576C1017.88 29.32 1018.05 29.008 1018.05 28.64C1018.05 28.272 1017.89 27.992 1017.57 27.8C1017.25 27.592 1016.74 27.424 1016.03 27.296L1015.36 27.176C1014.53 27.016 1013.77 26.8 1013.08 26.528C1012.39 26.24 1011.84 25.848 1011.43 25.352C1011.01 24.856 1010.8 24.216 1010.8 23.432C1010.8 22.248 1011.23 21.344 1012.1 20.72C1012.96 20.08 1014.1 19.76 1015.51 19.76C1016.83 19.76 1017.94 20.056 1018.82 20.648C1019.7 21.24 1020.27 22.016 1020.55 22.976L1017.74 23.84C1017.61 23.232 1017.35 22.8 1016.95 22.544C1016.56 22.288 1016.08 22.16 1015.51 22.16C1014.93 22.16 1014.49 22.264 1014.19 22.472C1013.88 22.664 1013.73 22.936 1013.73 23.288C1013.73 23.672 1013.89 23.96 1014.21 24.152C1014.53 24.328 1014.96 24.464 1015.51 24.56L1016.18 24.68C1017.07 24.84 1017.88 25.056 1018.6 25.328C1019.34 25.584 1019.91 25.96 1020.33 26.456C1020.76 26.936 1020.98 27.592 1020.98 28.424C1020.98 29.672 1020.52 30.64 1019.61 31.328C1018.71 32 1017.51 32.336 1015.99 32.336ZM1028.28 32V20.096H1031.26V21.44H1031.69C1031.87 20.96 1032.15 20.608 1032.55 20.384C1032.97 20.16 1033.45 20.048 1033.99 20.048H1035.43V22.736H1033.95C1033.18 22.736 1032.55 22.944 1032.05 23.36C1031.55 23.76 1031.31 24.384 1031.31 25.232V32H1028.28ZM1042.08 32.336C1040.9 32.336 1039.85 32.088 1038.94 31.592C1038.04 31.08 1037.34 30.368 1036.82 29.456C1036.33 28.528 1036.08 27.44 1036.08 26.192V25.904C1036.08 24.656 1036.33 23.576 1036.82 22.664C1037.32 21.736 1038.02 21.024 1038.91 20.528C1039.81 20.016 1040.85 19.76 1042.03 19.76C1043.2 19.76 1044.22 20.024 1045.08 20.552C1045.94 21.064 1046.62 21.784 1047.1 22.712C1047.58 23.624 1047.82 24.688 1047.82 25.904V26.936H1039.15C1039.18 27.752 1039.49 28.416 1040.06 28.928C1040.64 29.44 1041.34 29.696 1042.18 29.696C1043.02 29.696 1043.65 29.512 1044.05 29.144C1044.45 28.776 1044.75 28.368 1044.96 27.92L1047.43 29.216C1047.21 29.632 1046.88 30.088 1046.45 30.584C1046.03 31.064 1045.47 31.48 1044.77 31.832C1044.06 32.168 1043.17 32.336 1042.08 32.336ZM1039.18 24.68H1044.74C1044.68 23.992 1044.4 23.44 1043.9 23.024C1043.42 22.608 1042.79 22.4 1042.01 22.4C1041.19 22.4 1040.54 22.608 1040.06 23.024C1039.58 23.44 1039.29 23.992 1039.18 24.68ZM1054.73 32.336C1053.18 32.336 1051.91 32 1050.92 31.328C1049.92 30.656 1049.32 29.696 1049.12 28.448L1051.9 27.728C1052.01 28.288 1052.2 28.728 1052.45 29.048C1052.72 29.368 1053.05 29.6 1053.44 29.744C1053.84 29.872 1054.27 29.936 1054.73 29.936C1055.44 29.936 1055.96 29.816 1056.29 29.576C1056.63 29.32 1056.8 29.008 1056.8 28.64C1056.8 28.272 1056.64 27.992 1056.32 27.8C1056 27.592 1055.48 27.424 1054.78 27.296L1054.11 27.176C1053.28 27.016 1052.52 26.8 1051.83 26.528C1051.14 26.24 1050.59 25.848 1050.17 25.352C1049.76 24.856 1049.55 24.216 1049.55 23.432C1049.55 22.248 1049.98 21.344 1050.84 20.72C1051.71 20.08 1052.84 19.76 1054.25 19.76C1055.58 19.76 1056.68 20.056 1057.56 20.648C1058.44 21.24 1059.02 22.016 1059.29 22.976L1056.48 23.84C1056.36 23.232 1056.09 22.8 1055.69 22.544C1055.31 22.288 1054.83 22.16 1054.25 22.16C1053.68 22.16 1053.24 22.264 1052.93 22.472C1052.63 22.664 1052.48 22.936 1052.48 23.288C1052.48 23.672 1052.64 23.96 1052.96 24.152C1053.28 24.328 1053.71 24.464 1054.25 24.56L1054.92 24.68C1055.82 24.84 1056.63 25.056 1057.35 25.328C1058.08 25.584 1058.66 25.96 1059.08 26.456C1059.51 26.936 1059.72 27.592 1059.72 28.424C1059.72 29.672 1059.27 30.64 1058.36 31.328C1057.46 32 1056.25 32.336 1054.73 32.336ZM1061.65 32V20.096H1064.68V32H1061.65ZM1063.17 18.704C1062.62 18.704 1062.16 18.528 1061.77 18.176C1061.41 17.824 1061.22 17.36 1061.22 16.784C1061.22 16.208 1061.41 15.744 1061.77 15.392C1062.16 15.04 1062.62 14.864 1063.17 14.864C1063.73 14.864 1064.19 15.04 1064.56 15.392C1064.93 15.744 1065.11 16.208 1065.11 16.784C1065.11 17.36 1064.93 17.824 1064.56 18.176C1064.19 18.528 1063.73 18.704 1063.17 18.704ZM1072.25 32.336C1070.7 32.336 1069.43 32 1068.44 31.328C1067.44 30.656 1066.84 29.696 1066.64 28.448L1069.42 27.728C1069.53 28.288 1069.72 28.728 1069.97 29.048C1070.24 29.368 1070.57 29.6 1070.96 29.744C1071.36 29.872 1071.79 29.936 1072.25 29.936C1072.96 29.936 1073.48 29.816 1073.81 29.576C1074.15 29.32 1074.32 29.008 1074.32 28.64C1074.32 28.272 1074.16 27.992 1073.84 27.8C1073.52 27.592 1073 27.424 1072.3 27.296L1071.63 27.176C1070.8 27.016 1070.04 26.8 1069.35 26.528C1068.66 26.24 1068.11 25.848 1067.69 25.352C1067.28 24.856 1067.07 24.216 1067.07 23.432C1067.07 22.248 1067.5 21.344 1068.36 20.72C1069.23 20.08 1070.36 19.76 1071.77 19.76C1073.1 19.76 1074.2 20.056 1075.08 20.648C1075.96 21.24 1076.54 22.016 1076.81 22.976L1074 23.84C1073.88 23.232 1073.61 22.8 1073.21 22.544C1072.83 22.288 1072.35 22.16 1071.77 22.16C1071.2 22.16 1070.76 22.264 1070.45 22.472C1070.15 22.664 1070 22.936 1070 23.288C1070 23.672 1070.16 23.96 1070.48 24.152C1070.8 24.328 1071.23 24.464 1071.77 24.56L1072.44 24.68C1073.34 24.84 1074.15 25.056 1074.87 25.328C1075.6 25.584 1076.18 25.96 1076.6 26.456C1077.03 26.936 1077.24 27.592 1077.24 28.424C1077.24 29.672 1076.79 30.64 1075.88 31.328C1074.98 32 1073.77 32.336 1072.25 32.336ZM1083.5 32C1082.72 32 1082.08 31.76 1081.58 31.28C1081.1 30.784 1080.86 30.128 1080.86 29.312V22.592H1077.88V20.096H1080.86V16.4H1083.88V20.096H1087.15V22.592H1083.88V28.784C1083.88 29.264 1084.11 29.504 1084.56 29.504H1086.86V32H1083.5ZM1094.17 32.336C1092.98 32.336 1091.94 32.088 1091.02 31.592C1090.13 31.08 1089.42 30.368 1088.91 29.456C1088.42 28.528 1088.17 27.44 1088.17 26.192V25.904C1088.17 24.656 1088.42 23.576 1088.91 22.664C1089.41 21.736 1090.1 21.024 1091 20.528C1091.9 20.016 1092.94 19.76 1094.12 19.76C1095.29 19.76 1096.3 20.024 1097.17 20.552C1098.03 21.064 1098.7 21.784 1099.18 22.712C1099.66 23.624 1099.9 24.688 1099.9 25.904V26.936H1091.24C1091.27 27.752 1091.58 28.416 1092.15 28.928C1092.73 29.44 1093.43 29.696 1094.26 29.696C1095.11 29.696 1095.74 29.512 1096.14 29.144C1096.54 28.776 1096.84 28.368 1097.05 27.92L1099.52 29.216C1099.3 29.632 1098.97 30.088 1098.54 30.584C1098.12 31.064 1097.56 31.48 1096.86 31.832C1096.15 32.168 1095.26 32.336 1094.17 32.336ZM1091.26 24.68H1096.83C1096.77 23.992 1096.49 23.44 1095.99 23.024C1095.51 22.608 1094.88 22.4 1094.1 22.4C1093.28 22.4 1092.63 22.608 1092.15 23.024C1091.67 23.44 1091.38 23.992 1091.26 24.68ZM1101.87 32V20.096H1104.85V21.656H1105.28C1105.47 21.24 1105.83 20.848 1106.36 20.48C1106.89 20.096 1107.69 19.904 1108.76 19.904C1109.69 19.904 1110.5 20.12 1111.19 20.552C1111.89 20.968 1112.43 21.552 1112.82 22.304C1113.2 23.04 1113.39 23.904 1113.39 24.896V32H1110.37V25.136C1110.37 24.24 1110.15 23.568 1109.7 23.12C1109.27 22.672 1108.64 22.448 1107.83 22.448C1106.9 22.448 1106.18 22.76 1105.67 23.384C1105.15 23.992 1104.9 24.848 1104.9 25.952V32H1101.87ZM1120.18 32C1119.39 32 1118.75 31.76 1118.26 31.28C1117.78 30.784 1117.54 30.128 1117.54 29.312V22.592H1114.56V20.096H1117.54V16.4H1120.56V20.096H1123.82V22.592H1120.56V28.784C1120.56 29.264 1120.78 29.504 1121.23 29.504H1123.54V32H1120.18ZM1130.84 32.336C1129.66 32.336 1128.61 32.088 1127.7 31.592C1126.8 31.08 1126.1 30.368 1125.59 29.456C1125.09 28.528 1124.84 27.44 1124.84 26.192V25.904C1124.84 24.656 1125.09 23.576 1125.59 22.664C1126.08 21.736 1126.78 21.024 1127.68 20.528C1128.57 20.016 1129.61 19.76 1130.8 19.76C1131.96 19.76 1132.98 20.024 1133.84 20.552C1134.71 21.064 1135.38 21.784 1135.86 22.712C1136.34 23.624 1136.58 24.688 1136.58 25.904V26.936H1127.92C1127.95 27.752 1128.25 28.416 1128.83 28.928C1129.4 29.44 1130.11 29.696 1130.94 29.696C1131.79 29.696 1132.41 29.512 1132.81 29.144C1133.21 28.776 1133.52 28.368 1133.72 27.92L1136.2 29.216C1135.97 29.632 1135.64 30.088 1135.21 30.584C1134.8 31.064 1134.24 31.48 1133.53 31.832C1132.83 32.168 1131.93 32.336 1130.84 32.336ZM1127.94 24.68H1133.51C1133.44 23.992 1133.16 23.44 1132.67 23.024C1132.19 22.608 1131.56 22.4 1130.77 22.4C1129.96 22.4 1129.31 22.608 1128.83 23.024C1128.35 23.44 1128.05 23.992 1127.94 24.68ZM1143.49 32.336C1141.94 32.336 1140.67 32 1139.68 31.328C1138.69 30.656 1138.09 29.696 1137.88 28.448L1140.66 27.728C1140.77 28.288 1140.96 28.728 1141.21 29.048C1141.49 29.368 1141.81 29.6 1142.2 29.744C1142.6 29.872 1143.03 29.936 1143.49 29.936C1144.2 29.936 1144.72 29.816 1145.05 29.576C1145.39 29.32 1145.56 29.008 1145.56 28.64C1145.56 28.272 1145.4 27.992 1145.08 27.8C1144.76 27.592 1144.25 27.424 1143.54 27.296L1142.87 27.176C1142.04 27.016 1141.28 26.8 1140.59 26.528C1139.9 26.24 1139.35 25.848 1138.93 25.352C1138.52 24.856 1138.31 24.216 1138.31 23.432C1138.31 22.248 1138.74 21.344 1139.61 20.72C1140.47 20.08 1141.61 19.76 1143.01 19.76C1144.34 19.76 1145.45 20.056 1146.33 20.648C1147.21 21.24 1147.78 22.016 1148.05 22.976L1145.25 23.84C1145.12 23.232 1144.85 22.8 1144.45 22.544C1144.07 22.288 1143.59 22.16 1143.01 22.16C1142.44 22.16 1142 22.264 1141.69 22.472C1141.39 22.664 1141.24 22.936 1141.24 23.288C1141.24 23.672 1141.4 23.96 1141.72 24.152C1142.04 24.328 1142.47 24.464 1143.01 24.56L1143.69 24.68C1144.58 24.84 1145.39 25.056 1146.11 25.328C1146.85 25.584 1147.42 25.96 1147.84 26.456C1148.27 26.936 1148.49 27.592 1148.49 28.424C1148.49 29.672 1148.03 30.64 1147.12 31.328C1146.22 32 1145.01 32.336 1143.49 32.336ZM1159.49 32.336C1158.64 32.336 1157.88 32.192 1157.21 31.904C1156.53 31.6 1156 31.168 1155.6 30.608C1155.21 30.032 1155.02 29.336 1155.02 28.52C1155.02 27.704 1155.21 27.024 1155.6 26.48C1156 25.92 1156.54 25.504 1157.23 25.232C1157.93 24.944 1158.73 24.8 1159.63 24.8H1162.89V24.128C1162.89 23.568 1162.72 23.112 1162.37 22.76C1162.01 22.392 1161.45 22.208 1160.69 22.208C1159.93 22.208 1159.37 22.384 1159.01 22.736C1158.64 23.072 1158.4 23.512 1158.29 24.056L1155.5 23.12C1155.69 22.512 1156 21.96 1156.41 21.464C1156.85 20.952 1157.41 20.544 1158.12 20.24C1158.84 19.92 1159.71 19.76 1160.73 19.76C1162.3 19.76 1163.54 20.152 1164.45 20.936C1165.37 21.72 1165.82 22.856 1165.82 24.344V28.784C1165.82 29.264 1166.05 29.504 1166.49 29.504H1167.45V32H1165.44C1164.85 32 1164.36 31.856 1163.97 31.568C1163.59 31.28 1163.4 30.896 1163.4 30.416V30.392H1162.94C1162.88 30.584 1162.73 30.84 1162.51 31.16C1162.29 31.464 1161.93 31.736 1161.45 31.976C1160.97 32.216 1160.32 32.336 1159.49 32.336ZM1160.01 29.888C1160.86 29.888 1161.55 29.656 1162.08 29.192C1162.62 28.712 1162.89 28.08 1162.89 27.296V27.056H1159.85C1159.29 27.056 1158.85 27.176 1158.53 27.416C1158.21 27.656 1158.05 27.992 1158.05 28.424C1158.05 28.856 1158.21 29.208 1158.55 29.48C1158.89 29.752 1159.37 29.888 1160.01 29.888ZM1168.95 32V15.2H1171.97V32H1168.95ZM1183.67 32.336C1182.82 32.336 1182.06 32.192 1181.39 31.904C1180.72 31.6 1180.18 31.168 1179.78 30.608C1179.4 30.032 1179.21 29.336 1179.21 28.52C1179.21 27.704 1179.4 27.024 1179.78 26.48C1180.18 25.92 1180.73 25.504 1181.41 25.232C1182.12 24.944 1182.92 24.8 1183.81 24.8H1187.08V24.128C1187.08 23.568 1186.9 23.112 1186.55 22.76C1186.2 22.392 1185.64 22.208 1184.87 22.208C1184.12 22.208 1183.56 22.384 1183.19 22.736C1182.82 23.072 1182.58 23.512 1182.47 24.056L1179.69 23.12C1179.88 22.512 1180.18 21.96 1180.6 21.464C1181.03 20.952 1181.6 20.544 1182.3 20.24C1183.02 19.92 1183.89 19.76 1184.92 19.76C1186.49 19.76 1187.73 20.152 1188.64 20.936C1189.55 21.72 1190.01 22.856 1190.01 24.344V28.784C1190.01 29.264 1190.23 29.504 1190.68 29.504H1191.64V32H1189.62C1189.03 32 1188.54 31.856 1188.16 31.568C1187.77 31.28 1187.58 30.896 1187.58 30.416V30.392H1187.13C1187.06 30.584 1186.92 30.84 1186.69 31.16C1186.47 31.464 1186.12 31.736 1185.64 31.976C1185.16 32.216 1184.5 32.336 1183.67 32.336ZM1184.2 29.888C1185.05 29.888 1185.73 29.656 1186.26 29.192C1186.81 28.712 1187.08 28.08 1187.08 27.296V27.056H1184.03C1183.47 27.056 1183.03 27.176 1182.71 27.416C1182.39 27.656 1182.23 27.992 1182.23 28.424C1182.23 28.856 1182.4 29.208 1182.73 29.48C1183.07 29.752 1183.56 29.888 1184.2 29.888ZM1192.32 26.096V25.712C1192.32 24.464 1192.57 23.4 1193.06 22.52C1193.56 21.624 1194.21 20.944 1195.03 20.48C1195.86 20 1196.77 19.76 1197.74 19.76C1198.83 19.76 1199.65 19.952 1200.21 20.336C1200.77 20.72 1201.18 21.12 1201.44 21.536H1201.87V20.096H1204.85V34.112C1204.85 34.928 1204.61 35.576 1204.13 36.056C1203.65 36.552 1203.01 36.8 1202.21 36.8H1194.24V34.16H1201.15C1201.6 34.16 1201.82 33.92 1201.82 33.44V30.344H1201.39C1201.23 30.6 1201.01 30.864 1200.72 31.136C1200.43 31.392 1200.05 31.608 1199.57 31.784C1199.09 31.96 1198.48 32.048 1197.74 32.048C1196.77 32.048 1195.86 31.816 1195.03 31.352C1194.21 30.872 1193.56 30.192 1193.06 29.312C1192.57 28.416 1192.32 27.344 1192.32 26.096ZM1198.61 29.408C1199.53 29.408 1200.31 29.112 1200.93 28.52C1201.56 27.928 1201.87 27.096 1201.87 26.024V25.784C1201.87 24.696 1201.56 23.864 1200.93 23.288C1200.33 22.696 1199.55 22.4 1198.61 22.4C1197.68 22.4 1196.9 22.696 1196.28 23.288C1195.65 23.864 1195.34 24.696 1195.34 25.784V26.024C1195.34 27.096 1195.65 27.928 1196.28 28.52C1196.9 29.112 1197.68 29.408 1198.61 29.408ZM1212.02 32.192C1211.09 32.192 1210.27 31.984 1209.57 31.568C1208.88 31.136 1208.34 30.544 1207.96 29.792C1207.58 29.04 1207.38 28.176 1207.38 27.2V20.096H1210.41V26.96C1210.41 27.856 1210.62 28.528 1211.06 28.976C1211.5 29.424 1212.14 29.648 1212.95 29.648C1213.88 29.648 1214.6 29.344 1215.11 28.736C1215.62 28.112 1215.88 27.248 1215.88 26.144V20.096H1218.9V32H1215.93V30.44H1215.5C1215.3 30.84 1214.94 31.232 1214.42 31.616C1213.89 32 1213.09 32.192 1212.02 32.192ZM1225.24 32.336C1224.4 32.336 1223.64 32.192 1222.96 31.904C1222.29 31.6 1221.76 31.168 1221.36 30.608C1220.97 30.032 1220.78 29.336 1220.78 28.52C1220.78 27.704 1220.97 27.024 1221.36 26.48C1221.76 25.92 1222.3 25.504 1222.99 25.232C1223.69 24.944 1224.49 24.8 1225.39 24.8H1228.65V24.128C1228.65 23.568 1228.48 23.112 1228.12 22.76C1227.77 22.392 1227.21 22.208 1226.44 22.208C1225.69 22.208 1225.13 22.384 1224.76 22.736C1224.4 23.072 1224.16 23.512 1224.04 24.056L1221.26 23.12C1221.45 22.512 1221.76 21.96 1222.17 21.464C1222.6 20.952 1223.17 20.544 1223.88 20.24C1224.6 19.92 1225.47 19.76 1226.49 19.76C1228.06 19.76 1229.3 20.152 1230.21 20.936C1231.12 21.72 1231.58 22.856 1231.58 24.344V28.784C1231.58 29.264 1231.8 29.504 1232.25 29.504H1233.21V32H1231.2C1230.6 32 1230.12 31.856 1229.73 31.568C1229.35 31.28 1229.16 30.896 1229.16 30.416V30.392H1228.7C1228.64 30.584 1228.49 30.84 1228.27 31.16C1228.04 31.464 1227.69 31.736 1227.21 31.976C1226.73 32.216 1226.08 32.336 1225.24 32.336ZM1225.77 29.888C1226.62 29.888 1227.31 29.656 1227.84 29.192C1228.38 28.712 1228.65 28.08 1228.65 27.296V27.056H1225.6C1225.04 27.056 1224.6 27.176 1224.28 27.416C1223.96 27.656 1223.8 27.992 1223.8 28.424C1223.8 28.856 1223.97 29.208 1224.31 29.48C1224.64 29.752 1225.13 29.888 1225.77 29.888Z" fill="url(#paint8_linear_399_1234)"/>
<path d="M379.416 32.336C378.12 32.336 376.976 32.104 375.984 31.64C374.992 31.176 374.216 30.512 373.656 29.648C373.096 28.784 372.816 27.744 372.816 26.528V25.856H375.936V26.528C375.936 27.536 376.248 28.296 376.872 28.808C377.496 29.304 378.344 29.552 379.416 29.552C380.504 29.552 381.312 29.336 381.84 28.904C382.384 28.472 382.656 27.92 382.656 27.248C382.656 26.784 382.52 26.408 382.248 26.12C381.992 25.832 381.608 25.6 381.096 25.424C380.6 25.232 379.992 25.056 379.272 24.896L378.72 24.776C377.568 24.52 376.576 24.2 375.744 23.816C374.928 23.416 374.296 22.896 373.848 22.256C373.416 21.616 373.2 20.784 373.2 19.76C373.2 18.736 373.44 17.864 373.92 17.144C374.416 16.408 375.104 15.848 375.984 15.464C376.88 15.064 377.928 14.864 379.128 14.864C380.328 14.864 381.392 15.072 382.32 15.488C383.264 15.888 384 16.496 384.528 17.312C385.072 18.112 385.344 19.12 385.344 20.336V21.056H382.224V20.336C382.224 19.696 382.096 19.184 381.84 18.8C381.6 18.4 381.248 18.112 380.784 17.936C380.32 17.744 379.768 17.648 379.128 17.648C378.168 17.648 377.456 17.832 376.992 18.2C376.544 18.552 376.32 19.04 376.32 19.664C376.32 20.08 376.424 20.432 376.632 20.72C376.856 21.008 377.184 21.248 377.616 21.44C378.048 21.632 378.6 21.8 379.272 21.944L379.824 22.064C381.024 22.32 382.064 22.648 382.944 23.048C383.84 23.448 384.536 23.976 385.032 24.632C385.528 25.288 385.776 26.128 385.776 27.152C385.776 28.176 385.512 29.08 384.984 29.864C384.472 30.632 383.736 31.24 382.776 31.688C381.832 32.12 380.712 32.336 379.416 32.336ZM387.515 32V20.096H390.539V32H387.515ZM389.027 18.704C388.483 18.704 388.019 18.528 387.635 18.176C387.267 17.824 387.083 17.36 387.083 16.784C387.083 16.208 387.267 15.744 387.635 15.392C388.019 15.04 388.483 14.864 389.027 14.864C389.587 14.864 390.051 15.04 390.419 15.392C390.787 15.744 390.971 16.208 390.971 16.784C390.971 17.36 390.787 17.824 390.419 18.176C390.051 18.528 389.587 18.704 389.027 18.704ZM393.17 32V20.096H396.146V21.656H396.578C396.77 21.24 397.13 20.848 397.658 20.48C398.186 20.096 398.986 19.904 400.058 19.904C400.986 19.904 401.794 20.12 402.482 20.552C403.186 20.968 403.73 21.552 404.114 22.304C404.498 23.04 404.69 23.904 404.69 24.896V32H401.666V25.136C401.666 24.24 401.442 23.568 400.994 23.12C400.562 22.672 399.938 22.448 399.122 22.448C398.194 22.448 397.474 22.76 396.962 23.384C396.45 23.992 396.194 24.848 396.194 25.952V32H393.17ZM418.204 32.336C417.052 32.336 416.004 32.096 415.06 31.616C414.132 31.136 413.396 30.44 412.852 29.528C412.308 28.616 412.036 27.512 412.036 26.216V25.88C412.036 24.584 412.308 23.48 412.852 22.568C413.396 21.656 414.132 20.96 415.06 20.48C416.004 20 417.052 19.76 418.204 19.76C419.34 19.76 420.316 19.96 421.132 20.36C421.948 20.76 422.604 21.312 423.1 22.016C423.612 22.704 423.948 23.488 424.108 24.368L421.18 24.992C421.116 24.512 420.972 24.08 420.748 23.696C420.524 23.312 420.204 23.008 419.788 22.784C419.388 22.56 418.884 22.448 418.276 22.448C417.668 22.448 417.116 22.584 416.62 22.856C416.14 23.112 415.756 23.504 415.468 24.032C415.196 24.544 415.06 25.176 415.06 25.928V26.168C415.06 26.92 415.196 27.56 415.468 28.088C415.756 28.6 416.14 28.992 416.62 29.264C417.116 29.52 417.668 29.648 418.276 29.648C419.188 29.648 419.876 29.416 420.34 28.952C420.82 28.472 421.124 27.848 421.252 27.08L424.181 27.776C423.972 28.624 423.612 29.4 423.1 30.104C422.604 30.792 421.948 31.336 421.132 31.736C420.316 32.136 419.34 32.336 418.204 32.336ZM429.651 32.336C428.803 32.336 428.043 32.192 427.371 31.904C426.699 31.6 426.163 31.168 425.763 30.608C425.379 30.032 425.187 29.336 425.187 28.52C425.187 27.704 425.379 27.024 425.763 26.48C426.163 25.92 426.707 25.504 427.395 25.232C428.099 24.944 428.899 24.8 429.795 24.8H433.059V24.128C433.059 23.568 432.883 23.112 432.531 22.76C432.179 22.392 431.619 22.208 430.851 22.208C430.099 22.208 429.539 22.384 429.171 22.736C428.803 23.072 428.563 23.512 428.451 24.056L425.667 23.12C425.859 22.512 426.163 21.96 426.579 21.464C427.011 20.952 427.579 20.544 428.283 20.24C429.003 19.92 429.875 19.76 430.899 19.76C432.467 19.76 433.707 20.152 434.619 20.936C435.531 21.72 435.987 22.856 435.987 24.344V28.784C435.987 29.264 436.211 29.504 436.659 29.504H437.619V32H435.603C435.011 32 434.523 31.856 434.139 31.568C433.755 31.28 433.563 30.896 433.563 30.416V30.392H433.107C433.043 30.584 432.899 30.84 432.675 31.16C432.451 31.464 432.099 31.736 431.619 31.976C431.139 32.216 430.483 32.336 429.651 32.336ZM430.179 29.888C431.027 29.888 431.715 29.656 432.243 29.192C432.787 28.712 433.059 28.08 433.059 27.296V27.056H430.011C429.451 27.056 429.011 27.176 428.691 27.416C428.371 27.656 428.211 27.992 428.211 28.424C428.211 28.856 428.379 29.208 428.715 29.48C429.051 29.752 429.539 29.888 430.179 29.888ZM446.262 32.336C445.19 32.336 444.366 32.152 443.79 31.784C443.214 31.416 442.79 31.008 442.518 30.56H442.086V32H439.11V15.2H442.134V21.464H442.566C442.742 21.176 442.974 20.904 443.262 20.648C443.566 20.392 443.958 20.184 444.438 20.024C444.934 19.848 445.542 19.76 446.262 19.76C447.222 19.76 448.11 20 448.926 20.48C449.742 20.944 450.398 21.632 450.894 22.544C451.39 23.456 451.638 24.56 451.638 25.856V26.24C451.638 27.536 451.39 28.64 450.894 29.552C450.398 30.464 449.742 31.16 448.926 31.64C448.11 32.104 447.222 32.336 446.262 32.336ZM445.35 29.696C446.278 29.696 447.054 29.4 447.678 28.808C448.302 28.2 448.614 27.32 448.614 26.168V25.928C448.614 24.776 448.302 23.904 447.678 23.312C447.07 22.704 446.294 22.4 445.35 22.4C444.422 22.4 443.646 22.704 443.022 23.312C442.398 23.904 442.086 24.776 442.086 25.928V26.168C442.086 27.32 442.398 28.2 443.022 28.808C443.646 29.4 444.422 29.696 445.35 29.696ZM453.695 32V15.2H456.719V32H453.695ZM464.774 32.336C463.59 32.336 462.542 32.088 461.63 31.592C460.734 31.08 460.03 30.368 459.518 29.456C459.022 28.528 458.774 27.44 458.774 26.192V25.904C458.774 24.656 459.022 23.576 459.518 22.664C460.014 21.736 460.71 21.024 461.606 20.528C462.502 20.016 463.542 19.76 464.726 19.76C465.894 19.76 466.91 20.024 467.774 20.552C468.638 21.064 469.31 21.784 469.79 22.712C470.27 23.624 470.51 24.688 470.51 25.904V26.936H461.846C461.878 27.752 462.182 28.416 462.758 28.928C463.334 29.44 464.038 29.696 464.87 29.696C465.718 29.696 466.342 29.512 466.742 29.144C467.142 28.776 467.446 28.368 467.654 27.92L470.126 29.216C469.902 29.632 469.574 30.088 469.142 30.584C468.726 31.064 468.166 31.48 467.462 31.832C466.758 32.168 465.862 32.336 464.774 32.336ZM461.87 24.68H467.438C467.374 23.992 467.094 23.44 466.598 23.024C466.118 22.608 465.486 22.4 464.702 22.4C463.886 22.4 463.238 22.608 462.758 23.024C462.278 23.44 461.982 23.992 461.87 24.68ZM477.425 32.336C475.873 32.336 474.601 32 473.609 31.328C472.617 30.656 472.017 29.696 471.809 28.448L474.593 27.728C474.705 28.288 474.889 28.728 475.145 29.048C475.417 29.368 475.745 29.6 476.129 29.744C476.529 29.872 476.961 29.936 477.425 29.936C478.129 29.936 478.649 29.816 478.985 29.576C479.321 29.32 479.489 29.008 479.489 28.64C479.489 28.272 479.329 27.992 479.009 27.8C478.689 27.592 478.177 27.424 477.473 27.296L476.801 27.176C475.969 27.016 475.209 26.8 474.521 26.528C473.833 26.24 473.281 25.848 472.865 25.352C472.449 24.856 472.241 24.216 472.241 23.432C472.241 22.248 472.673 21.344 473.537 20.72C474.401 20.08 475.537 19.76 476.945 19.76C478.273 19.76 479.377 20.056 480.257 20.648C481.137 21.24 481.713 22.016 481.985 22.976L479.177 23.84C479.049 23.232 478.785 22.8 478.385 22.544C478.001 22.288 477.521 22.16 476.945 22.16C476.369 22.16 475.929 22.264 475.625 22.472C475.321 22.664 475.169 22.936 475.169 23.288C475.169 23.672 475.329 23.96 475.649 24.152C475.969 24.328 476.401 24.464 476.945 24.56L477.617 24.68C478.513 24.84 479.321 25.056 480.041 25.328C480.777 25.584 481.353 25.96 481.769 26.456C482.201 26.936 482.417 27.592 482.417 28.424C482.417 29.672 481.961 30.64 481.049 31.328C480.153 32 478.945 32.336 477.425 32.336Z" fill="url(#paint9_linear_399_1234)"/>
<path d="M536.438 32.336C535.062 32.336 533.878 32.088 532.886 31.592C531.91 31.08 531.158 30.36 530.63 29.432C530.118 28.488 529.862 27.376 529.862 26.096V15.2H533.03V26.192C533.03 27.216 533.318 28.024 533.894 28.616C534.486 29.208 535.334 29.504 536.438 29.504C537.542 29.504 538.382 29.208 538.958 28.616C539.55 28.024 539.846 27.216 539.846 26.192V15.2H543.014V26.096C543.014 27.376 542.75 28.488 542.222 29.432C541.71 30.36 540.958 31.08 539.966 31.592C538.99 32.088 537.814 32.336 536.438 32.336ZM551.195 32.336C549.899 32.336 548.755 32.104 547.763 31.64C546.771 31.176 545.995 30.512 545.435 29.648C544.875 28.784 544.595 27.744 544.595 26.528V25.856H547.715V26.528C547.715 27.536 548.027 28.296 548.651 28.808C549.275 29.304 550.123 29.552 551.195 29.552C552.283 29.552 553.091 29.336 553.619 28.904C554.163 28.472 554.435 27.92 554.435 27.248C554.435 26.784 554.299 26.408 554.027 26.12C553.771 25.832 553.387 25.6 552.875 25.424C552.379 25.232 551.771 25.056 551.051 24.896L550.499 24.776C549.347 24.52 548.355 24.2 547.523 23.816C546.707 23.416 546.075 22.896 545.627 22.256C545.195 21.616 544.979 20.784 544.979 19.76C544.979 18.736 545.219 17.864 545.699 17.144C546.195 16.408 546.883 15.848 547.763 15.464C548.659 15.064 549.707 14.864 550.907 14.864C552.107 14.864 553.171 15.072 554.099 15.488C555.043 15.888 555.779 16.496 556.307 17.312C556.851 18.112 557.123 19.12 557.123 20.336V21.056H554.003V20.336C554.003 19.696 553.875 19.184 553.619 18.8C553.379 18.4 553.027 18.112 552.563 17.936C552.099 17.744 551.547 17.648 550.907 17.648C549.947 17.648 549.235 17.832 548.771 18.2C548.323 18.552 548.099 19.04 548.099 19.664C548.099 20.08 548.203 20.432 548.411 20.72C548.635 21.008 548.963 21.248 549.395 21.44C549.827 21.632 550.379 21.8 551.051 21.944L551.603 22.064C552.803 22.32 553.843 22.648 554.723 23.048C555.619 23.448 556.315 23.976 556.811 24.632C557.307 25.288 557.555 26.128 557.555 27.152C557.555 28.176 557.291 29.08 556.763 29.864C556.251 30.632 555.515 31.24 554.555 31.688C553.611 32.12 552.491 32.336 551.195 32.336ZM558.624 32V29.216H560.832V17.984H558.624V15.2H567.264C568.288 15.2 569.176 15.376 569.928 15.728C570.696 16.064 571.288 16.552 571.704 17.192C572.136 17.816 572.352 18.568 572.352 19.448V19.688C572.352 20.456 572.208 21.088 571.92 21.584C571.632 22.064 571.288 22.44 570.888 22.712C570.504 22.968 570.136 23.152 569.784 23.264V23.696C570.136 23.792 570.52 23.976 570.936 24.248C571.352 24.504 571.704 24.88 571.992 25.376C572.296 25.872 572.448 26.52 572.448 27.32V27.56C572.448 28.488 572.232 29.288 571.8 29.96C571.368 30.616 570.768 31.12 570 31.472C569.248 31.824 568.368 32 567.36 32H558.624ZM564 29.12H566.976C567.664 29.12 568.216 28.952 568.632 28.616C569.064 28.28 569.28 27.8 569.28 27.176V26.936C569.28 26.312 569.072 25.832 568.656 25.496C568.24 25.16 567.68 24.992 566.976 24.992H564V29.12ZM564 22.112H566.928C567.584 22.112 568.12 21.944 568.536 21.608C568.968 21.272 569.184 20.808 569.184 20.216V19.976C569.184 19.368 568.976 18.904 568.56 18.584C568.144 18.248 567.6 18.08 566.928 18.08H564V22.112ZM574.369 27.248V24.512H581.473V27.248H574.369ZM590.345 32.336C588.265 32.336 586.617 31.76 585.401 30.608C584.185 29.44 583.577 27.776 583.577 25.616V21.584C583.577 19.424 584.185 17.768 585.401 16.616C586.617 15.448 588.265 14.864 590.345 14.864C592.409 14.864 594.001 15.432 595.121 16.568C596.257 17.688 596.825 19.232 596.825 21.2V21.344H593.705V21.104C593.705 20.112 593.425 19.296 592.865 18.656C592.321 18.016 591.481 17.696 590.345 17.696C589.225 17.696 588.345 18.04 587.705 18.728C587.065 19.416 586.745 20.352 586.745 21.536V25.664C586.745 26.832 587.065 27.768 587.705 28.472C588.345 29.16 589.225 29.504 590.345 29.504C591.481 29.504 592.321 29.184 592.865 28.544C593.425 27.888 593.705 27.072 593.705 26.096V25.664H596.825V26C596.825 27.968 596.257 29.52 595.121 30.656C594.001 31.776 592.409 32.336 590.345 32.336ZM604.156 32V20.096H607.132V21.44H607.564C607.74 20.96 608.028 20.608 608.428 20.384C608.844 20.16 609.324 20.048 609.868 20.048H611.308V22.736H609.82C609.052 22.736 608.42 22.944 607.924 23.36C607.428 23.76 607.18 24.384 607.18 25.232V32H604.156ZM617.953 32.336C616.769 32.336 615.721 32.088 614.809 31.592C613.913 31.08 613.209 30.368 612.697 29.456C612.201 28.528 611.953 27.44 611.953 26.192V25.904C611.953 24.656 612.201 23.576 612.697 22.664C613.193 21.736 613.889 21.024 614.785 20.528C615.681 20.016 616.721 19.76 617.905 19.76C619.073 19.76 620.089 20.024 620.953 20.552C621.817 21.064 622.489 21.784 622.969 22.712C623.449 23.624 623.689 24.688 623.689 25.904V26.936H615.025C615.057 27.752 615.361 28.416 615.937 28.928C616.513 29.44 617.217 29.696 618.049 29.696C618.897 29.696 619.521 29.512 619.921 29.144C620.321 28.776 620.625 28.368 620.833 27.92L623.305 29.216C623.081 29.632 622.753 30.088 622.321 30.584C621.905 31.064 621.345 31.48 620.641 31.832C619.937 32.168 619.041 32.336 617.953 32.336ZM615.049 24.68H620.617C620.553 23.992 620.273 23.44 619.777 23.024C619.297 22.608 618.665 22.4 617.881 22.4C617.065 22.4 616.417 22.608 615.937 23.024C615.457 23.44 615.161 23.992 615.049 24.68ZM631.253 32.336C630.101 32.336 629.053 32.096 628.109 31.616C627.181 31.136 626.445 30.44 625.901 29.528C625.357 28.616 625.085 27.512 625.085 26.216V25.88C625.085 24.584 625.357 23.48 625.901 22.568C626.445 21.656 627.181 20.96 628.109 20.48C629.053 20 630.101 19.76 631.253 19.76C632.389 19.76 633.365 19.96 634.181 20.36C634.997 20.76 635.653 21.312 636.149 22.016C636.661 22.704 636.997 23.488 637.157 24.368L634.229 24.992C634.165 24.512 634.021 24.08 633.797 23.696C633.573 23.312 633.253 23.008 632.837 22.784C632.437 22.56 631.933 22.448 631.325 22.448C630.717 22.448 630.165 22.584 629.669 22.856C629.189 23.112 628.805 23.504 628.517 24.032C628.245 24.544 628.109 25.176 628.109 25.928V26.168C628.109 26.92 628.245 27.56 628.517 28.088C628.805 28.6 629.189 28.992 629.669 29.264C630.165 29.52 630.717 29.648 631.325 29.648C632.237 29.648 632.925 29.416 633.389 28.952C633.869 28.472 634.173 27.848 634.301 27.08L637.229 27.776C637.021 28.624 636.661 29.4 636.149 30.104C635.653 30.792 634.997 31.336 634.181 31.736C633.365 32.136 632.389 32.336 631.253 32.336ZM642.699 32.336C641.851 32.336 641.091 32.192 640.419 31.904C639.747 31.6 639.211 31.168 638.811 30.608C638.427 30.032 638.235 29.336 638.235 28.52C638.235 27.704 638.427 27.024 638.811 26.48C639.211 25.92 639.755 25.504 640.443 25.232C641.147 24.944 641.947 24.8 642.843 24.8H646.107V24.128C646.107 23.568 645.931 23.112 645.579 22.76C645.227 22.392 644.667 22.208 643.899 22.208C643.147 22.208 642.587 22.384 642.219 22.736C641.851 23.072 641.611 23.512 641.499 24.056L638.715 23.12C638.907 22.512 639.211 21.96 639.627 21.464C640.059 20.952 640.627 20.544 641.331 20.24C642.051 19.92 642.923 19.76 643.947 19.76C645.515 19.76 646.755 20.152 647.667 20.936C648.579 21.72 649.035 22.856 649.035 24.344V28.784C649.035 29.264 649.259 29.504 649.707 29.504H650.667V32H648.651C648.059 32 647.571 31.856 647.187 31.568C646.803 31.28 646.611 30.896 646.611 30.416V30.392H646.155C646.091 30.584 645.947 30.84 645.723 31.16C645.499 31.464 645.147 31.736 644.667 31.976C644.187 32.216 643.531 32.336 642.699 32.336ZM643.227 29.888C644.075 29.888 644.763 29.656 645.291 29.192C645.835 28.712 646.107 28.08 646.107 27.296V27.056H643.059C642.499 27.056 642.059 27.176 641.739 27.416C641.419 27.656 641.259 27.992 641.259 28.424C641.259 28.856 641.427 29.208 641.763 29.48C642.099 29.752 642.587 29.888 643.227 29.888ZM652.158 32V20.096H655.134V21.44H655.566C655.742 20.96 656.03 20.608 656.43 20.384C656.846 20.16 657.326 20.048 657.87 20.048H659.31V22.736H657.822C657.054 22.736 656.422 22.944 655.926 23.36C655.43 23.76 655.182 24.384 655.182 25.232V32H652.158ZM659.956 26.096V25.712C659.956 24.464 660.204 23.4 660.7 22.52C661.196 21.624 661.852 20.944 662.668 20.48C663.5 20 664.404 19.76 665.38 19.76C666.468 19.76 667.292 19.952 667.852 20.336C668.412 20.72 668.82 21.12 669.076 21.536H669.508V20.096H672.484V34.112C672.484 34.928 672.244 35.576 671.764 36.056C671.284 36.552 670.644 36.8 669.844 36.8H661.876V34.16H668.788C669.236 34.16 669.46 33.92 669.46 33.44V30.344H669.028C668.868 30.6 668.644 30.864 668.356 31.136C668.068 31.392 667.684 31.608 667.204 31.784C666.724 31.96 666.116 32.048 665.38 32.048C664.404 32.048 663.5 31.816 662.668 31.352C661.852 30.872 661.196 30.192 660.7 29.312C660.204 28.416 659.956 27.344 659.956 26.096ZM666.244 29.408C667.172 29.408 667.948 29.112 668.572 28.52C669.196 27.928 669.508 27.096 669.508 26.024V25.784C669.508 24.696 669.196 23.864 668.572 23.288C667.964 22.696 667.188 22.4 666.244 22.4C665.316 22.4 664.54 22.696 663.916 23.288C663.292 23.864 662.98 24.696 662.98 25.784V26.024C662.98 27.096 663.292 27.928 663.916 28.52C664.54 29.112 665.316 29.408 666.244 29.408ZM678.813 32.336C677.965 32.336 677.205 32.192 676.533 31.904C675.861 31.6 675.325 31.168 674.925 30.608C674.541 30.032 674.349 29.336 674.349 28.52C674.349 27.704 674.541 27.024 674.925 26.48C675.325 25.92 675.869 25.504 676.557 25.232C677.261 24.944 678.061 24.8 678.957 24.8H682.221V24.128C682.221 23.568 682.045 23.112 681.693 22.76C681.341 22.392 680.781 22.208 680.013 22.208C679.261 22.208 678.701 22.384 678.333 22.736C677.965 23.072 677.725 23.512 677.613 24.056L674.829 23.12C675.021 22.512 675.325 21.96 675.741 21.464C676.173 20.952 676.741 20.544 677.445 20.24C678.165 19.92 679.037 19.76 680.061 19.76C681.629 19.76 682.869 20.152 683.781 20.936C684.693 21.72 685.149 22.856 685.149 24.344V28.784C685.149 29.264 685.373 29.504 685.821 29.504H686.781V32H684.765C684.173 32 683.685 31.856 683.301 31.568C682.917 31.28 682.725 30.896 682.725 30.416V30.392H682.269C682.205 30.584 682.061 30.84 681.837 31.16C681.613 31.464 681.261 31.736 680.781 31.976C680.301 32.216 679.645 32.336 678.813 32.336ZM679.341 29.888C680.189 29.888 680.877 29.656 681.405 29.192C681.949 28.712 682.221 28.08 682.221 27.296V27.056H679.173C678.613 27.056 678.173 27.176 677.853 27.416C677.533 27.656 677.373 27.992 677.373 28.424C677.373 28.856 677.541 29.208 677.877 29.48C678.213 29.752 678.701 29.888 679.341 29.888ZM695.424 32.336C694.352 32.336 693.528 32.152 692.952 31.784C692.376 31.416 691.952 31.008 691.68 30.56H691.248V32H688.272V15.2H691.296V21.464H691.728C691.904 21.176 692.136 20.904 692.424 20.648C692.728 20.392 693.12 20.184 693.6 20.024C694.096 19.848 694.704 19.76 695.424 19.76C696.384 19.76 697.272 20 698.088 20.48C698.904 20.944 699.56 21.632 700.056 22.544C700.552 23.456 700.8 24.56 700.8 25.856V26.24C700.8 27.536 700.552 28.64 700.056 29.552C699.56 30.464 698.904 31.16 698.088 31.64C697.272 32.104 696.384 32.336 695.424 32.336ZM694.512 29.696C695.44 29.696 696.216 29.4 696.84 28.808C697.464 28.2 697.776 27.32 697.776 26.168V25.928C697.776 24.776 697.464 23.904 696.84 23.312C696.232 22.704 695.456 22.4 694.512 22.4C693.584 22.4 692.808 22.704 692.184 23.312C691.56 23.904 691.248 24.776 691.248 25.928V26.168C691.248 27.32 691.56 28.2 692.184 28.808C692.808 29.4 693.584 29.696 694.512 29.696ZM702.857 32V15.2H705.881V32H702.857ZM713.936 32.336C712.752 32.336 711.704 32.088 710.792 31.592C709.896 31.08 709.192 30.368 708.68 29.456C708.184 28.528 707.936 27.44 707.936 26.192V25.904C707.936 24.656 708.184 23.576 708.68 22.664C709.176 21.736 709.872 21.024 710.768 20.528C711.664 20.016 712.704 19.76 713.888 19.76C715.056 19.76 716.072 20.024 716.936 20.552C717.8 21.064 718.472 21.784 718.952 22.712C719.432 23.624 719.672 24.688 719.672 25.904V26.936H711.008C711.04 27.752 711.344 28.416 711.92 28.928C712.496 29.44 713.2 29.696 714.032 29.696C714.88 29.696 715.504 29.512 715.904 29.144C716.304 28.776 716.608 28.368 716.816 27.92L719.288 29.216C719.064 29.632 718.736 30.088 718.304 30.584C717.888 31.064 717.328 31.48 716.624 31.832C715.92 32.168 715.024 32.336 713.936 32.336ZM711.032 24.68H716.6C716.536 23.992 716.256 23.44 715.76 23.024C715.28 22.608 714.648 22.4 713.864 22.4C713.048 22.4 712.4 22.608 711.92 23.024C711.44 23.44 711.144 23.992 711.032 24.68Z" fill="url(#paint10_linear_399_1234)"/>
</g>
<defs>
<linearGradient id="paint0_linear_399_1234" x1="639" y1="0" x2="639" y2="47" gradientUnits="userSpaceOnUse">
<stop stop-color="#E8E5E2"/>
<stop offset="0.538462" stop-color="#FDF8F2"/>
<stop offset="1" stop-color="#E8E5E2"/>
</linearGradient>
<linearGradient id="paint1_linear_399_1234" x1="2" y1="23.5" x2="499" y2="23.5" gradientUnits="userSpaceOnUse">
<stop offset="0.182692" stop-color="#58286A"/>
<stop offset="0.600962" stop-color="#DBA0E7"/>
<stop offset="0.826923" stop-color="#C29CCB"/>
</linearGradient>
<linearGradient id="paint2_linear_399_1234" x1="341" y1="9.5" x2="358" y2="9.5" gradientUnits="userSpaceOnUse">
<stop offset="0.182692" stop-color="#58286A"/>
<stop offset="0.600962" stop-color="#DBA0E7"/>
<stop offset="0.826923" stop-color="#C29CCB"/>
</linearGradient>
<linearGradient id="paint3_linear_399_1234" x1="499" y1="9.5" x2="516" y2="9.5" gradientUnits="userSpaceOnUse">
<stop offset="0.182692" stop-color="#58286A"/>
<stop offset="0.600962" stop-color="#DBA0E7"/>
<stop offset="0.826923" stop-color="#C29CCB"/>
</linearGradient>
<linearGradient id="paint4_linear_399_1234" x1="736" y1="9.5" x2="753" y2="9.5" gradientUnits="userSpaceOnUse">
<stop offset="0.182692" stop-color="#58286A"/>
<stop offset="0.600962" stop-color="#DBA0E7"/>
<stop offset="0.826923" stop-color="#C29CCB"/>
</linearGradient>
<linearGradient id="paint5_linear_399_1234" x1="931" y1="9.5" x2="948" y2="9.5" gradientUnits="userSpaceOnUse">
<stop offset="0.182692" stop-color="#58286A"/>
<stop offset="0.600962" stop-color="#DBA0E7"/>
<stop offset="0.826923" stop-color="#C29CCB"/>
</linearGradient>
<linearGradient id="paint6_linear_399_1234" x1="1252" y1="9.5" x2="1269" y2="9.5" gradientUnits="userSpaceOnUse">
<stop offset="0.182692" stop-color="#58286A"/>
<stop offset="0.600962" stop-color="#DBA0E7"/>
<stop offset="0.826923" stop-color="#C29CCB"/>
</linearGradient>
<linearGradient id="paint7_linear_399_1234" x1="765" y1="23.5" x2="916" y2="23.5" gradientUnits="userSpaceOnUse">
<stop offset="0.182692" stop-color="#58286A"/>
<stop offset="0.600962" stop-color="#DBA0E7"/>
<stop offset="0.826923" stop-color="#C29CCB"/>
</linearGradient>
<linearGradient id="paint8_linear_399_1234" x1="960" y1="23.5" x2="1240" y2="23.5" gradientUnits="userSpaceOnUse">
<stop offset="0.182692" stop-color="#58286A"/>
<stop offset="0.600962" stop-color="#DBA0E7"/>
<stop offset="0.826923" stop-color="#C29CCB"/>
</linearGradient>
<linearGradient id="paint9_linear_399_1234" x1="372" y1="23.5" x2="489" y2="23.5" gradientUnits="userSpaceOnUse">
<stop offset="0.182692" stop-color="#58286A"/>
<stop offset="0.600962" stop-color="#DBA0E7"/>
<stop offset="0.826923" stop-color="#C29CCB"/>
</linearGradient>
<linearGradient id="paint10_linear_399_1234" x1="523" y1="23.5" x2="727" y2="23.5" gradientUnits="userSpaceOnUse">
<stop offset="0.182692" stop-color="#58286A"/>
<stop offset="0.600962" stop-color="#DBA0E7"/>
<stop offset="0.826923" stop-color="#C29CCB"/>
</linearGradient>
<clipPath id="clip0_399_1234">
<rect width="1280" height="349" fill="white"/>
</clipPath>
</defs>
</svg>
