<svg width="1280" height="639" viewBox="0 0 1280 639" fill="none" xmlns="http://www.w3.org/2000/svg">
<ellipse cx="763" cy="346" rx="13" ry="12" fill="black" fill-opacity="0.01"/>
<ellipse cx="763" cy="345" rx="13" ry="12" fill="black" fill-opacity="0.01"/>
<path d="M764.376 350.512H762.024V345.736H757.608V343.6H762.024V338.848H764.376V343.6H768.792V345.736H764.376V350.512Z" fill="black"/>
<ellipse cx="763" cy="256" rx="13" ry="12" fill="black" fill-opacity="0.01"/>
<path d="M764.376 261.512H762.024V256.736H757.608V254.6H762.024V249.848H764.376V254.6H768.792V256.736H764.376V261.512Z" fill="black"/>
<ellipse cx="487" cy="174" rx="13" ry="12" fill="black" fill-opacity="0.01"/>
<ellipse cx="487" cy="174" rx="13" ry="12" fill="black" fill-opacity="0.01"/>
<path d="M488.376 179.512H486.024V174.736H481.608V172.6H486.024V167.848H488.376V172.6H492.792V174.736H488.376V179.512Z" fill="black"/>
<ellipse cx="487" cy="321" rx="13" ry="12" fill="black" fill-opacity="0.01"/>
<ellipse cx="487" cy="321" rx="13" ry="12" fill="black" fill-opacity="0.01"/>
<path d="M488.376 326.512H486.024V321.736H481.608V319.6H486.024V314.848H488.376V319.6H492.792V321.736H488.376V326.512Z" fill="black"/>
<ellipse cx="487" cy="378" rx="13" ry="12" fill="black" fill-opacity="0.01"/>
<path d="M488.376 383.512H486.024V378.736H481.608V376.6H486.024V371.848H488.376V376.6H492.792V378.736H488.376V383.512Z" fill="black"/>
</svg>
