<svg width="1280" height="1180" viewBox="0 0 1280 1180" fill="none" xmlns="http://www.w3.org/2000/svg">
<path d="M518.208 42V21.12H510.864V16.8H530.304V21.12H522.96V42H518.208ZM537.365 42.504C535.589 42.504 534.017 42.132 532.649 41.388C531.305 40.62 530.249 39.552 529.481 38.184C528.737 36.792 528.365 35.16 528.365 33.288V32.856C528.365 30.984 528.737 29.364 529.481 27.996C530.225 26.604 531.269 25.536 532.613 24.792C533.957 24.024 535.517 23.64 537.293 23.64C539.045 23.64 540.569 24.036 541.865 24.828C543.161 25.596 544.169 26.676 544.889 28.068C545.609 29.436 545.969 31.032 545.969 32.856V34.404H532.973C533.021 35.628 533.477 36.624 534.341 37.392C535.205 38.16 536.261 38.544 537.509 38.544C538.781 38.544 539.717 38.268 540.317 37.716C540.917 37.164 541.373 36.552 541.685 35.88L545.393 37.824C545.057 38.448 544.565 39.132 543.917 39.876C543.293 40.596 542.453 41.22 541.397 41.748C540.341 42.252 538.997 42.504 537.365 42.504ZM533.009 31.02H541.361C541.265 29.988 540.845 29.16 540.101 28.536C539.381 27.912 538.433 27.6 537.257 27.6C536.033 27.6 535.061 27.912 534.341 28.536C533.621 29.16 533.177 29.988 533.009 31.02ZM557.314 42.504C555.586 42.504 554.014 42.144 552.598 41.424C551.206 40.704 550.102 39.66 549.286 38.292C548.47 36.924 548.062 35.268 548.062 33.324V32.82C548.062 30.876 548.47 29.22 549.286 27.852C550.102 26.484 551.206 25.44 552.598 24.72C554.014 24 555.586 23.64 557.314 23.64C559.018 23.64 560.482 23.94 561.706 24.54C562.93 25.14 563.914 25.968 564.658 27.024C565.426 28.056 565.93 29.232 566.17 30.552L561.778 31.488C561.682 30.768 561.466 30.12 561.13 29.544C560.794 28.968 560.314 28.512 559.69 28.176C559.09 27.84 558.334 27.672 557.422 27.672C556.51 27.672 555.682 27.876 554.938 28.284C554.218 28.668 553.642 29.256 553.21 30.048C552.802 30.816 552.598 31.764 552.598 32.892V33.252C552.598 34.38 552.802 35.34 553.21 36.132C553.642 36.9 554.218 37.488 554.938 37.896C555.682 38.28 556.51 38.472 557.422 38.472C558.79 38.472 559.822 38.124 560.518 37.428C561.238 36.708 561.694 35.772 561.886 34.62L566.278 35.664C565.966 36.936 565.426 38.1 564.658 39.156C563.914 40.188 562.93 41.004 561.706 41.604C560.482 42.204 559.018 42.504 557.314 42.504ZM568.94 42V24.144H573.404V26.484H574.052C574.34 25.86 574.88 25.272 575.672 24.72C576.464 24.144 577.664 23.856 579.272 23.856C580.664 23.856 581.876 24.18 582.908 24.828C583.964 25.452 584.78 26.328 585.356 27.456C585.932 28.56 586.22 29.856 586.22 31.344V42H581.684V31.704C581.684 30.36 581.348 29.352 580.676 28.68C580.028 28.008 579.092 27.672 577.868 27.672C576.476 27.672 575.396 28.14 574.628 29.076C573.86 29.988 573.476 31.272 573.476 32.928V42H568.94ZM598.54 42.504C596.764 42.504 595.168 42.144 593.752 41.424C592.336 40.704 591.22 39.66 590.404 38.292C589.588 36.924 589.18 35.28 589.18 33.36V32.784C589.18 30.864 589.588 29.22 590.404 27.852C591.22 26.484 592.336 25.44 593.752 24.72C595.168 24 596.764 23.64 598.54 23.64C600.316 23.64 601.912 24 603.328 24.72C604.744 25.44 605.86 26.484 606.676 27.852C607.492 29.22 607.9 30.864 607.9 32.784V33.36C607.9 35.28 607.492 36.924 606.676 38.292C605.86 39.66 604.744 40.704 603.328 41.424C601.912 42.144 600.316 42.504 598.54 42.504ZM598.54 38.472C599.932 38.472 601.084 38.028 601.996 37.14C602.908 36.228 603.364 34.932 603.364 33.252V32.892C603.364 31.212 602.908 29.928 601.996 29.04C601.108 28.128 599.956 27.672 598.54 27.672C597.148 27.672 595.996 28.128 595.084 29.04C594.172 29.928 593.716 31.212 593.716 32.892V33.252C593.716 34.932 594.172 36.228 595.084 37.14C595.996 38.028 597.148 38.472 598.54 38.472ZM611.007 42V16.8H615.543V42H611.007ZM627.985 42.504C626.209 42.504 624.613 42.144 623.197 41.424C621.781 40.704 620.665 39.66 619.849 38.292C619.033 36.924 618.625 35.28 618.625 33.36V32.784C618.625 30.864 619.033 29.22 619.849 27.852C620.665 26.484 621.781 25.44 623.197 24.72C624.613 24 626.209 23.64 627.985 23.64C629.761 23.64 631.357 24 632.773 24.72C634.189 25.44 635.305 26.484 636.121 27.852C636.937 29.22 637.345 30.864 637.345 32.784V33.36C637.345 35.28 636.937 36.924 636.121 38.292C635.305 39.66 634.189 40.704 632.773 41.424C631.357 42.144 629.761 42.504 627.985 42.504ZM627.985 38.472C629.377 38.472 630.529 38.028 631.441 37.14C632.353 36.228 632.809 34.932 632.809 33.252V32.892C632.809 31.212 632.353 29.928 631.441 29.04C630.553 28.128 629.401 27.672 627.985 27.672C626.593 27.672 625.441 28.128 624.529 29.04C623.617 29.928 623.161 31.212 623.161 32.892V33.252C623.161 34.932 623.617 36.228 624.529 37.14C625.441 38.028 626.593 38.472 627.985 38.472ZM639.588 33.144V32.568C639.588 30.696 639.96 29.1 640.704 27.78C641.448 26.436 642.432 25.416 643.656 24.72C644.904 24 646.26 23.64 647.724 23.64C649.356 23.64 650.592 23.928 651.432 24.504C652.272 25.08 652.884 25.68 653.268 26.304H653.916V24.144H658.38V45.168C658.38 46.392 658.02 47.364 657.3 48.084C656.58 48.828 655.62 49.2 654.42 49.2H642.468V45.24H652.836C653.508 45.24 653.844 44.88 653.844 44.16V39.516H653.196C652.956 39.9 652.62 40.296 652.188 40.704C651.756 41.088 651.18 41.412 650.46 41.676C649.74 41.94 648.828 42.072 647.724 42.072C646.26 42.072 644.904 41.724 643.656 41.028C642.432 40.308 641.448 39.288 640.704 37.968C639.96 36.624 639.588 35.016 639.588 33.144ZM649.02 38.112C650.412 38.112 651.576 37.668 652.512 36.78C653.448 35.892 653.916 34.644 653.916 33.036V32.676C653.916 31.044 653.448 29.796 652.512 28.932C651.6 28.044 650.436 27.6 649.02 27.6C647.628 27.6 646.464 28.044 645.528 28.932C644.592 29.796 644.124 31.044 644.124 32.676V33.036C644.124 34.644 644.592 35.892 645.528 36.78C646.464 37.668 647.628 38.112 649.02 38.112ZM662.329 42V24.144H666.865V42H662.329ZM661.861 22.128L664.525 16.8H669.637L665.821 22.128H661.861ZM676.356 42.504C675.084 42.504 673.944 42.288 672.936 41.856C671.928 41.4 671.124 40.752 670.524 39.912C669.948 39.048 669.66 38.004 669.66 36.78C669.66 35.556 669.948 34.536 670.524 33.72C671.124 32.88 671.94 32.256 672.972 31.848C674.028 31.416 675.228 31.2 676.572 31.2H681.468V30.192C681.468 29.352 681.204 28.668 680.676 28.14C680.148 27.588 679.308 27.312 678.156 27.312C677.028 27.312 676.188 27.576 675.636 28.104C675.084 28.608 674.724 29.268 674.556 30.084L670.38 28.68C670.668 27.768 671.124 26.94 671.748 26.196C672.396 25.428 673.248 24.816 674.304 24.36C675.384 23.88 676.692 23.64 678.228 23.64C680.58 23.64 682.44 24.228 683.808 25.404C685.176 26.58 685.86 28.284 685.86 30.516V37.176C685.86 37.896 686.196 38.256 686.868 38.256H688.308V42H685.284C684.396 42 683.664 41.784 683.088 41.352C682.512 40.92 682.224 40.344 682.224 39.624V39.588H681.54C681.444 39.876 681.228 40.26 680.892 40.74C680.556 41.196 680.028 41.604 679.308 41.964C678.588 42.324 677.604 42.504 676.356 42.504ZM677.148 38.832C678.42 38.832 679.452 38.484 680.244 37.788C681.06 37.068 681.468 36.12 681.468 34.944V34.584H676.896C676.056 34.584 675.396 34.764 674.916 35.124C674.436 35.484 674.196 35.988 674.196 36.636C674.196 37.284 674.448 37.812 674.952 38.22C675.456 38.628 676.188 38.832 677.148 38.832ZM697.741 42V35.952L710.197 21.624V21.048H698.101V16.8H715.165V22.848L702.709 37.176V37.752H715.237V42H697.741ZM718.123 42V16.8H722.875V42H718.123ZM726.535 42V16.8H735.571L740.575 38.76H741.223V16.8H745.903V42H736.867L731.863 20.04H731.215V42H726.535ZM749.572 42V16.8H754.324V26.808H754.972L763.144 16.8H769.228L758.716 29.22L769.588 42H763.324L754.972 31.776H754.324V42H749.572Z" fill="url(#paint0_linear_393_223)"/>
<defs>
<linearGradient id="paint0_linear_393_223" x1="510" y1="25.5" x2="771" y2="25.5" gradientUnits="userSpaceOnUse">
<stop offset="0.182692" stop-color="#58286A"/>
<stop offset="0.600962" stop-color="#DBA0E7"/>
<stop offset="0.826923" stop-color="#C29CCB"/>
</linearGradient>
</defs>
</svg>
