<svg width="1280" height="783" viewBox="0 0 1280 783" fill="none" xmlns="http://www.w3.org/2000/svg">
<path d="M132.376 348V322.8H142.744C144.328 322.8 145.72 323.124 146.92 323.772C148.144 324.396 149.092 325.284 149.764 326.436C150.46 327.588 150.808 328.956 150.808 330.54V331.044C150.808 332.604 150.448 333.972 149.728 335.148C149.032 336.3 148.072 337.2 146.848 337.848C145.648 338.472 144.28 338.784 142.744 338.784H137.128V348H132.376ZM137.128 334.464H142.276C143.404 334.464 144.316 334.152 145.012 333.528C145.708 332.904 146.056 332.052 146.056 330.972V330.612C146.056 329.532 145.708 328.68 145.012 328.056C144.316 327.432 143.404 327.12 142.276 327.12H137.128V334.464ZM160.881 348.504C159.105 348.504 157.533 348.132 156.165 347.388C154.821 346.62 153.765 345.552 152.997 344.184C152.253 342.792 151.881 341.16 151.881 339.288V338.856C151.881 336.984 152.253 335.364 152.997 333.996C153.741 332.604 154.785 331.536 156.129 330.792C157.473 330.024 159.033 329.64 160.809 329.64C162.561 329.64 164.085 330.036 165.381 330.828C166.677 331.596 167.685 332.676 168.405 334.068C169.125 335.436 169.485 337.032 169.485 338.856V340.404H156.489C156.537 341.628 156.993 342.624 157.857 343.392C158.721 344.16 159.777 344.544 161.025 344.544C162.297 344.544 163.233 344.268 163.833 343.716C164.433 343.164 164.889 342.552 165.201 341.88L168.909 343.824C168.573 344.448 168.081 345.132 167.433 345.876C166.809 346.596 165.969 347.22 164.913 347.748C163.857 348.252 162.513 348.504 160.881 348.504ZM156.525 337.02H164.877C164.781 335.988 164.361 335.16 163.617 334.536C162.897 333.912 161.949 333.6 160.773 333.6C159.549 333.6 158.577 333.912 157.857 334.536C157.137 335.16 156.693 335.988 156.525 337.02ZM172.442 348V330.144H176.906V332.16H177.554C177.818 331.44 178.25 330.912 178.85 330.576C179.474 330.24 180.194 330.072 181.01 330.072H183.17V334.104H180.938C179.786 334.104 178.838 334.416 178.094 335.04C177.35 335.64 176.978 336.576 176.978 337.848V348H172.442ZM192.63 348.504C190.302 348.504 188.394 348 186.906 346.992C185.418 345.984 184.518 344.544 184.206 342.672L188.382 341.592C188.55 342.432 188.826 343.092 189.21 343.572C189.618 344.052 190.11 344.4 190.686 344.616C191.286 344.808 191.934 344.904 192.63 344.904C193.686 344.904 194.466 344.724 194.97 344.364C195.474 343.98 195.726 343.512 195.726 342.96C195.726 342.408 195.486 341.988 195.006 341.7C194.526 341.388 193.758 341.136 192.702 340.944L191.694 340.764C190.446 340.524 189.306 340.2 188.274 339.792C187.242 339.36 186.414 338.772 185.79 338.028C185.166 337.284 184.854 336.324 184.854 335.148C184.854 333.372 185.502 332.016 186.798 331.08C188.094 330.12 189.798 329.64 191.91 329.64C193.902 329.64 195.558 330.084 196.878 330.972C198.198 331.86 199.062 333.024 199.47 334.464L195.258 335.76C195.066 334.848 194.67 334.2 194.07 333.816C193.494 333.432 192.774 333.24 191.91 333.24C191.046 333.24 190.386 333.396 189.93 333.708C189.474 333.996 189.246 334.404 189.246 334.932C189.246 335.508 189.486 335.94 189.966 336.228C190.446 336.492 191.094 336.696 191.91 336.84L192.918 337.02C194.262 337.26 195.474 337.584 196.554 337.992C197.658 338.376 198.522 338.94 199.146 339.684C199.794 340.404 200.118 341.388 200.118 342.636C200.118 344.508 199.434 345.96 198.066 346.992C196.722 348 194.91 348.504 192.63 348.504ZM211.509 348.504C209.733 348.504 208.137 348.144 206.721 347.424C205.305 346.704 204.189 345.66 203.373 344.292C202.557 342.924 202.149 341.28 202.149 339.36V338.784C202.149 336.864 202.557 335.22 203.373 333.852C204.189 332.484 205.305 331.44 206.721 330.72C208.137 330 209.733 329.64 211.509 329.64C213.285 329.64 214.881 330 216.297 330.72C217.713 331.44 218.829 332.484 219.645 333.852C220.461 335.22 220.869 336.864 220.869 338.784V339.36C220.869 341.28 220.461 342.924 219.645 344.292C218.829 345.66 217.713 346.704 216.297 347.424C214.881 348.144 213.285 348.504 211.509 348.504ZM211.509 344.472C212.901 344.472 214.053 344.028 214.965 343.14C215.877 342.228 216.333 340.932 216.333 339.252V338.892C216.333 337.212 215.877 335.928 214.965 335.04C214.077 334.128 212.925 333.672 211.509 333.672C210.117 333.672 208.965 334.128 208.053 335.04C207.141 335.928 206.685 337.212 206.685 338.892V339.252C206.685 340.932 207.141 342.228 208.053 343.14C208.965 344.028 210.117 344.472 211.509 344.472ZM223.975 348V330.144H228.439V332.484H229.087C229.375 331.86 229.915 331.272 230.707 330.72C231.499 330.144 232.699 329.856 234.307 329.856C235.699 329.856 236.911 330.18 237.943 330.828C238.999 331.452 239.815 332.328 240.391 333.456C240.967 334.56 241.255 335.856 241.255 337.344V348H236.719V337.704C236.719 336.36 236.383 335.352 235.711 334.68C235.063 334.008 234.127 333.672 232.903 333.672C231.511 333.672 230.431 334.14 229.663 335.076C228.895 335.988 228.511 337.272 228.511 338.928V348H223.975ZM250.623 348.504C249.351 348.504 248.211 348.288 247.203 347.856C246.195 347.4 245.391 346.752 244.791 345.912C244.215 345.048 243.927 344.004 243.927 342.78C243.927 341.556 244.215 340.536 244.791 339.72C245.391 338.88 246.207 338.256 247.239 337.848C248.295 337.416 249.495 337.2 250.839 337.2H255.735V336.192C255.735 335.352 255.471 334.668 254.943 334.14C254.415 333.588 253.575 333.312 252.423 333.312C251.295 333.312 250.455 333.576 249.903 334.104C249.351 334.608 248.991 335.268 248.823 336.084L244.647 334.68C244.935 333.768 245.391 332.94 246.015 332.196C246.663 331.428 247.515 330.816 248.571 330.36C249.651 329.88 250.959 329.64 252.495 329.64C254.847 329.64 256.707 330.228 258.075 331.404C259.443 332.58 260.127 334.284 260.127 336.516V343.176C260.127 343.896 260.463 344.256 261.135 344.256H262.575V348H259.551C258.663 348 257.931 347.784 257.355 347.352C256.779 346.92 256.491 346.344 256.491 345.624V345.588H255.807C255.711 345.876 255.495 346.26 255.159 346.74C254.823 347.196 254.295 347.604 253.575 347.964C252.855 348.324 251.871 348.504 250.623 348.504ZM251.415 344.832C252.687 344.832 253.719 344.484 254.511 343.788C255.327 343.068 255.735 342.12 255.735 340.944V340.584H251.163C250.323 340.584 249.663 340.764 249.183 341.124C248.703 341.484 248.463 341.988 248.463 342.636C248.463 343.284 248.715 343.812 249.219 344.22C249.723 344.628 250.455 344.832 251.415 344.832ZM264.812 348V322.8H269.348V348H264.812ZM273.294 348V330.144H277.83V348H273.294ZM275.562 328.056C274.746 328.056 274.05 327.792 273.474 327.264C272.922 326.736 272.646 326.04 272.646 325.176C272.646 324.312 272.922 323.616 273.474 323.088C274.05 322.56 274.746 322.296 275.562 322.296C276.402 322.296 277.098 322.56 277.65 323.088C278.202 323.616 278.478 324.312 278.478 325.176C278.478 326.04 278.202 326.736 277.65 327.264C277.098 327.792 276.402 328.056 275.562 328.056ZM281.129 348V342.6L290.921 334.464V333.888H281.489V330.144H295.889V335.544L286.097 343.68V344.256H296.177V348H281.129ZM304.873 348.504C303.601 348.504 302.461 348.288 301.453 347.856C300.445 347.4 299.641 346.752 299.041 345.912C298.465 345.048 298.177 344.004 298.177 342.78C298.177 341.556 298.465 340.536 299.041 339.72C299.641 338.88 300.457 338.256 301.489 337.848C302.545 337.416 303.745 337.2 305.089 337.2H309.985V336.192C309.985 335.352 309.721 334.668 309.193 334.14C308.665 333.588 307.825 333.312 306.673 333.312C305.545 333.312 304.705 333.576 304.153 334.104C303.601 334.608 303.241 335.268 303.073 336.084L298.897 334.68C299.185 333.768 299.641 332.94 300.265 332.196C300.913 331.428 301.765 330.816 302.821 330.36C303.901 329.88 305.209 329.64 306.745 329.64C309.097 329.64 310.957 330.228 312.325 331.404C313.693 332.58 314.377 334.284 314.377 336.516V343.176C314.377 343.896 314.713 344.256 315.385 344.256H316.825V348H313.801C312.913 348 312.181 347.784 311.605 347.352C311.029 346.92 310.741 346.344 310.741 345.624V345.588H310.057C309.961 345.876 309.745 346.26 309.409 346.74C309.073 347.196 308.545 347.604 307.825 347.964C307.105 348.324 306.121 348.504 304.873 348.504ZM305.665 344.832C306.937 344.832 307.969 344.484 308.761 343.788C309.577 343.068 309.985 342.12 309.985 340.944V340.584H305.413C304.573 340.584 303.913 340.764 303.433 341.124C302.953 341.484 302.713 341.988 302.713 342.636C302.713 343.284 302.965 343.812 303.469 344.22C303.973 344.628 304.705 344.832 305.665 344.832ZM304.189 328.128L306.853 322.8H311.965L308.149 328.128H304.189ZM333.962 348C332.786 348 331.826 347.64 331.082 346.92C330.362 346.176 330.002 345.192 330.002 343.968V333.888H325.538V330.144H330.002V324.6H334.538V330.144H339.434V333.888H334.538V343.176C334.538 343.896 334.874 344.256 335.546 344.256H339.002V348H333.962ZM349.264 348.288C347.872 348.288 346.648 347.976 345.592 347.352C344.56 346.704 343.756 345.816 343.18 344.688C342.604 343.56 342.316 342.264 342.316 340.8V330.144H346.852V340.44C346.852 341.784 347.176 342.792 347.824 343.464C348.496 344.136 349.444 344.472 350.668 344.472C352.06 344.472 353.14 344.016 353.908 343.104C354.676 342.168 355.06 340.872 355.06 339.216V330.144H359.596V348H355.132V345.66H354.484C354.196 346.26 353.656 346.848 352.864 347.424C352.072 348 350.872 348.288 349.264 348.288ZM370.98 348.504C368.652 348.504 366.744 348 365.256 346.992C363.768 345.984 362.868 344.544 362.556 342.672L366.732 341.592C366.9 342.432 367.176 343.092 367.56 343.572C367.968 344.052 368.46 344.4 369.036 344.616C369.636 344.808 370.284 344.904 370.98 344.904C372.036 344.904 372.816 344.724 373.32 344.364C373.824 343.98 374.076 343.512 374.076 342.96C374.076 342.408 373.836 341.988 373.356 341.7C372.876 341.388 372.108 341.136 371.052 340.944L370.044 340.764C368.796 340.524 367.656 340.2 366.624 339.792C365.592 339.36 364.764 338.772 364.14 338.028C363.516 337.284 363.204 336.324 363.204 335.148C363.204 333.372 363.852 332.016 365.148 331.08C366.444 330.12 368.148 329.64 370.26 329.64C372.252 329.64 373.908 330.084 375.228 330.972C376.548 331.86 377.412 333.024 377.82 334.464L373.608 335.76C373.416 334.848 373.02 334.2 372.42 333.816C371.844 333.432 371.124 333.24 370.26 333.24C369.396 333.24 368.736 333.396 368.28 333.708C367.824 333.996 367.596 334.404 367.596 334.932C367.596 335.508 367.836 335.94 368.316 336.228C368.796 336.492 369.444 336.696 370.26 336.84L371.268 337.02C372.612 337.26 373.824 337.584 374.904 337.992C376.008 338.376 376.872 338.94 377.496 339.684C378.144 340.404 378.468 341.388 378.468 342.636C378.468 344.508 377.784 345.96 376.416 346.992C375.072 348 373.26 348.504 370.98 348.504ZM392.376 348V333.888H387.84V330.144H392.376V326.832C392.376 325.608 392.736 324.636 393.456 323.916C394.2 323.172 395.16 322.8 396.336 322.8H401.016V326.544H397.92C397.248 326.544 396.912 326.904 396.912 327.624V330.144H401.592V333.888H396.912V348H392.376ZM411.922 348.504C410.146 348.504 408.55 348.144 407.134 347.424C405.718 346.704 404.602 345.66 403.786 344.292C402.97 342.924 402.562 341.28 402.562 339.36V338.784C402.562 336.864 402.97 335.22 403.786 333.852C404.602 332.484 405.718 331.44 407.134 330.72C408.55 330 410.146 329.64 411.922 329.64C413.698 329.64 415.294 330 416.71 330.72C418.126 331.44 419.242 332.484 420.058 333.852C420.874 335.22 421.282 336.864 421.282 338.784V339.36C421.282 341.28 420.874 342.924 420.058 344.292C419.242 345.66 418.126 346.704 416.71 347.424C415.294 348.144 413.698 348.504 411.922 348.504ZM411.922 344.472C413.314 344.472 414.466 344.028 415.378 343.14C416.29 342.228 416.746 340.932 416.746 339.252V338.892C416.746 337.212 416.29 335.928 415.378 335.04C414.49 334.128 413.338 333.672 411.922 333.672C410.53 333.672 409.378 334.128 408.466 335.04C407.554 335.928 407.098 337.212 407.098 338.892V339.252C407.098 340.932 407.554 342.228 408.466 343.14C409.378 344.028 410.53 344.472 411.922 344.472ZM430.631 348C429.455 348 428.495 347.64 427.751 346.92C427.031 346.176 426.671 345.192 426.671 343.968V333.888H422.207V330.144H426.671V324.6H431.207V330.144H436.103V333.888H431.207V343.176C431.207 343.896 431.543 344.256 432.215 344.256H435.671V348H430.631ZM446.992 348.504C445.216 348.504 443.62 348.144 442.204 347.424C440.788 346.704 439.672 345.66 438.856 344.292C438.04 342.924 437.632 341.28 437.632 339.36V338.784C437.632 336.864 438.04 335.22 438.856 333.852C439.672 332.484 440.788 331.44 442.204 330.72C443.62 330 445.216 329.64 446.992 329.64C448.768 329.64 450.364 330 451.78 330.72C453.196 331.44 454.312 332.484 455.128 333.852C455.944 335.22 456.352 336.864 456.352 338.784V339.36C456.352 341.28 455.944 342.924 455.128 344.292C454.312 345.66 453.196 346.704 451.78 347.424C450.364 348.144 448.768 348.504 446.992 348.504ZM446.992 344.472C448.384 344.472 449.536 344.028 450.448 343.14C451.36 342.228 451.816 340.932 451.816 339.252V338.892C451.816 337.212 451.36 335.928 450.448 335.04C449.56 334.128 448.408 333.672 446.992 333.672C445.6 333.672 444.448 334.128 443.536 335.04C442.624 335.928 442.168 337.212 442.168 338.892V339.252C442.168 340.932 442.624 342.228 443.536 343.14C444.448 344.028 445.6 344.472 446.992 344.472ZM466.875 348.504C464.547 348.504 462.639 348 461.151 346.992C459.663 345.984 458.763 344.544 458.451 342.672L462.627 341.592C462.795 342.432 463.071 343.092 463.455 343.572C463.863 344.052 464.355 344.4 464.931 344.616C465.531 344.808 466.179 344.904 466.875 344.904C467.931 344.904 468.711 344.724 469.215 344.364C469.719 343.98 469.971 343.512 469.971 342.96C469.971 342.408 469.731 341.988 469.251 341.7C468.771 341.388 468.003 341.136 466.947 340.944L465.939 340.764C464.691 340.524 463.551 340.2 462.519 339.792C461.487 339.36 460.659 338.772 460.035 338.028C459.411 337.284 459.099 336.324 459.099 335.148C459.099 333.372 459.747 332.016 461.043 331.08C462.339 330.12 464.043 329.64 466.155 329.64C468.147 329.64 469.803 330.084 471.123 330.972C472.443 331.86 473.307 333.024 473.715 334.464L469.503 335.76C469.311 334.848 468.915 334.2 468.315 333.816C467.739 333.432 467.019 333.24 466.155 333.24C465.291 333.24 464.631 333.396 464.175 333.708C463.719 333.996 463.491 334.404 463.491 334.932C463.491 335.508 463.731 335.94 464.211 336.228C464.691 336.492 465.339 336.696 466.155 336.84L467.163 337.02C468.507 337.26 469.719 337.584 470.799 337.992C471.903 338.376 472.767 338.94 473.391 339.684C474.039 340.404 474.363 341.388 474.363 342.636C474.363 344.508 473.679 345.96 472.311 346.992C470.967 348 469.155 348.504 466.875 348.504Z" fill="url(#paint0_linear_393_567)"/>
<path d="M138.272 379L134.192 372.184L132.848 369.704H132.8V372.184V379H131.488V367.832H133.04L137.12 374.648L138.464 377.128H138.512V374.648V367.832H139.824V379H138.272ZM147.121 379V377.656H147.056C146.896 378.051 146.64 378.408 146.288 378.728C145.947 379.037 145.43 379.192 144.736 379.192C143.894 379.192 143.216 378.92 142.704 378.376C142.203 377.821 141.952 377.043 141.952 376.04V370.744H143.232V375.816C143.232 376.552 143.392 377.107 143.712 377.48C144.032 377.853 144.502 378.04 145.121 378.04C145.462 378.04 145.782 377.987 146.081 377.88C146.39 377.763 146.64 377.587 146.832 377.352C147.025 377.117 147.121 376.819 147.121 376.456V370.744H148.4V379H147.121ZM153.59 379.192C152.844 379.192 152.193 379.016 151.638 378.664C151.084 378.301 150.652 377.8 150.342 377.16C150.033 376.509 149.878 375.747 149.878 374.872C149.878 373.997 150.033 373.24 150.342 372.6C150.652 371.949 151.084 371.448 151.638 371.096C152.193 370.733 152.844 370.552 153.59 370.552C154.326 370.552 154.961 370.728 155.494 371.08C156.028 371.421 156.438 371.896 156.726 372.504C157.014 373.112 157.158 373.805 157.158 374.584V375.192H151.222V375.576C151.222 376.291 151.436 376.888 151.862 377.368C152.3 377.837 152.902 378.072 153.67 378.072C154.193 378.072 154.646 377.949 155.03 377.704C155.425 377.459 155.729 377.107 155.942 376.648L156.854 377.304C156.588 377.859 156.172 378.312 155.606 378.664C155.041 379.016 154.369 379.192 153.59 379.192ZM153.59 371.624C153.132 371.624 152.721 371.731 152.358 371.944C152.006 372.157 151.729 372.456 151.526 372.84C151.324 373.213 151.222 373.64 151.222 374.12V374.232H155.782V374.056C155.782 373.565 155.692 373.139 155.51 372.776C155.329 372.413 155.073 372.131 154.742 371.928C154.412 371.725 154.028 371.624 153.59 371.624ZM161.108 379.192C160.35 379.192 159.71 379.048 159.188 378.76C158.665 378.461 158.217 378.067 157.843 377.576L158.755 376.84C159.075 377.235 159.433 377.544 159.828 377.768C160.222 377.992 160.681 378.104 161.204 378.104C161.748 378.104 162.169 377.987 162.468 377.752C162.777 377.517 162.931 377.187 162.931 376.76C162.931 376.44 162.825 376.163 162.612 375.928C162.409 375.693 162.036 375.539 161.491 375.464L160.836 375.368C160.334 375.293 159.881 375.171 159.476 375C159.07 374.819 158.75 374.568 158.515 374.248C158.291 373.917 158.179 373.496 158.179 372.984C158.179 372.163 158.457 371.555 159.012 371.16C159.577 370.755 160.281 370.552 161.124 370.552C161.572 370.552 161.966 370.605 162.308 370.712C162.66 370.819 162.974 370.973 163.252 371.176C163.529 371.368 163.78 371.603 164.004 371.88L163.156 372.648C162.974 372.392 162.708 372.163 162.356 371.96C162.004 371.747 161.561 371.64 161.028 371.64C160.505 371.64 160.105 371.757 159.828 371.992C159.55 372.216 159.411 372.525 159.411 372.92C159.411 373.315 159.545 373.608 159.812 373.8C160.089 373.981 160.484 374.115 160.996 374.2L161.635 374.296C162.553 374.435 163.204 374.701 163.588 375.096C163.972 375.48 164.164 375.987 164.164 376.616C164.164 377.149 164.041 377.608 163.796 377.992C163.55 378.376 163.198 378.675 162.74 378.888C162.281 379.091 161.737 379.192 161.108 379.192ZM169.099 379H167.499C167.062 379 166.726 378.872 166.491 378.616C166.256 378.36 166.139 378.035 166.139 377.64V371.864H164.779V370.744H165.547C165.824 370.744 166.011 370.691 166.107 370.584C166.214 370.467 166.267 370.269 166.267 369.992V368.456H167.419V370.744H169.227V371.864H167.419V377.88H169.099V379ZM171.924 379H170.644V370.744H171.924V372.264H172.004C172.1 371.997 172.25 371.752 172.452 371.528C172.655 371.293 172.916 371.107 173.236 370.968C173.556 370.819 173.94 370.744 174.388 370.744H174.884V372.024H174.132C173.674 372.024 173.279 372.088 172.948 372.216C172.618 372.333 172.362 372.493 172.18 372.696C172.01 372.899 171.924 373.133 171.924 373.4V379ZM182.537 379H181.817C181.476 379 181.198 378.931 180.985 378.792C180.772 378.643 180.617 378.44 180.521 378.184C180.425 377.928 180.377 377.635 180.377 377.304V377.192L180.873 377.656H180.313C180.142 378.157 179.844 378.541 179.417 378.808C179.001 379.064 178.505 379.192 177.929 379.192C177.054 379.192 176.372 378.968 175.881 378.52C175.401 378.072 175.161 377.464 175.161 376.696C175.161 376.173 175.289 375.736 175.545 375.384C175.801 375.021 176.185 374.749 176.697 374.568C177.22 374.376 177.881 374.28 178.681 374.28H180.313V373.464C180.313 372.877 180.153 372.429 179.833 372.12C179.513 371.811 179.022 371.656 178.361 371.656C177.87 371.656 177.454 371.768 177.113 371.992C176.772 372.216 176.489 372.515 176.265 372.888L175.497 372.168C175.721 371.731 176.078 371.352 176.569 371.032C177.06 370.712 177.678 370.552 178.425 370.552C179.417 370.552 180.19 370.797 180.745 371.288C181.31 371.779 181.593 372.461 181.593 373.336V377.88H182.537V379ZM180.313 375.24H178.617C177.892 375.24 177.358 375.347 177.017 375.56C176.676 375.773 176.505 376.083 176.505 376.488V376.824C176.505 377.229 176.654 377.544 176.953 377.768C177.252 377.992 177.646 378.104 178.137 378.104C178.564 378.104 178.937 378.04 179.257 377.912C179.588 377.773 179.844 377.592 180.025 377.368C180.217 377.133 180.313 376.877 180.313 376.6V375.24ZM193.585 379H192.865C192.524 379 192.246 378.931 192.033 378.792C191.82 378.643 191.665 378.44 191.569 378.184C191.473 377.928 191.425 377.635 191.425 377.304V377.192L191.921 377.656H191.361C191.19 378.157 190.892 378.541 190.465 378.808C190.049 379.064 189.553 379.192 188.977 379.192C188.102 379.192 187.42 378.968 186.929 378.52C186.449 378.072 186.209 377.464 186.209 376.696C186.209 376.173 186.337 375.736 186.593 375.384C186.849 375.021 187.233 374.749 187.745 374.568C188.268 374.376 188.929 374.28 189.729 374.28H191.361V373.464C191.361 372.877 191.201 372.429 190.881 372.12C190.561 371.811 190.07 371.656 189.409 371.656C188.918 371.656 188.502 371.768 188.161 371.992C187.82 372.216 187.537 372.515 187.313 372.888L186.545 372.168C186.769 371.731 187.126 371.352 187.617 371.032C188.108 370.712 188.726 370.552 189.473 370.552C190.465 370.552 191.238 370.797 191.793 371.288C192.358 371.779 192.641 372.461 192.641 373.336V377.88H193.585V379ZM191.361 375.24H189.665C188.94 375.24 188.406 375.347 188.065 375.56C187.724 375.773 187.553 376.083 187.553 376.488V376.824C187.553 377.229 187.702 377.544 188.001 377.768C188.3 377.992 188.694 378.104 189.185 378.104C189.612 378.104 189.985 378.04 190.305 377.912C190.636 377.773 190.892 377.592 191.073 377.368C191.265 377.133 191.361 376.877 191.361 376.6V375.24ZM194.772 382.2V370.744H196.052V372.088H196.116C196.329 371.565 196.644 371.181 197.06 370.936C197.476 370.68 197.967 370.552 198.532 370.552C199.225 370.552 199.823 370.728 200.324 371.08C200.825 371.432 201.209 371.933 201.476 372.584C201.753 373.224 201.892 373.987 201.892 374.872C201.892 375.747 201.753 376.509 201.476 377.16C201.209 377.811 200.825 378.312 200.324 378.664C199.823 379.016 199.225 379.192 198.532 379.192C197.967 379.192 197.481 379.064 197.076 378.808C196.681 378.552 196.361 378.168 196.116 377.656H196.052V382.2H194.772ZM198.18 378.04C198.905 378.04 199.476 377.816 199.892 377.368C200.308 376.909 200.516 376.312 200.516 375.576V374.168C200.516 373.432 200.308 372.84 199.892 372.392C199.476 371.933 198.905 371.704 198.18 371.704C197.796 371.704 197.439 371.773 197.108 371.912C196.788 372.051 196.532 372.237 196.34 372.472C196.148 372.707 196.052 372.979 196.052 373.288V376.36C196.052 376.712 196.148 377.016 196.34 377.272C196.532 377.517 196.788 377.709 197.108 377.848C197.439 377.976 197.796 378.04 198.18 378.04ZM203.413 382.2V370.744H204.693V372.088H204.757C204.97 371.565 205.285 371.181 205.701 370.936C206.117 370.68 206.608 370.552 207.173 370.552C207.866 370.552 208.464 370.728 208.965 371.08C209.466 371.432 209.85 371.933 210.117 372.584C210.394 373.224 210.533 373.987 210.533 374.872C210.533 375.747 210.394 376.509 210.117 377.16C209.85 377.811 209.466 378.312 208.965 378.664C208.464 379.016 207.866 379.192 207.173 379.192C206.608 379.192 206.122 379.064 205.717 378.808C205.322 378.552 205.002 378.168 204.757 377.656H204.693V382.2H203.413ZM206.821 378.04C207.546 378.04 208.117 377.816 208.533 377.368C208.949 376.909 209.157 376.312 209.157 375.576V374.168C209.157 373.432 208.949 372.84 208.533 372.392C208.117 371.933 207.546 371.704 206.821 371.704C206.437 371.704 206.08 371.773 205.749 371.912C205.429 372.051 205.173 372.237 204.981 372.472C204.789 372.707 204.693 372.979 204.693 373.288V376.36C204.693 376.712 204.789 377.016 204.981 377.272C205.173 377.517 205.429 377.709 205.749 377.848C206.08 377.976 206.437 378.04 206.821 378.04ZM218.62 379H217.02C216.582 379 216.246 378.872 216.012 378.616C215.777 378.36 215.66 378.035 215.66 377.64V371.864H214.3V370.744H215.068C215.345 370.744 215.532 370.691 215.628 370.584C215.734 370.467 215.788 370.269 215.788 369.992V368.456H216.94V370.744H218.748V371.864H216.94V377.88H218.62V379ZM223.207 379.192C222.46 379.192 221.809 379.016 221.255 378.664C220.7 378.301 220.268 377.8 219.959 377.16C219.649 376.509 219.495 375.747 219.495 374.872C219.495 373.997 219.649 373.24 219.959 372.6C220.268 371.949 220.7 371.448 221.255 371.096C221.809 370.733 222.46 370.552 223.207 370.552C223.943 370.552 224.577 370.728 225.111 371.08C225.644 371.421 226.055 371.896 226.343 372.504C226.631 373.112 226.775 373.805 226.775 374.584V375.192H220.839V375.576C220.839 376.291 221.052 376.888 221.479 377.368C221.916 377.837 222.519 378.072 223.287 378.072C223.809 378.072 224.263 377.949 224.647 377.704C225.041 377.459 225.345 377.107 225.559 376.648L226.471 377.304C226.204 377.859 225.788 378.312 225.223 378.664C224.657 379.016 223.985 379.192 223.207 379.192ZM223.207 371.624C222.748 371.624 222.337 371.731 221.975 371.944C221.623 372.157 221.345 372.456 221.143 372.84C220.94 373.213 220.839 373.64 220.839 374.12V374.232H225.399V374.056C225.399 373.565 225.308 373.139 225.127 372.776C224.945 372.413 224.689 372.131 224.359 371.928C224.028 371.725 223.644 371.624 223.207 371.624ZM231.385 382.2V370.744H232.665V372.088H232.729C232.942 371.565 233.257 371.181 233.673 370.936C234.089 370.68 234.58 370.552 235.145 370.552C235.838 370.552 236.436 370.728 236.937 371.08C237.438 371.432 237.822 371.933 238.089 372.584C238.366 373.224 238.505 373.987 238.505 374.872C238.505 375.747 238.366 376.509 238.089 377.16C237.822 377.811 237.438 378.312 236.937 378.664C236.436 379.016 235.838 379.192 235.145 379.192C234.58 379.192 234.094 379.064 233.689 378.808C233.294 378.552 232.974 378.168 232.729 377.656H232.665V382.2H231.385ZM234.793 378.04C235.518 378.04 236.089 377.816 236.505 377.368C236.921 376.909 237.129 376.312 237.129 375.576V374.168C237.129 373.432 236.921 372.84 236.505 372.392C236.089 371.933 235.518 371.704 234.793 371.704C234.409 371.704 234.052 371.773 233.721 371.912C233.401 372.051 233.145 372.237 232.953 372.472C232.761 372.707 232.665 372.979 232.665 373.288V376.36C232.665 376.712 232.761 377.016 232.953 377.272C233.145 377.517 233.401 377.709 233.721 377.848C234.052 377.976 234.409 378.04 234.793 378.04ZM243.13 379.192C242.384 379.192 241.733 379.016 241.178 378.664C240.624 378.301 240.192 377.8 239.882 377.16C239.573 376.509 239.418 375.747 239.418 374.872C239.418 373.997 239.573 373.24 239.882 372.6C240.192 371.949 240.624 371.448 241.178 371.096C241.733 370.733 242.384 370.552 243.13 370.552C243.866 370.552 244.501 370.728 245.034 371.08C245.568 371.421 245.978 371.896 246.266 372.504C246.554 373.112 246.698 373.805 246.698 374.584V375.192H240.762V375.576C240.762 376.291 240.976 376.888 241.402 377.368C241.84 377.837 242.442 378.072 243.21 378.072C243.733 378.072 244.186 377.949 244.57 377.704C244.965 377.459 245.269 377.107 245.482 376.648L246.394 377.304C246.128 377.859 245.712 378.312 245.146 378.664C244.581 379.016 243.909 379.192 243.13 379.192ZM243.13 371.624C242.672 371.624 242.261 371.731 241.898 371.944C241.546 372.157 241.269 372.456 241.066 372.84C240.864 373.213 240.762 373.64 240.762 374.12V374.232H245.322V374.056C245.322 373.565 245.232 373.139 245.05 372.776C244.869 372.413 244.613 372.131 244.282 371.928C243.952 371.725 243.568 371.624 243.13 371.624ZM249.448 379H248.168V370.744H249.448V372.264H249.528C249.624 371.997 249.773 371.752 249.976 371.528C250.178 371.293 250.44 371.107 250.76 370.968C251.08 370.819 251.464 370.744 251.912 370.744H252.408V372.024H251.656C251.197 372.024 250.802 372.088 250.472 372.216C250.141 372.333 249.885 372.493 249.704 372.696C249.533 372.899 249.448 373.133 249.448 373.4V379ZM254.683 379H253.403V370.744H254.683V372.088H254.747C254.928 371.661 255.184 371.299 255.515 371C255.845 370.701 256.331 370.552 256.971 370.552C257.515 370.552 258.016 370.685 258.475 370.952C258.933 371.208 259.275 371.635 259.499 372.232H259.531C259.68 371.784 259.957 371.395 260.363 371.064C260.779 370.723 261.339 370.552 262.043 370.552C262.885 370.552 263.541 370.829 264.011 371.384C264.491 371.928 264.731 372.701 264.731 373.704V379H263.451V373.928C263.451 373.203 263.307 372.653 263.019 372.28C262.731 371.896 262.272 371.704 261.643 371.704C261.312 371.704 260.997 371.763 260.699 371.88C260.4 371.987 260.16 372.157 259.979 372.392C259.797 372.627 259.707 372.92 259.707 373.272V379H258.427V373.928C258.427 373.192 258.283 372.637 257.995 372.264C257.707 371.891 257.259 371.704 256.651 371.704C256.32 371.704 256 371.763 255.691 371.88C255.392 371.987 255.147 372.157 254.955 372.392C254.773 372.627 254.683 372.92 254.683 373.272V379ZM267.371 368.808C267.105 368.808 266.907 368.744 266.779 368.616C266.651 368.477 266.587 368.301 266.587 368.088V367.88C266.587 367.667 266.651 367.496 266.779 367.368C266.907 367.229 267.105 367.16 267.371 367.16C267.649 367.16 267.846 367.229 267.963 367.368C268.091 367.496 268.155 367.667 268.155 367.88V368.088C268.155 368.301 268.091 368.477 267.963 368.616C267.846 368.744 267.649 368.808 267.371 368.808ZM266.731 379V370.744H268.011V379H266.731ZM273.515 379H271.915C271.478 379 271.142 378.872 270.907 378.616C270.673 378.36 270.555 378.035 270.555 377.64V371.864H269.195V370.744H269.963C270.241 370.744 270.427 370.691 270.523 370.584C270.63 370.467 270.683 370.269 270.683 369.992V368.456H271.835V370.744H273.643V371.864H271.835V377.88H273.515V379ZM278.102 379.192C277.355 379.192 276.705 379.016 276.15 378.664C275.595 378.301 275.163 377.8 274.854 377.16C274.545 376.509 274.39 375.747 274.39 374.872C274.39 373.997 274.545 373.24 274.854 372.6C275.163 371.949 275.595 371.448 276.15 371.096C276.705 370.733 277.355 370.552 278.102 370.552C278.838 370.552 279.473 370.728 280.006 371.08C280.539 371.421 280.95 371.896 281.238 372.504C281.526 373.112 281.67 373.805 281.67 374.584V375.192H275.734V375.576C275.734 376.291 275.947 376.888 276.374 377.368C276.811 377.837 277.414 378.072 278.182 378.072C278.705 378.072 279.158 377.949 279.542 377.704C279.937 377.459 280.241 377.107 280.454 376.648L281.366 377.304C281.099 377.859 280.683 378.312 280.118 378.664C279.553 379.016 278.881 379.192 278.102 379.192ZM278.102 371.624C277.643 371.624 277.233 371.731 276.87 371.944C276.518 372.157 276.241 372.456 276.038 372.84C275.835 373.213 275.734 373.64 275.734 374.12V374.232H280.294V374.056C280.294 373.565 280.203 373.139 280.022 372.776C279.841 372.413 279.585 372.131 279.254 371.928C278.923 371.725 278.539 371.624 278.102 371.624ZM289.385 379.192C288.638 379.192 287.987 379.016 287.433 378.664C286.878 378.301 286.446 377.8 286.137 377.16C285.827 376.509 285.673 375.747 285.673 374.872C285.673 373.997 285.827 373.24 286.137 372.6C286.446 371.949 286.878 371.448 287.433 371.096C287.987 370.733 288.638 370.552 289.385 370.552C290.121 370.552 290.755 370.728 291.289 371.08C291.822 371.421 292.233 371.896 292.521 372.504C292.809 373.112 292.953 373.805 292.953 374.584V375.192H287.017V375.576C287.017 376.291 287.23 376.888 287.657 377.368C288.094 377.837 288.697 378.072 289.465 378.072C289.987 378.072 290.441 377.949 290.825 377.704C291.219 377.459 291.523 377.107 291.737 376.648L292.649 377.304C292.382 377.859 291.966 378.312 291.401 378.664C290.835 379.016 290.163 379.192 289.385 379.192ZM289.385 371.624C288.926 371.624 288.515 371.731 288.153 371.944C287.801 372.157 287.523 372.456 287.321 372.84C287.118 373.213 287.017 373.64 287.017 374.12V374.232H291.577V374.056C291.577 373.565 291.486 373.139 291.305 372.776C291.123 372.413 290.867 372.131 290.537 371.928C290.206 371.725 289.822 371.624 289.385 371.624ZM299.702 379V377.656H299.638C299.393 378.168 299.067 378.552 298.662 378.808C298.267 379.064 297.787 379.192 297.222 379.192C296.539 379.192 295.942 379.016 295.43 378.664C294.929 378.312 294.539 377.811 294.262 377.16C293.995 376.509 293.862 375.747 293.862 374.872C293.862 373.987 293.995 373.224 294.262 372.584C294.539 371.933 294.929 371.432 295.43 371.08C295.942 370.728 296.539 370.552 297.222 370.552C297.787 370.552 298.278 370.68 298.694 370.936C299.11 371.181 299.425 371.565 299.638 372.088H299.702V367.16H300.982V379H299.702ZM297.574 378.04C297.969 378.04 298.326 377.976 298.646 377.848C298.966 377.709 299.222 377.517 299.414 377.272C299.606 377.016 299.702 376.712 299.702 376.36V373.288C299.702 372.979 299.606 372.707 299.414 372.472C299.222 372.237 298.966 372.051 298.646 371.912C298.326 371.773 297.969 371.704 297.574 371.704C296.859 371.704 296.289 371.933 295.862 372.392C295.446 372.84 295.238 373.432 295.238 374.168V375.576C295.238 376.312 295.446 376.909 295.862 377.368C296.289 377.816 296.859 378.04 297.574 378.04ZM303.703 368.808C303.436 368.808 303.239 368.744 303.111 368.616C302.983 368.477 302.919 368.301 302.919 368.088V367.88C302.919 367.667 302.983 367.496 303.111 367.368C303.239 367.229 303.436 367.16 303.703 367.16C303.98 367.16 304.178 367.229 304.295 367.368C304.423 367.496 304.487 367.667 304.487 367.88V368.088C304.487 368.301 304.423 368.477 304.295 368.616C304.178 368.744 303.98 368.808 303.703 368.808ZM303.063 379V370.744H304.343V379H303.063ZM309.847 379H308.247C307.81 379 307.474 378.872 307.239 378.616C307.004 378.36 306.887 378.035 306.887 377.64V371.864H305.527V370.744H306.295C306.572 370.744 306.759 370.691 306.855 370.584C306.962 370.467 307.015 370.269 307.015 369.992V368.456H308.167V370.744H309.975V371.864H308.167V377.88H309.847V379ZM318.113 379H317.393C317.051 379 316.774 378.931 316.561 378.792C316.347 378.643 316.193 378.44 316.097 378.184C316.001 377.928 315.953 377.635 315.953 377.304V377.192L316.449 377.656H315.889C315.718 378.157 315.419 378.541 314.993 378.808C314.577 379.064 314.081 379.192 313.505 379.192C312.63 379.192 311.947 378.968 311.457 378.52C310.977 378.072 310.737 377.464 310.737 376.696C310.737 376.173 310.865 375.736 311.121 375.384C311.377 375.021 311.761 374.749 312.273 374.568C312.795 374.376 313.457 374.28 314.257 374.28H315.889V373.464C315.889 372.877 315.729 372.429 315.409 372.12C315.089 371.811 314.598 371.656 313.937 371.656C313.446 371.656 313.03 371.768 312.689 371.992C312.347 372.216 312.065 372.515 311.841 372.888L311.073 372.168C311.297 371.731 311.654 371.352 312.145 371.032C312.635 370.712 313.254 370.552 314.001 370.552C314.993 370.552 315.766 370.797 316.321 371.288C316.886 371.779 317.169 372.461 317.169 373.336V377.88H318.113V379ZM315.889 375.24H314.193C313.467 375.24 312.934 375.347 312.593 375.56C312.251 375.773 312.081 376.083 312.081 376.488V376.824C312.081 377.229 312.23 377.544 312.529 377.768C312.827 377.992 313.222 378.104 313.713 378.104C314.139 378.104 314.513 378.04 314.833 377.912C315.163 377.773 315.419 377.592 315.601 377.368C315.793 377.133 315.889 376.877 315.889 376.6V375.24ZM320.579 379H319.299V370.744H320.579V372.264H320.659C320.755 371.997 320.905 371.752 321.107 371.528C321.31 371.293 321.571 371.107 321.891 370.968C322.211 370.819 322.595 370.744 323.043 370.744H323.539V372.024H322.787C322.329 372.024 321.934 372.088 321.603 372.216C321.273 372.333 321.017 372.493 320.835 372.696C320.665 372.899 320.579 373.133 320.579 373.4V379ZM331.1 379H329.5C329.062 379 328.726 378.872 328.492 378.616C328.257 378.36 328.14 378.035 328.14 377.64V371.864H326.78V370.744H327.548C327.825 370.744 328.012 370.691 328.108 370.584C328.214 370.467 328.268 370.269 328.268 369.992V368.456H329.42V370.744H331.228V371.864H329.42V377.88H331.1V379ZM337.733 379V377.656H337.669C337.509 378.051 337.253 378.408 336.901 378.728C336.56 379.037 336.042 379.192 335.349 379.192C334.506 379.192 333.829 378.92 333.317 378.376C332.816 377.821 332.565 377.043 332.565 376.04V370.744H333.845V375.816C333.845 376.552 334.005 377.107 334.325 377.48C334.645 377.853 335.114 378.04 335.733 378.04C336.074 378.04 336.394 377.987 336.693 377.88C337.002 377.763 337.253 377.587 337.445 377.352C337.637 377.117 337.733 376.819 337.733 376.456V370.744H339.013V379H337.733ZM343.579 379.192C342.821 379.192 342.181 379.048 341.659 378.76C341.136 378.461 340.688 378.067 340.315 377.576L341.227 376.84C341.547 377.235 341.904 377.544 342.299 377.768C342.693 377.992 343.152 378.104 343.675 378.104C344.219 378.104 344.64 377.987 344.939 377.752C345.248 377.517 345.403 377.187 345.403 376.76C345.403 376.44 345.296 376.163 345.083 375.928C344.88 375.693 344.507 375.539 343.963 375.464L343.307 375.368C342.805 375.293 342.352 375.171 341.947 375C341.541 374.819 341.221 374.568 340.987 374.248C340.763 373.917 340.651 373.496 340.651 372.984C340.651 372.163 340.928 371.555 341.483 371.16C342.048 370.755 342.752 370.552 343.595 370.552C344.043 370.552 344.437 370.605 344.779 370.712C345.131 370.819 345.445 370.973 345.723 371.176C346 371.368 346.251 371.603 346.475 371.88L345.627 372.648C345.445 372.392 345.179 372.163 344.827 371.96C344.475 371.747 344.032 371.64 343.499 371.64C342.976 371.64 342.576 371.757 342.299 371.992C342.021 372.216 341.883 372.525 341.883 372.92C341.883 373.315 342.016 373.608 342.283 373.8C342.56 373.981 342.955 374.115 343.467 374.2L344.107 374.296C345.024 374.435 345.675 374.701 346.059 375.096C346.443 375.48 346.635 375.987 346.635 376.616C346.635 377.149 346.512 377.608 346.267 377.992C346.021 378.376 345.669 378.675 345.211 378.888C344.752 379.091 344.208 379.192 343.579 379.192ZM351.845 379V371.864H350.501V370.744H351.845V369.08C351.845 368.515 351.994 368.056 352.293 367.704C352.592 367.341 353.045 367.16 353.653 367.16H354.901V368.28H353.125V370.744H354.901V371.864H353.125V379H351.845ZM359.002 379.192C358.266 379.192 357.615 379.016 357.05 378.664C356.495 378.301 356.058 377.8 355.738 377.16C355.429 376.509 355.274 375.747 355.274 374.872C355.274 373.997 355.429 373.24 355.738 372.6C356.058 371.949 356.495 371.448 357.05 371.096C357.615 370.733 358.266 370.552 359.002 370.552C359.738 370.552 360.383 370.733 360.938 371.096C361.503 371.448 361.941 371.949 362.25 372.6C362.57 373.24 362.73 373.997 362.73 374.872C362.73 375.747 362.57 376.509 362.25 377.16C361.941 377.8 361.503 378.301 360.938 378.664C360.383 379.016 359.738 379.192 359.002 379.192ZM359.002 378.056C359.695 378.056 360.261 377.843 360.698 377.416C361.135 376.989 361.354 376.339 361.354 375.464V374.28C361.354 373.405 361.135 372.755 360.698 372.328C360.261 371.901 359.695 371.688 359.002 371.688C358.319 371.688 357.754 371.901 357.306 372.328C356.869 372.755 356.65 373.405 356.65 374.28V375.464C356.65 376.339 356.869 376.989 357.306 377.416C357.754 377.843 358.319 378.056 359.002 378.056ZM367.619 379H366.019C365.582 379 365.246 378.872 365.011 378.616C364.776 378.36 364.659 378.035 364.659 377.64V371.864H363.299V370.744H364.067C364.344 370.744 364.531 370.691 364.627 370.584C364.734 370.467 364.787 370.269 364.787 369.992V368.456H365.939V370.744H367.747V371.864H365.939V377.88H367.619V379ZM372.222 379.192C371.486 379.192 370.835 379.016 370.27 378.664C369.715 378.301 369.278 377.8 368.958 377.16C368.649 376.509 368.494 375.747 368.494 374.872C368.494 373.997 368.649 373.24 368.958 372.6C369.278 371.949 369.715 371.448 370.27 371.096C370.835 370.733 371.486 370.552 372.222 370.552C372.958 370.552 373.603 370.733 374.158 371.096C374.723 371.448 375.161 371.949 375.47 372.6C375.79 373.24 375.95 373.997 375.95 374.872C375.95 375.747 375.79 376.509 375.47 377.16C375.161 377.8 374.723 378.301 374.158 378.664C373.603 379.016 372.958 379.192 372.222 379.192ZM372.222 378.056C372.915 378.056 373.481 377.843 373.918 377.416C374.355 376.989 374.574 376.339 374.574 375.464V374.28C374.574 373.405 374.355 372.755 373.918 372.328C373.481 371.901 372.915 371.688 372.222 371.688C371.539 371.688 370.974 371.901 370.526 372.328C370.089 372.755 369.87 373.405 369.87 374.28V375.464C369.87 376.339 370.089 376.989 370.526 377.416C370.974 377.843 371.539 378.056 372.222 378.056ZM379.895 379.192C379.138 379.192 378.498 379.048 377.975 378.76C377.452 378.461 377.004 378.067 376.631 377.576L377.543 376.84C377.863 377.235 378.22 377.544 378.615 377.768C379.01 377.992 379.468 378.104 379.991 378.104C380.535 378.104 380.956 377.987 381.255 377.752C381.564 377.517 381.719 377.187 381.719 376.76C381.719 376.44 381.612 376.163 381.399 375.928C381.196 375.693 380.823 375.539 380.279 375.464L379.623 375.368C379.122 375.293 378.668 375.171 378.263 375C377.858 374.819 377.538 374.568 377.303 374.248C377.079 373.917 376.967 373.496 376.967 372.984C376.967 372.163 377.244 371.555 377.799 371.16C378.364 370.755 379.068 370.552 379.911 370.552C380.359 370.552 380.754 370.605 381.095 370.712C381.447 370.819 381.762 370.973 382.039 371.176C382.316 371.368 382.567 371.603 382.791 371.88L381.943 372.648C381.762 372.392 381.495 372.163 381.143 371.96C380.791 371.747 380.348 371.64 379.815 371.64C379.292 371.64 378.892 371.757 378.615 371.992C378.338 372.216 378.199 372.525 378.199 372.92C378.199 373.315 378.332 373.608 378.599 373.8C378.876 373.981 379.271 374.115 379.783 374.2L380.423 374.296C381.34 374.435 381.991 374.701 382.375 375.096C382.759 375.48 382.951 375.987 382.951 376.616C382.951 377.149 382.828 377.608 382.583 377.992C382.338 378.376 381.986 378.675 381.527 378.888C381.068 379.091 380.524 379.192 379.895 379.192ZM392.993 379V377.656H392.929C392.684 378.168 392.358 378.552 391.953 378.808C391.558 379.064 391.078 379.192 390.513 379.192C389.83 379.192 389.233 379.016 388.721 378.664C388.22 378.312 387.83 377.811 387.553 377.16C387.286 376.509 387.153 375.747 387.153 374.872C387.153 373.987 387.286 373.224 387.553 372.584C387.83 371.933 388.22 371.432 388.721 371.08C389.233 370.728 389.83 370.552 390.513 370.552C391.078 370.552 391.569 370.68 391.985 370.936C392.401 371.181 392.716 371.565 392.929 372.088H392.993V367.16H394.273V379H392.993ZM390.865 378.04C391.26 378.04 391.617 377.976 391.937 377.848C392.257 377.709 392.513 377.517 392.705 377.272C392.897 377.016 392.993 376.712 392.993 376.36V373.288C392.993 372.979 392.897 372.707 392.705 372.472C392.513 372.237 392.257 372.051 391.937 371.912C391.617 371.773 391.26 371.704 390.865 371.704C390.15 371.704 389.58 371.933 389.153 372.392C388.737 372.84 388.529 373.432 388.529 374.168V375.576C388.529 376.312 388.737 376.909 389.153 377.368C389.58 377.816 390.15 378.04 390.865 378.04ZM399.458 379.192C398.712 379.192 398.061 379.016 397.506 378.664C396.952 378.301 396.52 377.8 396.21 377.16C395.901 376.509 395.746 375.747 395.746 374.872C395.746 373.997 395.901 373.24 396.21 372.6C396.52 371.949 396.952 371.448 397.506 371.096C398.061 370.733 398.712 370.552 399.458 370.552C400.194 370.552 400.829 370.728 401.362 371.08C401.896 371.421 402.306 371.896 402.594 372.504C402.882 373.112 403.026 373.805 403.026 374.584V375.192H397.09V375.576C397.09 376.291 397.304 376.888 397.73 377.368C398.168 377.837 398.77 378.072 399.538 378.072C400.061 378.072 400.514 377.949 400.898 377.704C401.293 377.459 401.597 377.107 401.81 376.648L402.722 377.304C402.456 377.859 402.04 378.312 401.474 378.664C400.909 379.016 400.237 379.192 399.458 379.192ZM399.458 371.624C399 371.624 398.589 371.731 398.226 371.944C397.874 372.157 397.597 372.456 397.394 372.84C397.192 373.213 397.09 373.64 397.09 374.12V374.232H401.65V374.056C401.65 373.565 401.56 373.139 401.378 372.776C401.197 372.413 400.941 372.131 400.61 371.928C400.28 371.725 399.896 371.624 399.458 371.624ZM408.085 379V371.864H406.741V370.744H408.085V369.08C408.085 368.515 408.234 368.056 408.533 367.704C408.832 367.341 409.285 367.16 409.893 367.16H411.141V368.28H409.365V370.744H411.141V371.864H409.365V379H408.085ZM415.242 379.192C414.506 379.192 413.855 379.016 413.29 378.664C412.735 378.301 412.298 377.8 411.978 377.16C411.669 376.509 411.514 375.747 411.514 374.872C411.514 373.997 411.669 373.24 411.978 372.6C412.298 371.949 412.735 371.448 413.29 371.096C413.855 370.733 414.506 370.552 415.242 370.552C415.978 370.552 416.623 370.733 417.178 371.096C417.743 371.448 418.181 371.949 418.49 372.6C418.81 373.24 418.97 373.997 418.97 374.872C418.97 375.747 418.81 376.509 418.49 377.16C418.181 377.8 417.743 378.301 417.178 378.664C416.623 379.016 415.978 379.192 415.242 379.192ZM415.242 378.056C415.935 378.056 416.501 377.843 416.938 377.416C417.375 376.989 417.594 376.339 417.594 375.464V374.28C417.594 373.405 417.375 372.755 416.938 372.328C416.501 371.901 415.935 371.688 415.242 371.688C414.559 371.688 413.994 371.901 413.546 372.328C413.109 372.755 412.89 373.405 412.89 374.28V375.464C412.89 376.339 413.109 376.989 413.546 377.416C413.994 377.843 414.559 378.056 415.242 378.056ZM421.715 379H420.435V370.744H421.715V372.264H421.795C421.891 371.997 422.04 371.752 422.243 371.528C422.446 371.293 422.707 371.107 423.027 370.968C423.347 370.819 423.731 370.744 424.179 370.744H424.675V372.024H423.923C423.464 372.024 423.07 372.088 422.739 372.216C422.408 372.333 422.152 372.493 421.971 372.696C421.8 372.899 421.715 373.133 421.715 373.4V379ZM426.95 379H425.67V370.744H426.95V372.088H427.014C427.195 371.661 427.451 371.299 427.782 371C428.113 370.701 428.598 370.552 429.238 370.552C429.782 370.552 430.283 370.685 430.742 370.952C431.201 371.208 431.542 371.635 431.766 372.232H431.798C431.947 371.784 432.225 371.395 432.63 371.064C433.046 370.723 433.606 370.552 434.31 370.552C435.153 370.552 435.809 370.829 436.278 371.384C436.758 371.928 436.998 372.701 436.998 373.704V379H435.718V373.928C435.718 373.203 435.574 372.653 435.286 372.28C434.998 371.896 434.539 371.704 433.91 371.704C433.579 371.704 433.265 371.763 432.966 371.88C432.667 371.987 432.427 372.157 432.246 372.392C432.065 372.627 431.974 372.92 431.974 373.272V379H430.694V373.928C430.694 373.192 430.55 372.637 430.262 372.264C429.974 371.891 429.526 371.704 428.918 371.704C428.587 371.704 428.267 371.763 427.958 371.88C427.659 371.987 427.414 372.157 427.222 372.392C427.041 372.627 426.95 372.92 426.95 373.272V379ZM445.719 379H444.999C444.657 379 444.38 378.931 444.167 378.792C443.953 378.643 443.799 378.44 443.703 378.184C443.607 377.928 443.559 377.635 443.559 377.304V377.192L444.055 377.656H443.495C443.324 378.157 443.025 378.541 442.599 378.808C442.183 379.064 441.687 379.192 441.111 379.192C440.236 379.192 439.553 378.968 439.063 378.52C438.583 378.072 438.343 377.464 438.343 376.696C438.343 376.173 438.471 375.736 438.727 375.384C438.983 375.021 439.367 374.749 439.879 374.568C440.401 374.376 441.063 374.28 441.863 374.28H443.495V373.464C443.495 372.877 443.335 372.429 443.015 372.12C442.695 371.811 442.204 371.656 441.543 371.656C441.052 371.656 440.636 371.768 440.295 371.992C439.953 372.216 439.671 372.515 439.447 372.888L438.679 372.168C438.903 371.731 439.26 371.352 439.751 371.032C440.241 370.712 440.86 370.552 441.607 370.552C442.599 370.552 443.372 370.797 443.927 371.288C444.492 371.779 444.775 372.461 444.775 373.336V377.88H445.719V379ZM443.495 375.24H441.799C441.073 375.24 440.54 375.347 440.199 375.56C439.857 375.773 439.687 376.083 439.687 376.488V376.824C439.687 377.229 439.836 377.544 440.135 377.768C440.433 377.992 440.828 378.104 441.319 378.104C441.745 378.104 442.119 378.04 442.439 377.912C442.769 377.773 443.025 377.592 443.207 377.368C443.399 377.133 443.495 376.877 443.495 376.6V375.24ZM131.808 398V390.864H130.464V389.744H131.808V388.08C131.808 387.515 131.957 387.056 132.256 386.704C132.555 386.341 133.008 386.16 133.616 386.16H134.864V387.28H133.088V389.744H134.864V390.864H133.088V398H131.808ZM142.628 398H141.908C141.566 398 141.289 397.931 141.076 397.792C140.862 397.643 140.708 397.44 140.612 397.184C140.516 396.928 140.468 396.635 140.468 396.304V396.192L140.964 396.656H140.404C140.233 397.157 139.934 397.541 139.508 397.808C139.092 398.064 138.596 398.192 138.02 398.192C137.145 398.192 136.462 397.968 135.972 397.52C135.492 397.072 135.252 396.464 135.252 395.696C135.252 395.173 135.38 394.736 135.636 394.384C135.892 394.021 136.276 393.749 136.788 393.568C137.31 393.376 137.972 393.28 138.772 393.28H140.404V392.464C140.404 391.877 140.244 391.429 139.924 391.12C139.604 390.811 139.113 390.656 138.452 390.656C137.961 390.656 137.545 390.768 137.204 390.992C136.862 391.216 136.58 391.515 136.356 391.888L135.588 391.168C135.812 390.731 136.169 390.352 136.66 390.032C137.15 389.712 137.769 389.552 138.516 389.552C139.508 389.552 140.281 389.797 140.836 390.288C141.401 390.779 141.684 391.461 141.684 392.336V396.88H142.628V398ZM140.404 394.24H138.708C137.982 394.24 137.449 394.347 137.108 394.56C136.766 394.773 136.596 395.083 136.596 395.488V395.824C136.596 396.229 136.745 396.544 137.044 396.768C137.342 396.992 137.737 397.104 138.228 397.104C138.654 397.104 139.028 397.04 139.348 396.912C139.678 396.773 139.934 396.592 140.116 396.368C140.308 396.133 140.404 395.877 140.404 395.6V394.24ZM140.388 386.096L138.692 388.64L137.86 388.256L139.22 385.536L140.388 386.096ZM146.886 398.192C145.724 398.192 144.817 397.803 144.166 397.024C143.526 396.245 143.206 395.195 143.206 393.872C143.206 392.549 143.526 391.499 144.166 390.72C144.817 389.941 145.724 389.552 146.886 389.552C147.708 389.552 148.369 389.733 148.87 390.096C149.372 390.459 149.74 390.923 149.974 391.488L148.902 392.032C148.753 391.605 148.502 391.275 148.15 391.04C147.809 390.805 147.388 390.688 146.886 390.688C146.129 390.688 145.553 390.923 145.158 391.392C144.774 391.851 144.582 392.443 144.582 393.168V394.576C144.582 395.291 144.774 395.883 145.158 396.352C145.553 396.821 146.129 397.056 146.886 397.056C147.409 397.056 147.857 396.933 148.23 396.688C148.604 396.443 148.902 396.085 149.126 395.616L150.054 396.24C149.788 396.827 149.388 397.301 148.854 397.664C148.332 398.016 147.676 398.192 146.886 398.192ZM151.861 387.808C151.595 387.808 151.397 387.744 151.269 387.616C151.141 387.477 151.077 387.301 151.077 387.088V386.88C151.077 386.667 151.141 386.496 151.269 386.368C151.397 386.229 151.595 386.16 151.861 386.16C152.139 386.16 152.336 386.229 152.453 386.368C152.581 386.496 152.645 386.667 152.645 386.88V387.088C152.645 387.301 152.581 387.477 152.453 387.616C152.336 387.744 152.139 387.808 151.861 387.808ZM151.221 398V389.744H152.501V398H151.221ZM157.077 398H155.941C155.504 398 155.168 397.877 154.933 397.632C154.699 397.376 154.581 397.056 154.581 396.672V386.16H155.861V396.88H157.077V398ZM159.273 396.128C159.614 396.128 159.86 396.219 160.009 396.4C160.169 396.571 160.249 396.795 160.249 397.072V397.296C160.249 397.723 160.121 398.203 159.865 398.736C159.609 399.269 159.252 399.733 158.793 400.128H157.721C158.041 399.787 158.297 399.461 158.489 399.152C158.692 398.853 158.836 398.517 158.921 398.144C158.708 398.091 158.548 397.989 158.441 397.84C158.345 397.691 158.297 397.509 158.297 397.296V397.072C158.297 396.795 158.377 396.571 158.537 396.4C158.697 396.219 158.942 396.128 159.273 396.128ZM166.598 398H165.318V389.744H166.598V391.264H166.678C166.774 390.997 166.923 390.752 167.126 390.528C167.328 390.293 167.59 390.107 167.91 389.968C168.23 389.819 168.614 389.744 169.062 389.744H169.558V391.024H168.806C168.347 391.024 167.952 391.088 167.622 391.216C167.291 391.333 167.035 391.493 166.854 391.696C166.683 391.899 166.598 392.133 166.598 392.4V398ZM177.21 398H176.49C176.149 398 175.871 397.931 175.658 397.792C175.445 397.643 175.29 397.44 175.194 397.184C175.098 396.928 175.05 396.635 175.05 396.304V396.192L175.546 396.656H174.986C174.815 397.157 174.517 397.541 174.09 397.808C173.674 398.064 173.178 398.192 172.602 398.192C171.727 398.192 171.045 397.968 170.554 397.52C170.074 397.072 169.834 396.464 169.834 395.696C169.834 395.173 169.962 394.736 170.218 394.384C170.474 394.021 170.858 393.749 171.37 393.568C171.893 393.376 172.554 393.28 173.354 393.28H174.986V392.464C174.986 391.877 174.826 391.429 174.506 391.12C174.186 390.811 173.695 390.656 173.034 390.656C172.543 390.656 172.127 390.768 171.786 390.992C171.445 391.216 171.162 391.515 170.938 391.888L170.17 391.168C170.394 390.731 170.751 390.352 171.242 390.032C171.733 389.712 172.351 389.552 173.098 389.552C174.09 389.552 174.863 389.797 175.418 390.288C175.983 390.779 176.266 391.461 176.266 392.336V396.88H177.21V398ZM174.986 394.24H173.29C172.565 394.24 172.031 394.347 171.69 394.56C171.349 394.773 171.178 395.083 171.178 395.488V395.824C171.178 396.229 171.327 396.544 171.626 396.768C171.925 396.992 172.319 397.104 172.81 397.104C173.237 397.104 173.61 397.04 173.93 396.912C174.261 396.773 174.517 396.592 174.698 396.368C174.89 396.133 174.986 395.877 174.986 395.6V394.24ZM174.97 386.096L173.274 388.64L172.442 388.256L173.802 385.536L174.97 386.096ZM178.397 401.2V389.744H179.677V391.088H179.741C179.954 390.565 180.269 390.181 180.685 389.936C181.101 389.68 181.592 389.552 182.157 389.552C182.85 389.552 183.448 389.728 183.949 390.08C184.45 390.432 184.834 390.933 185.101 391.584C185.378 392.224 185.517 392.987 185.517 393.872C185.517 394.747 185.378 395.509 185.101 396.16C184.834 396.811 184.45 397.312 183.949 397.664C183.448 398.016 182.85 398.192 182.157 398.192C181.592 398.192 181.106 398.064 180.701 397.808C180.306 397.552 179.986 397.168 179.741 396.656H179.677V401.2H178.397ZM181.805 397.04C182.53 397.04 183.101 396.816 183.517 396.368C183.933 395.909 184.141 395.312 184.141 394.576V393.168C184.141 392.432 183.933 391.84 183.517 391.392C183.101 390.933 182.53 390.704 181.805 390.704C181.421 390.704 181.064 390.773 180.733 390.912C180.413 391.051 180.157 391.237 179.965 391.472C179.773 391.707 179.677 391.979 179.677 392.288V395.36C179.677 395.712 179.773 396.016 179.965 396.272C180.157 396.517 180.413 396.709 180.733 396.848C181.064 396.976 181.421 397.04 181.805 397.04ZM187.678 387.808C187.411 387.808 187.214 387.744 187.086 387.616C186.958 387.477 186.894 387.301 186.894 387.088V386.88C186.894 386.667 186.958 386.496 187.086 386.368C187.214 386.229 187.411 386.16 187.678 386.16C187.955 386.16 188.153 386.229 188.27 386.368C188.398 386.496 188.462 386.667 188.462 386.88V387.088C188.462 387.301 188.398 387.477 188.27 387.616C188.153 387.744 187.955 387.808 187.678 387.808ZM187.038 398V389.744H188.318V398H187.038ZM195.678 398V396.656H195.614C195.369 397.168 195.043 397.552 194.638 397.808C194.243 398.064 193.763 398.192 193.198 398.192C192.515 398.192 191.918 398.016 191.406 397.664C190.905 397.312 190.515 396.811 190.238 396.16C189.971 395.509 189.838 394.747 189.838 393.872C189.838 392.987 189.971 392.224 190.238 391.584C190.515 390.933 190.905 390.432 191.406 390.08C191.918 389.728 192.515 389.552 193.198 389.552C193.763 389.552 194.254 389.68 194.67 389.936C195.086 390.181 195.401 390.565 195.614 391.088H195.678V386.16H196.958V398H195.678ZM193.55 397.04C193.945 397.04 194.302 396.976 194.622 396.848C194.942 396.709 195.198 396.517 195.39 396.272C195.582 396.016 195.678 395.712 195.678 395.36V392.288C195.678 391.979 195.582 391.707 195.39 391.472C195.198 391.237 194.942 391.051 194.622 390.912C194.302 390.773 193.945 390.704 193.55 390.704C192.835 390.704 192.265 390.933 191.838 391.392C191.422 391.84 191.214 392.432 191.214 393.168V394.576C191.214 395.312 191.422 395.909 191.838 396.368C192.265 396.816 192.835 397.04 193.55 397.04ZM205.759 398H205.039C204.698 398 204.421 397.931 204.207 397.792C203.994 397.643 203.839 397.44 203.743 397.184C203.647 396.928 203.599 396.635 203.599 396.304V396.192L204.095 396.656H203.535C203.365 397.157 203.066 397.541 202.639 397.808C202.223 398.064 201.727 398.192 201.151 398.192C200.277 398.192 199.594 397.968 199.103 397.52C198.623 397.072 198.383 396.464 198.383 395.696C198.383 395.173 198.511 394.736 198.767 394.384C199.023 394.021 199.407 393.749 199.919 393.568C200.442 393.376 201.103 393.28 201.903 393.28H203.535V392.464C203.535 391.877 203.375 391.429 203.055 391.12C202.735 390.811 202.245 390.656 201.583 390.656C201.093 390.656 200.677 390.768 200.335 390.992C199.994 391.216 199.711 391.515 199.487 391.888L198.719 391.168C198.943 390.731 199.301 390.352 199.791 390.032C200.282 389.712 200.901 389.552 201.647 389.552C202.639 389.552 203.413 389.797 203.967 390.288C204.533 390.779 204.815 391.461 204.815 392.336V396.88H205.759V398ZM203.535 394.24H201.839C201.114 394.24 200.581 394.347 200.239 394.56C199.898 394.773 199.727 395.083 199.727 395.488V395.824C199.727 396.229 199.877 396.544 200.175 396.768C200.474 396.992 200.869 397.104 201.359 397.104C201.786 397.104 202.159 397.04 202.479 396.912C202.81 396.773 203.066 396.592 203.247 396.368C203.439 396.133 203.535 395.877 203.535 395.6V394.24ZM213.192 398.192C212.445 398.192 211.794 398.016 211.24 397.664C210.685 397.301 210.253 396.8 209.944 396.16C209.634 395.509 209.48 394.747 209.48 393.872C209.48 392.997 209.634 392.24 209.944 391.6C210.253 390.949 210.685 390.448 211.24 390.096C211.794 389.733 212.445 389.552 213.192 389.552C213.928 389.552 214.562 389.728 215.096 390.08C215.629 390.421 216.04 390.896 216.328 391.504C216.616 392.112 216.76 392.805 216.76 393.584V394.192H210.824V394.576C210.824 395.291 211.037 395.888 211.464 396.368C211.901 396.837 212.504 397.072 213.272 397.072C213.794 397.072 214.248 396.949 214.632 396.704C215.026 396.459 215.33 396.107 215.544 395.648L216.456 396.304C216.189 396.859 215.773 397.312 215.208 397.664C214.642 398.016 213.97 398.192 213.192 398.192ZM213.192 390.624C212.733 390.624 212.322 390.731 211.96 390.944C211.608 391.157 211.33 391.456 211.128 391.84C210.925 392.213 210.824 392.64 210.824 393.12V393.232H215.384V393.056C215.384 392.565 215.293 392.139 215.112 391.776C214.93 391.413 214.674 391.131 214.344 390.928C214.013 390.725 213.629 390.624 213.192 390.624ZM222.01 387.808C221.743 387.808 221.546 387.744 221.418 387.616C221.29 387.477 221.226 387.301 221.226 387.088V386.88C221.226 386.667 221.29 386.496 221.418 386.368C221.546 386.229 221.743 386.16 222.01 386.16C222.287 386.16 222.485 386.229 222.602 386.368C222.73 386.496 222.794 386.667 222.794 386.88V387.088C222.794 387.301 222.73 387.477 222.602 387.616C222.485 387.744 222.287 387.808 222.01 387.808ZM221.37 398V389.744H222.65V398H221.37ZM226.01 398H224.73V389.744H226.01V391.088H226.074C226.277 390.619 226.559 390.245 226.922 389.968C227.295 389.691 227.791 389.552 228.41 389.552C229.263 389.552 229.935 389.829 230.426 390.384C230.927 390.928 231.178 391.701 231.178 392.704V398H229.898V392.928C229.898 392.192 229.738 391.637 229.418 391.264C229.109 390.891 228.645 390.704 228.026 390.704C227.685 390.704 227.359 390.763 227.05 390.88C226.741 390.987 226.49 391.157 226.298 391.392C226.106 391.627 226.01 391.92 226.01 392.272V398ZM236.608 398H235.008C234.57 398 234.234 397.872 234 397.616C233.765 397.36 233.648 397.035 233.648 396.64V390.864H232.288V389.744H233.056C233.333 389.744 233.52 389.691 233.616 389.584C233.722 389.467 233.776 389.269 233.776 388.992V387.456H234.928V389.744H236.736V390.864H234.928V396.88H236.608V398ZM243.241 398V396.656H243.177C243.017 397.051 242.761 397.408 242.409 397.728C242.068 398.037 241.55 398.192 240.857 398.192C240.014 398.192 239.337 397.92 238.825 397.376C238.324 396.821 238.073 396.043 238.073 395.04V389.744H239.353V394.816C239.353 395.552 239.513 396.107 239.833 396.48C240.153 396.853 240.622 397.04 241.241 397.04C241.582 397.04 241.902 396.987 242.201 396.88C242.51 396.763 242.761 396.587 242.953 396.352C243.145 396.117 243.241 395.819 243.241 395.456V389.744H244.521V398H243.241ZM247.247 387.808C246.98 387.808 246.783 387.744 246.655 387.616C246.527 387.477 246.463 387.301 246.463 387.088V386.88C246.463 386.667 246.527 386.496 246.655 386.368C246.783 386.229 246.98 386.16 247.247 386.16C247.524 386.16 247.722 386.229 247.839 386.368C247.967 386.496 248.031 386.667 248.031 386.88V387.088C248.031 387.301 247.967 387.477 247.839 387.616C247.722 387.744 247.524 387.808 247.247 387.808ZM246.607 398V389.744H247.887V398H246.607ZM253.391 398H251.791C251.354 398 251.018 397.872 250.783 397.616C250.548 397.36 250.431 397.035 250.431 396.64V390.864H249.071V389.744H249.839C250.116 389.744 250.303 389.691 250.399 389.584C250.506 389.467 250.559 389.269 250.559 388.992V387.456H251.711V389.744H253.519V390.864H251.711V396.88H253.391V398ZM255.576 387.808C255.31 387.808 255.112 387.744 254.984 387.616C254.856 387.477 254.792 387.301 254.792 387.088V386.88C254.792 386.667 254.856 386.496 254.984 386.368C255.112 386.229 255.31 386.16 255.576 386.16C255.854 386.16 256.051 386.229 256.168 386.368C256.296 386.496 256.36 386.667 256.36 386.88V387.088C256.36 387.301 256.296 387.477 256.168 387.616C256.051 387.744 255.854 387.808 255.576 387.808ZM254.936 398V389.744H256.216V398H254.936ZM261.608 398H260.12L257.224 389.744H258.504L259.944 393.84L260.84 396.656H260.92L261.816 393.84L263.288 389.744H264.52L261.608 398ZM272.111 398H271.391C271.049 398 270.772 397.931 270.559 397.792C270.345 397.643 270.191 397.44 270.095 397.184C269.999 396.928 269.951 396.635 269.951 396.304V396.192L270.447 396.656H269.887C269.716 397.157 269.417 397.541 268.991 397.808C268.575 398.064 268.079 398.192 267.503 398.192C266.628 398.192 265.945 397.968 265.455 397.52C264.975 397.072 264.735 396.464 264.735 395.696C264.735 395.173 264.863 394.736 265.119 394.384C265.375 394.021 265.759 393.749 266.271 393.568C266.793 393.376 267.455 393.28 268.255 393.28H269.887V392.464C269.887 391.877 269.727 391.429 269.407 391.12C269.087 390.811 268.596 390.656 267.935 390.656C267.444 390.656 267.028 390.768 266.687 390.992C266.345 391.216 266.063 391.515 265.839 391.888L265.071 391.168C265.295 390.731 265.652 390.352 266.143 390.032C266.633 389.712 267.252 389.552 267.999 389.552C268.991 389.552 269.764 389.797 270.319 390.288C270.884 390.779 271.167 391.461 271.167 392.336V396.88H272.111V398ZM269.887 394.24H268.191C267.465 394.24 266.932 394.347 266.591 394.56C266.249 394.773 266.079 395.083 266.079 395.488V395.824C266.079 396.229 266.228 396.544 266.527 396.768C266.825 396.992 267.22 397.104 267.711 397.104C268.137 397.104 268.511 397.04 268.831 396.912C269.161 396.773 269.417 396.592 269.599 396.368C269.791 396.133 269.887 395.877 269.887 395.6V394.24ZM283.159 398H282.439C282.097 398 281.82 397.931 281.607 397.792C281.393 397.643 281.239 397.44 281.143 397.184C281.047 396.928 280.999 396.635 280.999 396.304V396.192L281.495 396.656H280.935C280.764 397.157 280.465 397.541 280.039 397.808C279.623 398.064 279.127 398.192 278.551 398.192C277.676 398.192 276.993 397.968 276.503 397.52C276.023 397.072 275.783 396.464 275.783 395.696C275.783 395.173 275.911 394.736 276.167 394.384C276.423 394.021 276.807 393.749 277.319 393.568C277.841 393.376 278.503 393.28 279.303 393.28H280.935V392.464C280.935 391.877 280.775 391.429 280.455 391.12C280.135 390.811 279.644 390.656 278.983 390.656C278.492 390.656 278.076 390.768 277.735 390.992C277.393 391.216 277.111 391.515 276.887 391.888L276.119 391.168C276.343 390.731 276.7 390.352 277.191 390.032C277.681 389.712 278.3 389.552 279.047 389.552C280.039 389.552 280.812 389.797 281.367 390.288C281.932 390.779 282.215 391.461 282.215 392.336V396.88H283.159V398ZM280.935 394.24H279.239C278.513 394.24 277.98 394.347 277.639 394.56C277.297 394.773 277.127 395.083 277.127 395.488V395.824C277.127 396.229 277.276 396.544 277.575 396.768C277.873 396.992 278.268 397.104 278.759 397.104C279.185 397.104 279.559 397.04 279.879 396.912C280.209 396.773 280.465 396.592 280.647 396.368C280.839 396.133 280.935 395.877 280.935 395.6V394.24ZM285.626 398H284.346V389.744H285.626V391.088H285.69C285.892 390.619 286.175 390.245 286.538 389.968C286.911 389.691 287.407 389.552 288.026 389.552C288.879 389.552 289.551 389.829 290.042 390.384C290.543 390.928 290.794 391.701 290.794 392.704V398H289.514V392.928C289.514 392.192 289.354 391.637 289.034 391.264C288.724 390.891 288.26 390.704 287.642 390.704C287.3 390.704 286.975 390.763 286.666 390.88C286.356 390.987 286.106 391.157 285.914 391.392C285.722 391.627 285.626 391.92 285.626 392.272V398ZM296.223 398H294.623C294.186 398 293.85 397.872 293.615 397.616C293.381 397.36 293.263 397.035 293.263 396.64V390.864H291.903V389.744H292.671C292.949 389.744 293.135 389.691 293.231 389.584C293.338 389.467 293.391 389.269 293.391 388.992V387.456H294.543V389.744H296.351V390.864H294.543V396.88H296.223V398ZM300.81 398.192C300.064 398.192 299.413 398.016 298.858 397.664C298.304 397.301 297.872 396.8 297.562 396.16C297.253 395.509 297.098 394.747 297.098 393.872C297.098 392.997 297.253 392.24 297.562 391.6C297.872 390.949 298.304 390.448 298.858 390.096C299.413 389.733 300.064 389.552 300.81 389.552C301.546 389.552 302.181 389.728 302.714 390.08C303.248 390.421 303.658 390.896 303.946 391.504C304.234 392.112 304.378 392.805 304.378 393.584V394.192H298.442V394.576C298.442 395.291 298.656 395.888 299.082 396.368C299.52 396.837 300.122 397.072 300.89 397.072C301.413 397.072 301.866 396.949 302.25 396.704C302.645 396.459 302.949 396.107 303.162 395.648L304.074 396.304C303.808 396.859 303.392 397.312 302.826 397.664C302.261 398.016 301.589 398.192 300.81 398.192ZM300.81 390.624C300.352 390.624 299.941 390.731 299.578 390.944C299.226 391.157 298.949 391.456 298.746 391.84C298.544 392.213 298.442 392.64 298.442 393.12V393.232H303.002V393.056C303.002 392.565 302.912 392.139 302.73 391.776C302.549 391.413 302.293 391.131 301.962 390.928C301.632 390.725 301.248 390.624 300.81 390.624ZM308.328 398.192C307.57 398.192 306.93 398.048 306.408 397.76C305.885 397.461 305.437 397.067 305.064 396.576L305.976 395.84C306.296 396.235 306.653 396.544 307.048 396.768C307.442 396.992 307.901 397.104 308.424 397.104C308.968 397.104 309.389 396.987 309.688 396.752C309.997 396.517 310.152 396.187 310.152 395.76C310.152 395.44 310.045 395.163 309.832 394.928C309.629 394.693 309.256 394.539 308.712 394.464L308.056 394.368C307.554 394.293 307.101 394.171 306.696 394C306.29 393.819 305.97 393.568 305.736 393.248C305.512 392.917 305.4 392.496 305.4 391.984C305.4 391.163 305.677 390.555 306.232 390.16C306.797 389.755 307.501 389.552 308.344 389.552C308.792 389.552 309.186 389.605 309.528 389.712C309.88 389.819 310.194 389.973 310.472 390.176C310.749 390.368 311 390.603 311.224 390.88L310.376 391.648C310.194 391.392 309.928 391.163 309.576 390.96C309.224 390.747 308.781 390.64 308.248 390.64C307.725 390.64 307.325 390.757 307.048 390.992C306.77 391.216 306.632 391.525 306.632 391.92C306.632 392.315 306.765 392.608 307.032 392.8C307.309 392.981 307.704 393.115 308.216 393.2L308.856 393.296C309.773 393.435 310.424 393.701 310.808 394.096C311.192 394.48 311.384 394.987 311.384 395.616C311.384 396.149 311.261 396.608 311.016 396.992C310.77 397.376 310.418 397.675 309.96 397.888C309.501 398.091 308.957 398.192 308.328 398.192ZM321.426 398V396.656H321.362C321.116 397.168 320.791 397.552 320.386 397.808C319.991 398.064 319.511 398.192 318.946 398.192C318.263 398.192 317.666 398.016 317.154 397.664C316.652 397.312 316.263 396.811 315.986 396.16C315.719 395.509 315.586 394.747 315.586 393.872C315.586 392.987 315.719 392.224 315.986 391.584C316.263 390.933 316.652 390.432 317.154 390.08C317.666 389.728 318.263 389.552 318.946 389.552C319.511 389.552 320.002 389.68 320.418 389.936C320.834 390.181 321.148 390.565 321.362 391.088H321.426V386.16H322.706V398H321.426ZM319.298 397.04C319.692 397.04 320.05 396.976 320.37 396.848C320.69 396.709 320.946 396.517 321.138 396.272C321.33 396.016 321.426 395.712 321.426 395.36V392.288C321.426 391.979 321.33 391.707 321.138 391.472C320.946 391.237 320.69 391.051 320.37 390.912C320.05 390.773 319.692 390.704 319.298 390.704C318.583 390.704 318.012 390.933 317.586 391.392C317.17 391.84 316.962 392.432 316.962 393.168V394.576C316.962 395.312 317.17 395.909 317.586 396.368C318.012 396.816 318.583 397.04 319.298 397.04ZM327.891 398.192C327.144 398.192 326.494 398.016 325.939 397.664C325.384 397.301 324.952 396.8 324.643 396.16C324.334 395.509 324.179 394.747 324.179 393.872C324.179 392.997 324.334 392.24 324.643 391.6C324.952 390.949 325.384 390.448 325.939 390.096C326.494 389.733 327.144 389.552 327.891 389.552C328.627 389.552 329.262 389.728 329.795 390.08C330.328 390.421 330.739 390.896 331.027 391.504C331.315 392.112 331.459 392.805 331.459 393.584V394.192H325.523V394.576C325.523 395.291 325.736 395.888 326.163 396.368C326.6 396.837 327.203 397.072 327.971 397.072C328.494 397.072 328.947 396.949 329.331 396.704C329.726 396.459 330.03 396.107 330.243 395.648L331.155 396.304C330.888 396.859 330.472 397.312 329.907 397.664C329.342 398.016 328.67 398.192 327.891 398.192ZM327.891 390.624C327.432 390.624 327.022 390.731 326.659 390.944C326.307 391.157 326.03 391.456 325.827 391.84C325.624 392.213 325.523 392.64 325.523 393.12V393.232H330.083V393.056C330.083 392.565 329.992 392.139 329.811 391.776C329.63 391.413 329.374 391.131 329.043 390.928C328.712 390.725 328.328 390.624 327.891 390.624ZM336.709 387.808C336.443 387.808 336.245 387.744 336.117 387.616C335.989 387.477 335.925 387.301 335.925 387.088V386.88C335.925 386.667 335.989 386.496 336.117 386.368C336.245 386.229 336.443 386.16 336.709 386.16C336.987 386.16 337.184 386.229 337.301 386.368C337.429 386.496 337.493 386.667 337.493 386.88V387.088C337.493 387.301 337.429 387.477 337.301 387.616C337.184 387.744 336.987 387.808 336.709 387.808ZM336.069 398V389.744H337.349V398H336.069ZM340.709 398H339.429V389.744H340.709V391.088H340.773C340.955 390.661 341.211 390.299 341.541 390C341.872 389.701 342.357 389.552 342.997 389.552C343.541 389.552 344.043 389.685 344.501 389.952C344.96 390.208 345.301 390.635 345.525 391.232H345.557C345.707 390.784 345.984 390.395 346.389 390.064C346.805 389.723 347.365 389.552 348.069 389.552C348.912 389.552 349.568 389.829 350.037 390.384C350.517 390.928 350.757 391.701 350.757 392.704V398H349.477V392.928C349.477 392.203 349.333 391.653 349.045 391.28C348.757 390.896 348.299 390.704 347.669 390.704C347.339 390.704 347.024 390.763 346.725 390.88C346.427 390.987 346.187 391.157 346.005 391.392C345.824 391.627 345.733 391.92 345.733 392.272V398H344.453V392.928C344.453 392.192 344.309 391.637 344.021 391.264C343.733 390.891 343.285 390.704 342.677 390.704C342.347 390.704 342.027 390.763 341.717 390.88C341.419 390.987 341.173 391.157 340.981 391.392C340.8 391.627 340.709 391.92 340.709 392.272V398ZM352.758 401.2V389.744H354.038V391.088H354.102C354.315 390.565 354.63 390.181 355.046 389.936C355.462 389.68 355.953 389.552 356.518 389.552C357.211 389.552 357.809 389.728 358.31 390.08C358.811 390.432 359.195 390.933 359.462 391.584C359.739 392.224 359.878 392.987 359.878 393.872C359.878 394.747 359.739 395.509 359.462 396.16C359.195 396.811 358.811 397.312 358.31 397.664C357.809 398.016 357.211 398.192 356.518 398.192C355.953 398.192 355.467 398.064 355.062 397.808C354.667 397.552 354.347 397.168 354.102 396.656H354.038V401.2H352.758ZM356.166 397.04C356.891 397.04 357.462 396.816 357.878 396.368C358.294 395.909 358.502 395.312 358.502 394.576V393.168C358.502 392.432 358.294 391.84 357.878 391.392C357.462 390.933 356.891 390.704 356.166 390.704C355.782 390.704 355.425 390.773 355.094 390.912C354.774 391.051 354.518 391.237 354.326 391.472C354.134 391.707 354.038 391.979 354.038 392.288V395.36C354.038 395.712 354.134 396.016 354.326 396.272C354.518 396.517 354.774 396.709 355.094 396.848C355.425 396.976 355.782 397.04 356.166 397.04ZM362.679 398H361.399V389.744H362.679V391.264H362.759C362.855 390.997 363.005 390.752 363.207 390.528C363.41 390.293 363.671 390.107 363.991 389.968C364.311 389.819 364.695 389.744 365.143 389.744H365.639V391.024H364.887C364.429 391.024 364.034 391.088 363.703 391.216C363.373 391.333 363.117 391.493 362.935 391.696C362.765 391.899 362.679 392.133 362.679 392.4V398ZM367.274 387.808C367.008 387.808 366.81 387.744 366.682 387.616C366.554 387.477 366.49 387.301 366.49 387.088V386.88C366.49 386.667 366.554 386.496 366.682 386.368C366.81 386.229 367.008 386.16 367.274 386.16C367.552 386.16 367.749 386.229 367.866 386.368C367.994 386.496 368.058 386.667 368.058 386.88V387.088C368.058 387.301 367.994 387.477 367.866 387.616C367.749 387.744 367.552 387.808 367.274 387.808ZM366.634 398V389.744H367.914V398H366.634ZM371.274 398H369.994V389.744H371.274V391.088H371.338C371.52 390.661 371.776 390.299 372.106 390C372.437 389.701 372.922 389.552 373.562 389.552C374.106 389.552 374.608 389.685 375.066 389.952C375.525 390.208 375.866 390.635 376.09 391.232H376.122C376.272 390.784 376.549 390.395 376.954 390.064C377.37 389.723 377.93 389.552 378.634 389.552C379.477 389.552 380.133 389.829 380.602 390.384C381.082 390.928 381.322 391.701 381.322 392.704V398H380.042V392.928C380.042 392.203 379.898 391.653 379.61 391.28C379.322 390.896 378.864 390.704 378.234 390.704C377.904 390.704 377.589 390.763 377.29 390.88C376.992 390.987 376.752 391.157 376.57 391.392C376.389 391.627 376.298 391.92 376.298 392.272V398H375.018V392.928C375.018 392.192 374.874 391.637 374.586 391.264C374.298 390.891 373.85 390.704 373.242 390.704C372.912 390.704 372.592 390.763 372.282 390.88C371.984 390.987 371.738 391.157 371.546 391.392C371.365 391.627 371.274 391.92 371.274 392.272V398ZM383.963 387.808C383.696 387.808 383.499 387.744 383.371 387.616C383.243 387.477 383.179 387.301 383.179 387.088V386.88C383.179 386.667 383.243 386.496 383.371 386.368C383.499 386.229 383.696 386.16 383.963 386.16C384.24 386.16 384.438 386.229 384.555 386.368C384.683 386.496 384.747 386.667 384.747 386.88V387.088C384.747 387.301 384.683 387.477 384.555 387.616C384.438 387.744 384.24 387.808 383.963 387.808ZM383.323 398V389.744H384.603V398H383.323ZM387.963 398H386.683V389.744H387.963V391.264H388.043C388.139 390.997 388.288 390.752 388.491 390.528C388.694 390.293 388.955 390.107 389.275 389.968C389.595 389.819 389.979 389.744 390.427 389.744H390.923V391.024H390.171C389.712 391.024 389.318 391.088 388.987 391.216C388.656 391.333 388.4 391.493 388.219 391.696C388.048 391.899 387.963 392.133 387.963 392.4V398ZM394.414 398H393.278C392.841 398 392.505 397.877 392.27 397.632C392.035 397.376 391.918 397.056 391.918 396.672V386.16H393.198V396.88H394.414V398ZM402.357 398H401.637C401.296 398 401.019 397.931 400.805 397.792C400.592 397.643 400.437 397.44 400.341 397.184C400.245 396.928 400.197 396.635 400.197 396.304V396.192L400.693 396.656H400.133C399.963 397.157 399.664 397.541 399.237 397.808C398.821 398.064 398.325 398.192 397.749 398.192C396.875 398.192 396.192 397.968 395.701 397.52C395.221 397.072 394.981 396.464 394.981 395.696C394.981 395.173 395.109 394.736 395.365 394.384C395.621 394.021 396.005 393.749 396.517 393.568C397.04 393.376 397.701 393.28 398.501 393.28H400.133V392.464C400.133 391.877 399.973 391.429 399.653 391.12C399.333 390.811 398.843 390.656 398.181 390.656C397.691 390.656 397.275 390.768 396.933 390.992C396.592 391.216 396.309 391.515 396.085 391.888L395.317 391.168C395.541 390.731 395.899 390.352 396.389 390.032C396.88 389.712 397.499 389.552 398.245 389.552C399.237 389.552 400.011 389.797 400.565 390.288C401.131 390.779 401.413 391.461 401.413 392.336V396.88H402.357V398ZM400.133 394.24H398.437C397.712 394.24 397.179 394.347 396.837 394.56C396.496 394.773 396.325 395.083 396.325 395.488V395.824C396.325 396.229 396.475 396.544 396.773 396.768C397.072 396.992 397.467 397.104 397.957 397.104C398.384 397.104 398.757 397.04 399.077 396.912C399.408 396.773 399.664 396.592 399.845 396.368C400.037 396.133 400.133 395.877 400.133 395.6V394.24ZM406.024 398.192C405.267 398.192 404.627 398.048 404.104 397.76C403.582 397.461 403.134 397.067 402.76 396.576L403.672 395.84C403.992 396.235 404.35 396.544 404.744 396.768C405.139 396.992 405.598 397.104 406.12 397.104C406.664 397.104 407.086 396.987 407.384 396.752C407.694 396.517 407.848 396.187 407.848 395.76C407.848 395.44 407.742 395.163 407.528 394.928C407.326 394.693 406.952 394.539 406.408 394.464L405.752 394.368C405.251 394.293 404.798 394.171 404.392 394C403.987 393.819 403.667 393.568 403.432 393.248C403.208 392.917 403.096 392.496 403.096 391.984C403.096 391.163 403.374 390.555 403.928 390.16C404.494 389.755 405.198 389.552 406.04 389.552C406.488 389.552 406.883 389.605 407.224 389.712C407.576 389.819 407.891 389.973 408.168 390.176C408.446 390.368 408.696 390.603 408.92 390.88L408.072 391.648C407.891 391.392 407.624 391.163 407.272 390.96C406.92 390.747 406.478 390.64 405.944 390.64C405.422 390.64 405.022 390.757 404.744 390.992C404.467 391.216 404.328 391.525 404.328 391.92C404.328 392.315 404.462 392.608 404.728 392.8C405.006 392.981 405.4 393.115 405.912 393.2L406.552 393.296C407.47 393.435 408.12 393.701 408.504 394.096C408.888 394.48 409.08 394.987 409.08 395.616C409.08 396.149 408.958 396.608 408.712 396.992C408.467 397.376 408.115 397.675 407.656 397.888C407.198 398.091 406.654 398.192 406.024 398.192ZM411.439 398.192C411.108 398.192 410.863 398.107 410.703 397.936C410.543 397.755 410.463 397.531 410.463 397.264V397.056C410.463 396.779 410.543 396.555 410.703 396.384C410.863 396.213 411.108 396.128 411.439 396.128C411.78 396.128 412.026 396.213 412.175 396.384C412.335 396.555 412.415 396.779 412.415 397.056V397.264C412.415 397.531 412.335 397.755 412.175 397.936C412.026 398.107 411.78 398.192 411.439 398.192Z" fill="black"/>
<path d="M131.782 304V291.436H135.778C136.846 291.436 137.758 291.67 138.514 292.138C139.282 292.594 139.864 293.29 140.26 294.226C140.656 295.15 140.854 296.314 140.854 297.718C140.854 299.11 140.656 300.274 140.26 301.21C139.864 302.146 139.282 302.848 138.514 303.316C137.758 303.772 136.846 304 135.778 304H131.782ZM132.862 303.046H135.796C136.624 303.046 137.326 302.866 137.902 302.506C138.49 302.134 138.934 301.618 139.234 300.958C139.546 300.286 139.702 299.482 139.702 298.546V296.89C139.702 295.954 139.546 295.15 139.234 294.478C138.934 293.806 138.49 293.29 137.902 292.93C137.326 292.57 136.624 292.39 135.796 292.39H132.862V303.046ZM146.236 304.216C145.42 304.216 144.706 304.024 144.094 303.64C143.494 303.256 143.026 302.704 142.69 301.984C142.366 301.264 142.204 300.4 142.204 299.392C142.204 298.384 142.366 297.52 142.69 296.8C143.026 296.08 143.494 295.528 144.094 295.144C144.694 294.76 145.402 294.568 146.218 294.568C147.01 294.568 147.694 294.76 148.27 295.144C148.846 295.516 149.296 296.044 149.62 296.728C149.944 297.412 150.106 298.204 150.106 299.104V299.59H143.284V300.04C143.284 301.012 143.548 301.804 144.076 302.416C144.604 303.016 145.342 303.316 146.29 303.316C146.95 303.316 147.514 303.16 147.982 302.848C148.462 302.524 148.828 302.062 149.08 301.462L149.836 301.966C149.548 302.638 149.092 303.184 148.468 303.604C147.856 304.012 147.112 304.216 146.236 304.216ZM146.218 295.432C145.618 295.432 145.096 295.57 144.652 295.846C144.22 296.122 143.884 296.506 143.644 296.998C143.404 297.49 143.284 298.06 143.284 298.708V298.798H148.99V298.654C148.99 298.006 148.876 297.442 148.648 296.962C148.42 296.482 148.096 296.11 147.676 295.846C147.256 295.57 146.77 295.432 146.218 295.432ZM154.606 304.216C153.802 304.216 153.112 304.066 152.536 303.766C151.972 303.454 151.48 303.016 151.06 302.452L151.816 301.858C152.2 302.35 152.62 302.722 153.076 302.974C153.532 303.214 154.066 303.334 154.678 303.334C155.386 303.334 155.932 303.184 156.316 302.884C156.7 302.572 156.892 302.14 156.892 301.588C156.892 301.108 156.742 300.724 156.442 300.436C156.154 300.148 155.674 299.956 155.002 299.86L154.246 299.734C153.694 299.65 153.202 299.512 152.77 299.32C152.338 299.128 152.002 298.858 151.762 298.51C151.534 298.15 151.42 297.694 151.42 297.142C151.42 296.278 151.72 295.636 152.32 295.216C152.92 294.784 153.664 294.568 154.552 294.568C155.068 294.568 155.518 294.628 155.902 294.748C156.286 294.868 156.622 295.036 156.91 295.252C157.21 295.468 157.474 295.714 157.702 295.99L157.018 296.62C156.778 296.32 156.46 296.05 156.064 295.81C155.668 295.57 155.146 295.45 154.498 295.45C153.838 295.45 153.322 295.594 152.95 295.882C152.59 296.17 152.41 296.572 152.41 297.088C152.41 297.628 152.572 298.024 152.896 298.276C153.232 298.516 153.73 298.69 154.39 298.798L155.128 298.906C156.064 299.05 156.754 299.332 157.198 299.752C157.654 300.16 157.882 300.736 157.882 301.48C157.882 302.056 157.75 302.548 157.486 302.956C157.222 303.364 156.844 303.676 156.352 303.892C155.872 304.108 155.29 304.216 154.606 304.216ZM163.112 304.216C161.852 304.216 160.868 303.796 160.16 302.956C159.464 302.104 159.116 300.916 159.116 299.392C159.116 297.868 159.464 296.686 160.16 295.846C160.868 294.994 161.852 294.568 163.112 294.568C163.964 294.568 164.654 294.76 165.182 295.144C165.722 295.516 166.124 296.002 166.388 296.602L165.524 297.034C165.32 296.53 165.014 296.146 164.606 295.882C164.21 295.618 163.712 295.486 163.112 295.486C162.176 295.486 161.462 295.786 160.97 296.386C160.478 296.974 160.232 297.76 160.232 298.744V300.04C160.232 301.012 160.478 301.798 160.97 302.398C161.462 302.998 162.176 303.298 163.112 303.298C163.748 303.298 164.282 303.16 164.714 302.884C165.146 302.608 165.494 302.212 165.758 301.696L166.514 302.2C166.214 302.8 165.782 303.286 165.218 303.658C164.666 304.03 163.964 304.216 163.112 304.216ZM175.461 304H174.417C174.141 304 173.913 303.946 173.733 303.838C173.553 303.718 173.421 303.556 173.337 303.352C173.265 303.148 173.229 302.908 173.229 302.632V302.146L173.643 302.542H173.157C172.953 303.046 172.617 303.454 172.149 303.766C171.681 304.066 171.087 304.216 170.367 304.216C169.395 304.216 168.645 303.976 168.117 303.496C167.589 303.016 167.325 302.35 167.325 301.498C167.325 300.946 167.451 300.472 167.703 300.076C167.967 299.68 168.369 299.374 168.909 299.158C169.461 298.942 170.181 298.834 171.069 298.834H173.193V297.754C173.193 296.986 172.995 296.41 172.599 296.026C172.203 295.642 171.615 295.45 170.835 295.45C170.235 295.45 169.725 295.582 169.305 295.846C168.897 296.11 168.567 296.482 168.315 296.962L167.667 296.422C167.919 295.894 168.303 295.456 168.819 295.108C169.347 294.748 170.031 294.568 170.871 294.568C171.939 294.568 172.761 294.838 173.337 295.378C173.925 295.918 174.219 296.674 174.219 297.646V303.1H175.461V304ZM173.193 299.608H171.033C170.121 299.608 169.455 299.758 169.035 300.058C168.615 300.346 168.405 300.748 168.405 301.264V301.696C168.405 302.224 168.597 302.632 168.981 302.92C169.377 303.196 169.887 303.334 170.511 303.334C171.015 303.334 171.465 303.256 171.861 303.1C172.269 302.932 172.593 302.698 172.833 302.398C173.073 302.086 173.193 301.726 173.193 301.318V299.608ZM177.897 304H176.871V294.784H177.897V296.44H177.969C178.089 296.14 178.263 295.87 178.491 295.63C178.719 295.378 179.013 295.174 179.373 295.018C179.745 294.862 180.195 294.784 180.723 294.784H181.335V295.792H180.525C180.009 295.792 179.553 295.87 179.157 296.026C178.761 296.182 178.449 296.404 178.221 296.692C178.005 296.968 177.897 297.304 177.897 297.7V304ZM189.705 305.08C189.705 305.704 189.537 306.22 189.201 306.628C188.865 307.036 188.367 307.336 187.707 307.528C187.047 307.72 186.237 307.816 185.277 307.816C184.341 307.816 183.579 307.72 182.991 307.528C182.403 307.348 181.971 307.084 181.695 306.736C181.431 306.388 181.299 305.98 181.299 305.512C181.299 304.996 181.437 304.576 181.713 304.252C182.001 303.94 182.391 303.712 182.883 303.568V303.424C182.595 303.304 182.379 303.142 182.235 302.938C182.091 302.722 182.019 302.464 182.019 302.164C182.019 301.72 182.169 301.378 182.469 301.138C182.769 300.886 183.141 300.7 183.585 300.58V300.508C183.045 300.256 182.625 299.896 182.325 299.428C182.025 298.948 181.875 298.372 181.875 297.7C181.875 297.076 182.013 296.53 182.289 296.062C182.565 295.594 182.955 295.228 183.459 294.964C183.963 294.7 184.551 294.568 185.223 294.568C185.595 294.568 185.931 294.61 186.231 294.694C186.543 294.766 186.825 294.874 187.077 295.018V294.568C187.077 294.292 187.143 294.07 187.275 293.902C187.407 293.722 187.623 293.632 187.923 293.632H189.507V294.532H187.635V295.414C187.947 295.69 188.181 296.026 188.337 296.422C188.505 296.806 188.589 297.232 188.589 297.7C188.589 298.324 188.451 298.876 188.175 299.356C187.899 299.824 187.509 300.19 187.005 300.454C186.501 300.718 185.913 300.85 185.241 300.85C185.073 300.85 184.911 300.838 184.755 300.814C184.599 300.79 184.443 300.766 184.287 300.742C183.903 300.85 183.579 301 183.315 301.192C183.051 301.372 182.919 301.618 182.919 301.93C182.919 302.194 183.039 302.398 183.279 302.542C183.519 302.686 183.891 302.758 184.395 302.758H186.537C187.641 302.758 188.445 302.968 188.949 303.388C189.453 303.796 189.705 304.36 189.705 305.08ZM188.715 305.152C188.715 304.708 188.553 304.354 188.229 304.09C187.917 303.838 187.353 303.712 186.537 303.712H183.549C183.153 303.844 182.841 304.042 182.613 304.306C182.385 304.57 182.271 304.9 182.271 305.296C182.271 305.776 182.469 306.172 182.865 306.484C183.261 306.808 183.861 306.97 184.665 306.97H185.817C186.705 306.97 187.407 306.82 187.923 306.52C188.451 306.232 188.715 305.776 188.715 305.152ZM185.241 300.004C185.949 300.004 186.501 299.83 186.897 299.482C187.305 299.122 187.509 298.624 187.509 297.988V297.412C187.509 296.776 187.305 296.284 186.897 295.936C186.501 295.576 185.949 295.396 185.241 295.396C184.533 295.396 183.975 295.576 183.567 295.936C183.171 296.284 182.973 296.776 182.973 297.412V297.988C182.973 298.624 183.171 299.122 183.567 299.482C183.975 299.83 184.533 300.004 185.241 300.004ZM198.28 304H197.236C196.96 304 196.732 303.946 196.552 303.838C196.372 303.718 196.24 303.556 196.156 303.352C196.084 303.148 196.048 302.908 196.048 302.632V302.146L196.462 302.542H195.976C195.772 303.046 195.436 303.454 194.968 303.766C194.5 304.066 193.906 304.216 193.186 304.216C192.214 304.216 191.464 303.976 190.936 303.496C190.408 303.016 190.144 302.35 190.144 301.498C190.144 300.946 190.27 300.472 190.522 300.076C190.786 299.68 191.188 299.374 191.728 299.158C192.28 298.942 193 298.834 193.888 298.834H196.012V297.754C196.012 296.986 195.814 296.41 195.418 296.026C195.022 295.642 194.434 295.45 193.654 295.45C193.054 295.45 192.544 295.582 192.124 295.846C191.716 296.11 191.386 296.482 191.134 296.962L190.486 296.422C190.738 295.894 191.122 295.456 191.638 295.108C192.166 294.748 192.85 294.568 193.69 294.568C194.758 294.568 195.58 294.838 196.156 295.378C196.744 295.918 197.038 296.674 197.038 297.646V303.1H198.28V304ZM196.012 299.608H193.852C192.94 299.608 192.274 299.758 191.854 300.058C191.434 300.346 191.224 300.748 191.224 301.264V301.696C191.224 302.224 191.416 302.632 191.8 302.92C192.196 303.196 192.706 303.334 193.33 303.334C193.834 303.334 194.284 303.256 194.68 303.1C195.088 302.932 195.412 302.698 195.652 302.398C195.892 302.086 196.012 301.726 196.012 301.318V299.608ZM195.67 290.644L193.69 293.452L193.024 293.128L194.734 290.176L195.67 290.644ZM205.671 304H204.357C203.985 304 203.703 303.898 203.511 303.694C203.319 303.49 203.223 303.22 203.223 302.884V290.68H204.249V303.1H205.671V304ZM214.629 304H213.585C213.309 304 213.081 303.946 212.901 303.838C212.721 303.718 212.589 303.556 212.505 303.352C212.433 303.148 212.397 302.908 212.397 302.632V302.146L212.811 302.542H212.325C212.121 303.046 211.785 303.454 211.317 303.766C210.849 304.066 210.255 304.216 209.535 304.216C208.563 304.216 207.813 303.976 207.285 303.496C206.757 303.016 206.493 302.35 206.493 301.498C206.493 300.946 206.619 300.472 206.871 300.076C207.135 299.68 207.537 299.374 208.077 299.158C208.629 298.942 209.349 298.834 210.237 298.834H212.361V297.754C212.361 296.986 212.163 296.41 211.767 296.026C211.371 295.642 210.783 295.45 210.003 295.45C209.403 295.45 208.893 295.582 208.473 295.846C208.065 296.11 207.735 296.482 207.483 296.962L206.835 296.422C207.087 295.894 207.471 295.456 207.987 295.108C208.515 294.748 209.199 294.568 210.039 294.568C211.107 294.568 211.929 294.838 212.505 295.378C213.093 295.918 213.387 296.674 213.387 297.646V303.1H214.629V304ZM212.361 299.608H210.201C209.289 299.608 208.623 299.758 208.203 300.058C207.783 300.346 207.573 300.748 207.573 301.264V301.696C207.573 302.224 207.765 302.632 208.149 302.92C208.545 303.196 209.055 303.334 209.679 303.334C210.183 303.334 210.633 303.256 211.029 303.1C211.437 302.932 211.761 302.698 212.001 302.398C212.241 302.086 212.361 301.726 212.361 301.318V299.608ZM226.953 304H225.909C225.633 304 225.405 303.946 225.225 303.838C225.045 303.718 224.913 303.556 224.829 303.352C224.757 303.148 224.721 302.908 224.721 302.632V302.146L225.135 302.542H224.649C224.445 303.046 224.109 303.454 223.641 303.766C223.173 304.066 222.579 304.216 221.859 304.216C220.887 304.216 220.137 303.976 219.609 303.496C219.081 303.016 218.817 302.35 218.817 301.498C218.817 300.946 218.943 300.472 219.195 300.076C219.459 299.68 219.861 299.374 220.401 299.158C220.953 298.942 221.673 298.834 222.561 298.834H224.685V297.754C224.685 296.986 224.487 296.41 224.091 296.026C223.695 295.642 223.107 295.45 222.327 295.45C221.727 295.45 221.217 295.582 220.797 295.846C220.389 296.11 220.059 296.482 219.807 296.962L219.159 296.422C219.411 295.894 219.795 295.456 220.311 295.108C220.839 294.748 221.523 294.568 222.363 294.568C223.431 294.568 224.253 294.838 224.829 295.378C225.417 295.918 225.711 296.674 225.711 297.646V303.1H226.953V304ZM224.685 299.608H222.525C221.613 299.608 220.947 299.758 220.527 300.058C220.107 300.346 219.897 300.748 219.897 301.264V301.696C219.897 302.224 220.089 302.632 220.473 302.92C220.869 303.196 221.379 303.334 222.003 303.334C222.507 303.334 222.957 303.256 223.353 303.1C223.761 302.932 224.085 302.698 224.325 302.398C224.565 302.086 224.685 301.726 224.685 301.318V299.608ZM228.363 307.6V294.784H229.389V296.26H229.443C229.671 295.744 230.019 295.336 230.487 295.036C230.967 294.724 231.555 294.568 232.251 294.568C233.043 294.568 233.721 294.76 234.285 295.144C234.849 295.516 235.281 296.062 235.581 296.782C235.893 297.502 236.049 298.372 236.049 299.392C236.049 300.4 235.893 301.27 235.581 302.002C235.281 302.722 234.849 303.274 234.285 303.658C233.721 304.03 233.043 304.216 232.251 304.216C231.555 304.216 230.973 304.06 230.505 303.748C230.049 303.436 229.695 303.028 229.443 302.524H229.389V307.6H228.363ZM232.017 303.298C232.941 303.298 233.661 303.004 234.177 302.416C234.693 301.816 234.951 301.024 234.951 300.04V298.744C234.951 297.748 234.693 296.956 234.177 296.368C233.661 295.78 232.941 295.486 232.017 295.486C231.549 295.486 231.111 295.576 230.703 295.756C230.307 295.924 229.989 296.164 229.749 296.476C229.509 296.776 229.389 297.13 229.389 297.538V301.192C229.389 301.612 229.509 301.984 229.749 302.308C229.989 302.62 230.307 302.866 230.703 303.046C231.111 303.214 231.549 303.298 232.017 303.298ZM237.979 307.6V294.784H239.005V296.26H239.059C239.287 295.744 239.635 295.336 240.103 295.036C240.583 294.724 241.171 294.568 241.867 294.568C242.659 294.568 243.337 294.76 243.901 295.144C244.465 295.516 244.897 296.062 245.197 296.782C245.509 297.502 245.665 298.372 245.665 299.392C245.665 300.4 245.509 301.27 245.197 302.002C244.897 302.722 244.465 303.274 243.901 303.658C243.337 304.03 242.659 304.216 241.867 304.216C241.171 304.216 240.589 304.06 240.121 303.748C239.665 303.436 239.311 303.028 239.059 302.524H239.005V307.6H237.979ZM241.633 303.298C242.557 303.298 243.277 303.004 243.793 302.416C244.309 301.816 244.567 301.024 244.567 300.04V298.744C244.567 297.748 244.309 296.956 243.793 296.368C243.277 295.78 242.557 295.486 241.633 295.486C241.165 295.486 240.727 295.576 240.319 295.756C239.923 295.924 239.605 296.164 239.365 296.476C239.125 296.776 239.005 297.13 239.005 297.538V301.192C239.005 301.612 239.125 301.984 239.365 302.308C239.605 302.62 239.923 302.866 240.319 303.046C240.727 303.214 241.165 303.298 241.633 303.298Z" fill="black"/>
<defs>
<linearGradient id="paint0_linear_393_567" x1="130" y1="335.5" x2="591" y2="335.5" gradientUnits="userSpaceOnUse">
<stop offset="0.182692" stop-color="#58286A"/>
<stop offset="0.600962" stop-color="#DBA0E7"/>
<stop offset="0.826923" stop-color="#C29CCB"/>
</linearGradient>
</defs>
</svg>
