<svg width="1280" height="339" viewBox="0 0 1280 339" fill="none" xmlns="http://www.w3.org/2000/svg">
<path d="M898.73 101H893.75V99.185H895.1V92.345H893.75V90.53H898.73V92.345H897.38V99.185H898.73V101ZM902.73 101H900.51V93.125H902.73V94.46H902.82C902.96 94.05 903.205 93.695 903.555 93.395C903.905 93.095 904.39 92.945 905.01 92.945C905.81 92.945 906.42 93.22 906.84 93.77C907.26 94.31 907.47 95.075 907.47 96.065V101H905.25V96.245C905.25 95.745 905.17 95.37 905.01 95.12C904.85 94.87 904.565 94.745 904.155 94.745C903.915 94.745 903.685 94.79 903.465 94.88C903.255 94.96 903.08 95.085 902.94 95.255C902.8 95.425 902.73 95.64 902.73 95.9V101ZM910.555 92.285C910.105 92.285 909.775 92.18 909.565 91.97C909.365 91.76 909.265 91.5 909.265 91.19V90.86C909.265 90.54 909.365 90.28 909.565 90.08C909.775 89.87 910.105 89.765 910.555 89.765C911.005 89.765 911.33 89.87 911.53 90.08C911.74 90.28 911.845 90.54 911.845 90.86V91.19C911.845 91.5 911.74 91.76 911.53 91.97C911.33 92.18 911.005 92.285 910.555 92.285ZM909.445 101V93.125H911.665V101H909.445ZM916.917 101.18C915.737 101.18 914.827 100.81 914.187 100.07C913.557 99.32 913.242 98.315 913.242 97.055C913.242 95.795 913.557 94.795 914.187 94.055C914.827 93.315 915.737 92.945 916.917 92.945C917.717 92.945 918.382 93.125 918.912 93.485C919.452 93.845 919.837 94.35 920.067 95L918.267 95.78C918.197 95.48 918.052 95.225 917.832 95.015C917.612 94.805 917.307 94.7 916.917 94.7C916.467 94.7 916.127 94.85 915.897 95.15C915.667 95.44 915.552 95.835 915.552 96.335V97.805C915.552 98.295 915.667 98.69 915.897 98.99C916.127 99.29 916.467 99.44 916.917 99.44C917.357 99.44 917.682 99.32 917.892 99.08C918.112 98.84 918.277 98.565 918.387 98.255L920.112 99.005C919.852 99.755 919.447 100.305 918.897 100.655C918.347 101.005 917.687 101.18 916.917 101.18ZM922.596 92.285C922.146 92.285 921.816 92.18 921.606 91.97C921.406 91.76 921.306 91.5 921.306 91.19V90.86C921.306 90.54 921.406 90.28 921.606 90.08C921.816 89.87 922.146 89.765 922.596 89.765C923.046 89.765 923.371 89.87 923.571 90.08C923.781 90.28 923.886 90.54 923.886 90.86V91.19C923.886 91.5 923.781 91.76 923.571 91.97C923.371 92.18 923.046 92.285 922.596 92.285ZM921.486 101V93.125H923.706V101H921.486ZM928.973 101.18C928.203 101.18 927.543 101.015 926.993 100.685C926.443 100.345 926.018 99.865 925.718 99.245C925.428 98.625 925.283 97.895 925.283 97.055C925.283 96.205 925.428 95.475 925.718 94.865C926.018 94.255 926.443 93.785 926.993 93.455C927.543 93.115 928.203 92.945 928.973 92.945C929.743 92.945 930.403 93.115 930.953 93.455C931.503 93.785 931.923 94.255 932.213 94.865C932.513 95.475 932.663 96.205 932.663 97.055C932.663 97.895 932.513 98.625 932.213 99.245C931.923 99.865 931.503 100.345 930.953 100.685C930.403 101.015 929.743 101.18 928.973 101.18ZM928.973 99.425C929.413 99.425 929.753 99.29 929.993 99.02C930.233 98.74 930.353 98.355 930.353 97.865V96.26C930.353 95.76 930.233 95.375 929.993 95.105C929.753 94.835 929.413 94.7 928.973 94.7C928.543 94.7 928.203 94.835 927.953 95.105C927.713 95.375 927.593 95.76 927.593 96.26V97.865C927.593 98.355 927.713 98.74 927.953 99.02C928.203 99.29 928.543 99.425 928.973 99.425ZM900.215 123L897.35 118.05L896.345 115.95H896.3V118.14V123H894.155V112.53H896.645L899.51 117.48L900.515 119.58H900.56V117.39V112.53H902.705V123H900.215ZM908.084 123.18C907.314 123.18 906.654 123.015 906.104 122.685C905.554 122.345 905.129 121.865 904.829 121.245C904.539 120.625 904.394 119.895 904.394 119.055C904.394 118.205 904.539 117.475 904.829 116.865C905.129 116.255 905.554 115.785 906.104 115.455C906.654 115.115 907.314 114.945 908.084 114.945C908.854 114.945 909.514 115.115 910.064 115.455C910.614 115.785 911.034 116.255 911.324 116.865C911.624 117.475 911.774 118.205 911.774 119.055C911.774 119.895 911.624 120.625 911.324 121.245C911.034 121.865 910.614 122.345 910.064 122.685C909.514 123.015 908.854 123.18 908.084 123.18ZM908.084 121.425C908.524 121.425 908.864 121.29 909.104 121.02C909.344 120.74 909.464 120.355 909.464 119.865V118.26C909.464 117.76 909.344 117.375 909.104 117.105C908.864 116.835 908.524 116.7 908.084 116.7C907.654 116.7 907.314 116.835 907.064 117.105C906.824 117.375 906.704 117.76 906.704 118.26V119.865C906.704 120.355 906.824 120.74 907.064 121.02C907.314 121.29 907.654 121.425 908.084 121.425ZM916.026 123.18C915.266 123.18 914.626 123.06 914.106 122.82C913.586 122.57 913.121 122.22 912.711 121.77L914.016 120.45C914.296 120.76 914.606 121.005 914.946 121.185C915.286 121.365 915.671 121.455 916.101 121.455C916.541 121.455 916.846 121.39 917.016 121.26C917.186 121.12 917.271 120.935 917.271 120.705C917.271 120.505 917.206 120.355 917.076 120.255C916.956 120.155 916.756 120.085 916.476 120.045L915.621 119.94C915.031 119.86 914.536 119.72 914.136 119.52C913.746 119.32 913.451 119.055 913.251 118.725C913.061 118.385 912.966 117.98 912.966 117.51C912.966 116.75 913.241 116.135 913.791 115.665C914.341 115.185 915.086 114.945 916.026 114.945C916.576 114.945 917.041 114.995 917.421 115.095C917.801 115.185 918.131 115.325 918.411 115.515C918.701 115.695 918.976 115.915 919.236 116.175L917.961 117.48C917.711 117.23 917.426 117.035 917.106 116.895C916.796 116.745 916.476 116.67 916.146 116.67C915.776 116.67 915.506 116.73 915.336 116.85C915.176 116.97 915.096 117.13 915.096 117.33C915.096 117.54 915.151 117.705 915.261 117.825C915.381 117.935 915.601 118.015 915.921 118.065L916.806 118.185C917.666 118.295 918.311 118.55 918.741 118.95C919.181 119.34 919.401 119.875 919.401 120.555C919.401 121.055 919.261 121.505 918.981 121.905C918.701 122.305 918.306 122.62 917.796 122.85C917.296 123.07 916.706 123.18 916.026 123.18ZM924.11 123.18C923.34 123.18 922.68 123.015 922.13 122.685C921.58 122.345 921.155 121.865 920.855 121.245C920.565 120.625 920.42 119.895 920.42 119.055C920.42 118.205 920.565 117.475 920.855 116.865C921.155 116.255 921.58 115.785 922.13 115.455C922.68 115.115 923.34 114.945 924.11 114.945C924.88 114.945 925.54 115.115 926.09 115.455C926.64 115.785 927.06 116.255 927.35 116.865C927.65 117.475 927.8 118.205 927.8 119.055C927.8 119.895 927.65 120.625 927.35 121.245C927.06 121.865 926.64 122.345 926.09 122.685C925.54 123.015 924.88 123.18 924.11 123.18ZM924.11 121.425C924.55 121.425 924.89 121.29 925.13 121.02C925.37 120.74 925.49 120.355 925.49 119.865V118.26C925.49 117.76 925.37 117.375 925.13 117.105C924.89 116.835 924.55 116.7 924.11 116.7C923.68 116.7 923.34 116.835 923.09 117.105C922.85 117.375 922.73 117.76 922.73 118.26V119.865C922.73 120.355 922.85 120.74 923.09 121.02C923.34 121.29 923.68 121.425 924.11 121.425ZM933.374 123H932.054C931.294 123 930.714 122.805 930.314 122.415C929.914 122.025 929.714 121.455 929.714 120.705V116.85H928.604V115.125H929.159C929.459 115.125 929.664 115.055 929.774 114.915C929.884 114.765 929.939 114.555 929.939 114.285V112.995H931.934V115.125H933.494V116.85H931.934V121.275H933.374V123ZM937.256 123H935.036V115.125H937.256V116.835H937.331C937.391 116.545 937.501 116.27 937.661 116.01C937.821 115.75 938.036 115.54 938.306 115.38C938.586 115.21 938.931 115.125 939.341 115.125H939.731V117.195H939.176C938.746 117.195 938.386 117.235 938.096 117.315C937.816 117.385 937.606 117.505 937.466 117.675C937.326 117.845 937.256 118.085 937.256 118.395V123ZM944.222 123.18C943.452 123.18 942.792 123.015 942.242 122.685C941.692 122.345 941.267 121.865 940.967 121.245C940.677 120.625 940.532 119.895 940.532 119.055C940.532 118.205 940.677 117.475 940.967 116.865C941.267 116.255 941.692 115.785 942.242 115.455C942.792 115.115 943.452 114.945 944.222 114.945C944.992 114.945 945.652 115.115 946.202 115.455C946.752 115.785 947.172 116.255 947.462 116.865C947.762 117.475 947.912 118.205 947.912 119.055C947.912 119.895 947.762 120.625 947.462 121.245C947.172 121.865 946.752 122.345 946.202 122.685C945.652 123.015 944.992 123.18 944.222 123.18ZM944.222 121.425C944.662 121.425 945.002 121.29 945.242 121.02C945.482 120.74 945.602 120.355 945.602 119.865V118.26C945.602 117.76 945.482 117.375 945.242 117.105C945.002 116.835 944.662 116.7 944.222 116.7C943.792 116.7 943.452 116.835 943.202 117.105C942.962 117.375 942.842 117.76 942.842 118.26V119.865C942.842 120.355 942.962 120.74 943.202 121.02C943.452 121.29 943.792 121.425 944.222 121.425ZM952.164 123.18C951.404 123.18 950.764 123.06 950.244 122.82C949.724 122.57 949.259 122.22 948.849 121.77L950.154 120.45C950.434 120.76 950.744 121.005 951.084 121.185C951.424 121.365 951.809 121.455 952.239 121.455C952.679 121.455 952.984 121.39 953.154 121.26C953.324 121.12 953.409 120.935 953.409 120.705C953.409 120.505 953.344 120.355 953.214 120.255C953.094 120.155 952.894 120.085 952.614 120.045L951.759 119.94C951.169 119.86 950.674 119.72 950.274 119.52C949.884 119.32 949.589 119.055 949.389 118.725C949.199 118.385 949.104 117.98 949.104 117.51C949.104 116.75 949.379 116.135 949.929 115.665C950.479 115.185 951.224 114.945 952.164 114.945C952.714 114.945 953.179 114.995 953.559 115.095C953.939 115.185 954.269 115.325 954.549 115.515C954.839 115.695 955.114 115.915 955.374 116.175L954.099 117.48C953.849 117.23 953.564 117.035 953.244 116.895C952.934 116.745 952.614 116.67 952.284 116.67C951.914 116.67 951.644 116.73 951.474 116.85C951.314 116.97 951.234 117.13 951.234 117.33C951.234 117.54 951.289 117.705 951.399 117.825C951.519 117.935 951.739 118.015 952.059 118.065L952.944 118.185C953.804 118.295 954.449 118.55 954.879 118.95C955.319 119.34 955.539 119.875 955.539 120.555C955.539 121.055 955.399 121.505 955.119 121.905C954.839 122.305 954.444 122.62 953.934 122.85C953.434 123.07 952.844 123.18 952.164 123.18ZM896.435 145H894.155V134.53H901.1V136.555H896.435V138.7H900.41V140.71H896.435V145ZM907.079 145V143.68H907.004C906.874 144.08 906.634 144.43 906.284 144.73C905.944 145.03 905.449 145.18 904.799 145.18C903.999 145.18 903.389 144.91 902.969 144.37C902.549 143.83 902.339 143.065 902.339 142.075V137.125H904.559V141.88C904.559 142.36 904.644 142.73 904.814 142.99C904.994 143.25 905.284 143.38 905.684 143.38C905.914 143.38 906.134 143.34 906.344 143.26C906.564 143.17 906.739 143.04 906.869 142.87C907.009 142.7 907.079 142.49 907.079 142.24V137.125H909.299V145H907.079ZM913.584 145H911.364V137.125H913.584V138.46H913.674C913.814 138.05 914.059 137.695 914.409 137.395C914.759 137.095 915.244 136.945 915.864 136.945C916.664 136.945 917.274 137.22 917.694 137.77C918.114 138.31 918.324 139.075 918.324 140.065V145H916.104V140.245C916.104 139.745 916.024 139.37 915.864 139.12C915.704 138.87 915.419 138.745 915.009 138.745C914.769 138.745 914.539 138.79 914.319 138.88C914.109 138.96 913.934 139.085 913.794 139.255C913.654 139.425 913.584 139.64 913.584 139.9V145ZM923.48 145.18C922.3 145.18 921.39 144.81 920.75 144.07C920.12 143.32 919.805 142.315 919.805 141.055C919.805 139.795 920.12 138.795 920.75 138.055C921.39 137.315 922.3 136.945 923.48 136.945C924.28 136.945 924.945 137.125 925.475 137.485C926.015 137.845 926.4 138.35 926.63 139L924.83 139.78C924.76 139.48 924.615 139.225 924.395 139.015C924.175 138.805 923.87 138.7 923.48 138.7C923.03 138.7 922.69 138.85 922.46 139.15C922.23 139.44 922.115 139.835 922.115 140.335V141.805C922.115 142.295 922.23 142.69 922.46 142.99C922.69 143.29 923.03 143.44 923.48 143.44C923.92 143.44 924.245 143.32 924.455 143.08C924.675 142.84 924.84 142.565 924.95 142.255L926.675 143.005C926.415 143.755 926.01 144.305 925.46 144.655C924.91 145.005 924.25 145.18 923.48 145.18ZM929.159 136.285C928.709 136.285 928.379 136.18 928.169 135.97C927.969 135.76 927.869 135.5 927.869 135.19V134.86C927.869 134.54 927.969 134.28 928.169 134.08C928.379 133.87 928.709 133.765 929.159 133.765C929.609 133.765 929.934 133.87 930.134 134.08C930.344 134.28 930.449 134.54 930.449 134.86V135.19C930.449 135.5 930.344 135.76 930.134 135.97C929.934 136.18 929.609 136.285 929.159 136.285ZM928.049 145V137.125H930.269V145H928.049ZM935.536 145.18C934.766 145.18 934.106 145.015 933.556 144.685C933.006 144.345 932.581 143.865 932.281 143.245C931.991 142.625 931.846 141.895 931.846 141.055C931.846 140.205 931.991 139.475 932.281 138.865C932.581 138.255 933.006 137.785 933.556 137.455C934.106 137.115 934.766 136.945 935.536 136.945C936.306 136.945 936.966 137.115 937.516 137.455C938.066 137.785 938.486 138.255 938.776 138.865C939.076 139.475 939.226 140.205 939.226 141.055C939.226 141.895 939.076 142.625 938.776 143.245C938.486 143.865 938.066 144.345 937.516 144.685C936.966 145.015 936.306 145.18 935.536 145.18ZM935.536 143.425C935.976 143.425 936.316 143.29 936.556 143.02C936.796 142.74 936.916 142.355 936.916 141.865V140.26C936.916 139.76 936.796 139.375 936.556 139.105C936.316 138.835 935.976 138.7 935.536 138.7C935.106 138.7 934.766 138.835 934.516 139.105C934.276 139.375 934.156 139.76 934.156 140.26V141.865C934.156 142.355 934.276 142.74 934.516 143.02C934.766 143.29 935.106 143.425 935.536 143.425ZM937.771 133.675L935.761 136.315L934.441 135.67L935.926 132.76L937.771 133.675ZM943.027 145H940.807V137.125H943.027V138.46H943.117C943.257 138.05 943.502 137.695 943.852 137.395C944.202 137.095 944.687 136.945 945.307 136.945C946.107 136.945 946.717 137.22 947.137 137.77C947.557 138.31 947.767 139.075 947.767 140.065V145H945.547V140.245C945.547 139.745 945.467 139.37 945.307 139.12C945.147 138.87 944.862 138.745 944.452 138.745C944.212 138.745 943.982 138.79 943.762 138.88C943.552 138.96 943.377 139.085 943.237 139.255C943.097 139.425 943.027 139.64 943.027 139.9V145ZM898.385 167.18C897.445 167.18 896.625 166.98 895.925 166.58C895.235 166.18 894.7 165.585 894.32 164.795C893.94 164.005 893.75 163.02 893.75 161.84C893.75 160.66 893.94 159.665 894.32 158.855C894.7 158.035 895.235 157.415 895.925 156.995C896.625 156.565 897.445 156.35 898.385 156.35C899.345 156.35 900.14 156.55 900.77 156.95C901.41 157.35 901.92 157.97 902.3 158.81L900.335 159.83C900.205 159.39 899.985 159.04 899.675 158.78C899.375 158.51 898.945 158.375 898.385 158.375C897.715 158.375 897.175 158.595 896.765 159.035C896.365 159.465 896.165 160.095 896.165 160.925V162.605C896.165 163.425 896.365 164.055 896.765 164.495C897.175 164.935 897.715 165.155 898.385 165.155C898.945 165.155 899.39 165.005 899.72 164.705C900.06 164.395 900.31 164.025 900.47 163.595L902.33 164.675C901.94 165.465 901.425 166.08 900.785 166.52C900.145 166.96 899.345 167.18 898.385 167.18ZM910.856 167H909.626C909.356 167 909.101 166.935 908.861 166.805C908.631 166.665 908.446 166.465 908.306 166.205C908.166 165.935 908.096 165.615 908.096 165.245V165.05L908.576 165.62H908.036C907.916 166.13 907.651 166.52 907.241 166.79C906.831 167.05 906.326 167.18 905.726 167.18C904.936 167.18 904.331 166.97 903.911 166.55C903.491 166.12 903.281 165.565 903.281 164.885C903.281 164.325 903.416 163.865 903.686 163.505C903.966 163.145 904.356 162.875 904.856 162.695C905.366 162.515 905.966 162.425 906.656 162.425H907.901V161.93C907.901 161.55 907.801 161.25 907.601 161.03C907.401 160.8 907.066 160.685 906.596 160.685C906.156 160.685 905.806 160.78 905.546 160.97C905.286 161.16 905.071 161.375 904.901 161.615L903.581 160.445C903.901 159.975 904.306 159.61 904.796 159.35C905.286 159.08 905.941 158.945 906.761 158.945C907.871 158.945 908.706 159.195 909.266 159.695C909.836 160.185 910.121 160.895 910.121 161.825V165.275H910.856V167ZM907.901 163.685H906.821C906.391 163.685 906.066 163.76 905.846 163.91C905.626 164.06 905.516 164.28 905.516 164.57V164.795C905.516 165.075 905.606 165.285 905.786 165.425C905.966 165.565 906.221 165.635 906.551 165.635C906.801 165.635 907.026 165.6 907.226 165.53C907.426 165.46 907.586 165.35 907.706 165.2C907.836 165.05 907.901 164.855 907.901 164.615V163.685ZM912.346 168.275V159.125H914.566V167.84C914.566 168.54 914.386 169.075 914.026 169.445C913.676 169.815 913.116 170 912.346 170H911.176V168.275H912.346ZM913.456 158.285C913.006 158.285 912.676 158.18 912.466 157.97C912.266 157.76 912.166 157.5 912.166 157.19V156.86C912.166 156.54 912.266 156.28 912.466 156.08C912.676 155.87 913.006 155.765 913.456 155.765C913.906 155.765 914.231 155.87 914.431 156.08C914.641 156.28 914.746 156.54 914.746 156.86V157.19C914.746 157.5 914.641 157.76 914.431 157.97C914.231 158.18 913.906 158.285 913.456 158.285ZM923.688 167H922.458C922.188 167 921.933 166.935 921.693 166.805C921.463 166.665 921.278 166.465 921.138 166.205C920.998 165.935 920.928 165.615 920.928 165.245V165.05L921.408 165.62H920.868C920.748 166.13 920.483 166.52 920.073 166.79C919.663 167.05 919.158 167.18 918.558 167.18C917.768 167.18 917.163 166.97 916.743 166.55C916.323 166.12 916.113 165.565 916.113 164.885C916.113 164.325 916.248 163.865 916.518 163.505C916.798 163.145 917.188 162.875 917.688 162.695C918.198 162.515 918.798 162.425 919.488 162.425H920.733V161.93C920.733 161.55 920.633 161.25 920.433 161.03C920.233 160.8 919.898 160.685 919.428 160.685C918.988 160.685 918.638 160.78 918.378 160.97C918.118 161.16 917.903 161.375 917.733 161.615L916.413 160.445C916.733 159.975 917.138 159.61 917.628 159.35C918.118 159.08 918.773 158.945 919.593 158.945C920.703 158.945 921.538 159.195 922.098 159.695C922.668 160.185 922.953 160.895 922.953 161.825V165.275H923.688V167ZM920.733 163.685H919.653C919.223 163.685 918.898 163.76 918.678 163.91C918.458 164.06 918.348 164.28 918.348 164.57V164.795C918.348 165.075 918.438 165.285 918.618 165.425C918.798 165.565 919.053 165.635 919.383 165.635C919.633 165.635 919.858 165.6 920.058 165.53C920.258 165.46 920.418 165.35 920.538 165.2C920.668 165.05 920.733 164.855 920.733 164.615V163.685ZM902.975 189H900.605L899.855 186.51H896.36L895.61 189H893.3L896.75 178.53H899.57L902.975 189ZM899.3 184.575L898.655 182.4L898.13 180.6H898.055L897.545 182.4L896.9 184.575H899.3ZM904.304 192V181.125H906.524V182.445H906.599C906.709 182.005 906.959 181.645 907.349 181.365C907.749 181.085 908.204 180.945 908.714 180.945C909.384 180.945 909.939 181.105 910.379 181.425C910.829 181.735 911.169 182.195 911.399 182.805C911.629 183.415 911.744 184.165 911.744 185.055C911.744 185.945 911.629 186.7 911.399 187.32C911.169 187.93 910.829 188.395 910.379 188.715C909.939 189.025 909.384 189.18 908.714 189.18C908.204 189.18 907.749 189.04 907.349 188.76C906.959 188.47 906.709 188.11 906.599 187.68H906.524V192H904.304ZM907.979 187.38C908.399 187.38 908.744 187.23 909.014 186.93C909.294 186.63 909.434 186.235 909.434 185.745V184.38C909.434 183.88 909.294 183.485 909.014 183.195C908.744 182.895 908.399 182.745 907.979 182.745C907.699 182.745 907.449 182.79 907.229 182.88C907.009 182.97 906.834 183.105 906.704 183.285C906.584 183.455 906.524 183.66 906.524 183.9V186.225C906.524 186.465 906.584 186.675 906.704 186.855C906.834 187.025 907.009 187.155 907.229 187.245C907.449 187.335 907.699 187.38 907.979 187.38ZM913.43 192V181.125H915.65V182.445H915.725C915.835 182.005 916.085 181.645 916.475 181.365C916.875 181.085 917.33 180.945 917.84 180.945C918.51 180.945 919.065 181.105 919.505 181.425C919.955 181.735 920.295 182.195 920.525 182.805C920.755 183.415 920.87 184.165 920.87 185.055C920.87 185.945 920.755 186.7 920.525 187.32C920.295 187.93 919.955 188.395 919.505 188.715C919.065 189.025 918.51 189.18 917.84 189.18C917.33 189.18 916.875 189.04 916.475 188.76C916.085 188.47 915.835 188.11 915.725 187.68H915.65V192H913.43ZM917.105 187.38C917.525 187.38 917.87 187.23 918.14 186.93C918.42 186.63 918.56 186.235 918.56 185.745V184.38C918.56 183.88 918.42 183.485 918.14 183.195C917.87 182.895 917.525 182.745 917.105 182.745C916.825 182.745 916.575 182.79 916.355 182.88C916.135 182.97 915.96 183.105 915.83 183.285C915.71 183.455 915.65 183.66 915.65 183.9V186.225C915.65 186.465 915.71 186.675 915.83 186.855C915.96 187.025 916.135 187.155 916.355 187.245C916.575 187.335 916.825 187.38 917.105 187.38Z" fill="url(#paint0_linear_439_429)"/>
<defs>
<linearGradient id="paint0_linear_439_429" x1="962" y1="139.5" x2="893" y2="139.5" gradientUnits="userSpaceOnUse">
<stop stop-color="#E7B3FF"/>
<stop offset="0.168269" stop-color="#C188CE"/>
<stop offset="0.759615" stop-color="#58286A"/>
</linearGradient>
</defs>
</svg>
