<svg width="1280" height="535" viewBox="0 0 1280 535" fill="none" xmlns="http://www.w3.org/2000/svg">
<path d="M493.992 51V39.96H496.472V51H493.992ZM503.613 51V46.136C503.613 45.5707 503.474 45.144 503.197 44.856C502.93 44.5573 502.583 44.408 502.157 44.408C501.73 44.408 501.378 44.5573 501.101 44.856C500.834 45.144 500.701 45.5707 500.701 46.136H500.285C500.285 45.3147 500.402 44.6213 500.637 44.056C500.871 43.48 501.202 43.0427 501.629 42.744C502.066 42.4453 502.578 42.296 503.165 42.296C503.719 42.296 504.21 42.4293 504.637 42.696C505.063 42.9627 505.394 43.3467 505.629 43.848C505.874 44.3493 505.997 44.952 505.997 45.656V51H503.613ZM498.317 51V42.52H500.701V51H498.317ZM507.692 51V42.52H510.076V51H507.692ZM508.892 41.592C508.54 41.592 508.246 41.48 508.012 41.256C507.788 41.032 507.676 40.7387 507.676 40.376C507.676 40.0027 507.788 39.7147 508.012 39.512C508.246 39.2987 508.54 39.192 508.892 39.192C509.233 39.192 509.521 39.2987 509.756 39.512C509.99 39.7147 510.108 40.0027 510.108 40.376C510.108 40.7387 509.99 41.032 509.756 41.256C509.521 41.48 509.233 41.592 508.892 41.592ZM515.498 51.224C514.687 51.224 513.973 51.0373 513.354 50.664C512.735 50.2907 512.25 49.768 511.898 49.096C511.546 48.424 511.37 47.6453 511.37 46.76C511.37 45.864 511.546 45.0853 511.898 44.424C512.25 43.752 512.735 43.2293 513.354 42.856C513.973 42.4827 514.687 42.296 515.498 42.296C516.511 42.296 517.359 42.568 518.042 43.112C518.735 43.6453 519.183 44.3813 519.386 45.32L517.018 45.848C516.954 45.3787 516.789 45.0267 516.522 44.792C516.266 44.5467 515.925 44.424 515.498 44.424C514.997 44.424 514.591 44.6213 514.282 45.016C513.973 45.4107 513.818 45.992 513.818 46.76C513.818 47.528 513.973 48.1093 514.282 48.504C514.591 48.8987 514.997 49.096 515.498 49.096C515.925 49.096 516.277 48.9787 516.554 48.744C516.831 48.5093 517.007 48.1573 517.082 47.688L519.434 48.184C519.231 49.1227 518.778 49.864 518.074 50.408C517.37 50.952 516.511 51.224 515.498 51.224ZM520.661 51V42.52H523.045V51H520.661ZM521.861 41.592C521.509 41.592 521.215 41.48 520.981 41.256C520.757 41.032 520.645 40.7387 520.645 40.376C520.645 40.0027 520.757 39.7147 520.981 39.512C521.215 39.2987 521.509 39.192 521.861 39.192C522.202 39.192 522.49 39.2987 522.725 39.512C522.959 39.7147 523.077 40.0027 523.077 40.376C523.077 40.7387 522.959 41.032 522.725 41.256C522.49 41.48 522.202 41.592 521.861 41.592ZM528.499 51.224C527.688 51.224 526.968 51.0373 526.339 50.664C525.709 50.2907 525.219 49.7733 524.867 49.112C524.515 48.44 524.339 47.656 524.339 46.76C524.339 45.864 524.515 45.08 524.867 44.408C525.219 43.736 525.709 43.2187 526.339 42.856C526.968 42.4827 527.688 42.296 528.499 42.296C529.32 42.296 530.04 42.4827 530.659 42.856C531.288 43.2187 531.779 43.736 532.131 44.408C532.483 45.08 532.659 45.864 532.659 46.76C532.659 47.656 532.483 48.44 532.131 49.112C531.779 49.7733 531.288 50.2907 530.659 50.664C530.04 51.0373 529.32 51.224 528.499 51.224ZM528.499 49.096C529.032 49.096 529.448 48.904 529.747 48.52C530.056 48.1253 530.211 47.5387 530.211 46.76C530.211 45.9813 530.056 45.4 529.747 45.016C529.448 44.6213 529.032 44.424 528.499 44.424C527.965 44.424 527.544 44.6213 527.235 45.016C526.936 45.4 526.787 45.9813 526.787 46.76C526.787 47.5387 526.936 48.1253 527.235 48.52C527.544 48.904 527.965 49.096 528.499 49.096Z" fill="black"/>
<path d="M627.344 51L621.984 39.96H624.016L629.376 51H627.344ZM621.136 51V39.96H622.976V51H621.136ZM628.384 51V39.96H630.224V51H628.384ZM635.887 51.176C635.109 51.176 634.421 50.9947 633.823 50.632C633.226 50.2693 632.757 49.7573 632.415 49.096C632.085 48.424 631.919 47.6453 631.919 46.76C631.919 45.864 632.085 45.0853 632.415 44.424C632.757 43.7627 633.226 43.2507 633.823 42.888C634.421 42.5253 635.109 42.344 635.887 42.344C636.666 42.344 637.354 42.5253 637.951 42.888C638.549 43.2507 639.013 43.7627 639.343 44.424C639.685 45.0853 639.855 45.864 639.855 46.76C639.855 47.6453 639.685 48.424 639.343 49.096C639.013 49.7573 638.549 50.2693 637.951 50.632C637.354 50.9947 636.666 51.176 635.887 51.176ZM635.887 49.512C636.506 49.512 637.002 49.288 637.375 48.84C637.749 48.392 637.935 47.6987 637.935 46.76C637.935 45.8213 637.749 45.128 637.375 44.68C637.002 44.232 636.506 44.008 635.887 44.008C635.269 44.008 634.773 44.232 634.399 44.68C634.026 45.128 633.839 45.8213 633.839 46.76C633.839 47.6987 634.026 48.392 634.399 48.84C634.773 49.288 635.269 49.512 635.887 49.512ZM644.422 51.176C643.43 51.176 642.635 50.9787 642.038 50.584C641.441 50.1893 641.035 49.6027 640.822 48.824L642.566 48.28C642.726 48.7813 642.966 49.144 643.286 49.368C643.617 49.592 644.038 49.704 644.55 49.704C645.009 49.704 645.361 49.624 645.606 49.464C645.862 49.2933 645.99 49.064 645.99 48.776C645.99 48.4667 645.873 48.232 645.638 48.072C645.403 47.9013 645.099 47.7627 644.726 47.656C644.363 47.5387 643.974 47.4213 643.558 47.304C643.142 47.1867 642.747 47.0373 642.374 46.856C642.011 46.664 641.713 46.408 641.478 46.088C641.254 45.768 641.142 45.3467 641.142 44.824C641.142 44.12 641.419 43.5333 641.974 43.064C642.539 42.584 643.345 42.344 644.39 42.344C645.286 42.344 646.011 42.536 646.566 42.92C647.121 43.304 647.515 43.8587 647.75 44.584L646.054 45.144C645.894 44.6747 645.67 44.3387 645.382 44.136C645.094 43.9227 644.721 43.816 644.262 43.816C643.825 43.816 643.494 43.896 643.27 44.056C643.057 44.2053 642.95 44.3973 642.95 44.632C642.95 44.8987 643.067 45.1067 643.302 45.256C643.537 45.3947 643.841 45.5173 644.214 45.624C644.587 45.72 644.982 45.832 645.398 45.96C645.814 46.0773 646.209 46.2373 646.582 46.44C646.955 46.6427 647.259 46.92 647.494 47.272C647.729 47.6133 647.846 48.0613 647.846 48.616C647.846 49.352 647.547 49.9653 646.95 50.456C646.353 50.936 645.51 51.176 644.422 51.176ZM652.919 51.176C652.14 51.176 651.452 50.9947 650.855 50.632C650.257 50.2693 649.788 49.7573 649.447 49.096C649.116 48.424 648.951 47.6453 648.951 46.76C648.951 45.864 649.116 45.0853 649.447 44.424C649.788 43.7627 650.257 43.2507 650.855 42.888C651.452 42.5253 652.14 42.344 652.919 42.344C653.697 42.344 654.385 42.5253 654.983 42.888C655.58 43.2507 656.044 43.7627 656.375 44.424C656.716 45.0853 656.887 45.864 656.887 46.76C656.887 47.6453 656.716 48.424 656.375 49.096C656.044 49.7573 655.58 50.2693 654.983 50.632C654.385 50.9947 653.697 51.176 652.919 51.176ZM652.919 49.512C653.537 49.512 654.033 49.288 654.407 48.84C654.78 48.392 654.967 47.6987 654.967 46.76C654.967 45.8213 654.78 45.128 654.407 44.68C654.033 44.232 653.537 44.008 652.919 44.008C652.3 44.008 651.804 44.232 651.431 44.68C651.057 45.128 650.871 45.8213 650.871 46.76C650.871 47.6987 651.057 48.392 651.431 48.84C651.804 49.288 652.3 49.512 652.919 49.512ZM661.517 51.176C660.653 51.176 659.976 50.9413 659.485 50.472C658.994 50.0027 658.749 49.2987 658.749 48.36V40.76L660.621 40.392V48.072C660.621 48.5413 660.733 48.888 660.957 49.112C661.192 49.336 661.528 49.448 661.965 49.448C662.168 49.448 662.36 49.432 662.541 49.4C662.722 49.368 662.898 49.3307 663.069 49.288V51C662.845 51.064 662.61 51.1067 662.365 51.128C662.12 51.16 661.837 51.176 661.517 51.176ZM657.597 44.104V42.52H662.989V44.104H657.597ZM664.382 51V42.52H666.238V51H664.382ZM665.806 46.76C665.806 45.8533 665.924 45.0747 666.158 44.424C666.404 43.7627 666.75 43.2507 667.198 42.888C667.657 42.5253 668.217 42.344 668.878 42.344V44.44H668.158C667.572 44.44 667.102 44.5947 666.75 44.904C666.409 45.2027 666.238 45.7147 666.238 46.44L665.806 46.76ZM673.669 51.176C672.89 51.176 672.202 50.9947 671.605 50.632C671.007 50.2693 670.538 49.7573 670.197 49.096C669.866 48.424 669.701 47.6453 669.701 46.76C669.701 45.864 669.866 45.0853 670.197 44.424C670.538 43.7627 671.007 43.2507 671.605 42.888C672.202 42.5253 672.89 42.344 673.669 42.344C674.447 42.344 675.135 42.5253 675.733 42.888C676.33 43.2507 676.794 43.7627 677.125 44.424C677.466 45.0853 677.637 45.864 677.637 46.76C677.637 47.6453 677.466 48.424 677.125 49.096C676.794 49.7573 676.33 50.2693 675.733 50.632C675.135 50.9947 674.447 51.176 673.669 51.176ZM673.669 49.512C674.287 49.512 674.783 49.288 675.157 48.84C675.53 48.392 675.717 47.6987 675.717 46.76C675.717 45.8213 675.53 45.128 675.157 44.68C674.783 44.232 674.287 44.008 673.669 44.008C673.05 44.008 672.554 44.232 672.181 44.68C671.807 45.128 671.621 45.8213 671.621 46.76C671.621 47.6987 671.807 48.392 672.181 48.84C672.554 49.288 673.05 49.512 673.669 49.512ZM682.203 51.176C681.211 51.176 680.416 50.9787 679.819 50.584C679.222 50.1893 678.816 49.6027 678.603 48.824L680.347 48.28C680.507 48.7813 680.747 49.144 681.067 49.368C681.398 49.592 681.819 49.704 682.331 49.704C682.79 49.704 683.142 49.624 683.387 49.464C683.643 49.2933 683.771 49.064 683.771 48.776C683.771 48.4667 683.654 48.232 683.419 48.072C683.184 47.9013 682.88 47.7627 682.507 47.656C682.144 47.5387 681.755 47.4213 681.339 47.304C680.923 47.1867 680.528 47.0373 680.155 46.856C679.792 46.664 679.494 46.408 679.259 46.088C679.035 45.768 678.923 45.3467 678.923 44.824C678.923 44.12 679.2 43.5333 679.755 43.064C680.32 42.584 681.126 42.344 682.171 42.344C683.067 42.344 683.792 42.536 684.347 42.92C684.902 43.304 685.296 43.8587 685.531 44.584L683.835 45.144C683.675 44.6747 683.451 44.3387 683.163 44.136C682.875 43.9227 682.502 43.816 682.043 43.816C681.606 43.816 681.275 43.896 681.051 44.056C680.838 44.2053 680.731 44.3973 680.731 44.632C680.731 44.8987 680.848 45.1067 681.083 45.256C681.318 45.3947 681.622 45.5173 681.995 45.624C682.368 45.72 682.763 45.832 683.179 45.96C683.595 46.0773 683.99 46.2373 684.363 46.44C684.736 46.6427 685.04 46.92 685.275 47.272C685.51 47.6133 685.627 48.0613 685.627 48.616C685.627 49.352 685.328 49.9653 684.731 50.456C684.134 50.936 683.291 51.176 682.203 51.176Z" fill="black"/>
<path d="M764.136 51V39.96H766.072V51H764.136ZM765.032 46.552V44.792H771.096V46.552H765.032ZM765.032 41.752V39.96H771.736V41.752H765.032ZM775.95 51.176C775.107 51.176 774.414 50.8827 773.87 50.296C773.336 49.6987 773.07 48.8827 773.07 47.848V42.52H774.926V47.432C774.926 48.1253 775.096 48.6533 775.438 49.016C775.779 49.368 776.2 49.544 776.702 49.544C777.192 49.544 777.608 49.368 777.95 49.016C778.291 48.6533 778.462 48.1253 778.462 47.432H778.958C778.958 48.2107 778.83 48.8827 778.574 49.448C778.318 50.0027 777.96 50.4293 777.502 50.728C777.054 51.0267 776.536 51.176 775.95 51.176ZM778.462 51V42.52H780.318V51H778.462ZM787.713 51V46.088C787.713 45.3947 787.537 44.872 787.185 44.52C786.844 44.1573 786.422 43.976 785.921 43.976C785.42 43.976 784.993 44.1573 784.641 44.52C784.3 44.872 784.129 45.3947 784.129 46.088H783.649C783.649 45.3093 783.777 44.6427 784.033 44.088C784.289 43.5227 784.646 43.0907 785.105 42.792C785.564 42.4933 786.081 42.344 786.657 42.344C787.233 42.344 787.74 42.4773 788.177 42.744C788.614 43.0107 788.956 43.3947 789.201 43.896C789.446 44.3973 789.569 44.9893 789.569 45.672V51H787.713ZM782.273 51V42.52H784.129V51H782.273ZM795.027 51.176C794.248 51.176 793.566 50.9947 792.979 50.632C792.392 50.2693 791.934 49.7573 791.603 49.096C791.272 48.424 791.107 47.6453 791.107 46.76C791.107 45.864 791.272 45.0853 791.603 44.424C791.934 43.7627 792.392 43.2507 792.979 42.888C793.566 42.5253 794.248 42.344 795.027 42.344C795.902 42.344 796.648 42.5733 797.267 43.032C797.896 43.4907 798.323 44.152 798.547 45.016L796.755 45.512C796.627 44.9893 796.414 44.6107 796.115 44.376C795.827 44.1307 795.448 44.008 794.979 44.008C794.392 44.008 793.918 44.232 793.555 44.68C793.203 45.128 793.027 45.8213 793.027 46.76C793.027 47.6987 793.203 48.392 793.555 48.84C793.918 49.288 794.392 49.512 794.979 49.512C795.448 49.512 795.827 49.3947 796.115 49.16C796.414 48.9147 796.627 48.5253 796.755 47.992L798.563 48.472C798.339 49.3467 797.912 50.0187 797.283 50.488C796.654 50.9467 795.902 51.176 795.027 51.176ZM800.039 51V42.52H801.895V51H800.039ZM800.967 41.448C800.668 41.448 800.412 41.352 800.199 41.16C799.996 40.9573 799.895 40.7013 799.895 40.392C799.895 40.0613 799.996 39.8053 800.199 39.624C800.412 39.432 800.668 39.336 800.967 39.336C801.265 39.336 801.516 39.432 801.719 39.624C801.932 39.8053 802.039 40.0613 802.039 40.392C802.039 40.7013 801.932 40.9573 801.719 41.16C801.516 41.352 801.265 41.448 800.967 41.448ZM807.403 51.176C806.624 51.176 805.936 50.9947 805.339 50.632C804.742 50.2693 804.272 49.7573 803.931 49.096C803.6 48.424 803.435 47.6453 803.435 46.76C803.435 45.864 803.6 45.0853 803.931 44.424C804.272 43.7627 804.742 43.2507 805.339 42.888C805.936 42.5253 806.624 42.344 807.403 42.344C808.182 42.344 808.87 42.5253 809.467 42.888C810.064 43.2507 810.528 43.7627 810.859 44.424C811.2 45.0853 811.371 45.864 811.371 46.76C811.371 47.6453 811.2 48.424 810.859 49.096C810.528 49.7573 810.064 50.2693 809.467 50.632C808.87 50.9947 808.182 51.176 807.403 51.176ZM807.403 49.512C808.022 49.512 808.518 49.288 808.891 48.84C809.264 48.392 809.451 47.6987 809.451 46.76C809.451 45.8213 809.264 45.128 808.891 44.68C808.518 44.232 808.022 44.008 807.403 44.008C806.784 44.008 806.288 44.232 805.915 44.68C805.542 45.128 805.355 45.8213 805.355 46.76C805.355 47.6987 805.542 48.392 805.915 48.84C806.288 49.288 806.784 49.512 807.403 49.512ZM808.075 41.64H806.555L807.739 39.368H809.915L808.075 41.64ZM818.354 51V46.088C818.354 45.3947 818.178 44.872 817.826 44.52C817.484 44.1573 817.063 43.976 816.562 43.976C816.06 43.976 815.634 44.1573 815.282 44.52C814.94 44.872 814.77 45.3947 814.77 46.088H814.289C814.289 45.3093 814.418 44.6427 814.674 44.088C814.93 43.5227 815.287 43.0907 815.746 42.792C816.204 42.4933 816.722 42.344 817.298 42.344C817.874 42.344 818.38 42.4773 818.818 42.744C819.255 43.0107 819.596 43.3947 819.842 43.896C820.087 44.3973 820.21 44.9893 820.21 45.672V51H818.354ZM812.914 51V42.52H814.77V51H812.914Z" fill="black"/>
<path d="M901.584 51.176C900.613 51.176 899.755 50.9467 899.008 50.488C898.272 50.0187 897.696 49.3573 897.28 48.504C896.864 47.6507 896.656 46.6427 896.656 45.48C896.656 44.3067 896.864 43.2933 897.28 42.44C897.696 41.5867 898.272 40.9307 899.008 40.472C899.755 40.0133 900.608 39.784 901.568 39.784C902.357 39.784 903.061 39.9227 903.68 40.2C904.309 40.4773 904.837 40.8827 905.264 41.416C905.691 41.9493 905.989 42.6 906.16 43.368L904.224 43.88C904.085 43.1333 903.781 42.568 903.312 42.184C902.853 41.7893 902.261 41.592 901.536 41.592C900.672 41.592 899.979 41.928 899.456 42.6C898.933 43.272 898.672 44.232 898.672 45.48C898.672 46.7173 898.933 47.6773 899.456 48.36C899.979 49.032 900.677 49.368 901.552 49.368C902.299 49.368 902.896 49.1707 903.344 48.776C903.803 48.3813 904.117 47.8053 904.288 47.048L906.208 47.56C906.027 48.328 905.717 48.984 905.28 49.528C904.853 50.072 904.325 50.4827 903.696 50.76C903.067 51.0373 902.363 51.176 901.584 51.176ZM912.798 51C912.734 50.7227 912.68 50.44 912.638 50.152C912.606 49.864 912.59 49.5813 912.59 49.304V45.72C912.59 45.0693 912.424 44.6053 912.094 44.328C911.774 44.0507 911.39 43.912 910.942 43.912C910.526 43.912 910.168 44.0293 909.87 44.264C909.582 44.4987 909.374 44.856 909.246 45.336L907.486 44.84C907.71 44.0187 908.136 43.4 908.766 42.984C909.406 42.5573 910.168 42.344 911.054 42.344C912.12 42.344 912.952 42.6267 913.55 43.192C914.147 43.7573 914.446 44.536 914.446 45.528V49.112C914.446 49.7413 914.526 50.3707 914.686 51H912.798ZM909.806 51.176C909.038 51.176 908.43 50.9627 907.982 50.536C907.544 50.1093 907.326 49.56 907.326 48.888C907.326 48.248 907.539 47.6933 907.966 47.224C908.403 46.7547 909.07 46.44 909.966 46.28L913.038 45.768V47.096L910.606 47.592C910.094 47.688 909.731 47.8373 909.518 48.04C909.304 48.2427 909.198 48.4773 909.198 48.744C909.198 48.968 909.288 49.176 909.47 49.368C909.651 49.5493 909.934 49.64 910.318 49.64C910.68 49.64 911.032 49.5547 911.374 49.384C911.726 49.2133 912.014 48.968 912.238 48.648C912.472 48.3173 912.59 47.9227 912.59 47.464H913.118C913.118 48.2213 912.968 48.8827 912.67 49.448C912.371 50.0027 911.971 50.4293 911.47 50.728C910.968 51.0267 910.414 51.176 909.806 51.176ZM915.502 53.992C915.257 53.992 915.033 53.976 914.83 53.944C914.617 53.912 914.414 53.864 914.222 53.8V52.104C914.371 52.1573 914.526 52.2 914.686 52.232C914.846 52.2747 915.001 52.296 915.15 52.296C915.577 52.296 915.891 52.1947 916.094 51.992C916.297 51.7893 916.398 51.4693 916.398 51.032V42.52H918.254V51.08C918.254 52.0293 918.014 52.7493 917.534 53.24C917.065 53.7413 916.387 53.992 915.502 53.992ZM917.326 41.448C917.027 41.448 916.771 41.352 916.558 41.16C916.355 40.9573 916.254 40.7013 916.254 40.392C916.254 40.0613 916.355 39.8053 916.558 39.624C916.771 39.432 917.027 39.336 917.326 39.336C917.625 39.336 917.875 39.432 918.078 39.624C918.291 39.8053 918.398 40.0613 918.398 40.392C918.398 40.7013 918.291 40.9573 918.078 41.16C917.875 41.352 917.625 41.448 917.326 41.448ZM925.266 51C925.202 50.7227 925.149 50.44 925.106 50.152C925.074 49.864 925.058 49.5813 925.058 49.304V45.72C925.058 45.0693 924.893 44.6053 924.562 44.328C924.242 44.0507 923.858 43.912 923.41 43.912C922.994 43.912 922.637 44.0293 922.338 44.264C922.05 44.4987 921.842 44.856 921.714 45.336L919.954 44.84C920.178 44.0187 920.605 43.4 921.234 42.984C921.874 42.5573 922.637 42.344 923.522 42.344C924.589 42.344 925.421 42.6267 926.018 43.192C926.616 43.7573 926.914 44.536 926.914 45.528V49.112C926.914 49.7413 926.994 50.3707 927.154 51H925.266ZM922.274 51.176C921.506 51.176 920.898 50.9627 920.45 50.536C920.013 50.1093 919.794 49.56 919.794 48.888C919.794 48.248 920.008 47.6933 920.434 47.224C920.872 46.7547 921.538 46.44 922.434 46.28L925.506 45.768V47.096L923.074 47.592C922.562 47.688 922.2 47.8373 921.986 48.04C921.773 48.2427 921.666 48.4773 921.666 48.744C921.666 48.968 921.757 49.176 921.938 49.368C922.12 49.5493 922.402 49.64 922.786 49.64C923.149 49.64 923.501 49.5547 923.842 49.384C924.194 49.2133 924.482 48.968 924.706 48.648C924.941 48.3173 925.058 47.9227 925.058 47.464H925.586C925.586 48.2213 925.437 48.8827 925.138 49.448C924.84 50.0027 924.44 50.4293 923.938 50.728C923.437 51.0267 922.882 51.176 922.274 51.176Z" fill="black"/>
<path d="M1018.42 51L1014.83 39.96H1016.75L1020.48 51H1018.42ZM1010.16 51L1013.89 39.96H1015.66L1012.18 51H1010.16ZM1012.37 48.12V46.36H1018.26V48.12H1012.37ZM1025.97 51.176C1025.09 51.176 1024.38 50.8507 1023.84 50.2C1023.31 49.5493 1023.04 48.6267 1023.04 47.432V46.088C1023.04 44.8933 1023.31 43.9707 1023.84 43.32C1024.38 42.6693 1025.09 42.344 1025.97 42.344C1026.63 42.344 1027.21 42.52 1027.71 42.872C1028.21 43.224 1028.6 43.7307 1028.88 44.392C1029.16 45.0427 1029.3 45.832 1029.3 46.76C1029.3 47.6773 1029.16 48.4667 1028.88 49.128C1028.6 49.7893 1028.21 50.296 1027.71 50.648C1027.21 51 1026.63 51.176 1025.97 51.176ZM1021.62 53.8V42.52H1023.47V44.568L1023.22 46.76L1023.47 48.92V53.8H1021.62ZM1025.38 49.528C1025.97 49.528 1026.45 49.304 1026.82 48.856C1027.19 48.408 1027.38 47.7093 1027.38 46.76C1027.38 45.8107 1027.19 45.112 1026.82 44.664C1026.45 44.216 1025.97 43.992 1025.38 43.992C1024.78 43.992 1024.29 44.216 1023.92 44.664C1023.56 45.112 1023.38 45.8107 1023.38 46.76C1023.38 47.7093 1023.56 48.408 1023.92 48.856C1024.29 49.304 1024.78 49.528 1025.38 49.528ZM1035.2 51.176C1034.33 51.176 1033.62 50.8507 1033.08 50.2C1032.54 49.5493 1032.28 48.6267 1032.28 47.432V46.088C1032.28 44.8933 1032.54 43.9707 1033.08 43.32C1033.62 42.6693 1034.33 42.344 1035.2 42.344C1035.86 42.344 1036.45 42.52 1036.95 42.872C1037.45 43.224 1037.84 43.7307 1038.12 44.392C1038.39 45.0427 1038.53 45.832 1038.53 46.76C1038.53 47.6773 1038.39 48.4667 1038.12 49.128C1037.84 49.7893 1037.45 50.296 1036.95 50.648C1036.45 51 1035.86 51.176 1035.2 51.176ZM1030.85 53.8V42.52H1032.71V44.568L1032.45 46.76L1032.71 48.92V53.8H1030.85ZM1034.61 49.528C1035.21 49.528 1035.69 49.304 1036.05 48.856C1036.42 48.408 1036.61 47.7093 1036.61 46.76C1036.61 45.8107 1036.42 45.112 1036.05 44.664C1035.69 44.216 1035.21 43.992 1034.61 43.992C1034.01 43.992 1033.53 44.216 1033.16 44.664C1032.79 45.112 1032.61 45.8107 1032.61 46.76C1032.61 47.7093 1032.79 48.408 1033.16 48.856C1033.53 49.304 1034.01 49.528 1034.61 49.528Z" fill="black"/>
</svg>
